<?xml version="1.0" standalone="no"?>
<!DOCTYPE svg PUBLIC "-//W3C//DTD SVG 1.1//EN" "http://www.w3.org/Graphics/SVG/1.1/DTD/svg11.dtd" >
<svg xmlns="http://www.w3.org/2000/svg">
<metadata>
This is a custom SVG webfont generated by Font Squirrel.
Copyright   : Loveless
</metadata>
<defs>
<font id="BallprkRegular" horiz-adv-x="362" >
<font-face units-per-em="2048" ascent="1637" descent="-411" />
<missing-glyph horiz-adv-x="464" />
<glyph unicode=" "  horiz-adv-x="464" />
<glyph unicode="&#x09;" horiz-adv-x="464" />
<glyph unicode="&#xa0;" horiz-adv-x="464" />
<glyph unicode="!" horiz-adv-x="468" d="M-7 123q0 58 40 115q61 91 153 91q35 0 70 -20q46 -30 47 -93q0 -71 -50 -144q-48 -72 -132 -72q-59 0 -93.5 36.5t-34.5 86.5zM238 472q0 123 136 427q138 307 330 329q15 2 28 3t24 1q76 0 77 -44q0 -22 -21 -67q-71 -139 -215 -366q-164 -260 -242 -328 q-48 -41 -86 -31q-31 9 -31 76z" />
<glyph unicode="&#x22;" horiz-adv-x="735" d="M0 955q0 19 13 26l91 56q33 22 34 52q0 20 -28 63q-26 43 -26 84q0 33 11 65.5t33.5 58.5t53 42t69.5 16q61 0 104 -39q33 -32 33 -89q0 -97 -78 -203q-54 -72 -145 -126q-76 -45 -120 -45q-45 0 -45 39zM346 955q0 19 13 26l91 56q33 22 33 52q0 20 -28 63 q-26 43 -26 84q0 33 11.5 65.5t33.5 58.5t53 42t70 16q61 0 104 -39q33 -32 33 -89q0 -97 -78 -203q-54 -72 -145 -126q-76 -45 -121 -45q-44 0 -44 39z" />
<glyph unicode="&#x26;" horiz-adv-x="1471" d="M2 286q0 240 351 478q0 -2 -1 10l-3 36q-20 236 145 385q136 123 294 124q93 0 152 -66q46 -52 47 -114q0 -95 -91 -169q-52 -43 -111.5 -83t-128.5 -80q43 -145 123 -283q72 -126 147 -208q102 115 102 214q0 39 -23 70q-43 59 -83 60q-7 0 -24 -4t-26 -4q-56 0 -56 37 q0 19 13 38q28 41 46.5 65t27.5 33q58 48 147 41q307 -24 387 0q97 30 120 48q13 13 32 13q32 0 32 -44q0 -6 -1 -12.5t-3 -15.5q-11 -61 -84 -128q-30 -30 -59.5 -49.5t-59.5 -32.5q-28 -13 -76 -13q-50 0 -123 18q-43 11 -98 12q45 -59 39 -183q-2 -84 -136 -247 q61 -48 136 -50q80 -4 184 56q91 52 139 115q33 43 71 43q28 0 28 -28q0 -19 -21 -48q-32 -46 -111.5 -120t-207.5 -178q-115 -93 -238 -93q-117 0 -227 82q-171 -112 -346 -111q-425 -1 -425 386zM290 426q0 -113 85 -210t196 -97q45 0 83 13q-208 253 -273 498 q-91 -91 -91 -204zM615 1026q0 -22 3 -46.5t6 -50.5q151 102 151 201q0 69 -35 74q-54 2 -97 -57q-28 -43 -28 -121z" />
<glyph unicode="'" horiz-adv-x="406" d="M0 955q0 19 13 26l91 56q33 22 34 52q0 20 -28 63q-26 43 -26 84q0 33 11 65.5t33.5 58.5t53 42t69.5 16q61 0 104 -39q33 -32 33 -89q0 -97 -78 -203q-54 -72 -145 -126q-76 -45 -120 -45q-45 0 -45 39z" />
<glyph unicode="," d="M-89 -134q0 20 13 28l91 56q33 22 33 52q0 20 -28 63q-26 43 -26 84q0 33 11.5 65.5t33.5 58.5t53 42t70 16q61 0 104 -39q33 -32 33 -89q0 -97 -78 -203q-54 -72 -145 -126q-76 -45 -121 -45q-44 0 -44 37z" />
<glyph unicode="-" horiz-adv-x="572" d="M128 563q0 30 23 67q30 50 81 50h339q72 0 72 -78q0 -32 -28 -67q-33 -43 -78 -43h-338q-71 0 -71 71z" />
<glyph unicode="." horiz-adv-x="384" d="M2 106q0 54 39 119q52 85 143 85q61 0 98 -44q30 -35 30 -88q0 -56 -50 -119q-59 -76 -136 -76q-124 0 -124 123z" />
<glyph unicode="0" horiz-adv-x="925" d="M-4 301q0 180 134 446q102 204 273 331q158 117 312 117q43 0 86 -11q206 -61 206 -283q0 -158 -106 -399q-80 -182 -252 -338q-193 -171 -363 -171q-69 0 -132 31q-158 80 -158 277zM258 229q0 -115 86 -116q84 0 206 155q52 65 95.5 135.5t81.5 148.5q141 295 141 407 q0 82 -56 113q-19 13 -44 13q-126 0 -357 -423q-153 -277 -153 -433z" />
<glyph unicode="1" horiz-adv-x="406" d="M0 701q0 2 6.5 22t21.5 61q9 26 26.5 44t38.5 31q26 4 99.5 28t192.5 78q100 45 169 98.5t111 111.5q13 17 49 18q80 4 80 -59q0 -35 -38 -88q-19 -24 -47.5 -77t-69.5 -136q-32 -69 -65 -136t-65 -134q-20 -41 -45 -103t-57 -151q-28 -78 -44.5 -122t-24.5 -53 q-41 -54 -154 -102q-56 -24 -104 -25q-67 0 -67 47q0 58 151 379q63 139 195 351q-15 -9 -51.5 -26.5t-90.5 -43.5q-110 -50 -163 -51q-54 1 -54 38z" />
<glyph unicode="2" horiz-adv-x="997" d="M-76 61q0 39 85 136q39 45 301 225q171 119 340 347q52 71 52 157q0 61 -26 98q-19 30 -65 30q-65 0 -115 -50q-30 -30 -54 -114q-24 -91 -37 -106q-11 -15 -27.5 -28.5t-33.5 -23t-33 -15t-27 -3.5q-52 11 -52 78q0 20 8 37q54 145 206 266q52 41 152 78q112 41 209 41 q132 0 189 -80q65 -91 65 -175q0 -128 -154 -271q-126 -119 -416 -290q4 -26 13 -43q24 -50 102 -78q17 -7 39 -8q61 0 167 84q32 22 60 9q32 -15 14 -59q-13 -32 -105 -141q-113 -128 -231 -155q-30 -7 -74 -7q-108 0 -151 37q-121 106 -187 106q-26 0 -73 -46l-45 -58 q-28 -37 -46 -37q-19 0 -34.5 18.5t-15.5 40.5z" />
<glyph unicode="3" horiz-adv-x="942" d="M2 232q0 113 89 218q26 26 52 50l52 48q33 33 76 10q28 -17 -5 -51q-17 -17 -80 -68q-17 -13 -32 -35.5t-27 -48.5t-19.5 -54t-7.5 -52q0 -41 21 -61q48 -48 108 -49q139 0 241 203q46 87 47 162q0 95 -51 100q-76 11 -85 54q-4 28 26 41q20 11 149 50q175 56 200 255 q6 43 -25.5 66t-76.5 23q-37 0 -63 -13q-41 -17 -54 -86q-19 -80 -26 -91q-41 -58 -89 -57q-20 0 -41 7q-37 15 -37 58q0 82 102 178q102 97 322 136q9 2 16.5 2.5t16.5 0.5q89 0 165 -63q80 -63 97 -161q24 -138 -242 -331q46 -74 47 -179q0 -130 -82 -262 q-76 -123 -247 -187q-130 -48 -234 -49q-269 0 -299 192q-2 11 -3 22t-1 22z" />
<glyph unicode="4" horiz-adv-x="925" d="M-2 455q0 108 193 339q193 229 556 381q102 43 165 42q15 0 27.5 -2.5t21.5 -6.5l22 -7q22 0 22 -38q0 -20 -13 -33q-15 -24 -40.5 -63t-68.5 -93q-54 -69 -104 -163t-93 -218q115 17 141 35q48 32 67 32q35 0 35 -34q0 -13 -22 -54q-43 -78 -104 -119q-26 -15 -164 -14 q-9 -39 -15.5 -76.5t-10.5 -74.5q-4 -63 -11 -82q-20 -56 -106 -134q-45 -39 -100 -39q-87 0 -87 95q0 59 31 190q13 59 39 119q-20 -4 -60 -11.5t-103 -20.5q-87 -19 -132 -18q-86 -1 -86 68zM281 615q0 -19 5 -31q19 -46 141 -34q26 63 58 121.5t67 116.5q89 145 89 175 q0 35 -28 35q-33 0 -197 -169q-135 -142 -135 -214z" />
<glyph unicode="5" horiz-adv-x="908" d="M-2 262q0 84 34 143q39 71 117 71q106 0 106 -115q0 -104 -82 -114q-4 -11 -4 -22q0 -59 69 -84q11 -4 18 -3q61 0 147 113q71 91 89 147q41 128 41 197q0 74 -41 98q-32 17 -55 17q-15 0 -32 -4.5t-31 -19.5l-41 -37q-50 -46 -90 -26q-30 15 -20 79q11 110 74 222 q85 158 127 215q28 39 39 47q30 20 85 29q35 4 82 -18q46 -22 99 -22q19 0 38 2.5t41 6.5q15 4 33 10.5t38 15.5q33 17 41 15q20 -9 20 -37q0 -30 -16 -88q-37 -132 -210 -156q-56 -9 -195 56q-24 -13 -41 -34q-43 -48 -51 -102q160 13 236 -20q69 -32 127 -101 q74 -85 74 -178q0 -24 -5 -46q-72 -320 -331 -473q-87 -52 -212 -52q-165 0 -249 88q-69 68 -69 180z" />
<glyph unicode="6" horiz-adv-x="853" d="M2 361q0 214 95 369q208 346 500 452q82 30 158 30q112 0 182 -62q63 -56 55 -113q-9 -65 -42 -104q-39 -46 -101 -47q-7 0 -14.5 1t-16.5 3q-65 15 -65 78q0 37 22 64t58 24q-24 35 -67 35q-61 0 -164 -84q-139 -113 -191 -275q76 46 169 47q84 0 143 -43 q113 -84 113 -232q0 -69 -28 -125q-193 -388 -473 -388q-46 0 -84 7q-249 45 -249 363zM256 256q0 -95 75 -107q56 -9 115 76q50 71 71 136q30 89 29 150q0 93 -74 99q-110 11 -165 -142q-51 -138 -51 -212z" />
<glyph unicode="7" horiz-adv-x="507" d="M-2 138q0 190 229 483q48 63 110.5 130t136.5 141q-4 0 -15 5.5t-17 5.5q-76 35 -128 39h-87q-39 0 -63 -18l-28 -32q-46 -52 -80 -39q-33 11 -34 50q0 54 63 145q95 136 196 136q41 0 172 -43q132 -43 160 -43q54 0 85 16t75 59q46 0 47 -47q0 -61 -138 -178 q-84 -71 -171 -206q-89 -132 -134 -255q-13 -35 -20.5 -75t-8.5 -85q-4 -97 -12 -121q-17 -56 -120 -141q-85 -69 -140 -69q-28 0 -41 19q-37 52 -37 123z" />
<glyph unicode="8" horiz-adv-x="797" d="M-15 279q0 46 15 102q39 147 323 281q-48 123 -48 223q0 219 221 284q97 28 175 28q128 0 193 -73q52 -59 52 -146q0 -35 -7 -60q-28 -98 -268 -212q108 -177 121 -340q7 -112 -100 -234q-132 -152 -340 -138q-337 23 -337 285zM180 316q0 -177 142 -195q9 -2 16 -2h17 q123 0 123 137q0 67 -116 318q-98 -48 -135 -93q-47 -57 -47 -165zM537 955q0 -84 54 -171q125 74 156 138q22 41 22 85q0 80 -81 95q-9 2 -26 2q-56 0 -90.5 -41t-34.5 -108z" />
<glyph unicode="9" horiz-adv-x="886" d="M-2 208q0 32 10.5 61.5t28 54t42.5 38t55 13.5q9 0 18.5 -0.5t18.5 -2.5q22 -4 40 -15t30 -27t16.5 -33.5t-1.5 -30.5q-19 -58 -50 -80q-6 -4 -5 -11q0 -13 19.5 -30t39.5 -20q119 -15 232 176q52 87 81 139t38 71q-80 -69 -193 -69q-106 0 -175 62q-78 72 -72 187 q6 197 162 353q158 154 353 155q84 0 156 -30q188 -72 188 -353q0 -225 -118 -376q-143 -184 -263 -282q-203 -160 -413 -160h-28q-13 0 -28 2q-78 7 -130 69q-52 63 -52 139zM466 684q0 -100 80 -102q84 -4 127 76q20 37 54 163q37 145 37 164q0 52 -56 78q-13 7 -30 7 q-93 0 -171 -208q-41 -104 -41 -178z" />
<glyph unicode=":" d="M-6 121q0 54 39 119q52 85 144 85q61 0 98 -44q30 -35 30 -88q0 -56 -50 -119q-59 -76 -136 -76q-125 0 -125 123zM204 682q0 58 41 121q52 85 143 85q61 0 99 -44q30 -37 30 -89q0 -56 -51 -119q-59 -76 -135 -77q-127 0 -127 123z" />
<glyph unicode=";" d="M-89 -134q0 20 13 28l91 56q33 22 33 52q0 20 -28 63q-26 43 -26 84q0 33 11.5 65.5t33.5 58.5t53 42t70 16q61 0 104 -39q33 -32 33 -89q0 -97 -78 -203q-54 -72 -145 -126q-76 -45 -121 -45q-44 0 -44 37zM195 682q0 56 39 121q52 85 145 85q61 0 99 -44q28 -37 27 -89 q0 -56 -50 -119q-59 -76 -133 -77q-127 0 -127 123z" />
<glyph unicode="?" horiz-adv-x="468" d="M-2 123q0 56 41 115q61 91 152 91q35 0 71 -20q46 -28 47 -92q0 -71 -51 -145q-50 -72 -132 -72q-59 0 -93.5 36.5t-34.5 86.5zM132 952q0 95 85 180q113 117 322 117q134 0 212 -97q61 -78 61 -169q0 -72 -68.5 -145.5t-191.5 -125.5q-110 -48 -152 -80 q-37 -28 -41 -58.5t-10 -60.5q-9 -48 -47 -82.5t-73 -34.5q-67 0 -67 70q0 95 141 242q71 74 110.5 117t49.5 52q65 85 65 167q0 46 -32 75q-28 22 -61 22q-32 0 -67 -26q-39 -32 -39 -71q0 -52 35 -89q13 -13 13 -39q0 -41 -28 -59q-52 -35 -94 -36q-50 0 -86.5 36 t-36.5 95z" />
<glyph unicode="A" horiz-adv-x="1700" d="M0 281q0 147 82 223q67 58 160 61h5q58 0 100 -40q44 -42 43 -103q0 -63 -43.5 -109.5t-104.5 -46.5q-11 -24 -10 -54q4 -39 24 -58q37 -35 106 -35q87 0 155 56q74 61 208 243q-243 115 -244 288q0 245 227 316q35 11 80 11q158 0 290 -100q214 269 492 400 q178 82 335 81q121 0 162 -41q32 -32 31 -57q0 -9 -3.5 -21.5t-3.5 -15.5q0 -13 -45 -77q-30 -43 -105 -179.5t-200 -372.5q-30 -56 -74.5 -145t-103.5 -213q-78 -164 -104 -192q-46 -56 -154 -100q-28 -13 -90 -13q-63 4 -76 22q-20 32 -20 43q0 33 33 110q0 17 6 76 q6 58 5 97q0 245 -42 367q-28 -43 -129 -239l62 -6q41 -7 41 -31q0 -20 -43 -41q-50 -22 -115 -23l-4 -7q-102 -206 -294 -310q-138 -72 -269 -73h-19q-9 0 -18 2q-112 17 -205 78q-128 86 -128 229zM584 729q0 -110 74 -158l57 -38q20 -13 39 -19.5t38 -9.5l228 343 q-119 97 -245 97q-85 0 -132 -58q-59 -75 -59 -157zM1182 794q78 -175 95 -394q74 134 154 265.5t169 265.5q50 78 97.5 145t92.5 126q35 46 35 73q0 28 -41 28q-19 0 -59 -10q-160 -43 -311 -211q-134 -150 -232 -288z" />
<glyph unicode="B" horiz-adv-x="1728" d="M-6 320q0 147 116 228q46 33 100 34q59 0 101 -40t42 -96q0 -71 -52 -104q-95 -61 -95 -115q0 -22 17 -47q28 -43 95 -42q50 0 109 31q106 58 190 169q52 72 162 270q65 119 125.5 217.5t113.5 181.5q141 217 275 346q-54 11 -105 11q-126 0 -244 -52q-188 -80 -271 -175 q-76 -84 -101 -206q-6 -28 -5 -54q0 -121 111 -150q59 -17 60 -56q0 -54 -54 -74q-15 -6 -34 -6q-74 0 -128 71q-59 82 -59 184q0 58 35 191q35 130 219 269q225 167 487 168q59 0 113.5 -4t102.5 -11q136 74 165 84q41 12 65 11q18 0 26 -6q11 -9 11 -19q0 -22 -52 -55 q-9 -7 -28.5 -18.5t-45.5 -30.5q126 -46 219 -178q35 -48 36 -136q0 -125 -54 -195q-35 -43 -79 -79t-98 -62q63 -61 86 -113q26 -61 26 -132q0 -119 -71 -275q-50 -113 -180 -188q-130 -74 -260 -74q-98 0 -162 46q-121 87 -145 193q-141 -175 -292 -230q-78 -30 -204 -30 q-85 0 -175 37q-93 41 -141 106q-73 101 -73 205zM978 299q0 -43 26 -69q58 -56 122 -55q71 0 149 80q39 41 78 122q46 100 46 194q0 9 -0.5 20t-2.5 20q-15 93 -58 116l-84 15q-52 0 -52 57q0 59 75 73l119 5q59 4 100 55t65 146q6 22 6 46q0 104 -82 158q-13 7 -27 15 t-29 15q-43 -43 -83 -95q-56 -72 -121 -265q-43 -128 -78.5 -220.5t-61.5 -151.5q35 15 60.5 26t43.5 15q9 2 16 2.5t14 0.5q41 0 41 -39t-59 -50q-74 -15 -166 -100q-57 -52 -57 -136z" />
<glyph unicode="C" horiz-adv-x="1191" d="M-9 1013q0 35 9 82q19 91 134 161q100 64 201 64q8 0 16 -1q104 -2 225 -66q282 253 509 252h10q333 -11 332 -265q0 -171 -137 -331q-117 -138 -309 -212q-168 -64 -361 -64q-25 0 -49 1q-6 -43 -6 -84q0 -227 158 -268q37 -9 65 -9q201 0 325 281q19 30 71 30 q20 0 20 -56q0 -54 -55 -166q-58 -117 -160 -213q-160 -151 -350 -151q-100 0 -208 43q-238 98 -238 414q0 125 36 253q-238 101 -238 305zM85 1015q0 -126 171 -214q78 214 249 385q-95 39 -176 39q-128 0 -203 -95q-41 -48 -41 -115zM587 725q178 11 342 124 q134 91 234 231q85 125 86 197q0 17 -6 28q-41 74 -111 74q-125 0 -335 -266q61 -50 115 -104q10 -12 11 -24q0 -16 -20 -32q-13 -7 -26 -7q-20 0 -33 19q-17 24 -93 85q-39 -54 -73 -106q-54 -81 -91 -219z" />
<glyph unicode="D" horiz-adv-x="1778" d="M0 227q0 52 59 106q76 65 192 65v-4q186 -4 342 -93q28 35 65 125q-292 139 -292 457q0 26 4 66t11 95q7 71 85 183q89 134 225 213q151 87 318 87q22 0 45 -1q178 -15 319 -91l106 55q43 22 82 31.5t74 9.5q65 0 75 -26q2 -2 2 -7q0 -24 -117 -82q-33 -17 -92 -74 q171 -152 238 -374q35 -113 36 -262q0 -387 -248 -594q-160 -136 -390 -136q-201 0 -401 98q-165 -123 -366 -122q-203 0 -305 117q-67 78 -67 158zM136 219q0 -37 41 -67q50 -39 102 -39q72 0 226 103q-102 59 -243 87q-9 2 -18 2q-32 0 -67 -21q-41 -24 -41 -65zM448 888 v-11q0 -55 17 -107q19 -57 54 -108q67 -98 174 -151q80 201 201 398q165 266 333 414q-123 72 -264 73q-206 0 -359 -151q-154 -149 -156 -357zM849 178q52 -13 118 -12q22 0 46 1q240 15 359 244q95 182 102 468v18q0 164 -99 294l-91 -117q-24 -32 -53.5 -94t-65.5 -159 q-52 -145 -83.5 -228.5t-40.5 -107.5q85 32 148 93q89 84 90 206q0 35 46 36q22 0 24 -2q6 -6 15 -45q2 -9 2 -20q0 -45 -32 -116q-43 -98 -109 -154q-125 -104 -242 -124q-47 -86 -134 -181z" />
<glyph unicode="E" horiz-adv-x="1087" d="M-2 444q0 58 13 102q32 119 197 261q171 147 309 171q-95 78 -95 191q0 17 2.5 33.5t6.5 35.5q30 115 186 189q141 67 310 67q158 0 288 -82q115 -72 115 -155q0 -10 -1 -19q-26 -165 -266 -166q-52 0 -95.5 24.5t-49.5 46.5q-13 52 -13 43q0 19 24 33.5t45 14.5 q26 0 100 -41q30 -17 54 -17q48 0 80 67q4 11 4 21q0 104 -148 104h-16q-130 -2 -186 -32q-59 -32 -104 -134q-17 -37 -16 -70q0 -78 81 -110q53 5 93 5q57 0 88 -10q104 -39 104 -90q0 -7 -4 -26q-15 -50 -87 -78q-48 -19 -92 -19q-16 0 -31 3q-32 4 -79 18.5t-113 40.5 q-43 -26 -80 -55t-68 -60q-154 -145 -177 -305q-2 -15 -2.5 -29t-0.5 -27q0 -138 100 -206q70 -45 151 -45h7q82 2 165 52q106 63 136 170q19 61 19 111q0 93 -90 119q-11 3 -23 3q-24 0 -51 -12q-67 -26 -91 -101q-43 -121 -74 -120q-46 0 -46 43q0 7 1 16q7 69 52 145 q71 117 193 126q12 1 23 1q153 0 213 -166q7 -17 8 -48q0 -156 -132 -322q-162 -197 -403 -197q-271 0 -417 164q-117 133 -117 321z" />
<glyph unicode="F" horiz-adv-x="1347" d="M0 134q0 154 128 247q32 24 76 24q169 0 170 -121q0 -56 -54 -115q-66 -72 -66 -113q0 -44 25 -68.5t61 -24.5q84 0 182 80q71 58 128.5 143t105.5 202l51 123q-93 0 -175 115q-61 -24 -127 -24q-97 0 -165 84q-69 85 -69 202q0 227 194 387q191 162 466 162 q110 0 186 -23q264 -78 390 -78q106 0 156 75q17 26 47 26q38 0 38 -56q0 -7 -1 -15q-11 -136 -91 -227q-78 -91 -193 -91q-126 0 -339 86q-214 87 -338 87q-165 0 -290 -104q-121 -104 -121 -236q0 -93 32 -134q41 -50 108 -50q43 0 80 22h2q0 82 24 141q32 82 106 82 q9 0 15 -2q67 -20 66 -98q0 -22 -7 -43q-26 -71 -65 -115q9 -13 25 -27t40 -33h56q162 348 260 387q87 35 110 35q43 0 42 -37q0 -17 -17.5 -38t-34.5 -40q-35 -52 -39 -63q-15 -32 -27 -72.5t-21 -93.5q28 4 53 7t47 3q132 0 132 -82q0 -54 -28 -89q-26 -22 -50 -45.5 t-50 -23.5q-22 0 -22 17q2 6 2 15q0 24 -16 42.5t-31 18.5q-2 0 -20.5 -2t-35.5 -2q-33 -253 -128 -414q-50 -84 -112.5 -150t-134 -111.5t-149.5 -69.5t-160 -24q-178 0 -302 100q-125 101 -125 242z" />
<glyph unicode="G" horiz-adv-x="1254" d="M0 935q0 126 106 215t256 90q110 0 158 -19q290 258 556 258h4q136 -4 228 -72q91 -69 97 -177q1 -16 1 -32q0 -91 -36 -170q-32 -67 -110 -153q-71 -78 -232 -161q-167 -85 -275 -99q24 -74 91 -74q7 0 13.5 1t15.5 3q136 37 190 120q24 39 87 45h84h65q39 -9 41 -35 q4 -43 -2 -58q-4 -17 -28 -52q-76 -115 -111 -201q-39 -95 -65 -154t-38 -84q-39 -80 -70.5 -132t-57.5 -76q-182 -164 -455 -163q-193 0 -331 98t-137 234q0 89 20 145q15 41 61 93q46 56 136 56q33 0 64 -11t54 -30.5t37 -45.5t14 -56q0 -80 -70 -123q-74 -30 -75 -102 q0 -45 41 -75.5t100 -30.5h4q133 0 247 125q115 126 166 325q-74 -43 -171 -43q-128 0 -231 89q-100 87 -132 221q-139 11 -226 105q-84 85 -84 206zM97 940q0 -43 13 -80t36 -64.5t54.5 -44.5t67.5 -17q20 0 42 8q11 208 129 384q-59 17 -112 17q-91 0 -160 -58 q-70 -60 -70 -145zM708 782q0 -35 9 -63q50 2 106 26q123 52 216 195q156 242 156 324q0 54 -46 78q-13 7 -32 7q-65 0 -173 -100q-82 -80 -106 -119q-13 -22 -30 -24q11 -11 29 -33.5t42 -57.5q26 -48 26 -62q0 -35 -41 -35q-24 0 -61 37q-26 26 -50 30q-45 -118 -45 -203z " />
<glyph unicode="H" horiz-adv-x="1687" d="M0 318q0 123 110 228q46 46 113 47q61 0 105 -42t44 -99q0 -93 -77 -125q-69 -28 -68 -95q0 -45 37 -75.5t89 -30.5q54 0 126 51q108 74 205 241q19 32 52 89.5t85 142.5q-54 -19 -96 -50q-45 -28 -125 -100q-7 -13 -31 -13q-41 0 -41 43q0 6 4.5 15t4.5 13q11 19 110 91 q113 80 193 106q7 0 26 8t28 8l121 199q-175 -97 -285 -97q-41 0 -77 14t-62 38.5t-42 56t-16 68.5q0 147 101 251q100 104 241 104q50 0 51 -30q0 -11 -15 -29l-60 -53q-37 -41 -37 -98q0 -41 31.5 -70t74.5 -29q138 0 336 181q130 119 201 119q58 0 58 -32q0 -15 -13 -28 q-20 -19 -51 -48.5t-70 -72.5q-52 -76 -160 -375q15 0 48.5 3t51.5 3q41 0 106 11q136 203 299 355q223 206 402 206q117 0 117 -95q0 -84 -106 -208q-154 -182 -403 -275q-43 -71 -82 -145t-80 -158q-52 -108 -79 -180.5t-27 -109.5q0 -32 19 -33q5 -1 9 -1q38 0 87 40 q33 35 69.5 72t94.5 84q19 7 50 -6q17 -26 0 -50q-52 -78 -110.5 -140t-123.5 -115q-138 -106 -240 -105q-85 0 -132 68q-43 59 -42 149q0 72 27 143l67 162q26 63 57 121.5t62 114.5q2 0 -18 1l-62 3h-23l-70 -4q-4 -13 -9 -33.5t-15 -48.5q-32 -113 -81 -214.5 t-114 -192.5q-221 -299 -513 -299q-186 0 -323 104q-134 102 -134 251zM1818 972q128 58 185 124l64 75q30 35 41.5 59t11.5 37q0 22 -31 23q-39 0 -112 -95q-46 -59 -85 -114t-74 -109z" />
<glyph unicode="I" horiz-adv-x="1094" d="M-4 292q0 84 49 176q11 22 30.5 42t43.5 35.5t51 25t53 9.5q71 0 108 -67q24 -41 24 -80q0 -98 -125 -151q-11 -6 -25 -30.5t-14 -54.5q0 -39 31 -67t73 -28q63 0 154.5 70.5t206.5 215.5l56 71q-113 37 -180 115q-72 87 -77 210q-2 253 242 437q234 175 526 175 q173 0 256 -45q54 -28 54 -56q0 -17 -18 -29l-80 -60q-32 -24 -61.5 -53t-57.5 -60q-56 -65 -106 -190q-24 -59 -97 -288q6 2 78 54q54 41 75 41q30 0 29 -26q0 -28 -42 -65q-97 -85 -183 -128q-84 -229 -263 -398q-61 -59 -175 -102q-115 -46 -232 -47q-160 0 -264 88 q-140 113 -140 260zM652 769q-1 -10 0 -19q0 -148 134 -185q22 33 50 80.5t63 109.5q65 113 108 174q171 238 311 342q-58 30 -151 30q-175 0 -327 -132q-175 -153 -188 -400z" />
<glyph unicode="J" horiz-adv-x="1137" d="M-6 149q0 76 49 169q22 41 73 70.5t103 29.5q78 0 121 -70q24 -41 24 -80q0 -82 -121 -130q-20 -9 -20 -51q0 -26 11 -48t29 -39t41 -26t47 -9q147 0 324 278q52 78 89 160q-134 22 -219 114q-95 101 -95 245q0 250 254 444q247 190 543 190q169 0 260 -47q50 -26 50 -52 q0 -17 -20 -31q-117 -85 -219 -201q-112 -126 -210 -465q45 30 74 60q24 24 52 24t30 -24q0 -28 -43 -65q-22 -20 -58.5 -51t-88.5 -72q-30 -100 -55 -175.5t-47 -125.5q-59 -138 -141 -214q-67 -61 -179 -102q-123 -45 -245 -45q-165 0 -273 88q-140 113 -140 251zM665 769 q-1 -10 0 -19q0 -81 41 -142q41 -59 112 -84l94 231q26 65 62.5 118.5t77.5 102.5q190 229 294 299q-58 35 -149 35q-175 0 -335 -137q-184 -161 -197 -404z" />
<glyph unicode="K" horiz-adv-x="1715" d="M-2 307q0 110 60 185q67 82 176 82q48 0 91 -29q54 -37 54 -86q0 -32 -20 -76q-26 -50 -60 -60q-74 -22 -74 -120q0 -89 106 -90q167 0 450 435q56 87 132 206t174 276q-214 -160 -351 -160q-65 0 -130 37q-91 52 -91 152q0 197 280 322q52 22 84 22q39 0 39 -28 q0 -45 -76 -104q-39 -32 -39 -74q0 -39 29.5 -70t74.5 -36q12 -2 24 -2q104 0 227 112q30 26 76 68.5t113 102.5q35 30 71 29q43 0 43 -41q0 -30 -28 -65q-132 -171 -260 -550q87 100 169 186t161 164q95 91 173 155t142 101q132 80 252 80q134 0 134 -125q0 -74 -72 -143 q-65 -63 -123 -68q-13 -1 -25 -2q-39 0 -66 15q-43 22 -89 22q-152 0 -281 -136q-43 -46 -82 -91.5t-74 -88.5q20 7 115 30q9 2 19.5 2.5t19.5 0.5q58 0 97 -36t39 -88q0 -9 -1 -16.5t-3 -17.5q-9 -37 -27.5 -101t-46.5 -155q-6 -20 -6 -35q0 -52 56 -52q48 0 80 37 q33 37 72 41q37 4 38 -28q0 -28 -36 -63l-153 -154q-53 -53 -60 -58q-143 -121 -262 -121q-147 0 -147 145q0 97 67 251q67 156 66 204q0 46 -37 58q-15 6 -65 5q-32 0 -76 -14q0 -7 -7.5 -24t-7.5 -27q-91 -305 -275 -477q-180 -169 -411 -169q-208 0 -334 124 q-108 106 -108 231z" />
<glyph unicode="L" horiz-adv-x="1458" d="M0 160q0 85 58 137q63 61 185 62q121 0 311 -64q104 130 188 316q-310 82 -311 352q0 203 167 342q141 119 285 119q117 0 180 -36q26 -15 26 -35q0 -45 -52 -45q-13 0 -24 6q-56 15 -125 15q-123 0 -230 -89q-123 -102 -130 -242q-1 -15 -1 -29q0 -107 49 -170 q61 -74 208 -97l45 95q54 115 121.5 211t145.5 178q212 223 428 223q130 0 165 -86q14 -33 14 -71q0 -30 -8 -64q-45 -190 -238 -357q-89 -78 -182 -130t-193 -84q-91 -247 -240 -414q117 -30 234 -30q65 0 115 11q143 30 253 180q28 37 56 37q39 0 39 -46q0 -20 -15 -41 q-59 -85 -102 -141t-69 -82q-132 -139 -257 -139q-160 0 -392 120q-175 -130 -356 -130q-165 0 -264 71q-84 62 -84 147zM119 186q0 -48 40 -79t90 -31q97 0 219 123q-145 72 -241 72q-108 0 -108 -85zM1119 729q128 52 290 211q180 178 180 298q0 35 -21.5 62t-58.5 27 q-39 0 -65 -15q-65 -37 -111 -100q-95 -135 -214 -483z" />
<glyph unicode="M" horiz-adv-x="1754" d="M-6 43q0 50 54 163q9 20 28 55.5t45 87.5q-95 134 -95 324v15q2 191 117 384q45 74 95 139.5t115 109.5l45 32q54 39 110.5 55t110.5 16q177 0 176 -184q0 -63 -31 -186q-6 -20 -34.5 -88t-80.5 -185q275 348 466 412q63 22 108 22q104 0 104 -109q0 -61 -35 -153 q-22 -54 -53 -120.5t-72 -148.5q314 370 526 370q125 0 125 -108q0 -28 -7.5 -63.5t-28.5 -75.5q-54 -106 -120 -230t-136 -270q-11 -24 -16 -43t-5 -34q0 -28 19 -28q23 0 72 40q26 20 59.5 49t76.5 66q24 24 56 24q20 0 20 -15q0 -19 -35 -59q-93 -108 -199 -192 q-149 -115 -247 -115q-136 0 -136 139q0 61 24 112q54 117 97 217.5t74 183.5q22 58 23 90q0 26 -19 26q-26 0 -78 -45q-132 -115 -284 -325l-63 -127l-73 -139q-28 -45 -78 -82q-97 -71 -180 -70q-89 0 -89 50q0 24 20 70q41 89 120 245.5t200 381.5q56 102 55 158 q0 33 -22 33q-61 0 -214 -191q-54 -69 -112.5 -148t-119.5 -174q-11 -26 -27 -58.5t-36 -75.5q17 0 37 5.5t39 11.5t33 11.5t19 5.5q35 0 35 -36q0 -24 -26 -39q-59 -35 -132 -35q-13 0 -22 2h-22q-63 -113 -117 -152q-93 -65 -184 -65q-75 0 -75 63zM113 673q-1 -12 0 -24 q0 -119 51 -210q136 268 213.5 427.5t101.5 216.5q22 52 23 92q0 67 -60 66q-7 0 -13.5 -0.5t-15.5 -2.5l-12 -6q-97 -48 -184 -210q-48 -89 -74 -175.5t-30 -173.5z" />
<glyph unicode="N" horiz-adv-x="1263" d="M0 688q33 444 364 669q88 61 210 61h8q221 -6 221 -264q0 -71 -17 -121q-7 -20 -33 -78.5t-69 -157.5q152 171 299 279q152 108 247 108q152 0 153 -130q0 -24 -5 -49.5t-18 -51.5q-71 -143 -149.5 -302.5t-166.5 -343.5q-11 -22 -14.5 -40t-3.5 -33q0 -32 22 -31 q24 0 70.5 39t121.5 111q19 19 52 19q35 2 35 -24q0 -22 -32 -60q-84 -100 -212 -197q-160 -121 -258 -121q-74 0 -113 58q-33 50 -34 126q0 56 21 106q54 100 118 226.5t138 284.5q9 20 13 37t4 32q0 45 -37 45t-91 -47q-123 -104 -320 -385l-76 -159q78 0 121 28 q13 7 24 7q37 0 37 -39q0 -26 -26 -41q-59 -33 -134 -33q-11 0 -30.5 1.5t-28.5 1.5q-72 -136 -129 -174q-87 -61 -202 -62q-71 0 -71 50q0 45 58 162q15 33 34.5 72.5t43.5 81.5q-146 141 -146 311q0 14 1 28zM95 684q0 -8 -1 -17q0 -140 90 -238q130 260 207 418t101 216 q17 39 17 73q0 97 -95 96q-28 0 -52 -11q-52 -32 -89 -76q-35 -41 -65 -90.5t-54 -108.5q-57 -136 -59 -262z" />
<glyph unicode="O" horiz-adv-x="1200" d="M2 381q0 368 279 684q275 314 652 388q9 2 19.5 3t19.5 1q67 0 67 -43q0 -37 -50 -61q-160 -82 -324 -257q-264 -286 -264 -615q0 -340 251 -340q178 0 361 272q182 275 182 550q0 156 -115 156q-82 0 -181 -121q-121 -147 -120 -346q0 -191 16 -191q2 0 6 2.5t6 2.5 q4 0 7 -14q1 -6 1 -13q0 -25 -18 -50q-22 -31 -52 -30q-35 0 -57 48q-32 63 -32 164q0 110 37 221q52 152 140 264q136 173 312 172q121 0 180 -104q39 -72 39 -182q0 -98 -85 -310q-113 -288 -290 -470q-236 -242 -547 -242q-173 0 -288 87q-152 119 -152 374z" />
<glyph unicode="P" horiz-adv-x="1551" d="M-7 251q0 138 83 214q65 58 149 57q61 0 103 -41.5t42 -93.5q0 -59 -60 -99q-56 -37 -63 -45q-39 -37 -39 -87q0 -85 117 -85q7 -1 14 -1q194 0 494 553q-43 82 -43 126q0 48 37 48q39 0 59 -59l4 -11q97 182 203 319.5t223 233.5q-115 93 -296 93q-225 0 -383 -152 t-158 -374q0 -160 73 -234q26 -20 52 -39l52 -37q13 -13 13 -37q0 -59 -56 -60q-24 0 -54 21q-175 123 -174 360q0 262 191 448q204 199 520 199q199 0 344 -95q74 46 162 95q30 17 54 17q37 0 37 -32q0 -35 -50 -59q-35 -17 -67 -35.5t-60 -39.5q108 -91 168 -226 q54 -125 54 -240q0 -184 -138 -321q-136 -136 -314 -136q-115 0 -219 41q-100 -269 -298 -411q-169 -121 -355 -121q-182 0 -301 97q-120 98 -120 249zM1111 563q11 0 36.5 -3.5t38.5 -3.5q119 0 202 126q80 119 80 281q0 130 -69 232q-141 -190 -288 -632z" />
<glyph unicode="Q" horiz-adv-x="1204" d="M-4 396q0 368 272 682q273 314 650 390q9 2 19.5 3t19.5 1q67 0 67 -43q0 -37 -50 -61q-167 -85 -331 -257q-271 -288 -271 -615q0 -223 119 -301q33 242 193 340q-50 85 -50 192q0 167 111 321q134 180 335 180q123 0 195 -115q56 -93 56 -195q0 -126 -77 -318 q-89 -221 -234 -383q-175 -197 -399 -256q43 -108 135 -154q67 -32 132 -32q113 0 156 95q35 80 95 80q56 0 56 -71q0 -58 -87 -122q-98 -72 -220 -73q-123 0 -225 73q-104 69 -150 184q-13 0 -42 -3t-44 -3q-167 0 -282 97q-149 126 -149 364zM593 158h24q7 -2 12 -2h8 q182 0 357 236t175 511q0 87 -45 147q-39 54 -85 54q-89 0 -180 -71q-121 -98 -121 -271q0 -128 56 -175q72 0 94 -11q58 -28 58 -76q0 -63 -93 -63q-48 0 -93 22q-78 -43 -106 -82q-55 -74 -61 -219z" />
<glyph unicode="R" horiz-adv-x="1691" d="M-13 314q0 136 84 212q63 58 146 58q61 0 103 -41t42 -93q0 -58 -59 -101l-61 -42q-39 -37 -39 -88q0 -52 42 -72q17 -7 73 -13q7 -1 13 -1q207 0 528 612q212 400 457 599q-78 20 -158 20q-238 0 -426 -149q-186 -147 -186 -327q0 -80 34 -115q20 -22 69 -37 q48 -13 63 -28q26 -26 26 -61q0 -60 -69 -60h-17q-63 6 -124 73q-76 82 -76 202q0 204 191 389q225 214 574 213q123 0 227 -27q30 20 61.5 39.5t66.5 39.5q30 17 56 17q48 0 48 -39q0 -33 -44 -52q-26 -13 -47.5 -23t-36.5 -20q156 -72 232 -213q59 -104 60 -197 q0 -87 -63 -169q-67 -84 -129 -103q-72 -20 -130 -24q9 -7 17 -15l15 -15q30 -37 33 -66q5 -49 5 -92q0 -57 -8 -104q-6 -26 10 -50t44 -24q37 0 79 54q28 35 67 35q28 0 28 -22q0 -28 -48 -87q-48 -58 -98.5 -107t-104.5 -92q-138 -108 -234 -108q-145 0 -145 156 q0 87 89 366q22 69 23 110q0 33 -19 50q-17 9 -33.5 23t-16.5 38q0 50 72 65q117 19 168 51q102 61 102 200q0 156 -138 238q-149 -169 -319 -697q-97 -301 -314 -479q-186 -152 -383 -153q-182 0 -301 97q-121 98 -121 249z" />
<glyph unicode="S" horiz-adv-x="1161" d="M0 307q0 102 56 180q61 85 165 95q8 1 16 0q68 0 116 -45q46 -46 47 -106q0 -35 -19 -59l-63 -75q-22 -28 -23 -67q0 -126 131 -126h17q8 0 18 2q184 20 243 121q67 113 67 464v52q-229 67 -331 225q-46 69 -46 127q0 48 43 57q7 2 22 2q39 0 60 -37q7 -19 12.5 -37.5 t13.5 -38.5q46 -134 236 -197q37 275 195 422q134 128 338 143q12 1 23 1q92 0 166 -53q100 -71 101 -214q0 -130 -143 -257q-141 -125 -335 -163q2 -42 2 -81q0 -206 -50 -313q-173 -364 -626 -364q-247 0 -368 126q-84 90 -84 216zM1113 933q4 -59 6 -87t2 -25 q158 37 247 151q71 89 70 165q0 162 -124 162q-61 0 -125 -78q-77 -96 -77 -248q0 -20 1 -40z" />
<glyph unicode="T" horiz-adv-x="1148" d="M0 151q9 123 74 191q61 65 156 65q59 0 99.5 -38t40.5 -98q0 -61 -80 -111q-56 -37 -56 -84q0 -33 25 -68.5t81 -35.5q76 0 169 67q106 76 197 232q13 22 44.5 87.5t80.5 174.5q87 197 161 305q7 9 46.5 49t110.5 111q28 28 63 28q46 0 46 -41q0 -28 -30 -63 q-58 -69 -91 -201q-15 -56 -32.5 -150.5t-37.5 -228.5q-37 -240 -231 -392q-177 -138 -390 -151q-17 -1 -33 -1q-170 0 -294 107q-119 104 -119 231v15zM264 838q0 242 227 435q186 156 412 156q134 0 340 -70q145 -48 242 -49q89 0 110 43q24 58 63 58q37 0 37 -73 q0 -138 -115 -236q-98 -84 -192 -84q-110 0 -325 116q-143 76 -279 76q-156 0 -293 -97q-132 -93 -132 -279q0 -76 28 -128q46 -91 174 -91q59 0 101 26q93 65 93 175q0 41 -21 78q-11 21 -11 40q0 15 7 29q13 28 51 28q45 0 76 -54q15 -26 15 -67q0 -136 -101 -247 q-93 -106 -223 -106q-97 0 -182 70q-102 86 -102 251z" />
<glyph unicode="U" horiz-adv-x="1219" d="M0 834q7 214 147 381q147 175 349 181h6q91 0 163 -56q89 -71 90 -188q0 -72 -34 -158q-41 -102 -76 -188.5t-67 -160.5q46 30 95 84q35 37 69 79q28 32 52 32q26 0 26 -35q0 -28 -19 -52q-115 -160 -273 -223q-80 -165 -80 -203q0 -54 43 -54q32 0 70 34 q52 45 107 101.5t114 126.5q37 76 87.5 175.5t111.5 228.5q46 97 91 143q30 33 95 72q52 33 121 34q78 0 78 -52q0 -19 -7 -36q-59 -128 -143 -317.5t-194 -444.5q-17 -43 -17 -69q0 -33 28 -33q46 0 114 71q78 84 109 83q33 0 34 -31q0 -26 -76 -112q-89 -97 -201 -180 q-134 -100 -212 -100q-151 0 -151 163q0 78 39 184q-65 -67 -128 -123q-169 -147 -249 -193q-65 -41 -126 -41q-56 0 -99 36q-52 41 -52 111q0 52 24 102q24 48 61.5 130t89.5 196q-210 86 -210 288v14zM89 842q0 -182 156 -238q37 78 83.5 180t106.5 234q30 61 30 114 q0 91 -93 91q-35 0 -69 -13q-45 -17 -93 -71q-121 -135 -121 -297z" />
<glyph unicode="V" horiz-adv-x="938" d="M-13 1033q0 123 110 233q102 102 228 124q7 2 14 2h12q43 0 43 -26q0 -22 -24 -35q-93 -59 -93 -140q0 -30 17 -57q28 -46 94 -47q126 0 287 138q182 160 262 174q11 2 19 2q40 0 40 -41q0 -24 -26 -44q-43 -30 -74 -115q-19 -54 -26 -118q-5 -42 -5 -90q0 -24 1 -49 q3 -64 3 -120q0 -124 -14 -211q13 24 28 47.5t29 49.5q39 59 83 119.5t92 120.5q301 370 500 446q69 26 110 26q67 0 67 -62q0 -37 -26 -85q-32 -58 -95 -95q-30 -19 -121 -50q-361 -125 -732 -773q-215 -371 -384 -371q-8 0 -16 1q-61 7 -61 43q0 26 45 96q78 123 104 231 q28 113 27 312q0 245 51 355q-78 -46 -146 -82.5t-131 -62.5q-28 -11 -69 -11q-84 0 -147 39q-76 48 -76 126z" />
<glyph unicode="W" horiz-adv-x="1644" d="M-4 1059q0 121 110 231q100 100 227 126q19 4 28 4q43 0 42 -30q0 -22 -24 -35q-93 -59 -93 -138q0 -30 17 -57q28 -46 95 -47q126 0 286 138q59 52 99 84.5t59 47.5q41 28 87 37q10 2 19 2q44 0 44 -49q0 -30 -27 -48q-91 -63 -92 -289q0 -32 2 -68q2 -22 2 -44v-45 q0 -162 -22 -295q20 20 77 97t148 213q39 58 71.5 122t63.5 133q52 121 101 185q7 13 28 13q37 0 85 -55q48 -54 48 -112q0 -80 -27 -238q-28 -160 -28 -241q0 -80 15 -114q32 87 93 195t150 242q98 145 186.5 249t170.5 173q41 35 72 35q54 0 54 -82q0 -69 -95 -148 q-210 -180 -362 -400q-58 -84 -110.5 -177.5t-101.5 -203.5q-37 -84 -71.5 -168.5t-71.5 -169.5q-35 -80 -95 -80q-52 0 -100 60q-78 100 -78 369q0 128 28 246q-24 -35 -50 -70.5t-56 -72.5l-110 -136q-74 -91 -144 -170t-140 -142q-139 -125 -202 -125h-6q-59 9 -60 43 q0 28 45 98q37 59 63 117t39 114q28 112 28 310q0 247 50 357q-78 -48 -146.5 -84.5t-128.5 -62.5q-26 -11 -67 -11q-85 0 -149 39q-76 48 -76 128z" />
<glyph unicode="X" horiz-adv-x="1603" d="M2 154q0 125 87 201q76 65 167 65q59 0 93 -30.5t34 -84.5q0 -61 -39 -101q-30 -20 -58 -40.5t-28 -68.5q0 -76 104 -76q95 0 218 106q69 58 153.5 156t190.5 238q-195 28 -311 124q-145 117 -145 318q0 258 231 366q84 37 152 37q30 0 58 -5q240 -54 310 -460 q381 463 587 463q78 0 121 -39q30 -28 30 -61q0 -43 -43 -102q-59 -82 -156 -82q-11 0 -30.5 2.5t-41 5.5t-41 6t-30.5 3q-65 0 -141 -65q-74 -67 -234 -270q0 -24 5 -71q7 -43 8 -70q67 24 128 67q24 19 50 18q37 0 37 -29q0 -32 -50 -60t-158 -74q19 -216 50 -286 q19 -50 65 -51q19 0 38.5 7.5t39.5 26.5q9 9 23 20q11 9 26.5 25t38.5 37q30 30 55 29q26 0 26 -27q0 -20 -20 -47q-13 -15 -53 -59.5t-109 -117.5q-69 -74 -147 -118q-72 -43 -126 -43q-12 0 -22 2q-100 20 -136 89q-46 87 -69 353q-115 -141 -209 -238.5t-168 -155.5 q-147 -113 -290 -113q-72 0 -139 31q-132 67 -132 249zM539 957q0 -136 100.5 -230.5t284.5 -122.5q-9 173 -16 271.5t-10 128.5q-26 145 -110 178q-33 13 -73 13q-76 0 -122 -58q-54 -65 -54 -180z" />
<glyph unicode="Y" horiz-adv-x="1260" d="M-4 104q0 106 65 199q72 102 175 102q162 0 162 -150q0 -102 -86 -121q-32 -7 -57 -39t-25 -69q0 -69 86 -108q46 -22 104 -22q173 0 309 163q78 91 154 337q11 37 25 78t31 87q-204 -182 -346 -182q-171 0 -171 156q0 59 57 182q-188 43 -187 229q0 260 280 418 q82 45 187 45h9q130 -6 185 -86q35 -48 36 -111q0 -28 -129 -329q6 0 15.5 9t12.5 9q35 20 54 21q28 0 21 -36q-11 -33 -51 -65q-56 -43 -107 -66q-37 -97 -37 -129q0 -30 24 -29q24 0 70 24q43 22 83 56.5t73 84.5q35 52 68 105t68 105q193 282 355 346q45 19 82 18 q46 0 46 -31q0 -35 -57 -93q-128 -134 -188 -234q-100 -173 -152 -443q-61 -323 -251 -529q-212 -229 -523 -238q-14 0 -27 -1q-209 0 -335 108q-108 95 -108 229zM370 955q0 -125 149 -158l59 114q91 173 91 251q0 72 -70 71q-8 0 -17 -1q-56 -6 -112.5 -57t-82.5 -129 q-17 -50 -17 -91z" />
<glyph unicode="Z" horiz-adv-x="1217" d="M-6 46q0 63 84 108q74 37 235 159t412 328q362 295 466 431q-9 -7 -31 -7q-100 0 -249 176q-95 113 -229 114q-98 0 -158 -93q-50 -84 -50 -151q0 -125 171 -184q83 -28 83 -97q0 -10 -1 -20q-12 -80 -108 -80h-13q-76 2 -160 86q-88 85 -88 194q0 11 1 21 q13 242 212 352q132 71 301 70q132 0 364 -161q41 -30 78 -30q52 0 84 61l26 71q16 45 53 45q3 0 6 -1q67 -6 67 -78q0 -39 -32 -87q-104 -154 -330 -381q-63 -63 -159 -151.5t-224 -205.5h2q84 0 124 -156q26 -100 121 -115q5 -1 10 -1q63 0 165 127q19 24 46 24 q28 0 28 -26q0 -22 -24 -57q-97 -138 -355 -307q-71 -46 -153 -46q-165 0 -198 156q-32 139 -84 139q-26 0 -82 -24q-115 -46 -245 -210q-45 -56 -110 -56q-56 0 -56 63z" />
<glyph unicode="a" horiz-adv-x="981" d="M0 359q0 6 9.5 17t23 24.5t30.5 28.5t32 28q22 20 58.5 56.5t82.5 94.5q32 39 56 71.5t46 52.5q80 74 190 106q50 15 106 15q104 0 163 -35q37 78 37 76q28 63 71 74q3 1 6 1q28 0 87 -60q50 -54 50 -104q0 -35 -43 -117q-24 -48 -61 -117t-85 -164q-37 -71 -38 -117 q0 -32 13 -39q2 -1 4 -1q17 0 78 49q61 50 99 93q22 26 28 26q11 0 25.5 -18.5t14.5 -31.5q0 -17 -24 -42t-50 -53q-20 -20 -54.5 -53.5t-86.5 -76.5q-98 -85 -136 -108q-65 -39 -122 -39q-46 0 -84.5 27t-38.5 83q0 24 9 61q-52 -45 -94.5 -75.5t-79 -51t-70 -29.5 t-66.5 -9q-69 0 -113.5 42.5t-44.5 109.5q0 69 35 140q-41 -4 -52 6.5t-11 58.5zM368 284q0 -41 33 -41q37 0 114 77q56 58 95 117q89 136 89 204q0 45 -37 45q-52 0 -188 -192q-106 -149 -106 -210z" />
<glyph unicode="b" horiz-adv-x="888" d="M7 355q0 17 36 50q93 89 172.5 189.5t146.5 217.5q59 104 121 220.5t136 238.5l28 47q10 13 29 12q6 0 13 -1q54 -9 90 -65q43 -69 42 -106q0 -43 -165 -383q-41 -84 -82 -163.5t-83 -161.5q-46 -91 -71 -146q-24 -55 -24 -83q0 -71 72 -70q80 0 138 96q0 4 7.5 11.5 t7.5 12.5q-32 52 -32 125q0 110 63 238q58 119 142 187q33 28 70 28q41 0 71 -27.5t30 -66.5q0 -119 -38 -209q-15 -33 -24 -55.5t-17 -35.5q-15 -30 -37 -63t-52 -74q9 -15 30 -4q11 4 17 9l29 26q15 13 30 28q48 43 63 43q13 0 34 -17q9 -9 9 -18q0 -45 -130 -153 q-48 -41 -106 -41q-35 0 -69 13q-188 -206 -345 -206q-110 0 -169 87q-43 65 -43 144q0 24 15 68.5t48 109.5l97 190q-41 -54 -87.5 -115.5t-98.5 -126.5q-46 -46 -69 -46q-15 0 -30 15.5t-15 30.5z" />
<glyph unicode="c" horiz-adv-x="739" d="M4 357q0 20 35 48q26 20 126 138q54 63 107 115t102 95q123 106 256 106q61 0 117 -23q39 -15 54 -33q43 -52 43 -112q0 -59 -43 -117q-54 -67 -113 -67q-89 0 -90 84q0 28 15 54q19 35 67 44q-20 17 -44 17q-87 0 -205 -227q-74 -143 -74 -226q0 -87 74 -89q2 0 4 -1 q51 0 128 45q35 20 67 45.5t58 55.5q35 37 58 58t38 32.5t22.5 15t11.5 3.5q13 0 33 -17q9 -9 9 -18q0 -39 -130 -162q-238 -223 -436 -223q-63 0 -110 28q-61 35 -97 110q-24 47 -24 83q0 11 2 21q9 52 13 61q9 28 39 54q-45 -48 -69 -48q-17 0 -30.5 16.5t-13.5 33.5z" />
<glyph unicode="d" horiz-adv-x="957" d="M-24 327q0 24 37 47q19 11 51.5 46t78.5 95q112 139 203 217q136 117 258 117q78 0 136 -46q59 108 121.5 226t138.5 242l28 47q10 13 29 12q6 0 13 -1q54 -9 90 -65q43 -65 42 -106q0 -24 -45.5 -127.5t-134.5 -288.5q-41 -85 -87.5 -181t-101.5 -208q-17 -26 -17 -44 q0 -33 39 -34q22 0 37 15q15 19 37.5 38.5t48.5 43.5q26 15 31 15q13 0 34 -15q9 -9 9 -19q0 -32 -126 -169q-169 -186 -342 -186q-102 0 -132 158q-162 -169 -270 -169q-41 0 -72 19q-78 41 -78 148q0 26 5 54q9 52 13 61q9 28 39 54q-46 -46 -67 -46q-17 0 -31.5 16.5 t-14.5 33.5zM362 305q0 -50 39 -50q59 0 177 176q91 136 91 206q0 43 -37 43q-52 0 -188 -191q-82 -115 -82 -184z" />
<glyph unicode="e" horiz-adv-x="754" d="M0 342q0 22 37 48q17 13 123 138q100 121 212 202q154 115 271 116q78 0 125 -47q52 -52 52 -111q0 -89 -112 -209q-151 -162 -355 -226q-1 -9 -1 -17q0 -86 75 -87h4q51 0 128 44q74 46 127 101q35 37 58.5 60t36.5 31q24 17 31 16q13 0 37 -14q9 -9 10 -19 q0 -43 -130 -162q-242 -221 -439 -221q-59 0 -108 26q-63 35 -98 110q-24 47 -25 83q0 11 2 21l11 61q11 30 41 54q-48 -48 -68 -48q-17 0 -31 16.5t-14 33.5zM452 465q0 -24 27 -25q30 0 127 103q58 59 57 128q0 30 -22 30q-19 0 -48.5 -31t-77.5 -90q-63 -80 -63 -115z " />
<glyph unicode="f" horiz-adv-x="724" d="M-247 -470q0 24 33 67q67 82 69 85q37 46 103 138.5t163 233.5q-56 52 -56 124q0 39 20 65q58 74 114 75q30 0 56 -19q11 22 35 75t61 137l-124 -61q-26 -17 -49.5 -37.5t-43.5 -44.5q-33 -39 -43 -43q-39 -17 -56 0q-15 11 -15 30q0 15 12 35q20 37 91.5 93t198.5 127 l91 50q58 141 121 256t133 210q180 240 377 240q175 0 175 -143q0 -134 -141 -297q-93 -110 -389 -257l-111 -269q-19 -43 -40 -93.5t-47 -107.5q4 0 72 26q78 30 195 184q15 18 38 18q15 0 33 -7q8 -6 8 -19q0 -17 -14 -46q-9 -20 -260 -257q-69 -65 -165 -91 q-95 -175 -177.5 -293.5t-159.5 -181.5q-69 -58 -186 -58q-93 0 -115 34q-7 9 -7 22zM758 833q59 28 80 42q41 30 104 110q35 43 55 77t27 59q9 37 9 57q0 48 -33 49q-37 0 -71 -45q-48 -65 -171 -349z" />
<glyph unicode="g" horiz-adv-x="971" d="M-145 -349q7 97 128 169q58 28 114.5 55.5t114.5 57.5q22 11 60 27t92 36q19 39 19 47q-93 -45 -177 -45q-112 0 -154 65q-20 32 -20 95q0 121 50 171q-30 -22 -62 -26q-28 19 -27 39q0 9 9 22q20 26 54.5 68t84.5 98q67 78 110.5 121.5t60.5 58.5q147 134 251 134 q210 0 210 -65q74 191 130 191q32 0 76 -65l19 -26q9 -13 19 -28q18 -30 17 -51q0 -5 -1 -10q-43 -93 -117 -250t-180 -382q63 41 97 74q132 132 139 138q52 48 74 48q33 0 34 -37q0 -32 -41 -78q-71 -78 -161 -147t-203 -128q-234 -505 -448 -558q-74 -19 -147 -18 q-112 0 -173 51q-53 44 -53 123q0 12 1 25zM65 -387q0 -46 33 -46q50 0 103 91q26 46 53.5 99t55.5 113q-171 -71 -219 -169q-26 -51 -26 -88zM362 295q0 -17 26 -27q17 -6 32 -6q78 0 173 171q93 165 93 217q0 20 -19 28q-9 6 -22 6q-69 0 -167 -160q-116 -188 -116 -229z " />
<glyph unicode="h" horiz-adv-x="1074" d="M19 329q-4 10 -5 21q0 17 12 35q4 4 50.5 56.5t140.5 153.5q41 46 140 189q48 72 88 134.5t68 118.5l85 173q65 134 112 134q67 0 124 -192q2 -4 2 -15q0 -43 -74 -180q-54 -102 -91 -176.5t-58 -120.5q288 186 407 186q39 0 65 -28t26 -69q0 -28 -11 -63 q-7 -20 -50 -104t-126 -233q-13 -24 -13 -42q0 -30 39 -30q33 0 54 17q58 46 105 106q30 39 54 39q37 0 38 -36q0 -13 -15 -33.5t-17 -25.5q-4 -20 -190 -184q-71 -61 -150 -110q-93 -56 -134 -56q-6 0 -17 4q-108 58 -107 127q0 45 42 144q54 123 54 177q0 26 -17 26 q-39 0 -158 -158q-141 -186 -230 -255l-100 -50q-13 -7 -28 -7q-19 0 -43.5 20t-24.5 51q0 37 114 247q87 160 135.5 250t58.5 110q-19 -30 -58 -82t-102 -130q-106 -128 -132 -154q-11 -11 -23 -11q-29 0 -40 26z" />
<glyph unicode="i" horiz-adv-x="572" d="M13 381q19 20 59.5 65.5t94.5 124.5l121 174q67 97 106 106q46 13 59 13q15 0 36 -22q82 -98 82 -140q0 -48 -77 -217q-71 -158 -70 -201q0 -20 16 -20q20 0 93 76q89 95 123 95q39 0 39 -35q0 -17 -20 -54q-48 -82 -210 -210q-177 -139 -259 -140q-56 0 -91 45 q-28 35 -28 69q0 71 36 154q9 24 41.5 91t86.5 180q-37 -46 -79 -96.5t-90 -103.5q-15 -11 -50 -15q-26 16 -27 36q0 12 8 25zM489 1089q0 78 59 158q56 72 141 72q58 0 105 -31q33 -26 33 -86q0 -95 -61 -163q-61 -69 -149 -69q-54 0 -91 27t-37 92z" />
<glyph unicode="j" horiz-adv-x="574" d="M-535 -361q0 95 98 171q54 41 181 101q128 59 247 104q84 158 152.5 293.5t125.5 250.5q-138 -195 -176 -224q-20 -15 -50 -15q-29 17 -29 37q0 11 8 24q19 20 60 65.5t95 124.5l120 174q67 97 106 106q50 13 62 11q17 0 33 -20q82 -98 82 -140q0 -50 -76 -217 q-32 -69 -66.5 -146t-75.5 -162q4 2 49.5 40.5t131.5 122.5l68 67q15 15 30 21.5t26 6.5q37 0 37 -35q0 -20 -22 -56q-22 -39 -139 -147q-141 -134 -251 -182q-91 -234 -350 -493q-76 -76 -245 -76q-158 0 -197 73q-35 62 -35 120zM-322 -368q0 -50 53 -50q39 0 72 65 q20 37 39 73.5t35 73.5l19 42q-37 -19 -72.5 -37t-66.5 -41q-28 -19 -52 -53q-27 -43 -27 -73zM515 1089q0 76 59 158q56 72 141 72q58 0 105 -31q33 -26 33 -86q0 -95 -61 -163q-58 -69 -149 -69q-54 0 -91 27t-37 92z" />
<glyph unicode="k" horiz-adv-x="983" d="M-4 336q0 7 4 19q19 35 156 180q80 85 195 246q141 199 197 336q85 214 140 214q58 0 120 -119q23 -40 23 -73q0 -25 -13 -46l-275 -576q324 329 437 329h9q108 -13 107 -95q0 -43 -33 -104q-48 -84 -113 -84q-20 0 -67 17q-17 9 -35.5 19.5t-29.5 6.5q-20 -9 -51 -30.5 t-68 -56.5q26 4 47.5 6.5t35.5 2.5q52 0 62 -28q6 -22 0 -58l-11 -57q-7 -37 -3 -58.5t14 -31.5q13 -11 29 -11q41 0 90 62q54 71 81 70q13 0 25.5 -15.5t12.5 -30.5q0 -17 -13 -30l-110 -121q-50 -56 -92 -93t-73 -57q-110 -71 -199 -71q-46 0 -74.5 25t-28.5 72 q0 31 17 104q22 80 23 113q0 33 -15 34q-15 0 -45 -36q-32 -41 -65 -80.5t-67 -80.5q-48 -58 -79.5 -92.5t-46.5 -43.5q-30 -19 -80 -19q-87 0 -88 60q0 71 279 570q-249 -329 -290 -329q-39 0 -39 41z" />
<glyph unicode="l" horiz-adv-x="590" d="M4 342q0 7 3 19q24 24 64.5 66.5t95.5 107.5q28 32 71 92.5t102 151.5q61 91 102 156t62 102q161 302 192 302q1 0 3 -1q13 -6 30.5 -19t34.5 -29.5t30.5 -36t19.5 -36.5q19 -45 19 -65q0 -28 -23 -74q-84 -167 -170 -345.5t-181 -371.5q-20 -56 -20 -73q0 -30 35 -22 q28 6 97 74q71 71 92 71q41 0 41 -34q0 -15 -9 -28l-111 -120q-54 -59 -97 -95.5t-69 -53.5q-119 -76 -202 -76q-87 0 -129 80q-7 13 -7 35q0 123 201 461q-199 -284 -248 -285q-9 0 -19 16t-10 31z" />
<glyph unicode="m" horiz-adv-x="1460" d="M2 331q0 13 11 28q48 59 109.5 133.5t133.5 169.5q129 201 181 201q3 0 5 -1q33 -7 68 -42.5t42 -68.5q8 -36 8 -68.5t-8 -61.5q-4 -17 -21.5 -47.5t-47.5 -73.5q32 32 62.5 59.5t58.5 53.5q65 59 113.5 99.5t79.5 58.5l86 52q43 26 74 26q50 0 97 -63q7 -9 7 -28 q0 -45 -76 -187q46 41 105.5 91t137.5 109l86 52q43 26 74 26q50 0 97 -63q7 -9 7 -28q0 -43 -87 -212q-123 -234 -123 -278q0 -17 13 -17q39 0 149 89l41 47q28 32 44 31q11 0 23.5 -14t12.5 -25q0 -19 -56 -80q-45 -50 -158 -147q-126 -110 -171 -128q-45 -19 -97 -18 q-108 0 -120 83q-1 6 -1 13q0 29 13 75q16 57 58 141l101 193q7 15 7 26t-11 11q-28 0 -71 -43q-35 -35 -137 -154q-59 -69 -99.5 -118t-62.5 -81q-45 -65 -111 -111q-65 -46 -117 -47q-67 0 -67 69q0 33 29 80q22 37 34.5 57.5t14.5 24.5q37 65 77 136.5t82 149.5 q6 13 6 24q0 13 -11 13q-26 0 -69 -43q-35 -35 -137 -154q-59 -69 -99.5 -118t-62.5 -81q-45 -65 -112 -111q-65 -46 -117 -47q-67 0 -67 69q0 33 30 80q24 37 35.5 57.5t13.5 24.5q33 69 169 333q-46 -54 -100.5 -113.5t-117.5 -128.5q-13 -13 -31 -13q-30 0 -30 28z" />
<glyph unicode="n" horiz-adv-x="1029" d="M-4 310q0 15 19 45q48 59 110.5 134.5t129.5 172.5q72 104 117 155q40 46 64 46q3 0 4 -1q33 -7 68 -42.5t42 -68.5q8 -36 8 -68.5t-8 -61.5q-4 -17 -21.5 -47.5t-47.5 -73.5q32 32 62.5 59.5t58.5 53.5q65 59 114.5 98.5t80.5 59.5q43 26 85 52t73 26q50 0 97 -63 q7 -9 7 -28q0 -43 -87 -212q-123 -234 -123 -275q0 -19 15 -18q46 0 149 87l41 48q26 32 42 32q26 0 26 -39q0 -33 -45.5 -83.5t-156.5 -145.5q-126 -110 -173 -128q-43 -19 -95 -18q-108 0 -120 83q-1 5 -1 12q0 89 170 410q7 13 7 22t-13 10q-32 0 -69 -38 q-35 -35 -137 -154q-59 -69 -99.5 -118t-62.5 -81q-45 -65 -111 -111q-65 -46 -118 -47q-67 0 -66 69q0 33 29 80q24 37 35.5 57.5t13.5 24.5l163 327q-217 -256 -254 -257q-23 0 -23 15z" />
<glyph unicode="o" horiz-adv-x="806" d="M-7 346q0 17 14 35q46 58 95 114.5t102 112.5q164 175 290 234q69 33 138 33q126 0 169 -128q9 -32 9 -65q0 -123 -93 -308q22 -15 23 -52q63 13 100 79q28 28 56 19q30 -11 30 -30q0 -22 -30 -54q-97 -128 -220 -135q-5 0 -10 -1q-34 0 -58 12q-165 -216 -365 -216 q-95 0 -150.5 60.5t-55.5 166.5q0 45 11 93q-7 -7 -18 -7q-37 0 -37 37zM333 249q0 -48 37 -65q13 -6 26 -6q58 0 106 106q-24 41 -24 88q0 24 9 48q19 48 83 48q17 0 38 -3q72 139 72 208q0 52 -50 52q-74 0 -201 -233q-96 -174 -96 -243z" />
<glyph unicode="p" horiz-adv-x="1014" d="M-355 -466q0 39 52 79q106 85 377 547l285 481q-43 -54 -107 -124.5t-148 -159.5q-33 -28 -58 -28q-30 0 -29 30q0 32 37 63q32 26 87.5 91t137.5 169q67 85 113.5 146.5t72.5 98.5q39 58 72 58q22 0 54 -28q78 -71 78 -130q0 -35 -21.5 -87t-62.5 -130q106 100 251 193 q69 43 140 43q91 0 91 -82q0 -52 -41 -132q-98 -193 -145 -307q-10 -23 -10 -37q0 -24 28 -24q22 0 52 27t101 101q19 22 50 22q33 0 34 -27q0 -24 -30 -56q-165 -188 -320 -275q-69 -41 -145 -41q-130 0 -130 117q0 35 13 74q11 37 26 70.5t37 61.5l88 108q37 48 37 87 q0 28 -23 28q-33 0 -94 -65q-35 -37 -79 -89t-96 -119l-80 -152q-197 -375 -236 -437q-110 -165 -236 -204q-76 -22 -123 -23q-48 0 -78 23q-22 13 -22 39z" />
<glyph unicode="q" horiz-adv-x="949" d="M-7 336q0 32 39 71q30 41 79 103t127 146q59 65 97.5 98.5t51.5 42.5q97 74 206 75q156 0 176 -99q15 50 80 180q26 37 52 38q39 0 99 -88q30 -46 30 -87q0 -28 -15 -63q-15 -33 -45 -93t-76 -149q-35 -67 -83.5 -171t-111.5 -245q52 54 118 123.5t148 162.5q35 39 66 41 q33 2 34 -28q0 -26 -30 -58l-206 -221q-87 -93 -150.5 -173t-106.5 -146q-48 -74 -80.5 -122t-49.5 -68q-97 -113 -195 -138q-61 -17 -102 -16q-72 0 -73 52q0 28 19 59q20 39 66.5 116.5t119.5 190.5q45 71 94 147t97 160q-182 -164 -310 -164q-37 0 -67 17q-69 41 -69 137 q0 76 36 155q-24 -9 -39 -10q-26 0 -26 24zM344 303q0 -45 54 -45q59 0 191 182q97 130 97 201q0 22 -14 44.5t-35 22.5q-67 0 -189 -191q-104 -160 -104 -214z" />
<glyph unicode="r" horiz-adv-x="702" d="M-7 338q0 15 14 30q41 45 72 81t53 64q37 48 70.5 94.5t59.5 93.5q-43 37 -43 87q0 43 28 98q46 89 136 90q33 0 56.5 -18.5t23.5 -58.5q0 -39 -23 -85q22 -13 55 -13q38 0 90 17q80 28 116 28q50 0 59 -43q4 -19 4 -30q0 -32 -19.5 -70t-36.5 -73q-32 -65 -66 -140.5 t-71 -160.5q-12 -30 -12.5 -48.5t12.5 -25.5q30 0 55 31q22 20 50 47.5t62 60.5q20 26 50 26q17 0 26 -11q15 -15 15 -26q0 -13 -34 -54q-178 -214 -366 -307q-56 -26 -100 -26q-72 0 -113 50q-36 44 -36 92v13q15 119 190 338q69 85 69 134q0 46 -80 46 q-203 -266 -287 -346q-19 -19 -37 -18q-14 0 -28 9t-14 24z" />
<glyph unicode="s" horiz-adv-x="687" d="M11 314q-15 11 -15 25.5t15 32.5q43 52 115.5 134.5t176.5 197.5q41 46 87.5 81.5t94.5 63.5q97 56 169 56q125 0 125 -106q0 -39 -32 -68.5t-67 -29.5q-13 0 -18 1q-23 6 -41 7q-24 0 -36 -12q-20 -20 -20 -47q0 -28 22 -102l41 -102q22 -56 22 -104q37 17 71 54 q22 26 52 26q39 0 39 -37q0 -17 -33 -56q-59 -71 -149 -84q-50 -138 -160 -202q-76 -43 -152 -43q-177 0 -227 91q-32 58 -32 112q0 91 73 128q58 28 121 28q19 0 51 -3t81 -10q6 37 6 119q0 21 -1 44v20q0 87 15 140q-54 -32 -169 -164l-158 -180q-18 -21 -38 -21 q-14 0 -29 10zM186 216q0 -33 35 -52q13 -6 26 -6q61 0 110 98q-72 8 -108 9q-27 0 -33 -5q-30 -18 -30 -44z" />
<glyph unicode="t" horiz-adv-x="650" d="M11 314q-18 10 -18 24.5t18 33.5q65 72 145 164t177 206q-59 0 -60 46q0 11 9 33q19 35 144 36l33 41l138 228q19 33 44 34q20 0 52 -34q13 -15 24.5 -28t22.5 -28q26 -37 26 -78q0 -43 -26 -100q0 6 -21 -39q156 0 156 -32q0 -9 -9 -24q-9 -13 -15.5 -21t-10.5 -14 q-6 -7 -7 -13q-15 -11 -54 -11q-6 0 -21 1t-32.5 1t-35 1t-30.5 1q-35 -63 -57.5 -100.5l-31.5 -52.5q0 4 22 41q-9 -17 -21 -37q-9 -19 -23 -46t-34 -64q-76 -151 -84 -169q-11 -28 -11 -47q0 -23 17 -33q9 -6 37 2.5t43 23.5q35 28 76 61.5t87 74.5q22 24 52 24 q39 0 39 -35q0 -17 -33 -56q-76 -89 -229 -201q-182 -128 -269 -128q-72 0 -117 54q-35 39 -35 83q0 8 1 15q17 125 171 393l-82 -103q-45 -56 -100 -117q-20 -23 -39 -23z" />
<glyph unicode="u" horiz-adv-x="1055" d="M9 346q0 15 11.5 33.5t31.5 42.5q78 89 168 197t196 230q22 24 43 24q37 0 97 -98q33 -54 33 -82q0 -22 -13 -48q-17 -39 -43 -95t-61 -128q-15 -26 -15 -45q0 -28 26 -18q33 13 82 63q102 108 262 318q28 35 104 70q73 36 118 36h8q61 -4 62 -45q0 -41 -43 -126 q-35 -71 -76 -151t-86 -171q-10 -29 -10 -47q0 -33 33 -33q28 0 59 34l87 89q22 24 53 24q39 0 39 -35q0 -17 -34 -56q-188 -217 -370 -307q-45 -22 -83 -22q-59 0 -95 46q-32 43 -32 97q0 24 10 52l105 227q-374 -422 -508 -422h-3q-89 2 -89 98q0 87 62 209q28 54 64 115 t79 132q-206 -247 -233 -247q-39 0 -39 39z" />
<glyph unicode="v" horiz-adv-x="912" d="M15 344q0 15 12 33.5t32 44.5q65 72 143.5 160.5t174.5 192.5q74 65 153 65q69 0 93 -41q15 -24 14 -48q0 -28 -39 -112q-33 -72 -83 -170.5t-117 -223.5q-9 -22 -10 -39q0 -56 52 -55q65 0 175 105q-29 45 -29 120q0 12 1 25q7 119 101 274q102 167 200 167q45 0 72 -39 t27 -89q-17 -167 -177 -392q4 -15 39 -15q20 0 80 76q30 39 60 39q39 0 39 -37q0 -17 -34 -56q-61 -72 -85 -91q-69 -58 -156 -58q-33 0 -64 11q-230 -191 -399 -191q-78 0 -127.5 52t-49.5 126q0 54 28 108l145 268q-206 -247 -232 -247q-39 0 -39 37z" />
<glyph unicode="w" horiz-adv-x="1191" d="M15 344q0 17 12 35.5t32 42.5q65 72 143.5 160.5t174.5 192.5q74 65 153 65q69 0 93 -41q15 -24 14 -48q0 -26 -39 -112q-20 -46 -63.5 -130.5t-112.5 -209.5q-15 -26 -15 -56q0 -48 39 -48q33 0 86 41q0 9 4.5 27.5t4.5 28.5q32 160 130 288q33 45 89 44q76 0 76 -83 q0 -63 -65 -167q-26 -43 -56.5 -78.5t-62.5 -66.5q2 -95 77 -95q69 0 159 130q-23 49 -22 117v20q6 119 99 274q102 167 202 167q46 0 74 -39q23 -33 24 -72q0 -8 -1 -16q-17 -173 -175 -393q4 -15 39 -15q20 0 80 78q28 37 59 37q39 0 39 -37q0 -17 -33 -56 q-56 -69 -85 -91q-71 -58 -158 -58q-37 0 -65 11q-56 -74 -138 -135q-87 -65 -149 -65q-112 0 -139 135q-165 -126 -264 -126q-78 0 -121.5 45.5t-43.5 114.5q0 56 31 115q58 106 145 279q-206 -247 -232 -247q-39 0 -39 37z" />
<glyph unicode="x" horiz-adv-x="892" d="M-7 331q0 20 24 48l383 428q48 56 109 55q89 0 101 -113q4 -37 9 -85.5t15 -107.5q76 54 96 93q13 24 28 111q26 154 138 154q41 0 69 -28q32 -35 31 -89q0 -132 -137 -217q-32 -20 -86 -50t-128 -73q0 -17 5.5 -47.5t5.5 -45.5q6 -45 11.5 -71.5t14.5 -40.5t21 -18 t33 -4q48 0 188 164q24 30 48 30q32 0 32 -36q0 -20 -17 -39q-117 -149 -307 -297q-56 -45 -113 -45q-97 0 -119 101q-13 54 -23.5 106t-19.5 102q-59 -35 -83 -71q-26 -39 -28 -111q-6 -212 -134 -212q-98 0 -99 115q0 108 153 249q32 30 75.5 60.5t100.5 64.5q0 -7 -5 80 q-6 76 -43 76q-30 0 -73 -43l-195 -208q-17 -19 -42 -19q-39 1 -39 34z" />
<glyph unicode="y" horiz-adv-x="864" d="M-392 -372q0 152 243 270q139 65 327 111q24 93 62 283q11 58 11 89q0 41 -24 71q-6 7 -15 7q-20 0 -115 -110q-26 -30 -49 -30q-4 0 -7 1q-24 2 -24 33q0 28 28 56q26 26 67.5 73.5t99.5 123.5l128 167q48 61 100 61q85 0 86 -159q0 -41 -4.5 -93t-14.5 -117 q-30 -212 -87 -404q13 2 27 6t29 7q74 106 139 287q41 112 41 211q0 48 -11 104t-11 66q0 71 39 141q30 50 85 50q54 0 93 -58q28 -39 28 -107q0 -115 -65 -257q-89 -197 -214 -383q167 100 272 246q22 30 57 29q32 0 32 -26q0 -24 -24 -54q-76 -104 -259 -236 q-93 -65 -173 -89q-46 -59 -91.5 -111t-88.5 -95q-286 -281 -453 -324q-43 -11 -80 -11q-123 0 -169 106q-15 33 -15 65zM-258 -375q0 -78 98 -78q186 24 298 323q7 17 16 54q-323 -80 -394 -227q-18 -39 -18 -72z" />
<glyph unicode="z" horiz-adv-x="780" d="M11 340q0 32 30 63l251 285q52 59 81.5 91.5t39.5 41.5q46 41 107 47h12q50 0 96 -28l76 -45q28 -7 43 -7q37 0 99 50q20 15 39 15q41 0 41 -35q0 -26 -30 -49q-65 -48 -130 -103.5t-132 -115.5q-56 -52 -89.5 -83.5t-42.5 -46.5q-19 -26 -19 -48q0 -17 13 -30 q30 -7 86 -28q4 -2 14 -8.5t28 -17.5q24 -15 45 -13q28 2 128 106q24 28 56 28q22 0 28 -19t-15 -46q-48 -65 -119 -135.5t-165 -145.5q-67 -54 -123 -54q-41 0 -85 28q-52 35 -75 35q-26 0 -80 -37q-37 -26 -61 -26q-45 0 -43 63q6 84 179 281q65 76 131.5 141t132.5 121 h-9q-52 0 -77 22q-24 24 -52 25q-37 0 -76 -43q-48 -52 -112.5 -122t-146.5 -159q-28 -30 -48 -29q-26 -1 -26 31z" />
<glyph unicode="&#xaa;" horiz-adv-x="981" d="M0 359q0 6 9.5 17t23 24.5t30.5 28.5t32 28q22 20 58.5 56.5t82.5 94.5q32 39 56 71.5t46 52.5q80 74 190 106q50 15 106 15q104 0 163 -35q37 78 37 76q28 63 71 74q3 1 6 1q28 0 87 -60q50 -54 50 -104q0 -35 -43 -117q-24 -48 -61 -117t-85 -164q-37 -71 -38 -117 q0 -32 13 -39q2 -1 4 -1q17 0 78 49q61 50 99 93q22 26 28 26q11 0 25.5 -18.5t14.5 -31.5q0 -17 -24 -42t-50 -53q-20 -20 -54.5 -53.5t-86.5 -76.5q-98 -85 -136 -108q-65 -39 -122 -39q-46 0 -84.5 27t-38.5 83q0 24 9 61q-52 -45 -94.5 -75.5t-79 -51t-70 -29.5 t-66.5 -9q-69 0 -113.5 42.5t-44.5 109.5q0 69 35 140q-41 -4 -52 6.5t-11 58.5zM368 284q0 -41 33 -41q37 0 114 77q56 58 95 117q89 136 89 204q0 45 -37 45q-52 0 -188 -192q-106 -149 -106 -210z" />
<glyph unicode="&#xad;" horiz-adv-x="572" d="M128 563q0 30 23 67q30 50 81 50h339q72 0 72 -78q0 -32 -28 -67q-33 -43 -78 -43h-338q-71 0 -71 71z" />
<glyph unicode="&#xb2;" horiz-adv-x="997" d="M-76 61q0 39 85 136q39 45 301 225q171 119 340 347q52 71 52 157q0 61 -26 98q-19 30 -65 30q-65 0 -115 -50q-30 -30 -54 -114q-24 -91 -37 -106q-11 -15 -27.5 -28.5t-33.5 -23t-33 -15t-27 -3.5q-52 11 -52 78q0 20 8 37q54 145 206 266q52 41 152 78q112 41 209 41 q132 0 189 -80q65 -91 65 -175q0 -128 -154 -271q-126 -119 -416 -290q4 -26 13 -43q24 -50 102 -78q17 -7 39 -8q61 0 167 84q32 22 60 9q32 -15 14 -59q-13 -32 -105 -141q-113 -128 -231 -155q-30 -7 -74 -7q-108 0 -151 37q-121 106 -187 106q-26 0 -73 -46l-45 -58 q-28 -37 -46 -37q-19 0 -34.5 18.5t-15.5 40.5z" />
<glyph unicode="&#xb3;" horiz-adv-x="942" d="M2 232q0 113 89 218q26 26 52 50l52 48q33 33 76 10q28 -17 -5 -51q-17 -17 -80 -68q-17 -13 -32 -35.5t-27 -48.5t-19.5 -54t-7.5 -52q0 -41 21 -61q48 -48 108 -49q139 0 241 203q46 87 47 162q0 95 -51 100q-76 11 -85 54q-4 28 26 41q20 11 149 50q175 56 200 255 q6 43 -25.5 66t-76.5 23q-37 0 -63 -13q-41 -17 -54 -86q-19 -80 -26 -91q-41 -58 -89 -57q-20 0 -41 7q-37 15 -37 58q0 82 102 178q102 97 322 136q9 2 16.5 2.5t16.5 0.5q89 0 165 -63q80 -63 97 -161q24 -138 -242 -331q46 -74 47 -179q0 -130 -82 -262 q-76 -123 -247 -187q-130 -48 -234 -49q-269 0 -299 192q-2 11 -3 22t-1 22z" />
<glyph unicode="&#xb7;" horiz-adv-x="446" d="M80 591q0 54 39 119q52 85 143 85q61 0 99 -44q30 -35 29 -88q0 -56 -50 -118q-59 -76 -136 -77q-124 0 -124 123z" />
<glyph unicode="&#xb9;" horiz-adv-x="406" d="M0 701q0 2 6.5 22t21.5 61q9 26 26.5 44t38.5 31q26 4 99.5 28t192.5 78q100 45 169 98.5t111 111.5q13 17 49 18q80 4 80 -59q0 -35 -38 -88q-19 -24 -47.5 -77t-69.5 -136q-32 -69 -65 -136t-65 -134q-20 -41 -45 -103t-57 -151q-28 -78 -44.5 -122t-24.5 -53 q-41 -54 -154 -102q-56 -24 -104 -25q-67 0 -67 47q0 58 151 379q63 139 195 351q-15 -9 -51.5 -26.5t-90.5 -43.5q-110 -50 -163 -51q-54 1 -54 38z" />
<glyph unicode="&#xba;" horiz-adv-x="806" d="M-7 346q0 17 14 35q46 58 95 114.5t102 112.5q164 175 290 234q69 33 138 33q126 0 169 -128q9 -32 9 -65q0 -123 -93 -308q22 -15 23 -52q63 13 100 79q28 28 56 19q30 -11 30 -30q0 -22 -30 -54q-97 -128 -220 -135q-5 0 -10 -1q-34 0 -58 12q-165 -216 -365 -216 q-95 0 -150.5 60.5t-55.5 166.5q0 45 11 93q-7 -7 -18 -7q-37 0 -37 37zM333 249q0 -48 37 -65q13 -6 26 -6q58 0 106 106q-24 41 -24 88q0 24 9 48q19 48 83 48q17 0 38 -3q72 139 72 208q0 52 -50 52q-74 0 -201 -233q-96 -174 -96 -243z" />
<glyph unicode="&#xc5;" horiz-adv-x="1399" d="M-6 349q0 362 394 768q357 366 800 366q20 0 38.5 -1t39.5 -3q141 -11 237 -117q98 -106 97 -245q-4 -134 -87 -249q-98 -138 -268 -188q-177 -331 -176 -392q0 -39 50 -39q20 0 41 20l55 56q45 45 72 65.5t36 20.5q32 0 32 -34q0 -58 -229 -252q-145 -123 -282 -123 q-50 0 -63 22l-38 58q-22 35 -22 87q0 56 30 126q-98 -117 -225 -204q-154 -108 -275 -108q-123 0 -195 127q-62 105 -62 239zM394 420q0 -52 35.5 -89t85.5 -37q106 0 266 167q24 26 63 75t96 124q-15 6 -20 5q-234 58 -234 127q0 6 3 20q9 20 23 21q28 0 122 -36 q108 -39 177 -39q46 63 89 112.5t101 88.5q65 43 107 43q54 0 54 -58q0 -39 -43 -121q85 52 140 140q50 82 48 154q-2 98 -72 175q-69 74 -169 74q-173 0 -314 -76q-167 -91 -348 -327q-136 -178 -182 -329q-28 -93 -28 -214z" />
<glyph unicode="&#x152;" horiz-adv-x="2287" d="M1199 444q0 58 13 102q32 119 197 261q171 147 309 171q-95 78 -95 191q0 17 2.5 33.5t6.5 35.5q30 115 186 189q141 67 310 67q158 0 288 -82q115 -72 115 -155q0 -10 -1 -19q-26 -165 -266 -166q-52 0 -95.5 24.5t-49.5 46.5q-13 52 -13 43q0 19 24 33.5t45 14.5 q26 0 100 -41q30 -17 54 -17q48 0 80 67q4 11 4 21q0 104 -148 104h-16q-130 -2 -186 -32q-59 -32 -104 -134q-17 -37 -16 -70q0 -78 81 -110q53 5 93 5q57 0 88 -10q104 -39 104 -90q0 -7 -4 -26q-15 -50 -87 -78q-48 -19 -92 -19q-16 0 -31 3q-32 4 -79 18.5t-113 40.5 q-43 -26 -80 -55t-68 -60q-154 -145 -177 -305q-2 -15 -2.5 -29t-0.5 -27q0 -138 100 -206q70 -45 151 -45h7q82 2 165 52q106 63 136 170q19 61 19 111q0 93 -90 119q-11 3 -23 3q-24 0 -51 -12q-67 -26 -91 -101q-43 -121 -74 -120q-46 0 -46 43q0 7 1 16q7 69 52 145 q71 117 193 126q12 1 23 1q153 0 213 -166q7 -17 8 -48q0 -156 -132 -322q-162 -197 -403 -197q-271 0 -417 164q-117 133 -117 321zM2 381q0 368 279 684q275 314 652 388q9 2 19.5 3t19.5 1q67 0 67 -43q0 -37 -50 -61q-160 -82 -324 -257q-264 -286 -264 -615 q0 -340 251 -340q178 0 361 272q182 275 182 550q0 156 -115 156q-82 0 -181 -121q-121 -147 -120 -346q0 -191 16 -191q2 0 6 2.5t6 2.5q4 0 7 -14q1 -6 1 -13q0 -25 -18 -50q-22 -31 -52 -30q-35 0 -57 48q-32 63 -32 164q0 110 37 221q52 152 140 264q136 173 312 172 q121 0 180 -104q39 -72 39 -182q0 -98 -85 -310q-113 -288 -290 -470q-236 -242 -547 -242q-173 0 -288 87q-152 119 -152 374z" />
<glyph unicode="&#x153;" horiz-adv-x="1561" d="M807 342q0 22 37 48q17 13 123 138q100 121 212 202q154 115 271 116q78 0 125 -47q52 -52 52 -111q0 -89 -112 -209q-151 -162 -355 -226q-1 -9 -1 -17q0 -86 75 -87h4q51 0 128 44q74 46 127 101q35 37 58.5 60t36.5 31q24 17 31 16q13 0 37 -14q9 -9 10 -19 q0 -43 -130 -162q-242 -221 -439 -221q-59 0 -108 26q-63 35 -98 110q-24 47 -25 83q0 11 2 21l11 61q11 30 41 54q-48 -48 -68 -48q-17 0 -31 16.5t-14 33.5zM1259 465q0 -24 27 -25q30 0 127 103q58 59 57 128q0 30 -22 30q-19 0 -48.5 -31t-77.5 -90q-63 -80 -63 -115z M-7 346q0 17 14 35q46 58 95 114.5t102 112.5q164 175 290 234q69 33 138 33q126 0 169 -128q9 -32 9 -65q0 -123 -93 -308q22 -15 23 -52q63 13 100 79q28 28 56 19q30 -11 30 -30q0 -22 -30 -54q-97 -128 -220 -135q-5 0 -10 -1q-34 0 -58 12q-165 -216 -365 -216 q-95 0 -150.5 60.5t-55.5 166.5q0 45 11 93q-7 -7 -18 -7q-37 0 -37 37zM333 249q0 -48 37 -65q13 -6 26 -6q58 0 106 106q-24 41 -24 88q0 24 9 48q19 48 83 48q17 0 38 -3q72 139 72 208q0 52 -50 52q-74 0 -201 -233q-96 -174 -96 -243z" />
<glyph unicode="&#x2013;" horiz-adv-x="1024" d="M128 492v188h967v-188h-967z" />
<glyph unicode="&#x2014;" horiz-adv-x="2048" d="M128 492v188h1991v-188h-1991z" />
<glyph unicode="&#x2018;" horiz-adv-x="340" d="M-6 1048q0 97 78 203q54 72 145 126q74 45 121 45q45 0 45 -37q0 -20 -13 -28l-91 -56q-33 -22 -34 -52q0 -20 26 -63q28 -43 28 -84q0 -33 -11 -65.5t-33.5 -58.5t-53 -42t-69.5 -16q-63 0 -104 39q-34 30 -34 89z" />
<glyph unicode="&#x2019;" horiz-adv-x="412" d="M0 955q0 19 13 26l91 56q33 22 34 52q0 20 -28 63q-26 43 -26 84q0 33 11 65.5t33.5 58.5t53 42t69.5 16q61 0 104 -39q33 -32 33 -89q0 -97 -78 -203q-54 -72 -145 -126q-76 -45 -120 -45q-45 0 -45 39z" />
<glyph unicode="&#x201c;" horiz-adv-x="735" d="M-6 1048q0 97 78 203q54 72 145 126q74 45 121 45q45 0 45 -37q0 -20 -13 -28l-91 -56q-33 -22 -34 -52q0 -20 26 -63q28 -43 28 -84q0 -33 -11 -65.5t-33.5 -58.5t-53 -42t-69.5 -16q-63 0 -104 39q-34 30 -34 89zM340 1048q0 97 78 203q54 72 145 126q74 45 121 45 q45 0 45 -37q0 -20 -14 -28l-91 -56q-33 -22 -33 -52q0 -20 26 -63q28 -43 28 -84q0 -33 -11 -65.5t-33.5 -58.5t-53 -42t-69.5 -16q-63 0 -104 39q-34 30 -34 89z" />
<glyph unicode="&#x201d;" horiz-adv-x="735" d="M0 955q0 19 13 26l91 56q33 22 34 52q0 20 -28 63q-26 43 -26 84q0 33 11 65.5t33.5 58.5t53 42t69.5 16q61 0 104 -39q33 -32 33 -89q0 -97 -78 -203q-54 -72 -145 -126q-76 -45 -120 -45q-45 0 -45 39zM346 955q0 19 13 26l91 56q33 22 33 52q0 20 -28 63 q-26 43 -26 84q0 33 11.5 65.5t33.5 58.5t53 42t70 16q61 0 104 -39q33 -32 33 -89q0 -97 -78 -203q-54 -72 -145 -126q-76 -45 -121 -45q-44 0 -44 39z" />
<glyph unicode="&#x2022;" horiz-adv-x="468" d="M33 580q0 74 52 156q71 110 184 110q84 0 129 -58q39 -48 39 -113q0 -72 -65 -156q-76 -98 -177 -99q-162 0 -162 160z" />
<glyph unicode="&#x2026;" horiz-adv-x="1154" d="M771 106q0 54 39 119q52 85 143 85q61 0 98 -44q30 -35 30 -88q0 -56 -50 -119q-59 -76 -136 -76q-124 0 -124 123zM387 106q0 54 39 119q52 85 143 85q61 0 98 -44q30 -35 30 -88q0 -56 -50 -119q-59 -76 -136 -76q-124 0 -124 123zM2 106q0 54 39 119q52 85 143 85 q61 0 98 -44q30 -35 30 -88q0 -56 -50 -119q-59 -76 -136 -76q-124 0 -124 123z" />
<glyph unicode="&#x2122;" horiz-adv-x="2902" d="M1143 43q0 50 54 163q9 20 28 55.5t45 87.5q-95 134 -95 324v15q2 191 117 384q45 74 95 139.5t115 109.5l45 32q54 39 110.5 55t110.5 16q177 0 176 -184q0 -63 -31 -186q-6 -20 -34.5 -88t-80.5 -185q275 348 466 412q63 22 108 22q104 0 104 -109q0 -61 -35 -153 q-22 -54 -53 -120.5t-72 -148.5q314 370 526 370q125 0 125 -108q0 -28 -7.5 -63.5t-28.5 -75.5q-54 -106 -120 -230t-136 -270q-11 -24 -16 -43t-5 -34q0 -28 19 -28q23 0 72 40q26 20 59.5 49t76.5 66q24 24 56 24q20 0 20 -15q0 -19 -35 -59q-93 -108 -199 -192 q-149 -115 -247 -115q-136 0 -136 139q0 61 24 112q54 117 97 217.5t74 183.5q22 58 23 90q0 26 -19 26q-26 0 -78 -45q-132 -115 -284 -325l-63 -127l-73 -139q-28 -45 -78 -82q-97 -71 -180 -70q-89 0 -89 50q0 24 20 70q41 89 120 245.5t200 381.5q56 102 55 158 q0 33 -22 33q-61 0 -214 -191q-54 -69 -112.5 -148t-119.5 -174q-11 -26 -27 -58.5t-36 -75.5q17 0 37 5.5t39 11.5t33 11.5t19 5.5q35 0 35 -36q0 -24 -26 -39q-59 -35 -132 -35q-13 0 -22 2h-22q-63 -113 -117 -152q-93 -65 -184 -65q-75 0 -75 63zM1262 673q-1 -12 0 -24 q0 -119 51 -210q136 268 213.5 427.5t101.5 216.5q22 52 23 92q0 67 -60 66q-7 0 -13.5 -0.5t-15.5 -2.5l-12 -6q-97 -48 -184 -210q-48 -89 -74 -175.5t-30 -173.5zM0 151q9 123 74 191q61 65 156 65q59 0 99.5 -38t40.5 -98q0 -61 -80 -111q-56 -37 -56 -84 q0 -33 25 -68.5t81 -35.5q76 0 169 67q106 76 197 232q13 22 44.5 87.5t80.5 174.5q87 197 161 305q7 9 46.5 49t110.5 111q28 28 63 28q46 0 46 -41q0 -28 -30 -63q-58 -69 -91 -201q-15 -56 -32.5 -150.5t-37.5 -228.5q-37 -240 -231 -392q-177 -138 -390 -151 q-17 -1 -33 -1q-170 0 -294 107q-119 104 -119 231v15zM264 838q0 242 227 435q186 156 412 156q134 0 340 -70q145 -48 242 -49q89 0 110 43q24 58 63 58q37 0 37 -73q0 -138 -115 -236q-98 -84 -192 -84q-110 0 -325 116q-143 76 -279 76q-156 0 -293 -97 q-132 -93 -132 -279q0 -76 28 -128q46 -91 174 -91q59 0 101 26q93 65 93 175q0 41 -21 78q-11 21 -11 40q0 15 7 29q13 28 51 28q45 0 76 -54q15 -26 15 -67q0 -136 -101 -247q-93 -106 -223 -106q-97 0 -182 70q-102 86 -102 251z" />
<glyph unicode="&#xe000;" horiz-adv-x="915" d="M0 915h915v-915h-915v915z" />
<glyph unicode="&#xfb01;" horiz-adv-x="1297" d="M738 381q19 20 59.5 65.5t94.5 124.5l121 174q67 97 106 106q46 13 59 13q15 0 36 -22q82 -98 82 -140q0 -48 -77 -217q-71 -158 -70 -201q0 -20 16 -20q20 0 93 76q89 95 123 95q39 0 39 -35q0 -17 -20 -54q-48 -82 -210 -210q-177 -139 -259 -140q-56 0 -91 45 q-28 35 -28 69q0 71 36 154q9 24 41.5 91t86.5 180q-37 -46 -79 -96.5t-90 -103.5q-15 -11 -50 -15q-26 16 -27 36q0 12 8 25zM1214 1089q0 78 59 158q56 72 141 72q58 0 105 -31q33 -26 33 -86q0 -95 -61 -163q-61 -69 -149 -69q-54 0 -91 27t-37 92zM-247 -470q0 24 33 67 q67 82 69 85q37 46 103 138.5t163 233.5q-56 52 -56 124q0 39 20 65q58 74 114 75q30 0 56 -19q11 22 35 75t61 137l-124 -61q-26 -17 -49.5 -37.5t-43.5 -44.5q-33 -39 -43 -43q-39 -17 -56 0q-15 11 -15 30q0 15 12 35q20 37 91.5 93t198.5 127l91 50q58 141 121 256 t133 210q180 240 377 240q175 0 175 -143q0 -134 -141 -297q-93 -110 -389 -257l-111 -269q-19 -43 -40 -93.5t-47 -107.5q4 0 72 26q78 30 195 184q15 18 38 18q15 0 33 -7q8 -6 8 -19q0 -17 -14 -46q-9 -20 -260 -257q-69 -65 -165 -91q-95 -175 -177.5 -293.5 t-159.5 -181.5q-69 -58 -186 -58q-93 0 -115 34q-7 9 -7 22zM758 833q59 28 80 42q41 30 104 110q35 43 55 77t27 59q9 37 9 57q0 48 -33 49q-37 0 -71 -45q-48 -65 -171 -349z" />
<glyph unicode="&#xfb02;" horiz-adv-x="1315" d="M729 342q0 7 3 19q24 24 64.5 66.5t95.5 107.5q28 32 71 92.5t102 151.5q61 91 102 156t62 102q161 302 192 302q1 0 3 -1q13 -6 30.5 -19t34.5 -29.5t30.5 -36t19.5 -36.5q19 -45 19 -65q0 -28 -23 -74q-84 -167 -170 -345.5t-181 -371.5q-20 -56 -20 -73q0 -30 35 -22 q28 6 97 74q71 71 92 71q41 0 41 -34q0 -15 -9 -28l-111 -120q-54 -59 -97 -95.5t-69 -53.5q-119 -76 -202 -76q-87 0 -129 80q-7 13 -7 35q0 123 201 461q-199 -284 -248 -285q-9 0 -19 16t-10 31zM-247 -470q0 24 33 67q67 82 69 85q37 46 103 138.5t163 233.5 q-56 52 -56 124q0 39 20 65q58 74 114 75q30 0 56 -19q11 22 35 75t61 137l-124 -61q-26 -17 -49.5 -37.5t-43.5 -44.5q-33 -39 -43 -43q-39 -17 -56 0q-15 11 -15 30q0 15 12 35q20 37 91.5 93t198.5 127l91 50q58 141 121 256t133 210q180 240 377 240q175 0 175 -143 q0 -134 -141 -297q-93 -110 -389 -257l-111 -269q-19 -43 -40 -93.5t-47 -107.5q4 0 72 26q78 30 195 184q15 18 38 18q15 0 33 -7q8 -6 8 -19q0 -17 -14 -46q-9 -20 -260 -257q-69 -65 -165 -91q-95 -175 -177.5 -293.5t-159.5 -181.5q-69 -58 -186 -58q-93 0 -115 34 q-7 9 -7 22zM758 833q59 28 80 42q41 30 104 110q35 43 55 77t27 59q9 37 9 57q0 48 -33 49q-37 0 -71 -45q-48 -65 -171 -349z" />
<glyph unicode="&#xfb03;" horiz-adv-x="2021" d="M1463 381q19 20 59.5 65.5t94.5 124.5l121 174q67 97 106 106q46 13 59 13q15 0 36 -22q82 -98 82 -140q0 -48 -77 -217q-71 -158 -70 -201q0 -20 16 -20q20 0 93 76q89 95 123 95q39 0 39 -35q0 -17 -20 -54q-48 -82 -210 -210q-177 -139 -259 -140q-56 0 -91 45 q-28 35 -28 69q0 71 36 154q9 24 41.5 91t86.5 180q-37 -46 -79 -96.5t-90 -103.5q-15 -11 -50 -15q-26 16 -27 36q0 12 8 25zM1939 1089q0 78 59 158q56 72 141 72q58 0 105 -31q33 -26 33 -86q0 -95 -61 -163q-61 -69 -149 -69q-54 0 -91 27t-37 92zM478 -470q0 24 33 67 q67 82 69 85q37 46 103 138.5t163 233.5q-56 52 -56 124q0 39 20 65q58 74 114 75q30 0 56 -19q11 22 35 75t61 137l-124 -61q-26 -17 -49.5 -37.5t-43.5 -44.5q-33 -39 -43 -43q-39 -17 -56 0q-15 11 -15 30q0 15 12 35q20 37 91.5 93t198.5 127l91 50q58 141 121 256 t133 210q180 240 377 240q175 0 175 -143q0 -134 -141 -297q-93 -110 -389 -257l-111 -269q-19 -43 -40 -93.5t-47 -107.5q4 0 72 26q78 30 195 184q15 18 38 18q15 0 33 -7q8 -6 8 -19q0 -17 -14 -46q-9 -20 -260 -257q-69 -65 -165 -91q-95 -175 -177.5 -293.5 t-159.5 -181.5q-69 -58 -186 -58q-93 0 -115 34q-7 9 -7 22zM1483 833q59 28 80 42q41 30 104 110q35 43 55 77t27 59q9 37 9 57q0 48 -33 49q-37 0 -71 -45q-48 -65 -171 -349zM-247 -470q0 24 33 67q67 82 69 85q37 46 103 138.5t163 233.5q-56 52 -56 124q0 39 20 65 q58 74 114 75q30 0 56 -19q11 22 35 75t61 137l-124 -61q-26 -17 -49.5 -37.5t-43.5 -44.5q-33 -39 -43 -43q-39 -17 -56 0q-15 11 -15 30q0 15 12 35q20 37 91.5 93t198.5 127l91 50q58 141 121 256t133 210q180 240 377 240q175 0 175 -143q0 -134 -141 -297 q-93 -110 -389 -257l-111 -269q-19 -43 -40 -93.5t-47 -107.5q4 0 72 26q78 30 195 184q15 18 38 18q15 0 33 -7q8 -6 8 -19q0 -17 -14 -46q-9 -20 -260 -257q-69 -65 -165 -91q-95 -175 -177.5 -293.5t-159.5 -181.5q-69 -58 -186 -58q-93 0 -115 34q-7 9 -7 22zM758 833 q59 28 80 42q41 30 104 110q35 43 55 77t27 59q9 37 9 57q0 48 -33 49q-37 0 -71 -45q-48 -65 -171 -349z" />
<glyph unicode="&#xfb04;" horiz-adv-x="2040" d="M1454 342q0 7 3 19q24 24 64.5 66.5t95.5 107.5q28 32 71 92.5t102 151.5q61 91 102 156t62 102q161 302 192 302q1 0 3 -1q13 -6 30.5 -19t34.5 -29.5t30.5 -36t19.5 -36.5q19 -45 19 -65q0 -28 -23 -74q-84 -167 -170 -345.5t-181 -371.5q-20 -56 -20 -73q0 -30 35 -22 q28 6 97 74q71 71 92 71q41 0 41 -34q0 -15 -9 -28l-111 -120q-54 -59 -97 -95.5t-69 -53.5q-119 -76 -202 -76q-87 0 -129 80q-7 13 -7 35q0 123 201 461q-199 -284 -248 -285q-9 0 -19 16t-10 31zM478 -470q0 24 33 67q67 82 69 85q37 46 103 138.5t163 233.5 q-56 52 -56 124q0 39 20 65q58 74 114 75q30 0 56 -19q11 22 35 75t61 137l-124 -61q-26 -17 -49.5 -37.5t-43.5 -44.5q-33 -39 -43 -43q-39 -17 -56 0q-15 11 -15 30q0 15 12 35q20 37 91.5 93t198.5 127l91 50q58 141 121 256t133 210q180 240 377 240q175 0 175 -143 q0 -134 -141 -297q-93 -110 -389 -257l-111 -269q-19 -43 -40 -93.5t-47 -107.5q4 0 72 26q78 30 195 184q15 18 38 18q15 0 33 -7q8 -6 8 -19q0 -17 -14 -46q-9 -20 -260 -257q-69 -65 -165 -91q-95 -175 -177.5 -293.5t-159.5 -181.5q-69 -58 -186 -58q-93 0 -115 34 q-7 9 -7 22zM1483 833q59 28 80 42q41 30 104 110q35 43 55 77t27 59q9 37 9 57q0 48 -33 49q-37 0 -71 -45q-48 -65 -171 -349zM-247 -470q0 24 33 67q67 82 69 85q37 46 103 138.5t163 233.5q-56 52 -56 124q0 39 20 65q58 74 114 75q30 0 56 -19q11 22 35 75t61 137 l-124 -61q-26 -17 -49.5 -37.5t-43.5 -44.5q-33 -39 -43 -43q-39 -17 -56 0q-15 11 -15 30q0 15 12 35q20 37 91.5 93t198.5 127l91 50q58 141 121 256t133 210q180 240 377 240q175 0 175 -143q0 -134 -141 -297q-93 -110 -389 -257l-111 -269q-19 -43 -40 -93.5 t-47 -107.5q4 0 72 26q78 30 195 184q15 18 38 18q15 0 33 -7q8 -6 8 -19q0 -17 -14 -46q-9 -20 -260 -257q-69 -65 -165 -91q-95 -175 -177.5 -293.5t-159.5 -181.5q-69 -58 -186 -58q-93 0 -115 34q-7 9 -7 22zM758 833q59 28 80 42q41 30 104 110q35 43 55 77t27 59 q9 37 9 57q0 48 -33 49q-37 0 -71 -45q-48 -65 -171 -349z" />
</font>
</defs>
</svg>
