<?xml version="1.0" standalone="no"?>
<!DOCTYPE svg PUBLIC "-//W3C//DTD SVG 1.1//EN" "http://www.w3.org/Graphics/SVG/1.1/DTD/svg11.dtd" >
<svg xmlns="http://www.w3.org/2000/svg">
<metadata>
This is a custom SVG webfont generated by Font Squirrel.
</metadata>
<defs>
<font id="ChunkRegular" horiz-adv-x="1292" >
<font-face units-per-em="2048" ascent="1536" descent="-512" />
<missing-glyph horiz-adv-x="512" />
<glyph unicode=" "  horiz-adv-x="512" />
<glyph unicode="&#x09;" horiz-adv-x="512" />
<glyph unicode="&#xa0;" horiz-adv-x="512" />
<glyph unicode="!" horiz-adv-x="630" d="M57 209q0 39 15.5 78t46.5 69.5t74 50t98 19.5t99 -17.5t77 -47t50.5 -69.5t17.5 -83q0 -86 -66 -148.5t-178 -62.5q-49 0 -92 18.5t-75 47t-49.5 66.5t-17.5 79zM66 1042v390h489v-390l-109 -516h-270z" />
<glyph unicode="&#x22;" horiz-adv-x="1085" d="M115 1436h405l-74 -613h-256zM565 1436h406l-74 -613h-256z" />
<glyph unicode="#" horiz-adv-x="1331" d="M47 250l47 272h232l24 137h-231l47 273h231l37 213h273l-37 -213h137l37 213h272l-37 -213h191l-47 -273h-191l-24 -137h190l-47 -272h-190l-37 -209h-273l37 209h-137l-37 -209h-272l37 209h-232zM598 522h137l25 137h-137z" />
<glyph unicode="$" horiz-adv-x="1454" d="M51 0v516h381q0 -66 28.5 -104.5t68.5 -61t84 -31t77 -8.5q27 0 57.5 3t56 14.5t43 32t17.5 53.5q0 39 -58 64.5t-145.5 50t-189.5 56t-189 87t-145.5 140.5t-58.5 216q0 113 48 197t120.5 137t157.5 79.5t161 26.5q45 0 92 -6v152h131v-182q66 -25 118 -66t87 -106 l21 172h352v-514h-371q0 57 -20.5 101t-56 74.5t-84 46t-101.5 15.5q-23 0 -47 -7t-46 -20.5t-35 -34t-13 -46.5q0 -53 60.5 -88t150.5 -66t194.5 -66.5t194.5 -89t150.5 -133.5t60.5 -201t-50 -202.5t-129 -134t-175.5 -75t-188.5 -22.5q-18 0 -36.5 1t-35.5 3v-131h-131 v162q-76 27 -132 69t-93 85l-22 -158h-359z" />
<glyph unicode="%" horiz-adv-x="1228" d="M117 1051q0 123 59.5 197.5t155.5 74.5q117 0 171 -77t54 -210q0 -127 -55.5 -198.5t-159.5 -71.5q-100 0 -162.5 70t-62.5 215zM270 1051q0 -78 23.5 -122t48.5 -44q27 0 42 42t15 109q0 74 -17 119t-52 45q-18 0 -39 -39.5t-21 -109.5zM287 6h235l424 1311h-235z M670 289q0 123 59 197.5t156 74.5q117 0 171 -76.5t54 -210.5q0 -127 -55.5 -198.5t-159.5 -71.5q-100 0 -162.5 70t-62.5 215zM823 289q0 -78 23.5 -122t48.5 -44q27 0 42 42t15 109q0 74 -17 119t-52 45q-18 0 -39 -39.5t-21 -109.5z" />
<glyph unicode="&#x26;" horiz-adv-x="1433" d="M109 344q0 104 32.5 180t77.5 129.5t94 87t84 56.5q-76 117 -78 220t44.5 180t128 122t172.5 45q100 0 174.5 -33t120 -87t57.5 -123.5t-11.5 -144.5t-84 -149.5t-162.5 -136.5q61 -106 105 -167.5t73 -90.5q20 33 30.5 61.5t15.5 61.5t5 74v100h338l-18 -309 q-37 0 -76 -3t-86 1q-10 -41 -25.5 -79t-42.5 -73q43 -57 94.5 -84.5t112.5 6.5q0 -35 -28.5 -85t-81 -83.5t-125 -33.5t-158.5 65q-51 -37 -128 -62.5t-164 -30.5t-174 11.5t-157.5 61.5t-114.5 121.5t-44 191.5zM377 307q8 -51 47 -86t93 -47t113.5 -1t108.5 52 q-68 78 -126 173.5t-95 166.5q-88 -76 -118.5 -141.5t-22.5 -116.5zM582 1084q-2 -44 13 -89t40 -71q68 37 104.5 84t42.5 88t-17.5 68.5t-74.5 27.5q-57 0 -81.5 -32t-26.5 -76z" />
<glyph unicode="'" horiz-adv-x="559" d="M74 1436h405l-73 -613h-256z" />
<glyph unicode="(" horiz-adv-x="794" d="M51 639q0 180 51.5 344t126 297t157.5 233.5t146 155.5l211 -217q-37 -45 -91 -115.5t-103 -170t-85 -230.5t-36 -297q0 -172 33 -305t80 -236.5t102 -178.5t100 -128l-211 -219q-84 76 -168.5 186.5t-154.5 247.5t-114 297t-44 336z" />
<glyph unicode=")" horiz-adv-x="794" d="M51 -211q45 53 100.5 128t102.5 178.5t80 236.5t33 305q0 166 -36 297t-85 230.5t-103.5 170t-91.5 115.5l211 217q63 -55 146.5 -155.5t158 -233.5t125.5 -297t51 -344q0 -176 -44 -336t-113.5 -297t-155.5 -247.5t-168 -186.5z" />
<glyph unicode="*" horiz-adv-x="1228" d="M178 1016l66 209l90 -4l182 -95l-45 238l39 61h211l39 -63l-45 -238l184 97l86 4l66 -209l-76 -43l-201 -41l158 -164l18 -74l-172 -131l-63 66l-103 184l-108 -197l-55 -51l-170 129v58l176 182l-193 43z" />
<glyph unicode="+" d="M86 352v273h416v415h272v-415h416v-273h-416v-415h-272v415h-416z" />
<glyph unicode="," horiz-adv-x="557" d="M-12 -264q55 68 95 137.5t64.5 148t33.5 171t1 208.5l373 -98q6 -199 -84 -379t-248 -321z" />
<glyph unicode="-" horiz-adv-x="790" d="M96 352v273h594v-273h-594z" />
<glyph unicode="." horiz-adv-x="528" d="M31 213q0 39 15 81t44 75.5t73 55t99 21.5t99.5 -21.5t75 -55t46 -75.5t15.5 -81q0 -92 -59.5 -156.5t-176.5 -64.5q-51 0 -93 19.5t-72.5 50t-48 70.5t-17.5 81z" />
<glyph unicode="/" horiz-adv-x="823" d="M-102 -317l594 1814h331l-594 -1814h-331z" />
<glyph unicode="0" horiz-adv-x="1226" d="M31 723q0 162 42 298t118.5 232.5t183 150.5t233.5 54q150 0 261.5 -53t183 -151.5t107.5 -236.5t36 -308t-38 -306.5t-111.5 -231.5t-181 -145.5t-247.5 -50.5q-129 0 -236.5 46.5t-185 139.5t-121.5 233.5t-44 328.5zM436 723q0 -98 17.5 -178t43 -136.5t58.5 -86 t63 -29.5q35 0 66 29.5t53.5 84t34.5 131t12 171.5q0 92 -13 168.5t-37.5 132t-57.5 87t-70 31.5q-29 0 -58.5 -28.5t-54 -80.5t-41 -127t-16.5 -169z" />
<glyph unicode="1" horiz-adv-x="1015" d="M51 1163q43 20 84 41t83 48.5t89 69.5t103 110h364v-1160h191v-272h-820v272h205v760l-205 -96z" />
<glyph unicode="2" horiz-adv-x="1208" d="M51 0v297q43 70 77 117t66.5 85t69.5 71.5t86 74.5q55 47 120 88t118 82t89 83t36 89q0 78 -50.5 106.5t-121.5 28.5q-41 0 -77 -15t-67.5 -37.5t-58.5 -50.5t-49 -52l-221 233q109 125 243.5 189.5t288.5 64.5q102 0 191.5 -30.5t155 -89t103 -141.5t37.5 -187 q0 -88 -20 -151.5t-61 -114t-102.5 -95.5t-143.5 -98q-37 -25 -83 -58.5t-90 -71.5t-80 -76t-54 -69h360v164h344v-436h-1106z" />
<glyph unicode="3" horiz-adv-x="1105" d="M31 205l209 217q57 -57 119.5 -95t150.5 -38q86 0 135 40t49 117q0 84 -46 117t-124 33h-153v244h149q74 0 124 35.5t50 105.5q0 41 -16 71.5t-42 50t-57.5 30t-64.5 10.5q-59 0 -122.5 -33t-117.5 -90l-198 240q27 31 73 64.5t104 62t124.5 48t136.5 19.5 q125 0 222.5 -30.5t164 -88t101 -137.5t34.5 -178q0 -53 -16 -94t-40 -73t-49.5 -55.5t-45.5 -37.5q25 -18 57.5 -47t62 -70t50 -95t20.5 -124q0 -115 -50 -199t-130 -140t-181.5 -84t-205.5 -28q-74 0 -145.5 19.5t-136 51.5t-114.5 74t-81 87z" />
<glyph unicode="4" horiz-adv-x="1196" d="M20 403v293l590 736h424v-807h109v-222h-109v-133h111v-270h-664v270h129v133h-590zM307 625h303v379z" />
<glyph unicode="5" horiz-adv-x="1181" d="M31 221l223 232q59 -61 128 -106.5t159 -45.5q104 0 164.5 57.5t60.5 147.5q0 41 -16.5 76.5t-44 63.5t-66.5 43.5t-82 15.5q-72 0 -116 -30t-76 -65l-263 117l125 705h811v-306h-551l-34 -198q31 20 88 34.5t133 14.5q90 0 176 -31t152.5 -92t107.5 -152.5t41 -209.5 q0 -129 -54.5 -226.5t-141.5 -162t-196.5 -97.5t-219.5 -33q-78 0 -155 20.5t-145.5 55.5t-122.5 80t-85 92z" />
<glyph unicode="6" horiz-adv-x="1189" d="M33 623q-2 68 4 154.5t28.5 178t63.5 179.5t108.5 157.5t165 113.5t232.5 48q51 2 116.5 -9t131 -31.5t128 -51.5t107.5 -70l-139 -266q-27 14 -58.5 33.5t-69.5 35t-81 25.5t-90 10q-115 -2 -183.5 -82.5t-84.5 -195.5q41 41 113.5 70.5t154.5 33.5q98 4 185 -27.5 t152.5 -92t103.5 -146.5t38 -190q0 -102 -36 -194.5t-104.5 -163t-166.5 -113.5t-223 -47q-127 -4 -233.5 37.5t-186.5 124.5t-126 204t-50 275zM416 545q0 -39 11 -81t34.5 -78t59.5 -59.5t85 -23.5q39 0 74 13.5t59.5 38t39 56t14.5 68.5q0 31 -9.5 63.5t-29 59.5 t-51 44.5t-76.5 15.5q-37 0 -70 -13.5t-60.5 -31t-48 -38t-32.5 -34.5z" />
<glyph unicode="7" horiz-adv-x="1159" d="M31 1026v406h1108v-273l-551 -1159h-443l549 1159h-336v-133h-327z" />
<glyph unicode="8" horiz-adv-x="1144" d="M31 420q0 49 15 102t44 102.5t70 90.5t92 65q-78 47 -116 123t-38 150q0 86 33 159.5t95.5 128t153.5 85t206 30.5q119 0 210 -30.5t153.5 -85t94 -128t31.5 -159.5q0 -102 -52 -174t-120 -105q104 -51 157.5 -150.5t53.5 -203.5q0 -94 -38 -176t-108.5 -141.5 t-171 -94.5t-223.5 -35q-127 0 -228 35t-171 94.5t-106.5 141.5t-36.5 176zM385 432q0 -37 15.5 -67.5t41 -53t60.5 -35t73 -12.5q76 0 132.5 41t56.5 127q0 53 -26.5 88t-66.5 55.5t-86 28.5t-81 10q-47 -27 -83 -76t-36 -106zM434 1069q0 -43 22.5 -68.5t54.5 -40 t66.5 -20.5t59.5 -6q39 18 68.5 53t29.5 82q0 55 -46 92t-107 37q-59 0 -103.5 -39t-44.5 -90z" />
<glyph unicode="9" horiz-adv-x="1202" d="M31 936q0 102 35.5 194.5t104.5 163t167 113.5t223 47t234.5 -38t190.5 -125t130 -203.5t53 -274.5q2 -78 -5 -169t-30.5 -181t-66.5 -176t-111.5 -151.5t-167 -107.5t-233.5 -46q-51 -2 -116.5 9t-131 31.5t-128 51t-107.5 69.5l139 267q27 -16 58.5 -35t69.5 -34 t81 -25.5t90 -10.5q115 2 183.5 73t66.5 206q-41 -41 -104.5 -71t-145.5 -34q-98 -4 -185 28t-153 92t-103.5 146.5t-37.5 190.5zM397 956q0 -31 9.5 -63.5t29 -59t50 -44t77.5 -15.5q37 0 66.5 13.5t53.5 31t42 36.5t31 36q0 39 -8.5 81t-29 77.5t-53 59.5t-81.5 24 q-39 0 -74 -13.5t-59.5 -38t-39 -56.5t-14.5 -69z" />
<glyph unicode=":" horiz-adv-x="520" d="M31 201q0 39 14 78.5t44 73.5t72 55.5t97 21.5t98 -21.5t73 -55.5t45 -73.5t15 -78.5q0 -45 -16 -85t-47 -69t-74 -46t-94 -17q-49 0 -91 18t-73 49t-47 70t-16 80zM31 823q0 39 14 79t44 74t72 55.5t97 21.5t98 -21.5t73 -55.5t45 -74t15 -79q0 -92 -60 -154.5 t-171 -62.5q-47 0 -89 18.5t-72.5 49.5t-48 69.5t-17.5 79.5z" />
<glyph unicode=";" horiz-adv-x="618" d="M10 -264l236 -133q158 141 248 321t84 379l-373 98q8 -117 -1 -209t-34 -170.5t-65 -148t-95 -137.5zM121 788q0 39 15.5 81t44 76t72.5 55.5t99 21.5t99.5 -21.5t75 -55.5t46 -76t15.5 -81q0 -92 -62.5 -156.5t-173.5 -64.5q-49 0 -91 19.5t-72.5 50.5t-49 70.5 t-18.5 80.5z" />
<glyph unicode="&#x3c;" horiz-adv-x="1064" d="M143 430v287l613 307l125 -229l-506 -232l506 -227l-78 -213z" />
<glyph unicode="=" horiz-adv-x="1028" d="M90 106v273h844v-273h-844zM90 559v272h844v-272h-844z" />
<glyph unicode="&#x3e;" horiz-adv-x="1064" d="M143 336l506 227l-506 232l125 229l613 -307v-287l-660 -307z" />
<glyph unicode="?" horiz-adv-x="1064" d="M4 1200q109 125 244 194.5t289 69.5q102 0 191 -26.5t154.5 -79.5t103.5 -131t38 -183q0 -68 -24.5 -117.5t-60.5 -90.5t-78 -73t-77.5 -59.5t-60.5 -55t-25 -58.5v-113h-381v164q0 47 25 88t60.5 77t77.5 67.5t78 61.5t60.5 57.5t24.5 56.5t-13.5 47t-35 29.5t-49 15.5 t-53.5 4q-33 0 -69 -14.5t-72 -39t-67.5 -54t-58.5 -60.5zM264 209q0 39 15.5 78t46 69.5t73.5 50t99 19.5q55 0 99 -17.5t77 -47t50 -69.5t17 -83q0 -86 -65.5 -148.5t-177.5 -62.5q-49 0 -92.5 18.5t-75 47t-49 66.5t-17.5 79z" />
<glyph unicode="@" horiz-adv-x="1705" d="M121 479q0 123 46 253t137 237.5t227.5 176t318.5 68.5q180 0 318.5 -68.5t230.5 -176t139 -237.5t47 -253q0 -145 -37 -233t-94 -134t-127 -56.5t-135.5 3t-118.5 44t-78 63.5l-32 59q-16 -27 -39 -43t-48.5 -25.5t-49 -13.5t-42.5 -4q-47 0 -93 13.5t-83 41t-59.5 68.5 t-22.5 98t21.5 102.5t58.5 77t87 48t106 16.5q61 0 93 -21.5t36 -25.5v47q0 43 -33 58.5t-92 15.5t-107.5 -19.5t-87.5 -42.5l-55 152q20 12 50 29.5t68 32t81 24.5t90 10q59 0 121.5 -12t114.5 -44t86 -84t34 -132v-258q0 -27 14.5 -52.5t37 -41t47 -14.5t47 27t37 80 t14.5 146t-35 189.5t-102.5 178.5t-170 132t-237.5 51t-236.5 -51t-168 -132t-100.5 -178.5t-34 -189.5q0 -102 39 -197.5t110.5 -167t173 -114.5t226.5 -41v-184q-166 -2 -302 56t-233.5 156.5t-150.5 226.5t-53 265zM776 373q0 -29 19.5 -44.5t50.5 -15.5q27 0 52.5 13.5 t29.5 29.5v47q-4 6 -18.5 23.5t-59.5 17.5q-39 0 -56.5 -20t-17.5 -51z" />
<glyph unicode="A" horiz-adv-x="1685" d="M31 0v268h139l276 899h-84v265h787l362 -1164h144v-268h-821v268h194l-43 140h-420l-43 -140h160v-268h-651zM641 653h268l-135 443z" />
<glyph unicode="B" horiz-adv-x="1406" d="M51 0v266h119v901h-119v265h764q256 0 379 -91.5t123 -259.5q0 -66 -10.5 -113.5t-33 -85.5t-61 -67t-96.5 -51q55 -16 104.5 -44t86 -71t58 -101.5t21.5 -131.5q0 -217 -130 -316.5t-427 -99.5h-778zM594 266h164q66 0 116 46t50 130q0 78 -43 129.5t-129 51.5h-158 v-357zM594 854h125q82 0 110.5 42t28.5 116q0 72 -38 110.5t-97 38.5h-129v-307z" />
<glyph unicode="C" horiz-adv-x="1404" d="M31 702q0 176 59.5 316.5t151.5 238t201.5 148.5t209.5 51q76 0 132.5 -18.5t95.5 -42t60.5 -47t27.5 -31.5l47 115h321v-582h-366q-2 49 -16.5 96t-40 83t-65.5 57.5t-95 21.5t-100.5 -32t-77 -87t-49 -129t-17.5 -158q0 -76 19.5 -145.5t57.5 -122.5t93 -85t129 -32 q63 0 120.5 29t100.5 64.5t70.5 67.5t34.5 40l239 -262q-53 -57 -118.5 -109.5t-143.5 -92.5t-168 -63.5t-190 -23.5q-164 0 -297 50.5t-227.5 145.5t-146.5 231t-52 308z" />
<glyph unicode="D" horiz-adv-x="1474" d="M51 0v272h127v889h-127v271h625q186 0 330.5 -54.5t244 -147.5t151.5 -220t52 -275q0 -352 -202.5 -543.5t-583.5 -191.5h-617zM598 272h78q82 0 140 36t95 99.5t54.5 147.5t17.5 180q0 82 -17.5 159t-54.5 136.5t-95 95t-140 35.5h-78v-889z" />
<glyph unicode="E" horiz-adv-x="1337" d="M51 0v272h129v889h-129v271h1235v-453h-354v182h-328v-282h389v-273h-389v-334h328v191h354v-463h-1235z" />
<glyph unicode="F" horiz-adv-x="1306" d="M51 0v272h127v889h-127v271h1225v-453h-363v182h-309v-356h389v-273h-389v-260h209v-272h-762z" />
<glyph unicode="G" horiz-adv-x="1589" d="M31 702q0 168 53 306.5t141 238t201 154.5t233 55q111 0 182.5 -22.5t115.5 -51t67 -57.5t35 -41l43 148h305v-605h-367q-2 61 -21.5 110.5t-52 82.5t-73.5 50t-86 17q-61 0 -113.5 -31.5t-89.5 -83.5t-57.5 -123t-20.5 -147q0 -78 18.5 -146.5t54.5 -119.5t88 -80.5 t120 -29.5q88 0 131 29.5t66 70.5v86h-125v219h680v-219h-82v-512h-410l-63 129q-35 -57 -123 -102t-207 -45q-135 0 -252 50t-204 144t-137 227t-50 299z" />
<glyph unicode="H" horiz-adv-x="1572" d="M51 0v270h113v891h-113v271h664v-271h-127v-309h389v309h-121v271h666v-271h-119v-891h119v-270h-666v270h121v310h-389v-310h127v-270h-664z" />
<glyph unicode="I" horiz-adv-x="782" d="M51 0v272h129v889h-129v271h680v-271h-127v-889h127v-272h-680z" />
<glyph unicode="J" horiz-adv-x="948" d="M41 -125q39 -18 92 -18q76 0 123 65.5t47 229.5v1011h-176v269h770v-269h-170v-1011q0 -135 -30.5 -242t-99.5 -179.5t-179.5 -110.5t-267.5 -38q-29 0 -56.5 6t-52.5 17v270z" />
<glyph unicode="K" horiz-adv-x="1669" d="M51 0v266h111v901h-111v265h645v-265h-110v-333l381 333h-148v265h682v-265h-119l-297 -256l414 -645h119v-266h-799v266h139l-221 348l-151 -129v-219h110v-266h-645z" />
<glyph unicode="L" horiz-adv-x="1249" d="M51 0v272h113v889h-113v271h647v-271h-108v-889h264v260h344v-532h-1147z" />
<glyph unicode="M" horiz-adv-x="2064" d="M51 0v264h111v903h-109v265h776l207 -766l197 766h780v-265h-112v-901h112v-266h-647v266h115v684v121h-8q-6 -35 -14.5 -76t-16.5 -78.5t-16.5 -69.5t-12.5 -50l-215 -797h-428l-229 817q-4 12 -10.5 40t-12.5 62.5t-12 73.5t-8 78h-9v-807h117v-264h-555z" />
<glyph unicode="N" horiz-adv-x="1671" d="M51 0v264h121v903h-119v265h588l502 -752v487h-139v265h616v-265h-135v-1167h-441l-522 780v-516h158v-264h-629z" />
<glyph unicode="O" horiz-adv-x="1515" d="M31 723q0 166 52 303t147.5 236.5t227.5 153.5t292 54q188 0 326 -54t229.5 -153.5t135.5 -240.5t44 -313q0 -174 -47 -312.5t-139.5 -234.5t-226.5 -147.5t-308 -51.5q-160 0 -295 47t-232.5 141.5t-151.5 236.5t-54 335zM537 723q0 -100 17 -181t47 -138.5t72 -88 t91 -30.5t87 30.5t65.5 86t42 133t14.5 174.5q0 92 -13.5 174t-41 141t-69.5 95t-101 36q-47 0 -86 -31.5t-67 -89t-43 -137.5t-15 -174z" />
<glyph unicode="P" horiz-adv-x="1310" d="M51 0v270h115v893h-115v269h664q178 0 288.5 -36t172 -96.5t83 -139.5t21.5 -167q0 -102 -43 -178t-116.5 -126t-171 -75.5t-208.5 -25.5h-155v-318h125v-270h-660zM586 809h92q90 0 145.5 44t55.5 126q0 92 -50.5 139t-140.5 47h-102v-356z" />
<glyph unicode="Q" horiz-adv-x="1546" d="M31 725q0 156 49 287t140 226t218 147.5t281 52.5q180 0 312 -52.5t218 -147.5t128 -229.5t42 -297.5q0 -326 -170 -512q12 -47 31.5 -90t58.5 -43q27 0 34 32.5t7 59.5v59h136v-104q0 -68 -19.5 -128.5t-57.5 -104.5t-96.5 -69.5t-134.5 -25.5q-63 0 -114.5 18.5t-90 50 t-67.5 72.5t-45 86q-74 -12 -160 -12q-156 0 -285 45t-221 136t-143 226.5t-51 317.5zM481 725q0 -66 8 -113q35 37 92.5 68t149.5 31q66 0 123 -22.5t107 -57.5q2 18 3 37.5t1 42.5q0 88 -17.5 165.5t-50.5 136t-78 92.5t-102 34q-47 0 -89 -31t-75 -86t-52.5 -131 t-19.5 -166zM594 375q61 -68 137 -68q57 0 109 45q-10 78 -33 125t-76 47q-51 0 -82.5 -44t-54.5 -105z" />
<glyph unicode="R" horiz-adv-x="1509" d="M51 0v270h115v893h-115v269h666q178 0 288.5 -33t173 -90.5t84 -134t21.5 -164.5q0 -59 -22.5 -110.5t-62.5 -89.5t-94 -63.5t-118 -33.5q53 -8 101.5 -34t85 -65t59 -88t22.5 -104q0 -66 10.5 -102.5t39.5 -36.5q47 0 47 65v68h137v-113q0 -63 -14.5 -122.5t-49 -104.5 t-92 -73t-143.5 -28q-203 0 -300 100.5t-97 280.5q0 70 -6.5 115t-28 70.5t-62.5 36t-108 10.5v-318h125v-270h-662zM588 817h92q90 0 143.5 42t53.5 124q0 92 -48.5 137t-138.5 45h-102v-348z" />
<glyph unicode="S" horiz-adv-x="1454" d="M51 0v516h381q0 -66 28.5 -104.5t68.5 -61t84 -31t77 -8.5q27 0 57.5 3t56 14.5t43 32t17.5 53.5q0 39 -58 64.5t-145.5 50t-189.5 56t-189 87t-145.5 140.5t-58.5 216q0 113 48 197t120.5 137t157.5 79.5t161 26.5q63 0 127 -11t121 -35.5t103.5 -64.5t76.5 -97l21 172 h352v-514h-371q0 57 -20.5 101t-56 74.5t-84 46t-101.5 15.5q-23 0 -47 -7t-46 -20.5t-35 -34t-13 -46.5q0 -53 60.5 -88t150.5 -66t194.5 -66.5t194.5 -89t150.5 -133.5t60.5 -201t-50 -202.5t-129 -134t-175.5 -75t-188.5 -22.5q-78 0 -143.5 16.5t-118.5 43t-95 60.5 t-71 69l-22 -158h-359z" />
<glyph unicode="T" horiz-adv-x="1435" d="M31 899v533h1374v-533h-301v262h-172v-889h170v-272h-762v272h168v889h-176v-262h-301z" />
<glyph unicode="U" horiz-adv-x="1509" d="M31 1165v267h651v-265h-111v-442q0 -123 13.5 -201t40 -122t64.5 -60t87 -16q47 0 85 13t65.5 55t42 121t14.5 212v434h-111v271h607v-265h-111v-497q0 -365 -149 -537q-146 -168 -425 -168h-14q-311 4 -473 174t-162 520v506h-114z" />
<glyph unicode="V" horiz-adv-x="1583" d="M-20 1165v267h753v-267h-110l174 -458q29 -74 44 -139.5t19 -108.5h10q4 43 22.5 112.5t51.5 147.5l186 446h-108v267h582v-267h-101l-491 -1165h-377l-543 1165h-112z" />
<glyph unicode="W" horiz-adv-x="2078" d="M-20 1165v267h675v-267h-118l53 -299q6 -37 16 -96t20.5 -119.5t17.5 -113t11 -74.5h11q2 20 11 75.5t23.5 127t32 151.5t33.5 154l102 461h426l129 -566q12 -49 21.5 -104t16.5 -108.5t13.5 -102.5t10.5 -88h10q2 35 10 88t17.5 109.5t18.5 108.5t15 85l70 311h-113v267 h586v-267h-112l-306 -1165h-485l-123 487q-6 27 -14 61t-14.5 68.5t-12.5 67.5t-10 57h-8q-4 -23 -9.5 -56.5t-12.5 -69t-14 -68.5t-13 -55l-125 -492h-475l-271 1165h-114z" />
<glyph unicode="X" horiz-adv-x="1710" d="M51 0v264h178l301 391l-370 510h-107v267h811v-267h-119l201 -272l209 272h-180v267h680v-267h-174l-310 -395l369 -504h119v-266h-817v266h116l-155 209l-43 57l-211 -268h182v-264h-680z" />
<glyph unicode="Y" horiz-adv-x="1370" d="M-20 1169v263h700v-263h-107l119 -217q4 -14 13.5 -36.5t19.5 -47t18.5 -47t12.5 -35.5h8q2 14 11 38t19.5 48.5t22.5 48t23 42.5l112 206h-112v263h551v-263h-111l-379 -665v-238h115v-266h-656v266h117v242l-397 661h-100z" />
<glyph unicode="Z" horiz-adv-x="1462" d="M51 0v266l746 893h-385v-266h-349v539h1344l4 -273l-749 -889h380v262h363v-532h-1354z" />
<glyph unicode="[" horiz-adv-x="794" d="M283 -430v2097h512v-268h-123v-1561h121v-268h-510z" />
<glyph unicode="\" horiz-adv-x="823" d="M0 1497h332l594 -1814h-332z" />
<glyph unicode="]" horiz-adv-x="794" d="M0 1399v268h512v-2097h-510v268h121v1561h-123z" />
<glyph unicode="_" d="M86 -90h1104v-111h-1104v111z" />
<glyph unicode="a" horiz-adv-x="1228" d="M31 303q0 86 33.5 155.5t92 119t136.5 76t164 26.5q45 0 80.5 -9t61.5 -21.5t41 -25t19 -16.5v72q0 70 -55 92.5t-139 22.5q-92 0 -169 -31t-136 -64l-86 238q31 18 78 43t105 48.5t125 38.5t138 15q92 0 190.5 -19.5t179.5 -67.5t133 -130t52 -204v-400h123v-262h-438 l-49 92q-29 -39 -65 -64.5t-73.5 -40t-74.5 -20.5t-64 -6q-74 0 -145.5 20.5t-129 61.5t-93 105.5t-35.5 154.5zM420 324q0 -43 30.5 -70t77.5 -27t82 22.5t49 45.5v78q-2 4 -9 13t-21.5 19.5t-36 18.5t-53.5 8q-61 0 -90 -30.5t-29 -77.5z" />
<glyph unicode="b" horiz-adv-x="1343" d="M63 0v266h87v1002h-87v268h496v-592q16 20 46 37.5t67 31t78 20.5t77 7q117 0 206 -45t148.5 -119.5t89.5 -172.5q28 -91 28 -186q0 -7 -1 -13q-2 -119 -35.5 -216.5t-95 -166t-147.5 -106.5t-195 -38q-59 0 -100 7.5t-71.5 20.5t-54.5 29.5t-44 35.5l-31 -70h-461z M555 489q4 -104 46 -174.5t101 -70.5q66 0 106 69.5t40 186.5q0 45 -10.5 91t-30 81t-47 57.5t-60.5 22.5q-59 0 -104 -70q-41 -64 -41 -172v-21z" />
<glyph unicode="c" horiz-adv-x="1087" d="M2 518q0 135 42 234.5t111.5 164t161 95t189.5 30.5q51 0 93 -12t74 -30.5t54.5 -39t34.5 -34.5l35 98h241v-463h-301q-2 37 -9 75t-21.5 69.5t-39 51t-59.5 19.5q-45 0 -78.5 -22.5t-56 -59.5t-34 -84t-11.5 -96q0 -100 56.5 -170t154.5 -72h10q76 0 129 30 q57 32 109 87l180 -209q-37 -39 -88 -76.5t-115.5 -66.5t-140.5 -47.5t-158 -18.5q-113 0 -215 34t-179 102.5t-123 171t-46 239.5z" />
<glyph unicode="d" horiz-adv-x="1298" d="M20 522q0 119 39 216.5t104.5 165t151.5 104t181 36.5q109 0 169 -29.5t89 -47.5v303h-95v266h510v-1270h99v-266h-480l-34 76q-10 -10 -32 -25.5t-54.5 -31t-75.5 -26.5t-96 -11q-109 0 -197 44t-149.5 118.5t-95.5 173t-34 204.5zM461 522q0 -47 10 -92t29.5 -80 t46 -57.5t61.5 -22.5q59 0 105 70q41 64 41 172v20q-4 104 -46 175t-102 71q-66 0 -105.5 -69.5t-39.5 -186.5z" />
<glyph unicode="e" horiz-adv-x="1110" d="M10 518q0 125 43 224.5t117 169t174 105.5t217 36q92 0 171 -22.5t142.5 -61.5t108.5 -94.5t68 -118.5q8 -27 16 -68t11 -88q1 -18 1 -36q0 -30 -3 -61q-5 -50 -21 -93h-645q4 -20 13 -49t31.5 -55.5t61.5 -45t105 -18.5q27 0 58.5 2t68 12t77.5 29.5t82 54.5l172 -199 q-115 -98 -241.5 -138t-286.5 -40q-96 0 -192.5 32t-173 98.5t-126 172t-49.5 252.5zM416 612h309q0 29 -6 58.5t-21.5 53.5t-45 38t-79.5 14q-47 0 -76.5 -18.5t-47 -44t-24.5 -54.5t-9 -47z" />
<glyph unicode="f" horiz-adv-x="790" d="M51 758v266h84v174q0 43 11.5 107.5t53.5 124t121.5 101.5t219.5 42q39 0 84 -4t86 -11.5t75.5 -16.5t55.5 -19l-123 -236q-16 8 -44 14.5t-69 6.5q-66 0 -65 -109v-174h186v-266h-186v-490h123v-268h-611v268h82v490h-84z" />
<glyph unicode="g" horiz-adv-x="1310" d="M20 518q0 119 33 216t97.5 166t161 106.5t223.5 37.5q68 0 127 -26.5t90 -56.5l41 63h487v-268h-123v-613q0 -127 -39 -231.5t-118.5 -178t-199.5 -113.5t-282 -40q-84 0 -156.5 18.5t-133 45t-105.5 58.5t-74 58l109 228q18 -16 54 -38t83 -43.5t103.5 -35.5t115.5 -14 q70 0 115 18.5t72.5 46t39 61t11.5 66.5v70q-10 -14 -31 -33.5t-50.5 -37t-69.5 -30t-89 -12.5q-133 0 -226 44t-151.5 116t-86.5 164t-28 188zM457 522q0 -47 10 -92t29.5 -80t46 -57.5t61.5 -22.5q59 0 105 70q41 64 41 172v20q-4 104 -46 175t-102 71q-66 0 -105.5 -69.5 t-39.5 -186.5z" />
<glyph unicode="h" horiz-adv-x="1353" d="M51 0v268h86v1002h-86v266h496v-639q8 14 38.5 41t75 54.5t98.5 48t109 20.5q119 0 189.5 -40t108.5 -104.5t49.5 -145.5t11.5 -161v-342h96v-268h-526v557q0 27 -2 59.5t-13.5 61.5t-36 49.5t-69.5 20.5q-39 0 -64.5 -17.5t-40 -45.5t-19.5 -61.5t-5 -66.5v-289h147 v-268h-643z" />
<glyph unicode="i" horiz-adv-x="675" d="M51 0v268h86v490h-86v266h475v-756h99v-268h-574zM109 1323q0 35 14 72t42 67.5t69.5 50t95.5 19.5q53 0 95 -19.5t70.5 -50t44 -67.5t15.5 -72q0 -86 -57.5 -146.5t-167.5 -60.5q-49 0 -89 18.5t-70 48t-46 66.5t-16 74z" />
<glyph unicode="j" horiz-adv-x="737" d="M29 -154q88 0 136 33t69.5 79t24.5 97t3 88v615h-86v266h475v-881q0 -96 -20.5 -196.5t-86 -184.5t-188.5 -137t-327 -53v274zM233 1323q0 35 14.5 72t42 67.5t69.5 50t96 19.5q53 0 95 -19.5t70.5 -50t44 -67.5t15.5 -72q0 -86 -57.5 -146.5t-167.5 -60.5 q-49 0 -89 18.5t-70 48t-46.5 66.5t-16.5 74z" />
<glyph unicode="k" horiz-adv-x="1339" d="M78 0v266h84v1002h-84v268h473v-926l237 142h-147v270h573v-270h-157l-139 -88l276 -396h102v-268h-606v268h86l-155 221l-72 -49v-172h76v-268h-547z" />
<glyph unicode="l" horiz-adv-x="679" d="M51 0v268h88v1004h-86v264h475v-1268h121v-268h-598z" />
<glyph unicode="m" horiz-adv-x="1859" d="M51 0v268h86v484h-86v270h387l45 -121q12 14 36 40t56.5 50.5t73.5 42t90 17.5q78 0 130.5 -16.5t87 -39t55 -48t32.5 -44.5q47 53 121 100.5t181 47.5q125 0 199.5 -42t115.5 -111t54.5 -157t13.5 -182v-283h100v-276h-520v502q0 37 1 81v14q0 36 -4 69 q-5 39 -21.5 64.5t-53.5 25.5q-66 0 -87.5 -42t-21.5 -108v-332h123v-274h-530v522q0 125 -12.5 179.5t-73.5 54.5q-49 0 -70.5 -30t-21.5 -93v-365h122v-268h-608z" />
<glyph unicode="n" horiz-adv-x="1325" d="M51 0v268h86v490h-86v266h436l48 -127q53 72 123.5 118t168.5 46q119 0 192 -40t112.5 -104.5t53 -145.5t13.5 -161v-342h96v-268h-516v559q0 27 -1 59.5t-11 61.5t-33.5 49.5t-68.5 20.5q-39 0 -65 -17.5t-40 -45.5t-19 -61.5t-5 -66.5v-291h147v-268h-631z" />
<glyph unicode="o" horiz-adv-x="1175" d="M23 516q0 129 48 228.5t126.5 167t179 102.5t207.5 35q121 0 224 -37t179 -106.5t120 -169t46 -228.5v-11q0 -120 -42 -215q-44 -99 -120 -168t-178 -105t-219 -36q-111 0 -214.5 34t-183 101.5t-127.5 170.5q-46 98 -47 226q1 5 1 11zM442 514q0 -127 43 -202.5 t109 -75.5q33 0 58.5 20t44 57t27.5 87.5t9 107.5q0 117 -39 194.5t-110 79.5q-31 0 -56.5 -20.5t-44 -57t-30 -86t-11.5 -104.5z" />
<glyph unicode="p" horiz-adv-x="1306" d="M51 -150h86v902h-86v272h469l35 -72q14 10 37.5 25.5t54.5 29t70 23.5t86 10q119 0 210 -43t151.5 -116.5t91 -171t30.5 -205.5q0 -123 -36 -220.5t-98 -165t-148 -104.5t-185 -37q-63 0 -111.5 10.5t-80 25t-50 27.5t-24.5 17v-207h111v-268h-613v268zM553 489 q4 -104 46 -174.5t101 -70.5q66 0 106 69.5t40 186.5q0 45 -10.5 91t-30 81t-47 57.5t-60.5 22.5q-59 0 -104 -70q-41 -64 -41 -172v-21z" />
<glyph unicode="q" horiz-adv-x="1351" d="M51 518q0 133 38 231.5t104.5 164t155.5 98t192 32.5q100 0 163.5 -30.5t79.5 -50.5l39 61h477v-266h-100v-955h100v-274h-649v268h133v271q-35 -29 -102.5 -57.5t-159.5 -28.5q-98 0 -184 37.5t-149.5 107.5t-100.5 169t-37 222zM492 516q4 -104 46 -175t101 -71 q66 0 105.5 70t39.5 186q0 45 -10 91.5t-29.5 81t-47 57t-60.5 22.5q-59 0 -105 -69q-41 -64 -41 -173q1 -10 1 -20z" />
<glyph unicode="r" horiz-adv-x="847" d="M51 0v268h90v490h-88v266h385l62 -131q20 37 42.5 69.5t57.5 58.5t86 40t131 14v-368q-139 0 -214 -46.5t-75 -181.5v-211h103v-268h-580z" />
<glyph unicode="s" horiz-adv-x="1040" d="M31 0v369h274q0 -41 25.5 -68t60.5 -42t72 -21.5t59 -6.5q31 0 60.5 13.5t29.5 56.5q0 23 -26.5 38t-68.5 27.5t-96 26t-110 31.5q-53 18 -101 45t-87 65.5t-61.5 92t-22.5 125.5q0 78 36 134t90 92t116.5 53.5t117.5 17.5q104 0 188.5 -47.5t117.5 -112.5l16 135h252 v-369h-266q0 33 -18.5 60.5t-48.5 49t-66.5 34t-75.5 12.5q-33 0 -56.5 -17.5t-23.5 -56.5q0 -23 20.5 -38t56 -29.5t81 -28.5t94.5 -31q57 -20 116.5 -43.5t106.5 -59.5t76.5 -90.5t29.5 -133.5q0 -72 -31.5 -129.5t-84 -97.5t-122 -60.5t-143.5 -20.5q-111 0 -193.5 45.5 t-119.5 104.5l-18 -125h-256z" />
<glyph unicode="t" horiz-adv-x="743" d="M31 758v266h110v188l377 121v-309h195v-266h-195v-365q0 -27 -1 -55.5t4 -53t18.5 -40t44.5 -15.5q20 0 60 11.5t69 23.5v-262q-23 -10 -57.5 -17.5t-71.5 -11.5t-69 -7t-50 -3q-115 0 -180.5 31t-97 86t-39 135t-7.5 178v365h-110z" />
<glyph unicode="u" d="M31 754v270h495v-494q0 -133 23.5 -195.5t87.5 -62.5q53 0 91 43t38 113v326h-135v270h530v-752h101v-272h-388l-55 129q-16 -18 -39.5 -46t-57.5 -52.5t-81 -42t-113 -17.5q-117 0 -195.5 31t-126.5 92.5t-68.5 155.5t-20.5 221v283h-86z" />
<glyph unicode="v" horiz-adv-x="1255" d="M0 764v260h623v-260h-103l94 -217q25 -57 37.5 -119.5t16.5 -95.5h8q2 33 17.5 99.5t43.5 125.5l99 207h-109v260h528v-260h-106l-354 -764h-318l-381 764h-96z" />
<glyph unicode="w" horiz-adv-x="1785" d="M0 758v266h551v-266h-70l45 -150q10 -37 19.5 -79t15.5 -82.5t10 -75.5t7 -58h4q2 31 7 82t15 114.5t24.5 136.5t37.5 149l65 229h379l78 -266q18 -59 32.5 -126t25.5 -128.5t18.5 -112.5t11.5 -78h4q2 25 7 63t11.5 83t15.5 91t21 87l35 121h-84v266h500v-266h-84 l-240 -758h-432l-141 463l-148 -463h-422l-231 758h-88z" />
<glyph unicode="x" horiz-adv-x="1329" d="M41 0v254h137l209 235l-254 279h-92v256h664v-256h-97l144 -156l153 156h-137v256h522v-256h-135l-217 -219l258 -295h96v-254h-653v254h96l-155 166l-148 -166h133v-254h-524z" />
<glyph unicode="y" horiz-adv-x="1187" d="M-18 762v262h630v-260h-96l133 -320l133 320h-94v260h520v-254h-98l-389 -946q-20 -49 -50 -100.5t-79 -94.5t-125 -69q-70 -25 -171 -25h-15q-80 2 -140.5 32t-107.5 71l153 241q27 -23 56.5 -43t62.5 -26q25 -4 45.5 3t36.5 23.5t28.5 38t20.5 43.5l29 86l-399 758h-84 z" />
<glyph unicode="z" horiz-adv-x="1132" d="M51 0v268l494 492h-228v-146h-266v410h1014v-264l-487 -492h215v140h288v-408h-1030z" />
<glyph unicode="{" horiz-adv-x="921" d="M51 639q39 59 72 113q29 47 53.5 96t34.5 84q23 86 22.5 167t-2.5 152.5t1.5 135t32 116.5t91 95t176.5 71l211 -217q-100 -23 -150 -52.5t-67.5 -66.5t-11.5 -81t17.5 -96t18.5 -112.5t-9 -128.5q-8 -31 -25.5 -77.5t-38.5 -92.5q-23 -53 -49 -106q20 -51 37 -98 q14 -41 27.5 -83t19.5 -71q12 -76 6 -141.5t-16 -121.5t-13.5 -104.5t18 -89.5t76 -75.5t160.5 -63.5l-211 -219q-127 41 -197.5 92t-104 111.5t-39 130t-2 146.5t5.5 160t-15 171q-6 31 -27.5 74t-43.5 84q-27 47 -58 98z" />
<glyph unicode="|" horiz-adv-x="819" d="M313 -207v1882h191v-1882h-191z" />
<glyph unicode="}" horiz-adv-x="921" d="M236 -209q106 29 160.5 63.5t76 75.5t18 89.5t-13.5 104.5t-17 121.5t7 141.5q4 29 18.5 71t28.5 83q16 47 37 98q-27 53 -49 106q-20 45 -39 92.5t-25 77.5q-16 68 -9 128.5t18.5 112.5t17.5 96t-11.5 81t-67.5 67t-150 52l210 217q115 -29 177.5 -71t91 -95t32 -116.5 t1 -135t-2.5 -152.5t23 -167q8 -35 33.5 -84t54.5 -96q33 -53 72 -113q-33 -51 -60 -98q-23 -41 -43 -84t-26 -74q-18 -88 -15.5 -171t6 -160t-2 -146.5t-39 -130t-104.5 -111.5t-198 -92z" />
<glyph unicode="~" horiz-adv-x="819" d="M0 406v223q31 27 81 42t109.5 16t123 -11t120.5 -39t116.5 -32t111 6.5t91.5 33t62 47.5v-223q-29 -35 -82 -49t-114.5 -15.5t-124 11t-109.5 33.5q-55 25 -112.5 29.5t-109.5 -2.5t-94 -26t-69 -44z" />
<glyph unicode="&#xa3;" horiz-adv-x="1454" d="M20 772v102h250q-29 76 -33 165t37 200q37 102 109 176t165 119t201.5 62.5t220 4t222.5 -55.5t207 -113v-332q-61 53 -158.5 101t-200 69.5t-194.5 6.5t-141 -87q-49 -70 -35 -148.5t51 -167.5h459v-102h-414q25 -57 45 -117.5t26.5 -124t-6 -128t-53.5 -130.5h264v260 h344v-532h-1146v272h112q47 76 58.5 141.5t-1 126t-40 117t-56.5 115.5h-293z" />
<glyph unicode="&#xa5;" horiz-adv-x="1370" d="M-25 362v103h502v43l-71 121h-431v102h369l-264 438h-100v263h700v-263h-107l119 -217q4 -14 13.5 -36.5t19.5 -47t18.5 -47t12.5 -35.5h8q2 14 11 38t19.5 48.5t22.5 48t23 42.5l112 206h-112v263h551v-263h-111l-250 -438h371v-102h-428l-72 -125v-39h500v-103h-500 v-96h115v-266h-656v266h117v96h-502z" />
<glyph unicode="&#xa9;" horiz-adv-x="1705" d="M100 664q0 123 49.5 253t144.5 237.5t234.5 176t321.5 68.5q180 0 321.5 -68.5t237.5 -176t146.5 -238t50.5 -252.5q0 -152 -49.5 -284t-144.5 -230.5t-236.5 -154.5t-325.5 -56q-164 0 -301 62t-237.5 163.5t-156 232t-55.5 267.5zM291 664q0 -102 42 -198.5 t115.5 -173.5t176 -123t225.5 -46q137 0 243.5 42t177 115.5t107.5 172t37 211.5q0 92 -38 189t-109.5 178t-177 132t-240.5 51t-239.5 -51t-175 -132t-107.5 -178t-37 -189zM457 662q0 96 29.5 165.5t79.5 115.5t114.5 67.5t134.5 21.5q37 0 66.5 -9t52 -22.5t38 -28 t25.5 -24.5l23 72h172v-330h-213q0 25 -5 52.5t-16.5 49t-28 36t-40.5 14.5q-33 0 -57.5 -15.5t-41 -42t-24.5 -59.5t-8 -68q0 -72 41 -123t112 -51q57 0 98.5 21.5t77.5 60.5l127 -145q-53 -57 -146 -104.5t-212 -47.5q-80 0 -152.5 24.5t-127 74t-87 123.5t-32.5 172z" />
<glyph unicode="&#xaa;" horiz-adv-x="1228" d="M31 303q0 86 33.5 155.5t92 119t136.5 76t164 26.5q45 0 80.5 -9t61.5 -21.5t41 -25t19 -16.5v72q0 70 -55 92.5t-139 22.5q-92 0 -169 -31t-136 -64l-86 238q31 18 78 43t105 48.5t125 38.5t138 15q92 0 190.5 -19.5t179.5 -67.5t133 -130t52 -204v-400h123v-262h-438 l-49 92q-29 -39 -65 -64.5t-73.5 -40t-74.5 -20.5t-64 -6q-74 0 -145.5 20.5t-129 61.5t-93 105.5t-35.5 154.5zM420 324q0 -43 30.5 -70t77.5 -27t82 22.5t49 45.5v78q-2 4 -9 13t-21.5 19.5t-36 18.5t-53.5 8q-61 0 -90 -30.5t-29 -77.5z" />
<glyph unicode="&#xab;" horiz-adv-x="1433" d="M154 430v287l510 512l124 -230l-403 -436l403 -432l-77 -213zM645 430v287l510 512l125 -230l-403 -436l403 -432l-78 -213z" />
<glyph unicode="&#xad;" horiz-adv-x="790" d="M96 352v273h594v-273h-594z" />
<glyph unicode="&#xae;" horiz-adv-x="1705" d="M100 664q0 123 49.5 253t144.5 237.5t234.5 176t321.5 68.5q180 0 321.5 -68.5t237.5 -176t146.5 -238t50.5 -252.5q0 -152 -49.5 -284t-144.5 -230.5t-236.5 -154.5t-325.5 -56q-164 0 -301 62t-237.5 163.5t-156 232t-55.5 267.5zM291 664q0 -102 42 -198.5 t115.5 -173.5t176 -123t225.5 -46q137 0 243.5 42t177 115.5t107.5 172t37 211.5q0 92 -38 189t-109.5 178t-177 132t-240.5 51t-239.5 -51t-175 -132t-107.5 -178t-37 -189zM510 270v142h63v473h-63v145h356q94 0 152.5 -17.5t91.5 -48t44 -71.5t11 -88q0 -63 -45 -103 t-112 -51q55 -16 99 -57t44 -100q0 -76 27 -76q23 0 22 35v36h76v-61q0 -68 -35 -121t-125 -53q-106 0 -154.5 54t-48.5 149q0 76 -22.5 100.5t-95.5 24.5v-170h67v-142h-352zM795 702h49q106 0 106 89q0 96 -102 96h-53v-185z" />
<glyph unicode="&#xb1;" d="M184 37v223h908v-223h-908zM184 711v223h342v340h224v-340h342v-223h-342v-344h-224v344h-342z" />
<glyph unicode="&#xb2;" horiz-adv-x="819" d="M127 647v160q23 37 40 61.5t35.5 45t38 38t44.5 37.5q31 25 64.5 46.5t62 43t47 45t18.5 47.5q0 43 -25.5 57.5t-68.5 14.5t-75 -27.5t-56 -54.5l-119 125q59 66 131 100.5t152 34.5q55 0 102 -17.5t83 -48t55.5 -74.5t19.5 -99q0 -47 -11.5 -81t-33 -60.5t-53 -50 t-74.5 -52.5q-20 -12 -45 -30.5t-48.5 -39t-44 -40t-28.5 -35.5h192v88h183v-234h-586z" />
<glyph unicode="&#xb3;" horiz-adv-x="819" d="M133 772l109 115q33 -29 65.5 -49.5t81.5 -20.5q96 0 96 82t-96 82h-78v127h78q43 0 69.5 20.5t26.5 55.5q0 43 -30.5 64.5t-65.5 21.5q-66 0 -127 -66l-106 129q14 14 38.5 32.5t55.5 33t66.5 25t72.5 10.5q133 0 205 -62.5t72 -167.5q0 -53 -29 -87t-51 -50 q12 -10 29.5 -25.5t33 -37t26.5 -50t11 -65.5q0 -61 -25.5 -106.5t-67.5 -75t-95.5 -44t-108.5 -14.5q-41 0 -80 10.5t-72.5 28t-61.5 38.5t-42 46z" />
<glyph unicode="&#xb9;" horiz-adv-x="1015" d="M51 1163q43 20 84 41t83 48.5t89 69.5t103 110h364v-1160h191v-272h-820v272h205v760l-205 -96z" />
<glyph unicode="&#xba;" horiz-adv-x="1175" d="M23 516q0 129 48 228.5t126.5 167t179 102.5t207.5 35q121 0 224 -37t179 -106.5t120 -169t46 -228.5v-11q0 -120 -42 -215q-44 -99 -120 -168t-178 -105t-219 -36q-111 0 -214.5 34t-183 101.5t-127.5 170.5q-46 98 -47 226q1 5 1 11zM442 514q0 -127 43 -202.5 t109 -75.5q33 0 58.5 20t44 57t27.5 87.5t9 107.5q0 117 -39 194.5t-110 79.5q-31 0 -56.5 -20.5t-44 -57t-30 -86t-11.5 -104.5z" />
<glyph unicode="&#xbb;" horiz-adv-x="1433" d="M154 131l403 432l-403 436l125 230l509 -512v-287l-557 -512zM645 131l404 432l-404 436l125 230l510 -512v-287l-557 -512z" />
<glyph unicode="&#xbf;" horiz-adv-x="1064" d="M4 -94q0 68 24.5 118t60.5 91t78 72.5t78 60t60.5 55.5t24.5 57v113h381v-164q0 -47 -24.5 -88t-60.5 -76.5t-78 -67.5t-78 -61.5t-60.5 -57.5t-24.5 -56q0 -29 13.5 -48.5t35 -29.5t49 -14.5t54.5 -4.5q33 0 68.5 14.5t71.5 39t67.5 54.5t58.5 60l221 -223 q-109 -125 -244 -194.5t-288 -69.5q-102 0 -191.5 26.5t-155 80t-103.5 131.5t-38 182zM287 741q0 86 65.5 148.5t177.5 62.5q49 0 92.5 -18.5t75 -47t49 -67.5t17.5 -78t-15.5 -77.5t-46 -69.5t-73.5 -50.5t-99 -19.5q-55 0 -99 17.5t-76.5 47t-50 69.5t-17.5 83z" />
<glyph unicode="&#xc0;" horiz-adv-x="1685" d="M31 0v268h139l276 899h-84v265h787l362 -1164h144v-268h-821v268h194l-43 140h-420l-43 -140h160v-268h-651zM535 1700l141 196l268 -368l-176 -90zM641 653h268l-135 443z" />
<glyph unicode="&#xc1;" horiz-adv-x="1685" d="M31 0h651v268h-160l43 140h420l43 -140h-194v-268h821v268h-144l-362 1164h-787v-265h84l-276 -899h-139v-268zM596 1528l268 368l142 -196l-234 -262zM641 653l133 443l135 -443h-268z" />
<glyph unicode="&#xc2;" horiz-adv-x="1685" d="M31 0h651v268h-160l43 140h420l43 -140h-194v-268h821v268h-144l-362 1164h-787v-265h84l-276 -899h-139v-268zM369 1536l329 264h144l303 -229l-127 -107l-240 148l-233 -166zM641 653l133 443l135 -443h-268z" />
<glyph unicode="&#xc3;" horiz-adv-x="1685" d="M31 0h651v268h-160l43 140h420l43 -140h-194v-268h821v268h-144l-362 1164h-787v-265h84l-276 -899h-139v-268zM360 1470v224q31 27 81.5 42t109.5 16t122.5 -11t121.5 -39q117 -53 207 -34.5t149 71.5v-205q-14 -29 -61.5 -44t-107.5 -16t-124.5 9t-112.5 30 q-55 25 -112.5 30t-109.5 -2t-94 -26.5t-69 -44.5zM641 653l133 443l135 -443h-268z" />
<glyph unicode="&#xc4;" horiz-adv-x="1685" d="M31 0v268h139l276 899h-84v265h787l362 -1164h144v-268h-821v268h194l-43 140h-420l-43 -140h160v-268h-651zM508 1485v172h192v-172h-192zM641 653h268l-135 443zM836 1485v172h192v-172h-192z" />
<glyph unicode="&#xc5;" horiz-adv-x="1685" d="M31 0v268h139l276 899h-84v265h787l362 -1164h144v-268h-821v268h194l-43 140h-420l-43 -140h160v-268h-651zM641 653h268l-135 443z" />
<glyph unicode="&#xc6;" horiz-adv-x="2181" d="M23 0v268h139l563 899h-84v265h1518v-453h-355v182h-327v-282h389v-273h-389v-334h327v191h355v-463h-1235v272h129v136h-455l-84 -140h160v-268h-651zM743 653h310v443z" />
<glyph unicode="&#xc7;" horiz-adv-x="1404" d="M31 702q0 176 59.5 316.5t151.5 238t201.5 148.5t209.5 51q76 0 132.5 -18.5t95.5 -42t60.5 -47t27.5 -31.5l47 115h321v-582h-366q-2 49 -16.5 96t-40 83t-65.5 57.5t-95 21.5t-100.5 -32t-77 -87t-49 -129t-17.5 -158q0 -76 19.5 -145.5t57.5 -122.5t93 -85t129 -32 q63 0 120.5 29t100.5 64.5t70.5 67.5t34.5 40l239 -262q-53 -57 -118.5 -109.5t-143.5 -92.5t-168 -63.5t-190 -23.5q-164 0 -297 50.5t-227.5 145.5t-146.5 231t-52 308zM600 -383q0 2 24.5 -4t62.5 -9t84 0t87 21.5t73 56t42 105.5q8 61 -5.5 92t-41 41t-64.5 6l-74 -8 l27 64h-125l-57 -191q27 12 74 26.5t90 18.5t68.5 -8t11.5 -51q-10 -29 -38 -47.5t-65 -26.5t-79 -3t-79 26z" />
<glyph unicode="&#xc8;" horiz-adv-x="1337" d="M51 0v272h129v889h-129v271h1235v-453h-354v182h-328v-282h389v-273h-389v-334h328v191h354v-463h-1235zM453 1706l141 197l268 -369l-176 -90z" />
<glyph unicode="&#xc9;" horiz-adv-x="1337" d="M51 0h1235v463h-354v-191h-328v334h389v273h-389v282h328v-182h354v453h-1235v-271h129v-889h-129v-272zM465 1536l268 369l141 -197l-233 -262z" />
<glyph unicode="&#xca;" horiz-adv-x="1337" d="M51 0h1235v463h-354v-191h-328v334h389v273h-389v282h328v-182h354v453h-1235v-271h129v-889h-129v-272zM328 1536l329 264h144l303 -229l-127 -107l-240 148l-233 -166z" />
<glyph unicode="&#xcb;" horiz-adv-x="1275" d="M51 0v272h129v889h-129v271h1235v-453h-354v182h-328v-282h389v-273h-389v-334h328v191h354v-463h-1235zM406 1485v172h192v-172h-192zM733 1485v172h193v-172h-193z" />
<glyph unicode="&#xcc;" horiz-adv-x="782" d="M51 0v272h129v889h-129v271h680v-271h-127v-889h127v-272h-680zM158 1708l141 197l268 -369l-176 -90z" />
<glyph unicode="&#xcd;" horiz-adv-x="782" d="M51 0h680v272h-127v889h127v271h-680v-271h129v-889h-129v-272zM219 1536l268 369l142 -197l-234 -262z" />
<glyph unicode="&#xce;" horiz-adv-x="782" d="M-20 1536l329 264h144l303 -229l-127 -107l-240 148l-233 -166zM51 0h680v272h-127v889h127v271h-680v-271h129v-889h-129v-272z" />
<glyph unicode="&#xcf;" horiz-adv-x="782" d="M51 0v272h129v889h-129v271h680v-271h-127v-889h127v-272h-680zM121 1505v172h192v-172h-192zM449 1505v172h192v-172h-192z" />
<glyph unicode="&#xd1;" horiz-adv-x="1671" d="M51 0h629v264h-158v516l522 -780h441v1167h135v265h-616v-265h139v-487l-502 752h-588v-265h119v-903h-121v-264zM428 1470v224q31 27 81 42t109.5 16t123 -11t120.5 -39t113.5 -34t105.5 0t91 25.5t71 45.5v-205q-25 -29 -77 -44t-114.5 -16t-127 9t-111.5 30 q-55 25 -112.5 30t-109.5 -2t-94 -26.5t-69 -44.5z" />
<glyph unicode="&#xd2;" horiz-adv-x="1515" d="M31 723q0 166 52 303t147.5 236.5t227.5 153.5t292 54q188 0 326 -54t229.5 -153.5t135.5 -240.5t44 -313q0 -174 -47 -312.5t-139.5 -234.5t-226.5 -147.5t-308 -51.5q-160 0 -295 47t-232.5 141.5t-151.5 236.5t-54 335zM516 1735l141 196l269 -368l-176 -90zM537 723 q0 -100 17 -181t47 -138.5t72 -88t91 -30.5t87 30.5t65.5 86t42 133t14.5 174.5q0 92 -13.5 174t-41 141t-69.5 95t-101 36q-47 0 -86 -31.5t-67 -89t-43 -137.5t-15 -174z" />
<glyph unicode="&#xd3;" horiz-adv-x="1515" d="M31 723q0 -193 54 -335t151.5 -236.5t232.5 -141.5t295 -47q174 0 308 51.5t226.5 147.5t139.5 234.5t47 312.5q0 172 -44 313t-135.5 240.5t-229.5 153.5t-326 54q-160 0 -292 -54t-227.5 -153.5t-147.5 -236.5t-52 -303zM537 723q0 94 15 174t43 137.5t66.5 89 t86.5 31.5q59 0 101 -36t69.5 -95t41 -141t13.5 -174q0 -96 -14.5 -174t-42 -133.5t-65.5 -86t-87 -30.5t-91 30.5t-72 88t-47 138.5t-17 181zM573 1567l269 368l141 -196l-233 -262z" />
<glyph unicode="&#xd4;" horiz-adv-x="1515" d="M31 723q0 -193 54 -335t151.5 -236.5t232.5 -141.5t295 -47q174 0 308 51.5t226.5 147.5t139.5 234.5t47 312.5q0 172 -44 313t-135.5 240.5t-229.5 153.5t-326 54q-160 0 -292 -54t-227.5 -153.5t-147.5 -236.5t-52 -303zM348 1556l330 265h143l303 -230l-127 -106 l-239 147l-234 -166zM537 723q0 94 15 174t43 137.5t66.5 89t86.5 31.5q59 0 101 -36t69.5 -95t41 -141t13.5 -174q0 -96 -14.5 -174t-42 -133.5t-65.5 -86t-87 -30.5t-91 30.5t-72 88t-47 138.5t-17 181z" />
<glyph unicode="&#xd5;" horiz-adv-x="1515" d="M342 1596v223q31 27 81 42t109.5 16t123 -11t120.5 -39t116.5 -32t111 6.5t91.5 33t62 47.5v-223q-29 -35 -82 -49t-114.5 -15.5t-124 11t-109.5 33.5q-55 25 -112.5 29.5t-109.5 -2.5t-94 -26t-69 -44zM31 723q0 166 52 303t147.5 236.5t227.5 153.5t292 54 q188 0 326 -54t229.5 -153.5t135.5 -240.5t44 -313q0 -174 -47 -312.5t-139.5 -234.5t-226.5 -147.5t-308 -51.5q-160 0 -295 47t-232.5 141.5t-151.5 236.5t-54 335zM537 723q0 -100 17 -181t47 -138.5t72 -88t91 -30.5t87 30.5t65.5 86t42 133t14.5 174.5q0 92 -13.5 174 t-41 141t-69.5 95t-101 36q-47 0 -86 -31.5t-67 -89t-43 -137.5t-15 -174z" />
<glyph unicode="&#xd6;" horiz-adv-x="1515" d="M31 723q0 166 52 303t147.5 236.5t227.5 153.5t292 54q188 0 326 -54t229.5 -153.5t135.5 -240.5t44 -313q0 -174 -47 -312.5t-139.5 -234.5t-226.5 -147.5t-308 -51.5q-160 0 -295 47t-232.5 141.5t-151.5 236.5t-54 335zM487 1526v172h193v-172h-193zM537 723 q0 -100 17 -181t47 -138.5t72 -88t91 -30.5t87 30.5t65.5 86t42 133t14.5 174.5q0 92 -13.5 174t-41 141t-69.5 95t-101 36q-47 0 -86 -31.5t-67 -89t-43 -137.5t-15 -174zM815 1526v172h193v-172h-193z" />
<glyph unicode="&#xd7;" d="M152 195l294 294l-294 293l192 193l295 -293l293 293l192 -193l-293 -293l293 -294l-192 -193l-293 295l-295 -295z" />
<glyph unicode="&#xd9;" horiz-adv-x="1509" d="M31 1165v267h651v-265h-111v-442q0 -123 13.5 -201t40 -122t64.5 -60t87 -16q47 0 85 13t65.5 55t42 121t14.5 212v434h-111v271h607v-265h-111v-497q0 -365 -149.5 -537t-438.5 -168q-311 4 -473 174t-162 520v506h-114zM555 1706l141 197l269 -369l-177 -90z" />
<glyph unicode="&#xda;" horiz-adv-x="1509" d="M31 1165h114v-506q0 -350 162 -520t473 -174q289 -4 438.5 168t149.5 537v497h111v265h-607v-271h111v-434q0 -133 -14.5 -212t-42 -121t-65.5 -55t-85 -13q-49 0 -87 16t-64.5 60t-40 122t-13.5 201v442h111v265h-651v-267zM596 1534l268 369l142 -197l-234 -262z" />
<glyph unicode="&#xdb;" horiz-adv-x="1509" d="M31 1165h114v-506q0 -350 162 -520t473 -174q289 -4 438.5 168t149.5 537v497h111v265h-607v-271h111v-434q0 -133 -14.5 -212t-42 -121t-65.5 -55t-85 -13q-49 0 -87 16t-64.5 60t-40 122t-13.5 201v442h111v265h-651v-267zM369 1536l329 264h144l303 -229l-127 -107 l-240 148l-233 -166z" />
<glyph unicode="&#xdc;" horiz-adv-x="1509" d="M31 1165v267h651v-265h-111v-442q0 -123 13.5 -201t40 -122t64.5 -60t87 -16q47 0 85 13t65.5 55t42 121t14.5 212v434h-111v271h607v-265h-111v-497q0 -365 -149.5 -537t-438.5 -168q-311 4 -473 174t-162 520v506h-114zM489 1485v172h193v-172h-193zM870 1485v172h193 v-172h-193z" />
<glyph unicode="&#xe0;" horiz-adv-x="1228" d="M31 303q0 86 33.5 155.5t92 119t136.5 76t164 26.5q45 0 80.5 -9t61.5 -21.5t41 -25t19 -16.5v72q0 70 -55 92.5t-139 22.5q-92 0 -169 -31t-136 -64l-86 238q31 18 78 43t105 48.5t125 38.5t138 15h39l-229 256l141 197l268 -369l-166 -86q88 -4 177.5 -27.5t161 -71.5 t117.5 -127t46 -193v-400h123v-262h-438l-49 92q-29 -39 -65 -64.5t-73.5 -40t-74.5 -20.5t-64 -6q-74 0 -145.5 20.5t-129 61.5t-93 105.5t-35.5 154.5zM420 324q0 -43 30.5 -70t77.5 -27t82 22.5t49 45.5v78q-2 4 -9 13t-21.5 19.5t-36 18.5t-53.5 8q-61 0 -90 -30.5 t-29 -77.5z" />
<glyph unicode="&#xe1;" horiz-adv-x="1228" d="M31 303q0 -90 35.5 -154.5t93 -105.5t129 -61.5t145.5 -20.5q27 0 64 6t74.5 20.5t73.5 40t65 64.5l49 -92h438v262h-123v400q0 123 -52 204.5t-133 129.5t-179.5 67.5t-190.5 19.5q-72 0 -138.5 -15t-124.5 -38.5t-105.5 -48.5t-77.5 -43l86 -238q59 33 136 64t169 31 q84 0 139 -22.5t55 -92.5v-72q-4 4 -19 16.5t-41 25t-61.5 21.5t-80.5 9q-86 0 -164 -26.5t-136.5 -76t-92 -119t-33.5 -155.5zM391 1167l268 369l142 -197l-234 -262zM420 324q0 47 28.5 77.5t90.5 30.5q33 0 54 -8t35.5 -18.5t21.5 -19.5t9 -13v-78q-14 -23 -49 -45.5 t-82 -22.5t-77.5 27t-30.5 70z" />
<glyph unicode="&#xe2;" horiz-adv-x="1228" d="M31 303q0 -90 35.5 -154.5t93 -105.5t129 -61.5t145.5 -20.5q27 0 64 6t74.5 20.5t73.5 40t65 64.5l49 -92h438v262h-123v400q0 123 -52 204.5t-133 129.5t-179.5 67.5t-190.5 19.5q-72 0 -138.5 -15t-124.5 -38.5t-105.5 -48.5t-77.5 -43l86 -238q59 33 136 64t169 31 q84 0 139 -22.5t55 -92.5v-72q-4 4 -19 16.5t-41 25t-61.5 21.5t-80.5 9q-86 0 -164 -26.5t-136.5 -76t-92 -119t-33.5 -155.5zM106 1167l330 265h144l303 -230l-127 -106l-240 147l-233 -166zM420 324q0 47 28.5 77.5t90.5 30.5q33 0 54 -8t35.5 -18.5t21.5 -19.5t9 -13 v-78q-14 -23 -49 -45.5t-82 -22.5t-77.5 27t-30.5 70z" />
<glyph unicode="&#xe3;" horiz-adv-x="1228" d="M31 303q0 -90 35.5 -154.5t93 -105.5t129 -61.5t145.5 -20.5q27 0 64 6t74.5 20.5t73.5 40t65 64.5l49 -92h438v262h-123v400q0 123 -52 204.5t-133 129.5t-179.5 67.5t-190.5 19.5q-72 0 -138.5 -15t-124.5 -38.5t-105.5 -48.5t-77.5 -43l86 -238q59 33 136 64t169 31 q84 0 139 -22.5t55 -92.5v-72q-4 4 -19 16.5t-41 25t-61.5 21.5t-80.5 9q-86 0 -164 -26.5t-136.5 -76t-92 -119t-33.5 -155.5zM162 1143v223q31 27 81 42t109.5 16t123 -11t120.5 -39t113.5 -34t105.5 0.5t91 25.5t71 45v-205q-25 -29 -77 -44t-114.5 -16t-127 9t-111.5 31 q-55 25 -112.5 30t-110 -2.5t-94 -26.5t-68.5 -44zM420 324q0 47 28.5 77.5t90.5 30.5q33 0 54 -8t35.5 -18.5t21.5 -19.5t9 -13v-78q-14 -23 -49 -45.5t-82 -22.5t-77.5 27t-30.5 70z" />
<glyph unicode="&#xe4;" horiz-adv-x="1228" d="M31 303q0 86 33.5 155.5t92 119t136.5 76t164 26.5q45 0 80.5 -9t61.5 -21.5t41 -25t19 -16.5v72q0 70 -55 92.5t-139 22.5q-92 0 -169 -31t-136 -64l-86 238q31 18 78 43t105 48.5t125 38.5t138 15q92 0 190.5 -19.5t179.5 -67.5t133 -130t52 -204v-400h123v-262h-438 l-49 92q-29 -39 -65 -64.5t-73.5 -40t-74.5 -20.5t-64 -6q-74 0 -145.5 20.5t-129 61.5t-93 105.5t-35.5 154.5zM260 1198v172h193v-172h-193zM420 324q0 -43 30.5 -70t77.5 -27t82 22.5t49 45.5v78q-2 4 -9 13t-21.5 19.5t-36 18.5t-53.5 8q-61 0 -90 -30.5t-29 -77.5z M588 1198v172h192v-172h-192z" />
<glyph unicode="&#xe5;" horiz-adv-x="1228" d="M31 303q0 86 33.5 155.5t92 119t136.5 76t164 26.5q45 0 80.5 -9t61.5 -21.5t41 -25t19 -16.5v72q0 70 -55 92.5t-139 22.5q-92 0 -169 -31t-136 -64l-86 238q31 18 78 43t105 48.5t125 38.5t138 15q92 0 190.5 -19.5t179.5 -67.5t133 -130t52 -204v-400h123v-262h-438 l-49 92q-29 -39 -65 -64.5t-73.5 -40t-74.5 -20.5t-64 -6q-74 0 -145.5 20.5t-129 61.5t-93 105.5t-35.5 154.5zM420 324q0 -43 30.5 -70t77.5 -27t82 22.5t49 45.5v78q-2 4 -9 13t-21.5 19.5t-36 18.5t-53.5 8q-61 0 -90 -30.5t-29 -77.5z" />
<glyph unicode="&#xe6;" horiz-adv-x="1912" d="M31 303q0 86 33.5 155.5t92 119t136.5 76t164 26.5q45 0 80.5 -9t61.5 -21.5t41 -25t19 -16.5v72q0 70 -55 92.5t-139 22.5q-92 0 -169 -31t-136 -64l-86 238q31 18 78 43t105 48.5t125 38.5t138 15q61 0 125 -8t125 -27.5t116.5 -50t96.5 -75.5q74 63 171 97t210 34 q92 0 171 -22.5t142.5 -61.5t108.5 -94.5t67 -118.5q8 -27 16.5 -68t11.5 -88t-2 -97t-21 -93h-646q4 -20 13.5 -49t32 -55.5t61.5 -45t104 -18.5q27 0 58.5 2t68.5 12t78 29.5t82 54.5l172 -199q-115 -98 -242 -138t-286 -40q-121 0 -242 51.5t-199 161.5 q-31 -80 -100.5 -124t-144 -64.5t-141 -23.5t-93.5 -3q-74 0 -145.5 20.5t-129 61.5t-93 105.5t-35.5 154.5zM420 324q0 -43 30.5 -70t77.5 -27t82 22.5t49 45.5v78q-2 4 -9 13t-21.5 19.5t-36 18.5t-53.5 8q-61 0 -90 -30.5t-29 -77.5zM1219 612h309q0 29 -6 58.5 t-21.5 53.5t-45.5 38t-79 14q-47 0 -76.5 -18.5t-47 -44t-24.5 -54.5t-9 -47z" />
<glyph unicode="&#xe7;" horiz-adv-x="1087" d="M2 518q0 135 42 234.5t111.5 164t161 95t189.5 30.5q51 0 93 -12t74 -30.5t54.5 -39t34.5 -34.5l35 98h241v-463h-301q-2 37 -9 75t-21.5 69.5t-39 51t-59.5 19.5q-45 0 -78.5 -22.5t-56 -59.5t-34 -84t-11.5 -96q0 -100 56.5 -170t154.5 -72q82 -2 139.5 30t108.5 87 l180 -209q-35 -37 -84 -73.5t-110.5 -65.5t-133 -48.5t-149.5 -21.5l-17 -43q31 4 63 7.5t56.5 -5t36.5 -35t4 -79.5q-8 -57 -35.5 -90t-63.5 -49.5t-75 -18.5t-72.5 1t-55.5 7l-21 4l16 92q33 -16 68.5 -20t67.5 2t55.5 22.5t31.5 38.5q12 35 -10.5 45.5t-59 7.5 t-76.5 -15.5t-65 -22.5l47 155q-100 12 -188 51.5t-153.5 107t-103.5 163.5t-38 221z" />
<glyph unicode="&#xe8;" horiz-adv-x="1110" d="M10 518q0 125 43 224.5t117 169t174 105.5t217 36q92 0 171 -22.5t142.5 -61.5t108.5 -94.5t68 -118.5q8 -27 16 -68t11 -88t-2 -97t-21 -93h-645q4 -20 13 -49t31.5 -55.5t61.5 -45t105 -18.5q27 0 58.5 2t68 12t77.5 29.5t82 54.5l172 -199q-115 -98 -241.5 -138 t-286.5 -40q-96 0 -192.5 32t-173 98.5t-126 172t-49.5 252.5zM330 1339l141 197l268 -369l-176 -90zM416 612h309q0 29 -6 58.5t-21.5 53.5t-45 38t-79.5 14q-47 0 -76.5 -18.5t-47 -44t-24.5 -54.5t-9 -47z" />
<glyph unicode="&#xe9;" horiz-adv-x="1110" d="M10 518q0 -147 49.5 -252.5t126 -172t173 -98.5t192.5 -32q160 0 287 40t241 138l-172 199q-41 -35 -82 -54.5t-77.5 -29.5t-68.5 -12t-58 -2q-66 0 -105 18.5t-61.5 45t-31.5 55t-13 49.5h645q16 43 21 93t2 97t-11 88t-16 68q-23 63 -68 118.5t-108.5 94.5t-142.5 61.5 t-171 22.5q-117 0 -217 -36t-174 -105.5t-117 -169t-43 -224.5zM383 1167l268 369l142 -197l-234 -262zM416 612q2 18 9 47t24.5 54.5t47 44t76.5 18.5q49 0 79 -14t45.5 -38t21.5 -53.5t6 -58.5h-309z" />
<glyph unicode="&#xea;" horiz-adv-x="1110" d="M10 518q0 -147 49.5 -252.5t126 -172t173 -98.5t192.5 -32q160 0 287 40t241 138l-172 199q-41 -35 -82 -54.5t-77.5 -29.5t-68.5 -12t-58 -2q-66 0 -105 18.5t-61.5 45t-31.5 55t-13 49.5h645q16 43 21 93t2 97t-11 88t-16 68q-23 63 -68 118.5t-108.5 94.5t-142.5 61.5 t-171 22.5q-117 0 -217 -36t-174 -105.5t-117 -169t-43 -224.5zM158 1167l329 265h144l303 -230l-127 -106l-240 147l-233 -166zM416 612q2 18 9 47t24.5 54.5t47 44t76.5 18.5q49 0 79 -14t45.5 -38t21.5 -53.5t6 -58.5h-309z" />
<glyph unicode="&#xeb;" horiz-adv-x="1110" d="M10 518q0 125 43 224.5t117 169t174 105.5t217 36q92 0 171 -22.5t142.5 -61.5t108.5 -94.5t68 -118.5q8 -27 16 -68t11 -88t-2 -97t-21 -93h-645q4 -20 13 -49t31.5 -55.5t61.5 -45t105 -18.5q27 0 58.5 2t68 12t77.5 29.5t82 54.5l172 -199q-115 -98 -241.5 -138 t-286.5 -40q-96 0 -192.5 32t-173 98.5t-126 172t-49.5 252.5zM299 1198v172h193v-172h-193zM416 612h309q0 29 -6 58.5t-21.5 53.5t-45 38t-79.5 14q-47 0 -76.5 -18.5t-47 -44t-24.5 -54.5t-9 -47zM627 1198v172h192v-172h-192z" />
<glyph unicode="&#xec;" horiz-adv-x="675" d="M51 0v268h86v490h-86v266h475v-756h99v-268h-574zM104 1339l142 197l268 -369l-176 -90z" />
<glyph unicode="&#xed;" horiz-adv-x="675" d="M51 0h574v268h-99v756h-475v-266h86v-490h-86v-268zM137 1167l269 369l141 -197l-234 -262z" />
<glyph unicode="&#xee;" horiz-adv-x="675" d="M-102 1167l329 265h144l303 -230l-127 -106l-240 147l-233 -166zM51 0h574v268h-99v756h-475v-266h86v-490h-86v-268z" />
<glyph unicode="&#xef;" horiz-adv-x="675" d="M51 0v268h86v490h-86v266h475v-756h99v-268h-574zM53 1198v172h193v-172h-193zM334 1198v172h192v-172h-192z" />
<glyph unicode="&#xf1;" horiz-adv-x="1325" d="M51 0h631v268h-147v291q0 33 5 66.5t19 61.5t40 45.5t65 17.5q45 0 68.5 -20.5t33.5 -49.5t11 -61.5t1 -59.5v-559h516v268h-96v342q0 80 -13.5 161t-53 145.5t-112.5 104.5t-192 40q-98 0 -168.5 -46t-123.5 -118l-48 127h-436v-266h86v-490h-86v-268zM244 1143v223 q31 27 81 42t109.5 16t123 -11t120.5 -39t113.5 -34t105.5 0.5t91 25.5t71 45v-205q-25 -29 -77 -44t-114.5 -16t-127 9t-111.5 31q-55 25 -112.5 30t-110 -2.5t-94 -26.5t-68.5 -44z" />
<glyph unicode="&#xf2;" horiz-adv-x="1175" d="M23 516q0 129 48 228.5t126.5 167t179 102.5t207.5 35q121 0 224 -37t179 -106.5t120 -169t46 -228.5q2 -127 -42 -226.5t-120 -168t-178 -104.5t-219 -36q-111 0 -214.5 34t-183 101.5t-127.5 170t-46 237.5zM348 1315l141 196l269 -368l-176 -90zM442 514 q0 -127 43 -202.5t109 -75.5q33 0 58.5 20t44 57t27.5 87.5t9 107.5q0 117 -39 194.5t-110 79.5q-31 0 -56.5 -20.5t-44 -57t-30 -86t-11.5 -104.5z" />
<glyph unicode="&#xf3;" horiz-adv-x="1175" d="M23 516q-2 -135 46 -237.5t127.5 -170t183 -101.5t214.5 -34q117 0 219 36t178 104.5t120 168t42 226.5q-2 129 -46 228.5t-120 169t-179 106.5t-224 37q-106 0 -207 -35t-179.5 -102.5t-126.5 -167t-48 -228.5zM410 1143l268 368l141 -196l-233 -262zM442 514 q0 55 11.5 104.5t30 86t44 57t56.5 20.5q72 -2 110.5 -79.5t38.5 -194.5q0 -57 -9 -107.5t-27.5 -87.5t-44 -57t-58.5 -20q-66 0 -109 75.5t-43 202.5z" />
<glyph unicode="&#xf4;" horiz-adv-x="1175" d="M23 516q-2 -135 46 -237.5t127.5 -170t183 -101.5t214.5 -34q117 0 219 36t178 104.5t120 168t42 226.5q-2 129 -46 228.5t-120 169t-179 106.5t-224 37q-106 0 -207 -35t-179.5 -102.5t-126.5 -167t-48 -228.5zM174 1167l330 265h143l303 -230l-127 -106l-239 147 l-234 -166zM442 514q0 55 11.5 104.5t30 86t44 57t56.5 20.5q72 -2 110.5 -79.5t38.5 -194.5q0 -57 -9 -107.5t-27.5 -87.5t-44 -57t-58.5 -20q-66 0 -109 75.5t-43 202.5z" />
<glyph unicode="&#xf5;" horiz-adv-x="1175" d="M176 1174v223q31 27 81 42t109.5 16t123 -11t120.5 -39t116.5 -32t111 6.5t91.5 33t62 47.5v-223q-29 -35 -82 -49t-114.5 -15.5t-124 11t-109.5 33.5q-55 25 -112.5 29.5t-109.5 -2.5t-94 -26t-69 -44zM23 516q0 129 48 228.5t126.5 167t179 102.5t207.5 35 q121 0 224 -37t179 -106.5t120 -169t46 -228.5v-11q0 -120 -42 -215q-44 -99 -120 -168t-178 -105t-219 -36q-111 0 -214.5 34t-183 101.5t-127.5 170.5q-46 98 -47 226q1 5 1 11zM442 514q0 -127 43 -202.5t109 -75.5q33 0 58.5 20t44 57t27.5 87.5t9 107.5 q0 117 -39 194.5t-110 79.5q-31 0 -56.5 -20.5t-44 -57t-30 -86t-11.5 -104.5z" />
<glyph unicode="&#xf6;" horiz-adv-x="1175" d="M23 516q0 129 48 228.5t126.5 167t179 102.5t207.5 35q121 0 224 -37t179 -106.5t120 -169t46 -228.5q2 -127 -42 -226.5t-120 -168t-178 -104.5t-219 -36q-111 0 -214.5 34t-183 101.5t-127.5 170t-46 237.5zM324 1198v172h192v-172h-192zM442 514q0 -127 43 -202.5 t109 -75.5q33 0 58.5 20t44 57t27.5 87.5t9 107.5q0 117 -39 194.5t-110 79.5q-31 0 -56.5 -20.5t-44 -57t-30 -86t-11.5 -104.5zM651 1198v172h193v-172h-193z" />
<glyph unicode="&#xf7;" d="M86 516v111h1104v-111h-1104zM420 221q0 39 14.5 79t44 74t71.5 55.5t97 21.5t98 -21.5t73 -55.5t45.5 -74t15.5 -79q0 -45 -16.5 -85t-47.5 -68.5t-74 -46t-94 -17.5q-49 0 -91 18.5t-72.5 49t-47 69.5t-16.5 80zM420 913q0 39 14.5 79t44 74t71.5 55.5t97 21.5 t98 -21.5t73 -55.5t45.5 -74t15.5 -79q0 -92 -60.5 -154.5t-171.5 -62.5q-47 0 -89 18.5t-72.5 49.5t-48 69.5t-17.5 79.5z" />
<glyph unicode="&#xf9;" d="M31 754v270h495v-494q0 -133 23.5 -195.5t87.5 -62.5q53 0 91 43t38 113v326h-135v270h530v-752h101v-272h-388l-55 129q-16 -18 -39.5 -46t-57.5 -52.5t-81 -42t-113 -17.5q-117 0 -195.5 31t-126.5 92.5t-68.5 155.5t-20.5 221v283h-86zM330 1339l141 197l268 -369 l-176 -90z" />
<glyph unicode="&#xfa;" d="M31 754h86v-283q0 -127 20.5 -221t68.5 -155.5t127 -92.5t195 -31q66 0 113 17.5t81 42t57.5 52.5t39.5 46l55 -129h388v272h-101v752h-530v-270h135v-326q0 -70 -38 -113t-91 -43q-63 0 -87 62.5t-24 195.5v494h-495v-270zM412 1167l268 369l141 -197l-233 -262z" />
<glyph unicode="&#xfb;" d="M31 754h86v-283q0 -127 20.5 -221t68.5 -155.5t127 -92.5t195 -31q66 0 113 17.5t81 42t57.5 52.5t39.5 46l55 -129h388v272h-101v752h-530v-270h135v-326q0 -70 -38 -113t-91 -43q-63 0 -87 62.5t-24 195.5v494h-495v-270zM178 1167l330 265h143l303 -230l-127 -106 l-239 147l-234 -166z" />
<glyph unicode="&#xfc;" d="M31 754v270h495v-494q0 -133 23.5 -195.5t87.5 -62.5q53 0 91 43t38 113v326h-135v270h530v-752h101v-272h-388l-55 129q-16 -18 -39.5 -46t-57.5 -52.5t-81 -42t-113 -17.5q-117 0 -195.5 31t-126.5 92.5t-68.5 155.5t-20.5 221v283h-86zM299 1198v172h193v-172h-193z M627 1198v172h192v-172h-192z" />
<glyph unicode="&#x152;" horiz-adv-x="2181" d="M-72 723q0 158 50.5 289t140.5 225t216 146.5t277 52.5q125 0 226.5 -26t181.5 -73v95h1235v-453h-354v182h-328v-282h389v-273h-389v-334h328v191h354v-463h-1235v96q-78 -47 -177.5 -72.5t-215.5 -25.5q-154 0 -282 45t-220 135t-144.5 226.5t-52.5 318.5zM410 723 q0 -96 16 -173t46 -131t69 -84t86 -30q45 0 81.5 28.5t63.5 82t40 128t13 165.5q0 88 -12 165.5t-38.5 136t-66.5 92.5t-98 34q-45 0 -81.5 -31t-63.5 -86t-41 -131t-14 -166z" />
<glyph unicode="&#x153;" horiz-adv-x="1916" d="M31 516q0 129 48 228.5t127 167t179 102.5t207 35q117 0 216 -34t175 -97q74 66 172 100.5t213 34.5q92 0 171 -22.5t142.5 -61.5t108.5 -94.5t68 -118.5q8 -27 16 -68t11 -88t-2 -97t-21 -93h-645q4 -20 13 -49t31.5 -55.5t61.5 -45t104 -18.5q27 0 59 2t68.5 12 t77.5 29.5t82 54.5l172 -199q-115 -98 -241.5 -138t-286.5 -40q-98 0 -196.5 33t-176.5 104q-76 -63 -174 -95t-209 -32t-214 34t-183 101.5t-128 170t-46 237.5zM451 514q0 -127 43 -202.5t108 -75.5q33 0 58.5 20t44 57t27.5 87.5t9 107.5q0 117 -38.5 194.5t-110.5 79.5 q-31 0 -56.5 -20.5t-44 -57t-29.5 -86t-11 -104.5zM1223 612h309q0 29 -6 58.5t-21.5 53.5t-45 38t-79.5 14q-47 0 -76.5 -18.5t-47 -44t-24.5 -54.5t-9 -47z" />
<glyph unicode="&#x2da;" horiz-adv-x="1705" />
<glyph unicode="&#x2dc;" horiz-adv-x="512" d="M-408 125v223q31 27 81 42t109.5 16t123 -11t120.5 -39t116.5 -32t111 6.5t91.5 33t62 47.5v-223q-29 -35 -82 -49t-114.5 -15.5t-124 11t-109.5 33.5q-55 25 -112.5 29.5t-109.5 -2.5t-94 -26t-69 -44z" />
<glyph unicode="&#x2013;" horiz-adv-x="915" d="M66 352v273h772v-273h-772z" />
<glyph unicode="&#x2014;" d="M86 352v273h1104v-273h-1104z" />
<glyph unicode="&#x2018;" horiz-adv-x="628" d="M31 848q-6 199 84 379t247 321l236 -133q-55 -68 -95 -137.5t-64.5 -148t-34 -171t-1.5 -208.5z" />
<glyph unicode="&#x2019;" horiz-adv-x="628" d="M31 883q55 68 95 137.5t64.5 148t33.5 171t1 208.5l373 -98q6 -199 -84 -379t-248 -321z" />
<glyph unicode="&#x201c;" horiz-adv-x="1062" d="M4 848q-6 199 84 379t248 321l235 -133q-55 -68 -95 -137.5t-64.5 -148t-33.5 -171t-1 -208.5zM496 848q-6 199 84 379t247 321l236 -133q-55 -68 -95 -137.5t-64.5 -148t-34 -171t-1.5 -208.5z" />
<glyph unicode="&#x201d;" horiz-adv-x="1062" d="M4 883q55 68 95 137.5t64.5 148t34 171t1.5 208.5l372 -98q6 -199 -84 -379t-247 -321zM496 883q55 68 95 137.5t64.5 148t33.5 171t1 208.5l373 -98q6 -199 -84 -379t-248 -321z" />
<glyph unicode="&#x2022;" horiz-adv-x="712" d="M123 659q0 39 15.5 81t44 76t72.5 55.5t99 21.5t99.5 -21.5t75 -55.5t46 -76t15.5 -81q0 -92 -59.5 -156.5t-176.5 -64.5q-51 0 -93 19.5t-72.5 50.5t-48 70.5t-17.5 80.5z" />
<glyph unicode="&#x2026;" horiz-adv-x="2048" d="M238 213q0 39 15 81t44 75.5t73 55t99 21.5t99 -21.5t75 -55t46.5 -75.5t15.5 -81q0 -92 -59.5 -156.5t-176.5 -64.5q-51 0 -93 19.5t-73 50t-48 70.5t-17 81zM791 213q0 39 15 81t44 75.5t73 55t99 21.5t99 -21.5t75 -55t46 -75.5t15 -81q0 -92 -59 -156.5t-176 -64.5 q-51 0 -93 19.5t-73 50t-48 70.5t-17 81zM1343 213q0 39 15.5 81t44.5 75.5t73 55t99 21.5t99 -21.5t75 -55t46 -75.5t15 -81q0 -92 -59 -156.5t-176 -64.5q-51 0 -93 19.5t-73 50t-48.5 70.5t-17.5 81z" />
<glyph unicode="&#x2039;" horiz-adv-x="1064" d="M143 430v287l613 307l125 -229l-506 -232l506 -227l-78 -213z" />
<glyph unicode="&#x203a;" horiz-adv-x="1064" d="M143 336l506 227l-506 232l125 229l613 -307v-287l-660 -307z" />
<glyph unicode="&#x20ac;" horiz-adv-x="1638" d="M2 530l49 142h164v30v33h-141l49 142h108q25 131 85.5 238.5t143.5 183t181 116.5t203 41q111 0 182.5 -22.5t115.5 -51t66.5 -57.5t34.5 -41l43 148h305v-605h-366q-2 61 -21.5 110.5t-52.5 82.5t-74 50t-86 17q-88 0 -152.5 -59t-99.5 -151h383l-49 -142h-362v-33v-30 h340l-50 -142h-264q31 -92 95.5 -148t158.5 -56q88 0 131 29.5t66 70.5h411v-426h-348l-63 129q-35 -57 -123 -102t-207 -45q-117 0 -220 37.5t-185 108.5t-139.5 172t-82.5 230h-229z" />
<glyph unicode="&#x2122;" horiz-adv-x="3500" d="M1487 0v264h111v903h-109v265h776l207 -766l197 766h780v-265h-112v-901h112v-266h-647v266h115v684v121h-8q-6 -35 -14.5 -76t-16.5 -78.5t-16.5 -69.5t-12.5 -50l-215 -797h-428l-229 817q-4 12 -10.5 40t-12.5 62.5t-12 73.5t-8 78h-9v-807h117v-264h-555zM31 899v533 h1374v-533h-301v262h-172v-889h170v-272h-762v272h168v889h-176v-262h-301z" />
<glyph unicode="&#xe000;" horiz-adv-x="1025" d="M0 1025h1025v-1025h-1025v1025z" />
<glyph unicode="&#xfb01;" horiz-adv-x="1466" d="M842 0v268h86v490h-86v266h475v-756h99v-268h-574zM900 1323q0 35 14 72t42 67.5t69.5 50t95.5 19.5q53 0 95 -19.5t70.5 -50t44 -67.5t15.5 -72q0 -86 -57.5 -146.5t-167.5 -60.5q-49 0 -89 18.5t-70 48t-46 66.5t-16 74zM51 758v266h84v174q0 43 11.5 107.5t53.5 124 t121.5 101.5t219.5 42q39 0 84 -4t86 -11.5t75.5 -16.5t55.5 -19l-123 -236q-16 8 -44 14.5t-69 6.5q-66 0 -65 -109v-174h186v-266h-186v-490h123v-268h-611v268h82v490h-84z" />
<glyph unicode="&#xfb02;" horiz-adv-x="1470" d="M842 0v268h88v1004h-86v264h475v-1268h121v-268h-598zM51 758v266h84v174q0 43 11.5 107.5t53.5 124t121.5 101.5t219.5 42q39 0 84 -4t86 -11.5t75.5 -16.5t55.5 -19l-123 -236q-16 8 -44 14.5t-69 6.5q-66 0 -65 -109v-174h186v-266h-186v-490h123v-268h-611v268h82 v490h-84z" />
<glyph unicode="&#xfb03;" horiz-adv-x="2256" d="M1632 0v268h86v490h-86v266h475v-756h99v-268h-574zM1690 1323q0 35 14 72t42 67.5t69.5 50t95.5 19.5q53 0 95 -19.5t70.5 -50t44 -67.5t15.5 -72q0 -86 -57.5 -146.5t-167.5 -60.5q-49 0 -89 18.5t-70 48t-46 66.5t-16 74zM842 758v266h84v174q0 43 11.5 107.5 t53.5 124t121.5 101.5t219.5 42q39 0 84 -4t86 -11.5t75.5 -16.5t55.5 -19l-123 -236q-16 8 -44 14.5t-69 6.5q-66 0 -65 -109v-174h186v-266h-186v-490h123v-268h-611v268h82v490h-84zM51 758v266h84v174q0 43 11.5 107.5t53.5 124t121.5 101.5t219.5 42q39 0 84 -4 t86 -11.5t75.5 -16.5t55.5 -19l-123 -236q-16 8 -44 14.5t-69 6.5q-66 0 -65 -109v-174h186v-266h-186v-490h123v-268h-611v268h82v490h-84z" />
<glyph unicode="&#xfb04;" horiz-adv-x="2260" d="M1632 0v268h88v1004h-86v264h475v-1268h121v-268h-598zM842 758v266h84v174q0 43 11.5 107.5t53.5 124t121.5 101.5t219.5 42q39 0 84 -4t86 -11.5t75.5 -16.5t55.5 -19l-123 -236q-16 8 -44 14.5t-69 6.5q-66 0 -65 -109v-174h186v-266h-186v-490h123v-268h-611v268h82 v490h-84zM51 758v266h84v174q0 43 11.5 107.5t53.5 124t121.5 101.5t219.5 42q39 0 84 -4t86 -11.5t75.5 -16.5t55.5 -19l-123 -236q-16 8 -44 14.5t-69 6.5q-66 0 -65 -109v-174h186v-266h-186v-490h123v-268h-611v268h82v490h-84z" />
</font>
</defs>
</svg>
