<?xml version="1.0" standalone="no"?>
<!DOCTYPE svg PUBLIC "-//W3C//DTD SVG 1.1//EN" "http://www.w3.org/Graphics/SVG/1.1/DTD/svg11.dtd" >
<svg xmlns="http://www.w3.org/2000/svg">
<metadata>
This is a custom SVG webfont generated by Font Squirrel.
</metadata>
<defs>
<font id="QuickLight" horiz-adv-x="1255" >
<font-face units-per-em="2048" ascent="1638" descent="-410" />
<missing-glyph horiz-adv-x="614" />
<glyph unicode=" "  horiz-adv-x="614" />
<glyph unicode="&#x09;" horiz-adv-x="614" />
<glyph unicode="&#xa0;" horiz-adv-x="614" />
<glyph unicode="!" horiz-adv-x="516" d="M190 27v49q0 10 7.5 17t19.5 7q10 0 17.5 -7t7.5 -17v-49q0 -12 -7.5 -19.5t-17.5 -7.5q-27 0 -27 27zM190 342v1065q0 27 27 27q10 0 17.5 -7.5t7.5 -19.5v-1065q0 -10 -7.5 -17.5t-17.5 -7.5q-27 0 -27 25z" />
<glyph unicode="&#x22;" horiz-adv-x="839" d="M143 944l62 440q8 53 57 54h39q33 0 33 -35q0 -18 -10 -49l-117 -412q-12 -37 -35 -37q-14 0 -23.5 8t-5.5 31zM512 944l61 440q8 53 58 54h39q33 0 32 -35q0 -18 -10 -49l-117 -412q-12 -37 -34 -37q-14 0 -23.5 8t-5.5 31z" />
<glyph unicode="#" horiz-adv-x="1433" d="M92 436q0 20 14.5 24.5t34.5 4.5h244l84 524h-246q-20 0 -34.5 3t-14.5 24q0 20 14.5 24t34.5 4h262l58 359q4 20 7 32.5t23 12.5q27 0 28 -18.5t-3 -40.5l-55 -345h465l57 359q4 20 7 32.5t24 12.5q27 0 27.5 -18.5t-3.5 -40.5l-55 -345h225q20 0 34.5 -3t14.5 -23 t-14 -24.5t-35 -4.5h-241l-84 -524h243q20 0 34.5 -3t14.5 -24q0 -20 -14 -24t-35 -4h-260l-59 -367q-4 -20 -7 -32.5t-24 -12.5q-27 0 -28 18.5t4 40.5l57 353h-465l-59 -367q-4 -20 -7.5 -32.5t-23.5 -12.5q-27 0 -28 18.5t3 40.5l58 353h-228q-20 0 -34.5 3t-14.5 23z M442 465h465l84 524h-465z" />
<glyph unicode="$" horiz-adv-x="1294" d="M128 217q-1 10 5 19q16 16 33 2q39 -33 91 -66t111.5 -60.5t126 -47t136.5 -23.5v688q-94 18 -175 47t-141 70q-66 43 -103.5 102.5t-37.5 136.5q0 74 37 137.5t98.5 111.5t144.5 78t177 34v55q0 18 1 31.5t19 13.5t21.5 -13t3.5 -32v-55q68 -2 127 -18.5t111.5 -40 t99.5 -53t88 -56.5q8 -4 10 -13.5t-4 -19.5q-4 -8 -13.5 -9t-17.5 3q-43 27 -88 54.5t-94 50t-103.5 38t-115.5 17.5v-631q109 -23 199 -52.5t159 -74.5q70 -47 111 -110.5t41 -147.5q0 -82 -41 -152.5t-110.5 -123t-162 -82t-196.5 -31.5v-49q0 -18 -3 -31.5t-22 -13.5 q-18 0 -19 13t-1 32v49q-76 4 -147.5 24.5t-134 49t-117 63.5t-95.5 70q-8 6 -9 16zM221 1085q0 -63 31 -111t90 -89q53 -37 127 -63.5t162 -45.5v623q-84 -4 -157 -28.5t-128 -65.5q-59 -43 -92 -100t-33 -120zM676 41q98 2 180 28.5t145 73.5q66 47 102 108.5t36 131.5 t-34 123t-97 96q-59 41 -144.5 69.5t-187.5 49.5v-680z" />
<glyph unicode="&#x26;" horiz-adv-x="1425" d="M100 459q0 127 61.5 232.5t164.5 164.5q-49 47 -78 109.5t-29 136.5q0 70 26.5 130t70.5 105t104.5 71t128.5 26q70 0 130 -26t105 -71t72 -105.5t27 -129.5q0 -27 -27 -27q-10 0 -18.5 8.5t-8.5 18.5q0 57 -21.5 108.5t-60 90t-90 60t-108.5 21.5t-107.5 -21.5 t-88.5 -60t-59.5 -90t-21.5 -108.5q0 -72 31 -131.5t86 -98.5q2 -2 3 -4t3 -4q0 -2 2 -2q6 -20 -10 -31q-6 -6 -12 -6q-100 -53 -161.5 -150t-61.5 -216q0 -84 31.5 -159t87 -130t130 -87t158.5 -32q86 0 161 32t130 87t87 130t32 159q0 55 -17 114h-12q-20 4 -37 5h-35 q-104 0 -164.5 -23t-91.5 -51q-29 -29 -39 -63.5t-10 -63.5q0 -12 1 -21.5t1 -17.5q0 -4 1 -6t1 -4v-2q8 -23 -14 -35h-8q-18 0 -27 18q-2 8 -4 19q-2 10 -3 21t-1 28q0 35 12.5 79t52.5 85q41 39 112 63.5t181 24.5q18 0 36 -1t38 -1h12q55 0 97 28q20 16 31.5 39t13.5 60 q2 14 -1 28.5t-8 30.5q-4 10 2.5 19.5t16.5 11.5t19.5 -3t11.5 -18q8 -31 8 -69q2 -47 -16.5 -83t-47.5 -59q-35 -29 -75 -34q14 -55 14 -119q0 -96 -36 -179t-98.5 -145.5t-146.5 -98.5t-180 -36t-179 36t-145.5 98.5t-98.5 145.5t-36 179z" />
<glyph unicode="'" horiz-adv-x="471" d="M143 944l62 440q8 53 57 54h39q33 0 33 -35q0 -18 -10 -49l-117 -412q-12 -37 -35 -37q-14 0 -23.5 8t-5.5 31z" />
<glyph unicode="(" horiz-adv-x="880" d="M145 621q0 166 24 312t75 259t136 181.5t206 66.5q12 0 21 -8.5t9 -20.5t-9 -21.5t-21 -9.5q-100 0 -170 -54t-117 -159q-47 -104 -70.5 -244.5t-23.5 -301.5q0 -162 23.5 -302.5t70.5 -242.5q47 -104 116.5 -159.5t170.5 -55.5q12 0 21 -8.5t9 -20.5t-9 -21.5t-21 -9.5 q-121 0 -206 69t-136 181q-51 111 -75 257.5t-24 312.5z" />
<glyph unicode=")" horiz-adv-x="880" d="M123 -168q0 12 9 20.5t22 8.5q100 0 169.5 55t116.5 160q47 102 71 242.5t24 302.5t-24 302t-71 244t-116.5 158.5t-169.5 54.5q-12 0 -21.5 9.5t-9.5 21.5t9 20.5t22 8.5q121 2 205.5 -66.5t136.5 -181.5q51 -113 74.5 -259.5t23.5 -311.5q0 -166 -23.5 -312.5 t-74.5 -257.5q-51 -113 -136.5 -181.5t-205.5 -68.5q-12 0 -21.5 9.5t-9.5 21.5z" />
<glyph unicode="*" horiz-adv-x="880" d="M156 995q0 14 9 24.5t19 14.5l211 101l-211 100q-29 14 -28 39q0 16 12 28.5t29 14.5q10 0 16 -3t16 -9l187 -127l-17 223q-2 18 10.5 31.5t30.5 13.5t30.5 -13.5t10.5 -31.5l-16 -223l186 127q18 12 33 12q16 0 28.5 -13.5t12.5 -29.5t-9 -25.5t-20 -13.5l-211 -100 l211 -101q10 -4 19.5 -13t9.5 -26q0 -16 -12.5 -29.5t-28.5 -13.5q-14 0 -33 13l-186 127l16 -224q2 -18 -10 -31.5t-31 -13.5q-18 0 -30.5 13.5t-10.5 31.5l17 224l-187 -127q-18 -12 -32 -13q-16 0 -28.5 13.5t-12.5 29.5z" />
<glyph unicode="+" horiz-adv-x="1269" d="M131 707q0 35 37 34h432v435q0 35 37 34q12 0 23.5 -9t11.5 -25v-435h434q12 0 23.5 -9t11.5 -25t-11.5 -26.5t-23.5 -10.5h-434v-432q0 -16 -11.5 -26.5t-23.5 -10.5q-16 0 -26.5 10t-10.5 27v432h-432q-16 0 -26.5 10.5t-10.5 26.5z" />
<glyph unicode="," horiz-adv-x="471" d="M111 -184q0 16 16 26q55 31 77.5 68t18.5 90q-23 6 -39 23.5t-16 48.5v43q0 29 19.5 48t48.5 19t48 -19.5t19 -47.5v-52q0 -86 -13.5 -135t-41.5 -78q-29 -29 -60.5 -47t-46.5 -18q-10 0 -20 7.5t-10 23.5z" />
<glyph unicode="-" horiz-adv-x="835" d="M135 715q0 23 21 22h467q18 0 18 -22q0 -18 -18 -19h-467q-21 1 -21 19z" />
<glyph unicode="." horiz-adv-x="471" d="M168 53q0 29 20.5 49.5t49.5 20.5t49 -20.5t20 -49.5t-20.5 -49t-48.5 -20q-29 0 -49.5 20t-20.5 49z" />
<glyph unicode="/" horiz-adv-x="864" d="M156 37l579 1376q4 10 13.5 14.5t19.5 -0.5q10 -4 15 -13t1 -19l-583 -1379q-4 -16 -23 -16q-8 0 -10 2q-22 10 -12 35z" />
<glyph unicode="0" horiz-adv-x="1454" d="M133 719q0 143 37 273t102.5 227.5t154.5 156t194 58.5q104 0 194 -58.5t155.5 -156t102.5 -227.5t37 -273q0 -145 -37 -275.5t-102.5 -228.5t-155.5 -156.5t-194 -58.5t-193.5 58.5t-155 156.5t-102.5 228.5t-37 275.5zM184 719q0 -141 37 -263t96 -212 q59 -92 138.5 -142.5t165.5 -50.5q88 0 166.5 50.5t138.5 142.5q61 90 97 212t36 263q0 139 -36 260t-97 211q-59 92 -138 142t-167 50q-86 0 -165 -50t-139 -142q-59 -90 -96 -211t-37 -260z" />
<glyph unicode="1" horiz-adv-x="686" d="M65.5 1239q2.5 10 12.5 16l287 170q23 16 36 -8q10 -23 -12 -35l-287 -172q-4 -2 -12 -2q-6 0 -12 2t-10 11q-5 8 -2.5 18zM352 27v1378q0 10 7.5 18.5t17.5 8.5q12 0 19 -8.5t7 -18.5v-1378q0 -27 -26 -27q-10 0 -17.5 8.5t-7.5 18.5z" />
<glyph unicode="2" horiz-adv-x="1208" d="M98 10q-16 18 2 37l693 625q68 59 101.5 139t33.5 164q0 72 -27 142.5t-80 129.5q-59 66 -139 100.5t-162 34.5q-74 0 -144.5 -26.5t-129.5 -79.5l-72 -66q-20 -16 -37 0q-8 8 -7 19.5t9 17.5l72 68q66 61 145.5 90t163.5 29q94 0 183.5 -38t156.5 -112q59 -66 89 -146.5 t30 -162.5q0 -94 -39 -182t-115 -158l-643 -584h772q10 0 17.5 -7t7.5 -17t-7 -18.5t-18 -8.5h-827h-6h-2q-17 0 -21 10z" />
<glyph unicode="3" horiz-adv-x="1249" d="M156 141q-18 18 0 37q18 18 37 0q63 -61 140 -92t159 -31q84 0 160.5 31t140.5 94q63 63 94 140t31 161q0 80 -30 158t-93 141t-140 93t-159 30q-16 0 -25 12q0 2 -2 3q-8 8 -8 19t8 19l414 426h-633q-27 0 -27 27t27 27h694q27 0 27 -27q0 -8 -2 -12q-4 -8 -6 -11 l-422 -432q80 -8 155.5 -41.5t134.5 -95.5q70 -70 105 -157t35 -179t-34 -180t-106 -160t-158.5 -105.5t-178.5 -33.5h-2q-92 0 -179 33.5t-157 105.5z" />
<glyph unicode="4" horiz-adv-x="1359" d="M104 346l865 1075l4 4q8 6 16 7q12 0 21 -13q2 -2 2 -3t2 -3q0 -2 1 -3t1 -3v-4v-1047h125q27 0 26 -24q0 -27 -26 -27h-125v-278q0 -27 -27 -27q-10 0 -18 8t-8 19v278h-834h-4q-8 0 -16 6q-19 19 -5 35zM178 356h785v971z" />
<glyph unicode="5" horiz-adv-x="1239" d="M125 158.5q0 11.5 8 19.5q18 18 37 0q63 -61 141 -93t158 -32q82 0 161 32t140 93q63 63 94 141t31 160q0 80 -30.5 159t-94.5 140q-61 61 -138 92t-161 31q-82 0 -158.5 -30.5t-142.5 -92.5q-4 -8 -15.5 -8t-19.5 6q-4 0 -4 4q-2 0 -2 2q-6 10 -4 21l72 604q4 18 18 23 q8 4 14 4h693q10 0 18 -8.5t8 -18.5q0 -27 -26 -27h-674l-62 -520q63 47 136 70.5t149 23.5q92 0 180 -33.5t160 -105.5q68 -70 102.5 -157t34.5 -179t-34.5 -179t-106.5 -159t-159 -106.5t-179 -34.5q-90 0 -177 35t-159 106q-8 6 -8 17.5z" />
<glyph unicode="6" horiz-adv-x="1314" d="M131 547q0 145 33 296.5t106 280.5q74 129 197 215t301 95q27 0 27 -27q0 -10 -6.5 -17.5t-16.5 -7.5q-166 -8 -275.5 -84.5t-181.5 -197.5q-55 -94 -85.5 -203t-41.5 -219q57 113 167 181.5t245 68.5q96 0 181 -36t148.5 -99.5t100.5 -147.5t37 -180t-37 -181 t-100.5 -148.5t-148.5 -99.5t-181 -36q-90 0 -170 31.5t-141.5 87t-101.5 130.5t-48 163q-2 2 -2 8q-6 61 -6 127zM188 465q0 -86 33 -162t88.5 -131t130 -88t160.5 -33t162 33t132 88t89 131t33 162t-33 160.5t-89 130t-132 88.5t-162 33t-160.5 -33t-130 -88.5t-88.5 -130 t-33 -160.5z" />
<glyph unicode="7" horiz-adv-x="1202" d="M131 1405q0 10 8 18.5t19 8.5h798q10 0 18.5 -8.5t8.5 -18.5q0 -6 -8 -19l-578 -1370q-4 -16 -22 -16q-2 0 -4 1t-6 1q-23 10 -15 35l563 1341h-755q-27 0 -27 27z" />
<glyph unicode="8" horiz-adv-x="1290" d="M113 455q0 78 25.5 148.5t70.5 129t106.5 99t133.5 61.5q-74 35 -119 102.5t-45 153.5q0 59 22.5 111.5t60.5 90.5t90 60.5t111 22.5q57 0 109.5 -22.5t90.5 -60.5t60.5 -90.5t22.5 -111.5q0 -86 -45 -153.5t-117 -102.5q72 -20 133.5 -61t106.5 -99.5t70.5 -129.5 t25.5 -148q0 -94 -36 -177t-98.5 -144.5t-145 -97.5t-177.5 -36q-94 0 -177 36t-145.5 97.5t-98 144.5t-35.5 177zM164 455q0 -84 31.5 -158t87 -128t129 -86t157.5 -32t158 32t129 86t87 128t32 158t-32 157.5t-87 129t-129 87t-158 31.5t-157.5 -31.5t-129 -87t-87 -129 t-31.5 -157.5zM336 1149q0 -47 18.5 -89t50 -74t73.5 -50t91 -18q47 0 89 18t74 50t50.5 74t18.5 89q0 49 -18.5 91t-50.5 74t-74 50t-89 18q-49 0 -91 -18t-73.5 -50t-50 -74t-18.5 -91z" />
<glyph unicode="9" horiz-adv-x="1314" d="M135 969q0 96 37 181t100.5 147.5t148.5 99.5t181 37q90 0 171 -33t142.5 -90.5t100.5 -135t47 -167.5q4 -29 6 -59.5t2 -61.5q0 -145 -31.5 -297t-107.5 -281t-198 -215t-300 -94q-27 0 -26 27q-2 10 5 17t17 7q166 8 275.5 86t179.5 197q53 92 84.5 200.5t42.5 219.5 q-57 -111 -166 -179.5t-244 -68.5q-96 0 -181 36t-148.5 99.5t-100.5 147.5t-37 180zM186 969q0 -86 33 -161t89.5 -130t132 -88t161.5 -33t161 33t130 88t88 130t33 161q0 20 -2 30v9v2q-8 80 -43 147.5t-90.5 117.5t-126 78.5t-150.5 28.5q-86 0 -161.5 -32.5t-132 -88 t-89.5 -131t-33 -161.5z" />
<glyph unicode=":" horiz-adv-x="491" d="M178 59v56q0 29 19.5 48t48.5 19t48 -19.5t19 -47.5v-56q0 -29 -19.5 -48t-47.5 -19q-29 0 -48.5 19t-19.5 48zM178 930v55q0 29 19.5 48.5t48.5 19.5t48 -19.5t19 -48.5v-55q0 -29 -19.5 -48.5t-47.5 -19.5q-29 0 -48.5 19.5t-19.5 48.5z" />
<glyph unicode=";" horiz-adv-x="491" d="M121 -184q0 16 16 26q55 31 78 68t18 90q-23 6 -39 23.5t-16 48.5v43q0 29 19.5 48t48.5 19t48 -19.5t19 -47.5v-52q0 -86 -13 -135t-42 -78t-60.5 -47t-45.5 -18q-10 0 -20.5 7.5t-10.5 23.5zM178 930v55q0 29 19.5 48.5t48.5 19.5t48 -19.5t19 -48.5v-55 q0 -29 -19.5 -48.5t-47.5 -19.5q-29 0 -48.5 19.5t-19.5 48.5z" />
<glyph unicode="&#x3c;" horiz-adv-x="1269" d="M123 717q2 6 6 14l4 4l2 2l676 684q23 23 45 0q14 -23 0 -45l-659 -663l659 -662q14 -23 0 -43q-8 -8 -25 -8q-12 0 -20 8l-676 682q-2 0 -2 2q-8 8 -8 13q-2 4 -2 12z" />
<glyph unicode="=" horiz-adv-x="1269" d="M162 500q0 12 8 22t23 10h700q12 0 21.5 -10t9.5 -22t-9.5 -19.5t-21.5 -7.5h-700q-31 0 -31 27zM162 924q0 12 8 21t23 9h700q12 0 21.5 -9t9.5 -21q0 -10 -9.5 -17.5t-21.5 -7.5h-700q-14 0 -22.5 7.5t-8.5 17.5z" />
<glyph unicode="&#x3e;" horiz-adv-x="1269" d="M190 8q-14 20 0 43l658 662l-658 663q-14 23 0 45q23 23 46 0l673 -684q2 0 2 -1t2 -1q0 -2 1 -2t1 -2q2 -2 7 -10q0 -4 1 -6t-1 -6v-4q-2 -2 -7 -11l-2 -2l-2 -2l-675 -682q-8 -8 -21 -8q-17 0 -25 8z" />
<glyph unicode="?" horiz-adv-x="1093" d="M84 1217q55 98 153.5 157.5t221.5 59.5q88 0 167 -34t137 -93.5t93 -138t35 -169.5q0 -86 -33 -162.5t-88 -135t-129 -94.5t-158 -40v-250q0 -10 -7 -17t-17 -7t-17.5 7t-7.5 17v269v4v2q0 25 25 24q78 0 147.5 31t121.5 83t82 122t30 147q0 80 -30 150t-82 122 t-121.5 82.5t-147.5 30.5q-109 0 -196 -52t-138 -140q-14 -18 -33 -8q-22 15 -8 33zM434 25v47q0 10 7.5 17t17.5 7t17 -7t7 -17v-47q0 -10 -7 -17.5t-17 -7.5q-25 0 -25 25z" />
<glyph unicode="@" horiz-adv-x="2007" d="M109 717q0 150 56 280.5t153.5 228t228.5 154t278 56.5q150 0 281 -56.5t228.5 -154t153.5 -228.5t56 -280q0 -88 -20.5 -171t-59.5 -157q0 -2 -12 -20.5t-33.5 -43t-53.5 -48t-75 -35.5q-10 0 -19 -1t-20 -1q-33 0 -57.5 13t-38.5 36q-29 35 -29 82v155 q-47 -82 -124.5 -132t-176.5 -50q-72 0 -136 29.5t-112.5 81t-76 119t-27.5 143.5t27.5 143.5t76 118.5t113 79.5t135.5 28.5q74 0 137.5 -28.5t110.5 -79.5t75 -118.5t28 -143.5v-15v-6v-319q0 -12 5 -28.5t15 -29.5q10 -12 22.5 -19t32.5 -7q18 0 27 6q47 10 81 43t50 55 q2 4 4 6.5t4 6.5t2 6q35 66 53.5 142.5t18.5 158.5q0 137 -52.5 259t-142.5 212t-211.5 142t-259.5 52q-137 0 -258 -52t-211 -142t-142 -212t-52 -259t52 -258t142 -211t211 -142.5t258 -52.5q90 0 164 21q25 4 35 -19q4 -25 -20 -35q-41 -10 -86.5 -15t-92.5 -5 q-147 0 -278 56.5t-228.5 153.5t-153.5 228.5t-56 278.5zM526 717q0 -66 23.5 -124t64.5 -101t95.5 -69t115.5 -26t115.5 26t96.5 69t65.5 101t23.5 124q0 68 -23.5 126t-65.5 101t-96 68.5t-116 25.5q-61 0 -115.5 -25.5t-95.5 -68.5t-64.5 -101t-23.5 -126z" />
<glyph unicode="A" horiz-adv-x="1323" d="M119 41l516 1376q5 17 20 17h7q16 0 26 -17l516 -1376q2 -5 2 -10t-2 -11q-4 -10 -14 -14q-4 0 -5 -1t-3 -1q-16 0 -27 19l-137 366h-717l-137 -366q-4 -18 -23 -19q-2 0 -4 1t-6 1q-15 7 -15 21q0 6 3 14zM322 442h675l-338 897z" />
<glyph unicode="B" horiz-adv-x="1216" d="M213 27v1380q0 27 27 27h4h323q72 0 134.5 -28t109.5 -74t74.5 -109.5t27.5 -132.5q0 -98 -49 -177t-129 -125q70 -12 129.5 -47.5t102.5 -87t67.5 -117t24.5 -137.5q0 -84 -31 -156.5t-85 -126t-127 -85t-154 -31.5h-418h-4q-27 0 -27 27zM264 51h398q72 0 135 27.5 t109 75t73 111t27 134.5q0 70 -27 133.5t-73 109.5t-109.5 73.5t-134.5 27.5h-398v-692zM264 799h303q61 0 114.5 22.5t93.5 62.5t62.5 92t22.5 114q0 59 -22.5 112t-62.5 93t-93 63.5t-115 23.5h-303v-583z" />
<glyph unicode="C" horiz-adv-x="1579" d="M150 729q0 150 58 282t159.5 230t236.5 155.5t289 57.5q133 0 252 -43t213 -115q14 -11 14 -22q0 -7 -6 -14q-10 -10 -20.5 -11.5t-18.5 6.5q-90 70 -199.5 108t-234.5 38q-141 0 -267 -53.5t-220.5 -144.5t-148.5 -213t-54 -261q0 -141 54 -264t148.5 -214t220.5 -144.5 t267 -53.5q123 0 232.5 38t199.5 108q23 14 39 -4q7 -7 7 -15q0 -12 -13 -22q-98 -72 -215 -115t-250 -43q-154 0 -289 58.5t-236.5 156.5t-159.5 230t-58 284z" />
<glyph unicode="D" horiz-adv-x="1472" d="M213 27v1380q0 27 27 27h2h272q150 0 280 -56.5t227 -154t153.5 -227.5t56.5 -277q0 -150 -56.5 -281t-153.5 -228t-227 -153.5t-280 -56.5h-272h-2q-27 0 -27 27zM264 51h250q137 0 259 52.5t212 143.5t142.5 212t52.5 260q0 137 -52.5 258t-142.5 211t-212 142t-259 52 h-250v-1331z" />
<glyph unicode="E" horiz-adv-x="1214" d="M213 27v1380q0 23 25 27h2h2h759q25 0 25 -27q0 -25 -25 -25h-737v-639h649q10 0 17.5 -7t7.5 -17q0 -27 -25 -27h-649v-641h737q25 0 25 -24q0 -27 -25 -27h-757h-2h-4q-25 0 -25 27z" />
<glyph unicode="F" horiz-adv-x="1239" d="M213 27v1380q0 27 23 27h4h2h759q25 0 25 -27q0 -25 -25 -25h-739v-639h651q10 0 17.5 -7t7.5 -17q0 -27 -25 -27h-651v-665q0 -27 -26 -27q-23 0 -23 27z" />
<glyph unicode="G" horiz-adv-x="1667" d="M150 741q0 152 59 286t162.5 233.5t241 158t294.5 58.5q135 0 255 -42t216 -118q13 -9 13 -22q0 -9 -7 -19q-6 -8 -18 -9t-20 7q-90 72 -202 111.5t-237 39.5q-145 0 -274 -54t-224.5 -147.5t-150.5 -217t-55 -265.5q0 -143 55 -268t150.5 -218t224.5 -147.5t274 -54.5 q121 0 229.5 38t198.5 104v485h-440q-10 0 -18.5 7t-8.5 18q0 12 8.5 20t18.5 8h465h4q25 0 25 -28v-521q0 -4 -3 -6v-4q-4 -10 -8 -14q-96 -74 -216 -117t-255 -43q-158 0 -295 58.5t-240.5 158.5t-162.5 235t-59 289z" />
<glyph unicode="H" horiz-adv-x="1452" d="M213 27v1380q0 27 27 27q10 0 17 -8.5t7 -18.5v-664h815v664q0 27 25 27q27 0 26 -27v-1380q0 -27 -26 -27q-25 0 -25 27v665h-815v-665q0 -10 -7 -18.5t-17 -8.5q-27 0 -27 27z" />
<glyph unicode="I" horiz-adv-x="624" d="M227 27v1380q0 27 27 27q10 0 17.5 -7.5t7.5 -19.5v-1380q0 -12 -7.5 -19.5t-17.5 -7.5q-27 0 -27 27z" />
<glyph unicode="J" horiz-adv-x="1216" d="M92 332q-2 5 -2 10t2 9q4 9 14 14q25 6 35 -17q20 -66 59.5 -120t92.5 -94t116.5 -61.5t135.5 -21.5q88 0 165.5 34t136 92.5t92.5 136t34 165.5v928q0 27 22 27q27 0 27 -27v-928q0 -98 -38 -186t-102.5 -152.5t-151.5 -102.5t-185 -38q-80 0 -151.5 24.5t-131 68.5 t-103.5 105.5t-67 133.5z" />
<glyph unicode="K" horiz-adv-x="1464" d="M213 27v1378q0 10 7 18.5t20 8.5q10 0 18 -8.5t8 -18.5v-922l940 940q10 8 19.5 8.5t17.5 -8.5q9 -9 9 -18t-9 -19l-586 -585l588 -756q8 -11 8 -19q0 -10 -10 -18q-8 -8 -16 -8q-6 0 -11.5 3t-9.5 7l-585 754l-351 -352l-4 -4v-381q0 -10 -8 -18.5t-18 -8.5 q-27 0 -27 27z" />
<glyph unicode="L" horiz-adv-x="1153" d="M213 27v1380q0 27 27 27q25 0 24 -27v-1356h740q27 0 26 -24q0 -27 -26 -27h-760h-4q-27 0 -27 27z" />
<glyph unicode="M" horiz-adv-x="1728" d="M213 27v1378q0 10 8 18.5t19 8.5q4 0 6 -2q6 0 18 -9l549 -762l549 762q8 8 16 9q2 2 6 2q12 0 19.5 -8.5t7.5 -18.5v-1378q0 -27 -27 -27q-10 0 -17 8t-7 19v1302l-522 -727q-10 -10 -23 -10h-4q-16 0 -23 10l-524 729v-1304q0 -27 -24 -27q-27 0 -27 27z" />
<glyph unicode="N" horiz-adv-x="1579" d="M213 27v1370v6q0 12 10 22q10 5 18 6q11 0 19 -10l946 -1315v1291q0 10 8.5 18t18.5 8q25 0 24 -26v-1370q0 -27 -24 -27q-18 0 -25 16q-2 0 -2 2l-942 1309v-1300q0 -27 -24 -27q-10 0 -18.5 8.5t-8.5 18.5z" />
<glyph unicode="O" horiz-adv-x="1740" d="M150 715q0 154 55 289t149.5 234t221 157.5t272.5 58.5q145 0 272 -58.5t221.5 -157.5t149.5 -234.5t57 -288.5q-2 -154 -57 -289t-149.5 -235.5t-221.5 -159t-272 -58.5t-272 58.5t-221.5 159t-149.5 235.5t-55 289zM205 715q0 -141 51 -266t138 -217.5t204 -146.5 t250 -56q131 2 247.5 56t203.5 146.5t139.5 217t52.5 266.5q0 143 -52.5 268t-139.5 218t-203.5 146.5t-247.5 53.5q-133 0 -250 -53.5t-204 -146.5t-138 -218t-51 -268z" />
<glyph unicode="P" horiz-adv-x="1193" d="M213 27v1380q0 27 27 27h4h415q82 0 155 -32t127 -85t86 -127t32 -156q0 -84 -32 -155.5t-86 -126t-127 -85t-155 -30.5h-395v-610q0 -27 -24 -27q-27 0 -27 27zM264 690h395q72 0 134.5 26.5t109.5 73t75 110t28 134.5q0 72 -28 135.5t-75 110.5t-109.5 74.5 t-134.5 27.5h-395v-692z" />
<glyph unicode="Q" horiz-adv-x="1728" d="M135 725q0 150 54.5 283t147.5 232t217 156.5t265 57.5q143 0 268 -57.5t218.5 -156.5t147.5 -232.5t54 -282.5q0 -113 -31.5 -215t-89 -189.5t-135 -156t-172.5 -111.5l-293 -137q49 0 104.5 -12.5t108.5 -44.5q82 -49 164 -80t168 -31q66 0 136.5 24.5t148.5 86.5 q8 6 19.5 5t17.5 -9q7 -8 7 -17q0 -11 -11 -22q-82 -63 -161 -91t-157 -28q-98 0 -185 33.5t-171 83.5q-47 29 -95.5 40t-93.5 11q-70 0 -123 -16.5t-77 -26.5q-4 -4 -6 -4t-5 -2l-2 -2q-23 -8 -30 2q-4 2 -6 6t-7 8q-10 23 15 35l293 137h-19q-141 0 -265 56.5t-217 154.5 t-147.5 230t-54.5 282zM190 725q0 -139 50.5 -262t136.5 -214t199.5 -143.5t242.5 -52.5q131 0 248 52.5t203 143.5t136 214t50 262q0 141 -50 264t-136 214t-203 143.5t-248 52.5q-129 0 -242.5 -52.5t-199.5 -143.5t-136.5 -214t-50.5 -264z" />
<glyph unicode="R" horiz-adv-x="1280" d="M184 27v1380q0 27 27 27h2h2h416q82 0 154.5 -32t127 -85t86 -127t31.5 -156q0 -68 -21.5 -129t-59.5 -111.5t-91 -86t-115 -54.5q37 -16 74 -37q33 -18 67 -46.5t60.5 -66.5t43 -86t16.5 -108q0 -88 10 -137t20 -72q14 -23 21.5 -23.5t9.5 -0.5h4q10 2 19.5 -3t11.5 -16 q2 -5 2 -8q0 -5 -3 -10q-5 -8 -16 -12q-2 -4 -18 -4t-36.5 12t-37.5 43q-16 31 -27.5 85t-11.5 146q0 76 -29.5 129.5t-72.5 91.5q-43 39 -90 60.5t-82 34.5q-12 4 -22.5 6t-16.5 4q-8 2 -14 2h-389v-610q0 -27 -25 -27q-27 0 -27 27zM236 690h395h4q70 0 132 26.5t109.5 73 t74 110t26.5 134.5q0 72 -27.5 135.5t-75 110.5t-110 74.5t-133.5 27.5h-395v-692z" />
<glyph unicode="S" horiz-adv-x="1366" d="M136 228q0 9 5 16q16 16 33 2q43 -35 97.5 -70t119 -62.5t136 -46t145.5 -18.5q100 0 186 27.5t152 75.5q66 47 101.5 108.5t35.5 130.5q0 70 -34 123t-97 96t-151.5 73t-196.5 48l-4 2q-102 18 -188.5 48t-151.5 73q-66 43 -104 102.5t-38 137.5q0 76 40 142.5 t105.5 114.5t153.5 75.5t187 27.5q70 0 131 -15.5t116.5 -40t103.5 -54t91 -58.5q8 -4 10 -13t-4 -20q-4 -8 -13 -9t-18 3q-43 29 -90 57.5t-98 51t-108.5 37t-120.5 14.5q-92 0 -173 -25.5t-141 -68.5q-59 -43 -92 -99.5t-33 -119.5t31 -111.5t90 -89.5t141 -68.5 t181 -46.5h4q111 -23 203 -52.5t163 -76.5q70 -47 111 -110.5t41 -147.5t-42 -154.5t-113.5 -123t-166 -82t-200.5 -29.5q-80 0 -157 19.5t-144.5 49t-125 66.5t-100.5 72q-9 7 -9 19z" />
<glyph unicode="T" horiz-adv-x="1327" d="M102 1407q0 27 27 27h997q27 0 27 -27q0 -25 -27 -25h-471v-1355q0 -10 -8 -18.5t-18 -8.5q-27 0 -27 27v1355h-473q-27 0 -27 25z" />
<glyph unicode="U" horiz-adv-x="1667" d="M215 575v832q0 27 27 27q25 0 24 -27v-832q0 -109 41 -205t111.5 -166.5t166 -111.5t203.5 -41q106 0 201.5 41t167.5 111.5t113 167t41 204.5v832q0 27 26 27q10 0 18.5 -8.5t8.5 -18.5v-832q0 -121 -46 -225t-124 -182t-182.5 -123t-223.5 -45t-223 45t-182 123 t-123 182t-45 225z" />
<glyph unicode="V" horiz-adv-x="1536" d="M120 1414q3 9 13 13q7 3 13 4q14 0 24 -16l555 -1321l557 1321q4 10 13 13l8 2q6 0 12 -3q10 -4 14 -13q2 -5 2 -9.5t-2 -9.5l-579 -1379q0 -2 -2 -2q-4 -10 -13 -12h-2q-2 -2 -8 -2h-2h-4q-2 2 -4 2t-6 4q-4 2 -9 10l-579 1379q-2 6 -3 11z" />
<glyph unicode="W" horiz-adv-x="2256" d="M129 1414q4 9 14 13q6 2 12 3l9 -2q10 -3 14 -13l555 -1323l402 952q6 18 26 19q18 4 29 -19l399 -952l557 1323q10 15 24 15q5 0 11 -3q10 -4 14 -13q2 -5 2.5 -9.5t-2.5 -9.5l-579 -1379q-2 -4 -4 -5t-4 -5q-2 0 -4 -2q-8 -4 -13 -4h-2h-2q-4 0 -6 2h-2q-10 2 -14 16 l-402 961l-405 -963q-4 -10 -15 -14h-2q-2 -2 -6 -2h-2q-6 0 -8 2h-2q-2 0 -6 4q-2 0 -2 2q-6 6 -6 12l-578 1375q-4 6 -4 12q0 3 2 7z" />
<glyph unicode="X" horiz-adv-x="1478" d="M152 1409q0 10 10 16q7 5 16 6h3q11 -1 18 -10l481 -661l483 661q8 10 19 11q8 0 18 -7q9 -7 10 -20q0 -8 -4 -14l-493 -676l493 -674q4 -7 4 -14q0 -11 -10 -21q-10 -6 -16 -6q-4 0 -10.5 3t-10.5 7l-483 662l-481 -662q-4 -4 -9.5 -7t-11.5 -3q-8 0 -16 6q-10 9 -11 19 q0 8 7 16l491 674l-491 676q-6 8 -6 18z" />
<glyph unicode="Y" horiz-adv-x="1236" d="M127 1425q7 5 16 6h2q10 -1 17 -10l487 -669l486 669q10 10 20 11l16 -7q14 -10 14 -20q0 -7 -5 -14l-506 -691v-673q0 -27 -25 -27q-27 0 -26 27v673l-502 691q-7 7 -7 14q0 12 13 20z" />
<glyph unicode="Z" horiz-adv-x="1366" d="M145 27q0 14 11 20l968 1331h-952q-27 0 -27 27q0 10 7.5 18.5t19.5 8.5h1006q12 0 19 -8.5t7 -18.5q0 -4 -1 -6t-1 -4t-2 -4q-2 -4 -3 -4.5t-3 -2.5l-973 -1333h957q27 0 26 -24q0 -27 -26 -27h-1004h-2q-27 0 -27 27z" />
<glyph unicode="[" horiz-adv-x="880" d="M201 -213v1593q0 23 15 38.5t38 15.5h475q16 0 26.5 -6.5t10.5 -22.5t-10.5 -18.5t-26.5 -2.5h-477v-1601h477q16 0 26.5 -5t10.5 -22q0 -16 -10.5 -19t-26.5 -3h-475q-23 0 -38 15t-15 38z" />
<glyph unicode="\" horiz-adv-x="917" d="M129 1397q-4 10 1 19t15 14q10 4 19.5 -0.5t13.5 -14.5l580 -1376q10 -25 -13 -35q-2 -2 -10 -2q-18 0 -22 16z" />
<glyph unicode="]" horiz-adv-x="880" d="M113 -244q0 16 10 21.5t27 5.5h477v1601h-477q-16 0 -26.5 2.5t-10.5 18.5t10 22.5t27 6.5h475q23 0 38 -15.5t15 -38.5v-1593q0 -23 -15.5 -38t-37.5 -15h-475q-16 0 -26.5 3t-10.5 19z" />
<glyph unicode="^" horiz-adv-x="1024" d="M170 381q-2 25 8 33l367 280q27 20 45 21q18 0 45 -21l364 -280q10 -8 14.5 -19.5t4.5 -23.5q0 -27 -22.5 -25t-39.5 16l-364 289l-369 -289q-10 -8 -16 -9t-17 1q-18 2 -20 27z" />
<glyph unicode="_" horiz-adv-x="1228" d="M-49 -293q0 18 13 26.5t32 8.5h684q18 0 31.5 -8t13.5 -27q0 -18 -13.5 -26.5t-31.5 -8.5h-684q-18 0 -31.5 8.5t-13.5 26.5z" />
<glyph unicode="`" horiz-adv-x="1024" d="M340 1450q4 8 6 19.5t31 11.5q33 0 57 -37l127 -191q8 -12 8 -22q0 -14 -14 -6l-25 9q-8 3 -24 21l-146 158q-10 10 -17 19.5t-3 17.5z" />
<glyph unicode="a" horiz-adv-x="1267" d="M82 502q0 102 37 193t101.5 160t150.5 109t184 40q139 0 251 -77t171 -200v250q0 10 7 18.5t20 8.5q10 0 17 -8.5t7 -18.5v-950q0 -27 -24 -27q-27 0 -27 27v249q-59 -123 -171 -199.5t-251 -76.5q-98 0 -184 40t-150.5 108.5t-101.5 160t-37 193.5zM133 502 q0 -94 34 -176t91 -143.5t134 -96.5t163 -35t163 35t134 96.5t91 143.5t34 176q0 92 -34 174t-91 143.5t-134 96t-163 34.5t-163 -34.5t-134 -96t-91 -143.5t-34 -174z" />
<glyph unicode="b" horiz-adv-x="1351" d="M190 27v452v25v20v879q0 10 7.5 20.5t19.5 10.5q10 0 17.5 -10.5t7.5 -20.5v-676q31 61 74.5 112.5t100 87.5t121 56.5t136.5 20.5q100 0 189 -40t155.5 -108t104.5 -159t38 -193q0 -104 -38 -195.5t-104.5 -160t-155.5 -108.5t-189 -40q-72 0 -136.5 20.5t-121 56.5 t-100.5 86t-74 111v-247q0 -10 -7.5 -18.5t-17.5 -8.5q-27 0 -27 27zM242 504q0 -94 34.5 -176t93 -143.5t137.5 -97.5t167 -36q90 0 169 36t138 97.5t94 143.5t35 176q0 92 -35 174t-94 143.5t-138 96t-169 34.5q-86 0 -164 -33.5t-138.5 -92t-95 -136.5t-34.5 -168v-18z " />
<glyph unicode="c" horiz-adv-x="1169" d="M119 502q0 104 41 195t110.5 159t163.5 108t201 40q90 0 172 -28t147 -81q9 -9 9 -19q0 -9 -7 -20q-12 -16 -34 -2q-59 47 -133 72.5t-154 25.5q-98 0 -182 -35.5t-147.5 -97t-99.5 -143.5t-36 -174t36 -174t99.5 -143.5t147.5 -97.5t182 -36q80 0 153.5 26.5t133.5 74.5 q8 4 18 3t16 -10q7 -10 7 -18q0 -10 -9 -18q-66 -51 -147.5 -80t-171.5 -29q-106 0 -200.5 40t-164 108.5t-110.5 160t-41 193.5z" />
<glyph unicode="d" horiz-adv-x="1351" d="M123 504q0 102 38 193t104.5 159t154.5 108t190 40q70 0 135.5 -20.5t122 -56.5t100.5 -87.5t74 -112.5v676q0 10 7.5 20.5t17.5 10.5q12 0 19.5 -10.5t7.5 -20.5v-879v-20v-25v-452q0 -27 -27 -27q-10 0 -17.5 8t-7.5 19v247q-31 -61 -74.5 -111t-100 -86t-122 -56.5 t-135.5 -20.5q-102 0 -190 40t-154.5 108.5t-104.5 160t-38 195.5zM174 504q0 -94 35 -176t94 -143.5t138 -97.5t169 -36q88 0 167 36t137.5 97.5t93 143.5t34.5 176v18q0 90 -34.5 168t-95 136.5t-138.5 92t-164 33.5q-90 0 -169 -34.5t-138 -96t-94 -143.5t-35 -174z" />
<glyph unicode="e" horiz-adv-x="1247" d="M119 502q0 104 39 195t104.5 160t154.5 108t189 39q96 0 183.5 -36t154 -98.5t105 -146.5t38.5 -182v-2v-4v-3q-2 -10 -8 -17t-16 -7h-893v-6q0 -92 34 -174t93 -143.5t139 -97.5t170 -36q115 0 209 56.5t152 148.5q12 16 37 6q8 -4 10 -14t-4 -21q-66 -100 -171 -165 q-102 -63 -225 -62h-8q-100 0 -189 40t-154.5 108.5t-104.5 160t-39 193.5zM172 557h864q-10 84 -48 155.5t-95 125t-131 83t-156 29.5q-84 0 -158.5 -29.5t-132 -83t-95.5 -125t-48 -155.5z" />
<glyph unicode="f" horiz-adv-x="741" d="M133 985q0 27 27 27h164v135q0 154 61 223q35 37 82 51.5t106 14.5q27 0 27 -25q0 -27 -27 -27q-106 0 -149 -49q-23 -25 -35 -70.5t-12 -117.5v-135h172q25 0 24 -27q0 -27 -24 -27h-172v-929q0 -27 -27 -27t-26 27v929h-164q-27 0 -27 27z" />
<glyph unicode="g" horiz-adv-x="1351" d="M123 502q0 104 37 195t101.5 159t150.5 108t184 40q139 0 252 -77t170 -198v248q0 10 7 18.5t17 8.5q27 0 27 -27v-920q0 -98 -37 -185t-101.5 -151.5t-150.5 -101.5t-184 -37q-57 0 -108.5 13.5t-100.5 35.5q-20 14 -10 35q10 18 35 12q43 -23 88 -34t96 -11 q88 2 165 36t134 90.5t90 133t33 164.5v219q-57 -123 -170 -199.5t-252 -76.5q-98 0 -184 40t-150.5 108.5t-101.5 160t-37 193.5zM174 502q0 -94 34 -176t91 -142.5t134 -95.5t163 -35t163 35t134 95.5t91 142.5t34 176t-34 176t-91 143.5t-134 96t-163 34.5t-163 -34.5 t-134 -96t-91 -143.5t-34 -176z" />
<glyph unicode="h" d="M190 23v4v569v16v795q0 27 27 27q25 0 25 -27v-614q53 94 146 152.5t210 58.5q84 0 157.5 -32t129 -87.5t87.5 -130t32 -158.5v-569q0 -10 -7.5 -18.5t-17.5 -8.5q-27 0 -27 27v569q0 74 -27.5 138.5t-75.5 112.5t-112.5 75.5t-138.5 27.5q-72 0 -136.5 -26.5 t-113.5 -72.5t-77.5 -108.5t-28.5 -132.5v-583q0 -16 -11 -23q-8 -4 -10 -4h-4q-10 0 -18 6q-9 9 -9 17z" />
<glyph unicode="i" horiz-adv-x="575" d="M193 27v952q0 25 26 25q10 0 17.5 -6.5t7.5 -18.5v-952q0 -10 -7.5 -18.5t-17.5 -8.5q-26 0 -26 27zM193 1251v49q0 27 26 27q10 0 17.5 -7t7.5 -20v-49q0 -10 -7.5 -17t-17.5 -7q-12 0 -19 7t-7 17z" />
<glyph unicode="j" horiz-adv-x="509" d="M-10 -393q0 29 24 28q43 0 74 30t31 77v1237q0 10 7 17.5t17 7.5t19.5 -7.5t9.5 -17.5v-1237q0 -66 -46 -112t-112 -46q-10 0 -17 7.5t-7 15.5zM123 1255v50q0 27 27 26q10 0 19 -8t9 -18v-50q0 -10 -9 -17t-19 -7q-27 -1 -27 24z" />
<glyph unicode="k" horiz-adv-x="1146" d="M190 27v1380q0 27 27 27q10 0 17.5 -8.5t7.5 -18.5v-1063l659 660q16 16 37 0q9 -9 9 -18.5t-9 -18.5l-416 -416l416 -506q6 -9 6 -17q0 -11 -10 -22q-6 -6 -14 -6q-16 0 -21 10l-416 502l-235 -236q-4 -4 -6 -4v-245q0 -10 -7.5 -18.5t-17.5 -8.5q-27 0 -27 27z" />
<glyph unicode="l" horiz-adv-x="509" d="M205 27v1380q0 27 26 27q25 0 25 -27v-1380q0 -27 -25 -27q-26 0 -26 27z" />
<glyph unicode="m" horiz-adv-x="1947" d="M190 27v571q0 12 1.5 24.5t3.5 24.5v330q0 27 24 27q10 0 17.5 -7.5t7.5 -19.5v-182q53 94 144 151.5t206 57.5q63 0 122.5 -19.5t108.5 -54.5t86 -83t60 -106q43 117 145.5 190t233.5 73q82 0 155.5 -32t127 -87.5t85 -129t31.5 -157.5v-571q0 -27 -25 -27q-10 0 -18 8 t-8 19v571q0 74 -28 138.5t-75 112.5t-110.5 75.5t-134.5 27.5q-72 0 -135.5 -26.5t-111.5 -72.5t-77 -108.5t-29 -132.5v-14v-571q0 -6 -2 -9q0 -2 -1 -3t-1 -3q-2 -2 -2 -4q-8 -8 -20 -8q-25 0 -25 27v571q0 74 -27.5 138.5t-75.5 112.5t-111.5 75.5t-137.5 27.5 q-72 0 -135.5 -26.5t-110.5 -72.5t-75.5 -108.5t-28.5 -132.5v-585q0 -6 -4 -15q-2 -2 -2 -4q-2 0 -2 -1t-3 -1q-6 -6 -14 -6h-6q-23 4 -23 27z" />
<glyph unicode="n" d="M190 23v4v571v16v365q0 25 27 25q25 0 25 -25v-184q53 94 146 151.5t208 57.5q82 0 155.5 -32t129 -87.5t87 -129t31.5 -157.5v-571q0 -27 -26 -27q-25 0 -25 27v571q0 74 -27.5 139.5t-75.5 112.5t-112.5 74.5t-136.5 27.5t-136.5 -27.5t-112.5 -74.5t-76.5 -112.5 t-28.5 -139.5v-571q0 -10 -6 -17q-6 -10 -19 -10h-4h-4q-2 2 -3 2t-3 2q-2 0 -6 4q-2 2 -2 4q-5 5 -5 11z" />
<glyph unicode="o" horiz-adv-x="1280" d="M143 502q0 104 37 195t101.5 159t150.5 108t184 40t184.5 -40t151 -108t102.5 -159t38 -195q0 -102 -38 -193.5t-102.5 -160t-150.5 -108.5t-185 -40q-98 0 -184 40t-150.5 108.5t-101.5 160t-37 193.5zM195 502q0 -92 33.5 -174t91 -143.5t134 -97.5t162.5 -36t164 36 t135.5 97.5t91 143.5t33.5 174q0 94 -33.5 176t-91 143.5t-135.5 96t-164 34.5t-162.5 -34.5t-134 -96t-91 -143.5t-33.5 -176z" />
<glyph unicode="p" horiz-adv-x="1351" d="M190 -412v899v21v20v449q0 27 27 27q25 0 25 -27v-248q59 123 172.5 199t255.5 76q100 0 189 -39t153.5 -106.5t102.5 -158t38 -192.5t-38 -193.5t-102.5 -159t-153.5 -106.5t-189 -39q-141 0 -255 76t-173 197v-695q0 -27 -25 -26q-27 -1 -27 26zM242 508 q0 -92 33.5 -173t92 -141.5t136.5 -95.5t166 -35t166.5 35t137 95.5t92.5 141.5t34 173t-34 173t-92.5 141.5t-137 95t-166.5 34.5q-86 0 -163 -33.5t-136.5 -91t-94 -135.5t-34.5 -166v-18z" />
<glyph unicode="q" horiz-adv-x="1351" d="M123 508q0 102 38 192.5t102.5 158t152.5 106.5t190 39q141 0 255 -76t173 -199v248q0 27 25 27q27 0 26 -27v-449v-20v-21v-899q0 -27 -26 -26q-25 0 -25 26v695q-59 -121 -172.5 -197t-255.5 -76q-102 0 -190 39t-152.5 106.5t-102.5 159t-38 193.5zM176 508 q0 -92 34 -173t92 -141.5t137 -95.5t167 -35t166 35t136.5 95.5t92 141.5t33.5 173v18q0 88 -34.5 166t-94 135.5t-136.5 91t-163 33.5q-88 0 -167 -34.5t-137 -95t-92 -141.5t-34 -173z" />
<glyph unicode="r" horiz-adv-x="899" d="M193 27v469q-1 2 -1.5 5t1.5 7v469q0 10 7 18.5t17 8.5q25 0 25 -27v-340q12 29 27.5 58.5t35.5 60.5q29 43 68 88t89 79.5t110.5 57.5t132.5 23q27 0 26 -27q0 -27 -26 -27q-96 0 -168 -40t-123 -97q-53 -61 -91 -131t-57 -117q-8 -16 -11 -28.5t-7 -22.5l-6 -18v-469 q0 -27 -25 -27q-10 0 -17 7.5t-7 19.5z" />
<glyph unicode="s" horiz-adv-x="1007" d="M106 159q0 9 7 17q6 10 16 12t21 -8q55 -45 143 -87t188 -42q66 0 122 18.5t99 49.5q90 63 91 155q-2 84 -84 142q-84 53 -232 82h-6q-70 10 -129 29.5t-104 52.5q-45 29 -73 72.5t-28 97.5q0 55 28 101t75 80t108.5 53.5t130.5 19.5q96 0 170 -38t133 -79 q10 -6 11.5 -16.5t-2.5 -18.5q-14 -23 -37 -8q-59 39 -125 73.5t-150 34.5q-63 0 -116.5 -17t-92.5 -46q-80 -61 -80 -139q0 -76 76 -127q39 -27 94.5 -45.5t122.5 -32.5h2q76 -16 139.5 -34.5t112.5 -51.5q47 -33 77 -79t30 -106q0 -59 -30 -109t-79 -87t-114.5 -57.5 t-139.5 -20.5q-57 0 -109.5 13.5t-99.5 34t-86 46t-69 49.5q-11 7 -11 16z" />
<glyph unicode="t" horiz-adv-x="819" d="M86 977q0 27 27 27h172v401q0 27 24 27q27 0 27 -27v-401h164q27 0 26 -27q0 -25 -26 -25h-164v-798q0 -43 30.5 -74t73.5 -31q27 0 27 -24q0 -27 -27 -27q-66 0 -110.5 45t-44.5 111v798h-172q-27 0 -27 25z" />
<glyph unicode="u" d="M170 406v571q0 27 27 27q10 0 17 -8.5t7 -18.5v-571q0 -74 27.5 -138.5t75 -113t112 -76t135.5 -27.5q74 0 137.5 27.5t111.5 76t76 113t28 138.5v571q0 10 8 18.5t18 8.5q27 0 27 -27v-571q0 -84 -32 -158t-87 -129.5t-129 -87t-158 -31.5t-156.5 31.5t-127 87 t-86 129.5t-31.5 158z" />
<glyph unicode="v" horiz-adv-x="1191" d="M115 965q-2 5 -2 9.5t2 9.5q4 9 14 13q7 3 12 3q13 0 21 -17l377 -891l376 891q6 18 18 18q6 0 13 -4q10 -4 16 -13q3 -5 2 -10q0 -4 -1 -9l-400 -947q0 -4 -4 -8q-10 -10 -18 -10h-2h-7q-12 4 -18 16z" />
<glyph unicode="w" horiz-adv-x="1763" d="M125 965q-2 5 -2 9.5t2 9.5q4 9 14 13q6 2 12 3l9 -2q10 -3 14 -13l375 -893l268 639q6 18 29 14q14 0 24 -14l269 -639l377 893q6 15 19 16q6 0 13 -4q10 -4 15 -13q2 -5 2 -9.5t-2 -9.5l-400 -949q0 -6 -8 -10q-10 -6 -14 -6q-8 0 -13 2q-4 0 -8 4t-4 6l-2 2v2 l-270 643l-271 -643q-6 -14 -18 -16h-8h-4q-2 0 -11 4q-10 6 -10 16z" />
<glyph unicode="x" horiz-adv-x="1167" d="M140 23q0 9 5 18l336 461l-336 459q-5 7 -5 15v3q1 10 10 16q9 5 16 5q12 0 20 -11l328 -446l322 446q8 8 18 10q3 1 5 1q7 0 13 -5q10 -6 13 -16q1 -3 0 -5q0 -7 -4 -13l-334 -459l334 -461q6 -9 5 -16q0 -11 -14 -19q-2 -6 -12 -6q-16 0 -24 10l-322 447l-328 -447 q-8 -10 -20 -10q-10 0 -16 6q-10 4 -10 17z" />
<glyph unicode="y" horiz-adv-x="1204" d="M106 406v571q0 27 27 27q10 0 17.5 -8.5t7.5 -18.5v-571q0 -72 27.5 -136.5t75.5 -111.5t111.5 -75t137.5 -28q70 0 132.5 27t110.5 72t75.5 106.5t27.5 130.5v586v4q0 2 4 10l2 2l6 6q8 4 15 5h4q2 0 3 -1.5t3 -1.5l6 -6q2 0 2 -2q6 -6 6 -16v-920q0 -96 -36.5 -182 t-100 -150.5t-149.5 -101.5t-185 -37q-55 0 -106 13.5t-99 35.5q-25 10 -10 35q4 10 13.5 13.5t17.5 -0.5q43 -23 88 -34t96 -11q88 0 164 32.5t133.5 90t90 134t32.5 162.5v152q-49 -92 -141 -148.5t-205 -56.5q-84 0 -157.5 32t-128 86t-86.5 127t-32 157z" />
<glyph unicode="z" horiz-adv-x="1134" d="M128 26q0 8 7 15l664 909h-643q-25 0 -25 27q0 10 7 18.5t18 8.5h688q10 0 14 -1.5t8 -5.5q6 -4 11 -16v-4v-4q0 -2 -1.5 -3t-1.5 -3q-2 -6 -10 -15l-659 -901h645q12 0 19.5 -7t7.5 -17q0 -27 -27 -27h-694q-8 0 -11 2q-8 4 -10 6q-7 8 -7 18z" />
<glyph unicode="{" horiz-adv-x="983" d="M113 588q0 39 49 39q80 0 130 18.5t78.5 52t39 81.5t10.5 108v162q0 80 15.5 144t60.5 114.5t125.5 88.5t209.5 64q16 4 29.5 2t13.5 -20q0 -12 -7 -17.5t-17 -9.5q-111 -29 -183.5 -63.5t-113.5 -78.5t-57.5 -102.5t-16.5 -134.5v-153q0 -68 -15 -117t-43 -84t-67 -57.5 t-88 -36.5q51 -16 91 -39t67 -56.5t41 -83t14 -116.5v-154q0 -76 16.5 -134t57.5 -102t113.5 -79t183.5 -64q10 -4 17 -10t7 -18q0 -18 -13 -19.5t-30 2.5q-129 27 -209.5 65t-125.5 88t-60.5 114.5t-15.5 144.5v162q0 59 -10.5 107t-39 82t-78.5 52.5t-130 18.5 q-49 0 -49 39z" />
<glyph unicode="|" horiz-adv-x="585" d="M248 -225v1822q0 18 4 31.5t22 13.5t25.5 -13t7.5 -32v-1822q0 -18 -7 -31.5t-26 -13.5q-18 0 -22 13.5t-4 31.5z" />
<glyph unicode="}" horiz-adv-x="983" d="M109 -268q0 12 7 18t17 10q111 29 183.5 64t113.5 79t57.5 102t16.5 134v154q0 68 14 117t41 82.5t67 56t91 39.5q-49 14 -88 36.5t-66.5 57.5t-43 84t-15.5 117v153q0 76 -16.5 134.5t-57.5 102.5t-113.5 78.5t-183.5 63.5q-10 4 -17 9.5t-7 17.5q0 18 13 20t30 -2 q129 -27 209.5 -64.5t125.5 -88t60.5 -115t15.5 -143.5v-162q0 -59 10.5 -107.5t39 -82t78.5 -52t130 -18.5q49 0 49 -39t-49 -39q-80 0 -130 -18.5t-78.5 -52.5t-39 -82t-10.5 -107v-162q0 -80 -15.5 -144.5t-60.5 -114.5t-125.5 -88t-209.5 -65q-16 -4 -29.5 -2.5 t-13.5 19.5z" />
<glyph unicode="~" horiz-adv-x="942" d="M174 520q0 4 3 14.5t5 14.5q8 25 25.5 46t39 38.5t46 28t45.5 10.5q29 0 63.5 -12.5t70.5 -27t68.5 -26.5t59.5 -12q63 0 102 88q4 10 8.5 22.5t18.5 12.5q16 0 26.5 -9.5t10.5 -25.5q0 -12 -4 -25q-20 -61 -61.5 -100t-100.5 -39q-29 0 -62.5 12.5t-68.5 27.5 t-69.5 27.5t-61.5 12.5q-63 0 -98 -80q-4 -10 -10.5 -17t-22.5 -7q-33 -1 -33 26z" />
<glyph unicode="&#xa1;" horiz-adv-x="516" d="M190 27v1065q0 25 27 24q10 0 17.5 -7t7.5 -17v-1065q0 -12 -7.5 -19.5t-17.5 -7.5q-27 0 -27 27zM190 1358v49q0 27 27 27q10 0 17.5 -7.5t7.5 -19.5v-49q0 -10 -7.5 -17.5t-17.5 -7.5q-12 0 -19.5 7.5t-7.5 17.5z" />
<glyph unicode="&#xa2;" horiz-adv-x="1189" d="M127 500q0 104 41 195t110.5 159t163 107.5t199.5 39.5q37 0 72 -5t69 -15l41 80q4 10 13.5 14t19.5 0q10 -2 16.5 -11t1.5 -20l-40 -79q35 -14 66.5 -32t60.5 -40q16 -16 2 -39q-12 -16 -35 -2q-59 43 -117 66l-408 -803q109 -63 238 -64q80 0 153.5 26.5t133.5 74.5 q8 4 18 3t17 -10q14 -20 -2 -36q-66 -51 -148 -80t-172 -29q-72 0 -137.5 18.5t-122.5 51.5l-39 -76q0 -16 -20 -17q-8 0 -11 3q-10 4 -14 13t0 19l43 84q-98 70 -155.5 175.5t-57.5 228.5zM178 500q0 -111 49 -204t135 -155l398 793q-61 16 -119 16q-96 0 -181 -35.5 t-147.5 -97t-98.5 -143.5t-36 -174z" />
<glyph unicode="&#xa3;" horiz-adv-x="1318" d="M135 -2q0 16 25 20l159 19v600h-135q-20 0 -34.5 1t-14.5 21t14.5 24.5t34.5 4.5h135v262q0 117 34 211t100 160q57 57 135 88t172 31q150 0 246 -55.5t163 -135.5q14 -18 15 -39q0 -23 -10.5 -20.5t-26.5 2.5q-14 0 -27.5 20.5t-21.5 28.5q-61 70 -139 111t-199 41 q-74 0 -149.5 -30t-118.5 -73q-25 -25 -47.5 -62.5t-39 -82.5t-25.5 -94.5t-9 -98.5v-264h622q20 0 34.5 -4t14.5 -25q0 -20 -14 -21t-35 -1h-622v-600l778 -2q20 0 34.5 -2t14.5 -23q0 -20 -14.5 -22t-34.5 -2h-987q-10 0 -18.5 1t-8.5 11z" />
<glyph unicode="&#xa5;" horiz-adv-x="1404" d="M113 1409q2 10 12 16q8 6 18.5 5.5t16.5 -9.5l487 -669l486 669q18 18 36 4q23 -16 9 -34l-484 -660h303q12 0 21.5 -9t9.5 -22q0 -10 -9 -17t-22 -7h-325v-254h325q12 0 21.5 -10.5t9.5 -22.5t-9 -19.5t-22 -7.5h-325v-335q0 -27 -25 -27q-27 0 -26 27v335h-324 q-31 0 -31 27q0 12 8.5 22.5t22.5 10.5h324v254h-324q-14 0 -22.5 7t-8.5 17q0 12 8.5 21.5t22.5 9.5h301l-479 660q-8 8 -6 18z" />
<glyph unicode="&#xa8;" horiz-adv-x="1024" d="M272 1305q0 29 20.5 49t49.5 20t48.5 -20.5t19.5 -48.5q0 -29 -19.5 -49.5t-48.5 -20.5t-49.5 20.5t-20.5 49.5zM645 1305q0 29 20.5 49t49.5 20t49 -20.5t20 -48.5q0 -29 -20.5 -49.5t-48.5 -20.5q-29 0 -49.5 20.5t-20.5 49.5z" />
<glyph unicode="&#xa9;" horiz-adv-x="1699" d="M109 713v4q0 152 57 286t157.5 235t236.5 160.5t292 59.5t291 -58.5t234.5 -158.5t156.5 -234.5t57 -285.5v-4q0 -152 -57 -286t-157.5 -235.5t-236.5 -161t-292 -59.5t-291 58.5t-234.5 159t-156.5 234.5t-57 286zM170 713q0 -141 51 -265t142.5 -216.5t215 -145.5 t269.5 -53q145 0 270 54t216 147.5t143.5 217t52.5 265.5v4q0 141 -51.5 265t-142.5 216t-215 145.5t-269 53.5t-270 -54.5t-216.5 -147.5t-143.5 -217t-52 -265v-4zM485 725v4q0 78 29 148.5t80 124t118.5 84t147.5 30.5q92 0 153.5 -29.5t110.5 -72.5q18 -14 19 -37 q0 -18 -13.5 -30.5t-31.5 -12.5q-14 0 -33 14q-41 35 -91 60.5t-116 25.5q-61 0 -112.5 -23.5t-89.5 -65.5t-59.5 -97t-21.5 -117v-4q0 -61 23 -117.5t60.5 -97.5t90 -65.5t111.5 -24.5q70 0 120 23.5t97 66.5q4 4 11.5 7t17.5 3q16 0 28.5 -12t12.5 -29q0 -20 -14 -30 q-57 -49 -120 -80t-155 -31q-80 0 -147.5 30.5t-117.5 83t-79 122t-29 149.5z" />
<glyph unicode="&#xaa;" horiz-adv-x="1267" d="M82 502q0 102 37 193t101.5 160t150.5 109t184 40q139 0 251 -77t171 -200v250q0 10 7 18.5t20 8.5q10 0 17 -8.5t7 -18.5v-950q0 -27 -24 -27q-27 0 -27 27v249q-59 -123 -171 -199.5t-251 -76.5q-98 0 -184 40t-150.5 108.5t-101.5 160t-37 193.5zM133 502 q0 -94 34 -176t91 -143.5t134 -96.5t163 -35t163 35t134 96.5t91 143.5t34 176q0 92 -34 174t-91 143.5t-134 96t-163 34.5t-163 -34.5t-134 -96t-91 -143.5t-34 -174z" />
<glyph unicode="&#xab;" horiz-adv-x="1054" />
<glyph unicode="&#xad;" horiz-adv-x="835" d="M135 715q0 23 21 22h467q18 0 18 -22q0 -18 -18 -19h-467q-21 1 -21 19z" />
<glyph unicode="&#xae;" horiz-adv-x="851" d="M70 1094v2q0 74 27.5 138t75.5 113.5t113.5 78t139.5 28.5q76 0 140.5 -28.5t112.5 -77t75.5 -113t27.5 -137.5v-2q0 -74 -27.5 -138.5t-75.5 -113.5t-113.5 -78t-139.5 -29q-76 0 -140.5 29t-112.5 77t-75.5 112.5t-27.5 138.5zM90 1094q0 -70 25.5 -131.5t70.5 -107.5 t106.5 -72.5t133.5 -26.5t133.5 26.5t106.5 72.5t70.5 108.5t25.5 132.5v2q0 70 -25.5 131t-70.5 107t-106.5 73t-133.5 27t-133.5 -27t-106.5 -73t-70.5 -108.5t-25.5 -131.5v-2zM285 872q0 -10 8 -10q10 0 10 10v197h125q2 -2 4 -2t5 -1t7 -1q10 -4 26.5 -10t29.5 -21 q14 -10 23 -28.5t9 -40.5q0 -33 4.5 -50.5t10.5 -27.5q8 -16 24 -17q4 0 4 2q6 0 7 9q-4 6 -11 6q-6 0 -12 8q-4 8 -6 23.5t-2 46.5q0 37 -19.5 61.5t-42.5 36.5q-10 6 -24 10q41 12 66.5 46t25.5 79q0 53 -37 91t-90 38h-135h-2q-8 0 -8 -8v-447zM303 1087v222h127 q47 0 80 -32t33 -79t-33 -79t-80 -32h-127z" />
<glyph unicode="&#xb0;" horiz-adv-x="921" d="M152 1143v4q0 68 24.5 123t66.5 94t97 60.5t117 21.5q61 0 116.5 -22.5t97.5 -62.5t66.5 -95.5t24.5 -118.5v-4q0 -59 -22.5 -113.5t-63.5 -95.5t-96.5 -65.5t-122.5 -24.5q-66 0 -121 23.5t-96 64.5t-64.5 95.5t-23.5 115.5zM197 1143q0 -51 19.5 -98.5t54 -83t82.5 -57 t104 -21.5q55 0 103 21.5t83 57t54.5 83t19.5 98.5v4q0 51 -19.5 98t-54.5 84t-83 58.5t-103 21.5t-103.5 -21.5t-83 -58.5t-54 -84t-19.5 -98v-4z" />
<glyph unicode="&#xb2;" horiz-adv-x="1208" d="M98 10q-16 18 2 37l693 625q68 59 101.5 139t33.5 164q0 72 -27 142.5t-80 129.5q-59 66 -139 100.5t-162 34.5q-74 0 -144.5 -26.5t-129.5 -79.5l-72 -66q-20 -16 -37 0q-8 8 -7 19.5t9 17.5l72 68q66 61 145.5 90t163.5 29q94 0 183.5 -38t156.5 -112q59 -66 89 -146.5 t30 -162.5q0 -94 -39 -182t-115 -158l-643 -584h772q10 0 17.5 -7t7.5 -17t-7 -18.5t-18 -8.5h-827h-6h-2q-17 0 -21 10z" />
<glyph unicode="&#xb3;" horiz-adv-x="1249" d="M156 141q-18 18 0 37q18 18 37 0q63 -61 140 -92t159 -31q84 0 160.5 31t140.5 94q63 63 94 140t31 161q0 80 -30 158t-93 141t-140 93t-159 30q-16 0 -25 12q0 2 -2 3q-8 8 -8 19t8 19l414 426h-633q-27 0 -27 27t27 27h694q27 0 27 -27q0 -8 -2 -12q-4 -8 -6 -11 l-422 -432q80 -8 155.5 -41.5t134.5 -95.5q70 -70 105 -157t35 -179t-34 -180t-106 -160t-158.5 -105.5t-178.5 -33.5h-2q-92 0 -179 33.5t-157 105.5z" />
<glyph unicode="&#xb4;" horiz-adv-x="1024" d="M412 1231q0 10 8 22l127 191q25 37 57 37q29 0 31 -11.5t6 -19.5t-3 -17.5t-17 -19.5l-146 -158q-16 -18 -24 -21l-25 -9q-14 -8 -14 6z" />
<glyph unicode="&#xb8;" horiz-adv-x="1024" d="M348 -242q0 6 1 13.5t9 17.5l158 231h88l-133 -270q-10 -18 -20.5 -29.5t-32.5 -11.5q-25 0 -47.5 16.5t-22.5 32.5z" />
<glyph unicode="&#xb9;" horiz-adv-x="686" d="M65.5 1239q2.5 10 12.5 16l287 170q23 16 36 -8q10 -23 -12 -35l-287 -172q-4 -2 -12 -2q-6 0 -12 2t-10 11q-5 8 -2.5 18zM352 27v1378q0 10 7.5 18.5t17.5 8.5q12 0 19 -8.5t7 -18.5v-1378q0 -27 -26 -27q-10 0 -17.5 8.5t-7.5 18.5z" />
<glyph unicode="&#xba;" horiz-adv-x="1280" d="M143 502q0 104 37 195t101.5 159t150.5 108t184 40t184.5 -40t151 -108t102.5 -159t38 -195q0 -102 -38 -193.5t-102.5 -160t-150.5 -108.5t-185 -40q-98 0 -184 40t-150.5 108.5t-101.5 160t-37 193.5zM195 502q0 -92 33.5 -174t91 -143.5t134 -97.5t162.5 -36t164 36 t135.5 97.5t91 143.5t33.5 174q0 94 -33.5 176t-91 143.5t-135.5 96t-164 34.5t-162.5 -34.5t-134 -96t-91 -143.5t-33.5 -176z" />
<glyph unicode="&#xbf;" horiz-adv-x="1093" d="M115 217q-14 18 8 33q18 10 33 -8q51 -88 138 -140.5t195 -52.5q78 0 148 30t122 82t81.5 122.5t29.5 150.5q0 78 -29.5 147.5t-81.5 122t-122 83t-148 30.5q-25 0 -24 25v2v4v268q0 10 7 17.5t17 7.5t17.5 -7.5t7.5 -17.5v-250q84 -4 157.5 -39.5t129 -94t88.5 -135.5 t33 -163q0 -90 -35 -169t-93.5 -138t-137 -93t-167.5 -34q-123 0 -221 59.5t-153 157.5zM465 1362v47q0 25 24 25q10 0 17.5 -7.5t7.5 -17.5v-47q0 -10 -7 -17.5t-18 -7.5q-10 0 -17 7.5t-7 17.5z" />
<glyph unicode="&#xc0;" horiz-adv-x="1329" d="M119 41q-10 -25 12 -35q4 0 6 -1t4 -1q18 0 23 19l137 366h717l137 -366q10 -18 27 -19q2 0 3 1t5 1q10 4 14 14.5t0 20.5l-516 1376q-10 16 -26 17q-20 4 -27 -17zM322 442l337 897l338 -897h-675zM518 1860q4 8 6 19t31 11q33 0 57 -37l127 -190q8 -12 9 -23 q0 -14 -15 -6l-24 10q-8 3 -25 21l-145 158q-10 10 -17.5 19.5t-3.5 17.5z" />
<glyph unicode="&#xc1;" horiz-adv-x="1323" d="M119 41l516 1376q6 20 27 17q16 0 26 -17l516 -1376q4 -10 0 -20.5t-14 -14.5q-4 0 -5 -1t-3 -1q-16 0 -27 19l-137 366h-717l-137 -366q-4 -18 -23 -19q-2 0 -4 1t-6 1q-22 10 -12 35zM322 442h675l-338 897zM590 1640q0 10 8 23l127 190q25 37 57 37q29 0 31 -11t6 -19 t-3 -17.5t-17 -19.5l-146 -158q-16 -18 -24 -21l-25 -10q-14 -8 -14 6z" />
<glyph unicode="&#xc2;" horiz-adv-x="1359" d="M121 41q-10 -25 12 -35q4 0 6 -1t4 -1q18 0 23 19l137 366h717l137 -366q10 -18 27 -19q2 0 3 1t5 1q10 4 14 14.5t0 20.5l-516 1376q-10 16 -26 17q-20 4 -27 -17zM324 442l338 897l337 -897h-675zM453 1642q0 12 10 25l147 180q14 16 26.5 26.5t31.5 10.5h16 q18 0 30.5 -10t26.5 -27l148 -180q10 -12 10 -25q0 -8 -6 -6t-21 2q-16 0 -30 15l-25 24l-143 154l-142 -156q-8 -8 -21 -22.5t-30 -14.5q-12 0 -20 -2t-8 6z" />
<glyph unicode="&#xc3;" horiz-adv-x="1359" d="M121 41q-10 -25 12 -35q4 0 6 -1t4 -1q18 0 23 19l137 366h717l137 -366q10 -18 27 -19q2 0 3 1t5 1q10 4 14 14.5t0 20.5l-516 1376q-10 16 -26 17q-20 4 -27 -17zM324 442l338 897l337 -897h-675zM369 1645q0 4 3 14t5 14q8 25 25.5 46.5t39 39t46 27.5t44.5 10 q29 0 64 -12t70.5 -26.5t68.5 -27t60 -12.5q63 0 102 88q4 10 8 22.5t19 12.5q16 0 26.5 -9t10.5 -26q0 -12 -5 -24q-20 -61 -61 -100.5t-100 -39.5q-29 0 -63 12.5t-68.5 28t-69.5 27.5t-62 12q-63 0 -98 -80q-4 -10 -10 -17t-23 -7q-32 0 -32 27z" />
<glyph unicode="&#xc4;" horiz-adv-x="1357" d="M121 41q-10 -25 12 -35q4 0 6 -1t4 -1q18 0 23 19l137 366h717l137 -366q10 -18 27 -19q2 0 3 1t5 1q10 4 14 14.5t0 20.5l-516 1376q-10 16 -26 17q-20 4 -27 -17zM324 442l338 897l337 -897h-675zM406 1714q0 29 20 49.5t49 20.5t48.5 -20.5t19.5 -49.5t-19.5 -49 t-48.5 -20t-49 20t-20 49zM778 1714q0 29 20.5 49.5t49.5 20.5t49.5 -20.5t20.5 -49.5t-20.5 -49t-49.5 -20t-49.5 20t-20.5 49z" />
<glyph unicode="&#xc5;" horiz-adv-x="1323" d="M94 39l494 1319q-53 14 -87 57t-34 101v2q0 74 50 116.5t116 42.5q33 0 62.5 -12t53 -33.5t37 -50.5t13.5 -63v-2q0 -53 -31 -96.5t-84 -59.5l496 -1321q4 -10 0 -20.5t-15 -14.5q-4 0 -5 -1t-3 -1q-16 0 -27 18l-137 367h-717l-137 -367q-4 -18 -22 -18q-2 0 -4 1t-7 1 q-22 10 -12 35zM297 440h676l-338 897zM516 1513q0 -39 24.5 -70.5t63.5 -41.5q8 -2 14.5 -3t14.5 -1q18 0 35 6q37 10 59.5 42t22.5 68v3q0 45 -33 80.5t-84 35.5t-84 -35.5t-33 -80.5v-3z" />
<glyph unicode="&#xc6;" horiz-adv-x="2140" d="M84 22.5q0 8.5 1 13.5t1 3q2 2 6 10t26.5 48t72 122t140.5 232.5t230 382t342 567.5q10 16 21.5 24.5t31.5 8.5h1018q20 0 34.5 -4.5t14.5 -24.5t-14 -24.5t-35 -4.5h-887v-620h795q20 0 34.5 -6.5t14.5 -26.5t-14 -26.5t-35 -6.5h-795v-631h898q20 0 34.5 -4t14.5 -24 t-14.5 -25.5t-34.5 -5.5h-906q-23 0 -38 15.5t-15 37.5v369h-641l-246 -406q-4 -4 -11 -13t-28 -5q-10 2 -13 9t-3 15.5zM420 477h606v901h-65z" />
<glyph unicode="&#xc7;" horiz-adv-x="1579" d="M150 729q0 150 58 282t159.5 230t236.5 155.5t289 57.5q133 0 252 -43t213 -115q23 -18 8 -36q-10 -10 -20.5 -11.5t-18.5 6.5q-90 70 -199.5 108t-234.5 38q-141 0 -267 -53.5t-220.5 -144.5t-148.5 -213t-54 -261q0 -141 54 -264t148.5 -214t220.5 -144.5t267 -53.5 q123 0 232.5 38t199.5 108q23 14 39 -4q8 -8 6 -18.5t-12 -18.5q-98 -72 -215 -115t-250 -43q-154 0 -289 58.5t-236.5 156.5t-159.5 230t-58 284zM676 -242q0 6 1 13.5t9 17.5l158 231h88l-133 -270q-10 -18 -20.5 -29.5t-33.5 -11.5q-25 0 -47 16.5t-22 32.5z" />
<glyph unicode="&#xc8;" horiz-adv-x="1214" d="M213 27q0 -27 25 -27h4h2h757q25 0 25 27q0 25 -25 24h-737v641h649q25 0 25 27q0 10 -7 17t-18 7h-649v639h737q25 0 25 25q0 27 -25 27h-759h-2h-2q-25 -4 -25 -27v-1380zM455 1860q4 8 6 19t31 11q33 0 57 -37l127 -190q8 -12 8 -23q0 -14 -14 -6l-25 10q-8 3 -24 21 l-146 158q-10 10 -17 19.5t-3 17.5z" />
<glyph unicode="&#xc9;" horiz-adv-x="1214" d="M213 27v1380q0 23 25 27h2h2h759q25 0 25 -27q0 -25 -25 -25h-737v-639h649q10 0 17.5 -7t7.5 -17q0 -27 -25 -27h-649v-641h737q25 0 25 -24q0 -27 -25 -27h-757h-2h-4q-25 0 -25 27zM514 1640q0 10 8 23l127 190q25 37 58 37q29 0 30.5 -11t5.5 -19t-3 -17.5t-17 -19.5 l-145 -158q-16 -18 -25 -21l-25 -10q-14 -8 -14 6z" />
<glyph unicode="&#xca;" horiz-adv-x="1214" d="M213 27q0 -27 25 -27h4h2h757q25 0 25 27q0 25 -25 24h-737v641h649q25 0 25 27q0 10 -7 17t-18 7h-649v639h737q25 0 25 25q0 27 -25 27h-759h-2h-2q-25 -4 -25 -27v-1380zM397 1642q0 12 11 25l147 180q14 16 26.5 26.5t30.5 10.5h17q18 0 30.5 -10t26.5 -27l148 -180 q10 -12 10 -25q0 -8 -6.5 -6t-20.5 2q-16 0 -31 15l-24 24l-144 154l-141 -156q-8 -8 -21.5 -22.5t-29.5 -14.5q-12 0 -20.5 -2t-8.5 6z" />
<glyph unicode="&#xcb;" horiz-adv-x="1372" d="M213 27q0 -27 25 -27h4h2h757q25 0 25 27q0 25 -25 24h-737v641h649q25 0 25 27q0 10 -7 17t-18 7h-649v639h737q25 0 25 25q0 27 -25 27h-759h-2h-2q-25 -4 -25 -27v-1380zM360 1714q0 29 20.5 49.5t49.5 20.5t48.5 -20.5t19.5 -49.5t-19.5 -49t-48.5 -20t-49.5 20 t-20.5 49zM733 1714q0 29 20.5 49.5t49.5 20.5t49 -20.5t20 -49.5t-20.5 -49t-48.5 -20q-29 0 -49.5 20t-20.5 49z" />
<glyph unicode="&#xcc;" horiz-adv-x="712" d="M309 1860q4 8 6 19t31 11q33 0 57 -37l127 -190q8 -12 9 -23q0 -14 -15 -6l-24 10q-8 3 -25 21l-145 158q-10 10 -17.5 19.5t-3.5 17.5zM395 27q0 -27 27 -27q10 0 17 7t7 20v1380q0 12 -7 19.5t-17 7.5q-27 0 -27 -27v-1380z" />
<glyph unicode="&#xcd;" horiz-adv-x="561" d="M170 1640q0 10 8 23l127 190q25 37 57 37q29 0 31 -11t6 -19t-3 -17.5t-17 -19.5l-146 -158q-16 -18 -24 -21l-25 -10q-14 -8 -14 6zM262 27v1380q0 27 27 27q10 0 17 -7.5t7 -19.5v-1380q0 -12 -7 -19.5t-17 -7.5q-27 0 -27 27z" />
<glyph unicode="&#xce;" horiz-adv-x="561" d="M2 1642q0 12 10 25l148 180q14 16 26.5 26.5t30.5 10.5h16q18 0 30.5 -10t27.5 -27l147 -180q10 -12 11 -25q0 -8 -6.5 -6t-20.5 2q-16 0 -31 15l-24 24l-144 154l-141 -156q-8 -8 -21.5 -22.5t-29.5 -14.5q-12 0 -20.5 -2t-8.5 6zM201 27q0 -27 26 -27q10 0 17.5 7 t7.5 20v1380q0 12 -7 19.5t-18 7.5q-27 0 -26 -27v-1380z" />
<glyph unicode="&#xcf;" horiz-adv-x="561" d="M-16 1714q0 29 20.5 49.5t48.5 20.5q29 0 48.5 -20.5t19.5 -49.5t-19.5 -49t-48.5 -20t-49 20t-20 49zM215 27q0 -27 27 -27q10 0 17 7t7 20v1380q0 12 -7 19.5t-17 7.5q-27 0 -27 -27v-1380zM356 1714q0 29 20.5 49.5t49.5 20.5t49.5 -20.5t20.5 -49.5t-20.5 -49 t-49.5 -20t-49.5 20t-20.5 49z" />
<glyph unicode="&#xd0;" horiz-adv-x="1662" d="M113 721q0 23 20 22h205v664q0 27 27 27h274q150 0 280 -56.5t227 -154t153.5 -227.5t56.5 -277q0 -150 -56.5 -281t-153.5 -228t-227.5 -153.5t-279.5 -56.5h-274q-27 0 -27 27v675h-205q-20 1 -20 19zM389 51h250q137 0 259 52.5t212 143.5t142.5 212t52.5 260 q0 137 -52.5 258t-142.5 211t-212 142t-259 52h-250v-639h211q18 0 18 -22q0 -18 -18 -19h-211v-651z" />
<glyph unicode="&#xd1;" horiz-adv-x="1617" d="M213 27q0 -10 8 -18.5t19 -8.5q25 0 24 27v1300l942 -1309q0 -2 2 -2q6 -16 25 -16q25 0 24 27v1370q0 27 -24 26q-10 0 -18.5 -8t-8.5 -18v-1291l-946 1315q-14 16 -37 4q-10 -10 -10 -22v-6v-1370zM442 1645q0 4 3.5 14t5.5 14q8 25 25.5 46.5t39 39t46 27.5t44.5 10 q29 0 64 -12t70.5 -26.5t68.5 -27t59 -12.5q63 0 103 88q4 10 8 22.5t18 12.5q16 0 26.5 -9t10.5 -26q0 -12 -4 -24q-20 -61 -61 -100.5t-101 -39.5q-29 0 -62.5 12.5t-68.5 28t-69.5 27.5t-61.5 12q-63 0 -98 -80q-4 -10 -10 -17t-23 -7q-33 0 -33 27z" />
<glyph unicode="&#xd2;" horiz-adv-x="1740" d="M150 715q0 -154 55 -289t149.5 -235.5t221 -159t272.5 -58.5q145 0 272 58.5t221.5 159t149.5 235.5t57 289q-2 154 -57 289t-149.5 234t-221.5 157.5t-272 58.5t-272 -58.5t-221.5 -157.5t-149.5 -234t-55 -289zM205 715q0 143 51 268t138 218t204 146.5t250 53.5 q131 0 247.5 -53.5t203.5 -146.5t139.5 -218t52.5 -268q0 -141 -52.5 -266t-139.5 -217.5t-203.5 -146.5t-247.5 -56q-133 2 -250 56t-204 146.5t-138 217.5t-51 266zM737 1860q4 8 6 19t31 11q33 0 57 -37l127 -190q8 -12 9 -23q0 -14 -15 -6l-24 10q-8 3 -25 21l-145 158 q-10 10 -17.5 19.5t-3.5 17.5z" />
<glyph unicode="&#xd3;" horiz-adv-x="1740" d="M150 715q0 154 55 289t149.5 234t221 157.5t272.5 58.5q145 0 272 -58.5t221.5 -157.5t149.5 -234.5t57 -288.5q-2 -154 -57 -289t-149.5 -235.5t-221.5 -159t-272 -58.5t-272 58.5t-221.5 159t-149.5 235.5t-55 289zM205 715q0 -141 51 -266t138 -217.5t204 -146.5 t250 -56q131 2 247.5 56t203.5 146.5t139.5 217t52.5 266.5q0 143 -52.5 268t-139.5 218t-203.5 146.5t-247.5 53.5q-133 0 -250 -53.5t-204 -146.5t-138 -218t-51 -268zM733 1640q0 10 8 23l127 190q25 37 58 37q29 0 30.5 -11t6.5 -19q4 -8 -3.5 -17.5t-17.5 -19.5 l-145 -158q-16 -18 -25 -21l-24 -10q-15 -8 -15 6z" />
<glyph unicode="&#xd4;" horiz-adv-x="1740" d="M150 715q0 -154 55 -289t149.5 -235.5t221 -159t272.5 -58.5q145 0 272 58.5t221.5 159t149.5 235.5t57 289q-2 154 -57 289t-149.5 234t-221.5 157.5t-272 58.5t-272 -58.5t-221.5 -157.5t-149.5 -234t-55 -289zM205 715q0 143 51 268t138 218t204 146.5t250 53.5 q131 0 247.5 -53.5t203.5 -146.5t139.5 -218t52.5 -268q0 -141 -52.5 -266t-139.5 -217.5t-203.5 -146.5t-247.5 -56q-133 2 -250 56t-204 146.5t-138 217.5t-51 266zM627 1642q0 12 10 25l147 180q14 16 26.5 26.5t31.5 10.5h16q18 0 30.5 -10t26.5 -27l148 -180 q10 -12 10 -25q0 -8 -6 -6t-20 2q-16 0 -31 15l-25 24l-143 154l-141 -156q-8 -8 -21.5 -22.5t-30.5 -14.5q-12 0 -20 -2t-8 6z" />
<glyph unicode="&#xd5;" horiz-adv-x="1740" d="M150 715q0 -154 55 -289t149.5 -235.5t221 -159t272.5 -58.5q145 0 272 58.5t221.5 159t149.5 235.5t57 289q-2 154 -57 289t-149.5 234t-221.5 157.5t-272 58.5t-272 -58.5t-221.5 -157.5t-149.5 -234t-55 -289zM205 715q0 143 51 268t138 218t204 146.5t250 53.5 q131 0 247.5 -53.5t203.5 -146.5t139.5 -218t52.5 -268q0 -141 -52.5 -266t-139.5 -217.5t-203.5 -146.5t-247.5 -56q-133 2 -250 56t-204 146.5t-138 217.5t-51 266zM555 1645q0 4 3 14t5 14q8 25 25.5 46.5t39 39t46 27.5t45.5 10q29 0 63.5 -12t70.5 -26.5t68.5 -27 t59.5 -12.5q63 0 102 88q4 10 8.5 22.5t18.5 12.5q16 0 26.5 -9t10.5 -26q0 -12 -4 -24q-20 -61 -61.5 -100.5t-100.5 -39.5q-29 0 -62.5 12.5t-68.5 28t-70 27.5t-61 12q-63 0 -98 -80q-4 -10 -10.5 -17t-22.5 -7q-33 0 -33 27z" />
<glyph unicode="&#xd6;" horiz-adv-x="1740" d="M150 715q0 -154 55 -289t149.5 -235.5t221 -159t272.5 -58.5q145 0 272 58.5t221.5 159t149.5 235.5t57 289q-2 154 -57 289t-149.5 234t-221.5 157.5t-272 58.5t-272 -58.5t-221.5 -157.5t-149.5 -234t-55 -289zM205 715q0 143 51 268t138 218t204 146.5t250 53.5 q131 0 247.5 -53.5t203.5 -146.5t139.5 -218t52.5 -268q0 -141 -52.5 -266t-139.5 -217.5t-203.5 -146.5t-247.5 -56q-133 2 -250 56t-204 146.5t-138 217.5t-51 266zM592 1714q0 29 20.5 49.5t49.5 20.5t48 -20.5t19 -49.5t-19.5 -49t-47.5 -20q-29 0 -49.5 20t-20.5 49z M965 1714q0 29 20.5 49.5t48.5 20.5q29 0 49.5 -20.5t20.5 -49.5t-20.5 -49t-49.5 -20t-49 20t-20 49z" />
<glyph unicode="&#xd7;" horiz-adv-x="1269" d="M205 340q0 20 16 37l346 342l-344 340q-18 18 -18 41t14 37t37 14t41 -18l340 -345l342 347q16 16 37 16q20 0 34.5 -14.5t14.5 -34.5t-16 -37l-347 -342l345 -340q18 -18 18 -41t-14.5 -37t-36.5 -14q-23 0 -41 18l-340 344l-342 -346q-16 -16 -37 -16q-20 0 -34.5 14.5 t-14.5 34.5z" />
<glyph unicode="&#xd8;" horiz-adv-x="1740" d="M150 715q0 154 55 289t149.5 234t221 157.5t272.5 58.5q145 0 272 -58.5t221.5 -157.5t149.5 -234.5t57 -288.5q-2 -154 -57 -289t-149.5 -235.5t-221.5 -159t-272 -58.5t-272 58.5t-221.5 159t-149.5 235.5t-55 289zM205 715q0 -141 51 -266t138 -217.5t204 -146.5 t250 -56q131 2 247.5 56t203.5 146.5t139.5 217t52.5 266.5q0 143 -52.5 268t-139.5 218t-203.5 146.5t-247.5 53.5q-133 0 -250 -53.5t-204 -146.5t-138 -218t-51 -268zM207 29q-18 14 0 37l1237 1282q6 8 17.5 9t19.5 -7q8 -6 9 -17.5t-5 -19.5l-1243 -1284 q-10 -12 -27 -6q-8 0 -8 6z" />
<glyph unicode="&#xd9;" horiz-adv-x="1556" d="M190 575q0 -121 45.5 -225t123 -182t182 -123t223.5 -45t223.5 45t182 123t123.5 182.5t46 224.5v832q0 10 -8 18.5t-18 8.5q-27 0 -27 -27v-832q0 -109 -41 -205t-112.5 -166.5t-167 -111.5t-201.5 -41q-109 0 -204 41t-165.5 111.5t-111.5 167t-41 204.5v832 q0 27 -25 27q-27 0 -27 -27v-832zM541 1860q4 8 6 19t31 11q33 0 57 -37l127 -190q8 -12 8 -23q0 -14 -14 -6l-25 10q-8 3 -24 21l-146 158q-10 10 -17 19.5t-3 17.5z" />
<glyph unicode="&#xda;" horiz-adv-x="1556" d="M190 575v832q0 27 27 27q25 0 25 -27v-832q0 -109 41 -205t111.5 -166.5t165.5 -111.5t204 -41q106 0 201.5 41t167 111.5t112.5 167t41 204.5v832q0 27 27 27q10 0 18 -8.5t8 -18.5v-832q0 -121 -46 -225t-123.5 -182t-182 -123t-223.5 -45t-223.5 45t-182 123t-123 182 t-45.5 225zM612 1640q0 10 9 23l127 190q25 37 57 37q29 0 31 -11t6 -19t-3.5 -17.5t-17.5 -19.5l-145 -158q-16 -18 -25 -21l-24 -10q-15 -8 -15 6z" />
<glyph unicode="&#xdb;" horiz-adv-x="1556" d="M190 575q0 -121 45.5 -225t123 -182t182 -123t223.5 -45t223.5 45t182 123t123.5 182.5t46 224.5v832q0 10 -8 18.5t-18 8.5q-27 0 -27 -27v-832q0 -109 -41 -205t-112.5 -166.5t-167 -111.5t-201.5 -41q-109 0 -204 41t-165.5 111.5t-111.5 167t-41 204.5v832 q0 27 -25 27q-27 0 -27 -27v-832zM471 1642q0 12 10 25l148 180q14 16 26.5 26.5t30.5 10.5h16q18 0 30.5 -10t27.5 -27l147 -180q10 -12 11 -25q0 -8 -6.5 -6t-20.5 2q-16 0 -31 15l-24 24l-144 154l-141 -156q-8 -8 -21.5 -22.5t-29.5 -14.5q-12 0 -20.5 -2t-8.5 6z" />
<glyph unicode="&#xdc;" horiz-adv-x="1556" d="M190 575q0 -121 45.5 -225t123 -182t182 -123t223.5 -45t223.5 45t182 123t123.5 182.5t46 224.5v832q0 10 -8 18.5t-18 8.5q-27 0 -27 -27v-832q0 -109 -41 -205t-112.5 -166.5t-167 -111.5t-201.5 -41q-109 0 -204 41t-165.5 111.5t-111.5 167t-41 204.5v832 q0 27 -25 27q-27 0 -27 -27v-832zM508 1714q0 29 20.5 49.5t49.5 20.5t48 -20.5t19 -49.5t-19.5 -49t-47.5 -20q-29 0 -49.5 20t-20.5 49zM881 1714q0 29 20.5 49.5t48.5 20.5q29 0 49.5 -20.5t20.5 -49.5t-20.5 -49t-49.5 -20t-49 20t-20 49z" />
<glyph unicode="&#xdd;" horiz-adv-x="1466" d="M115 1409q2 10 12 16q8 6 18.5 5.5t16.5 -9.5l487 -669l486 669q18 18 36 4q23 -16 9 -34l-506 -691v-673q0 -27 -25 -27q-27 0 -26 27v673l-502 691q-8 8 -6 18zM578 1640q0 10 8 23l127 190q25 37 57 37q29 0 31 -11t6 -19t-3 -17.5t-18 -19.5l-145 -158 q-16 -18 -25 -21l-24 -10q-14 -8 -14 6z" />
<glyph unicode="&#xdf;" horiz-adv-x="1269" d="M193 41v983q0 106 32.5 196.5t91 156t141.5 100t185 32.5q92 -4 167 -31.5t129 -75.5t83 -112.5t29 -138.5v-4q0 -76 -33 -137.5t-84 -110.5t-114.5 -85t-123.5 -56q80 -14 161 -42t144.5 -73t103.5 -108.5t38 -147.5q-2 -86 -41 -156.5t-107.5 -121t-162 -80 t-203.5 -33.5q-16 0 -29.5 7t-13.5 26q0 18 12 29.5t29 13.5q88 4 167.5 26.5t141 61.5t97.5 96t36 131q0 70 -37 123t-97.5 90t-138 60.5t-159.5 33.5q-51 6 -51 49q0 20 12 32.5t29 19.5q66 23 130 55.5t114.5 76.5t82 99t31.5 125q0 57 -28.5 111.5t-75.5 96.5 t-109.5 66.5t-130.5 24.5q-74 0 -143.5 -33t-122.5 -90t-85 -135t-32 -168v-983q0 -23 -8 -36t-31 -13t-24.5 13t-1.5 36z" />
<glyph unicode="&#xe0;" horiz-adv-x="1175" d="M129 502q0 102 37 193t101.5 160t150.5 109t184 40q139 0 251 -77t171 -200v250q0 10 7 18.5t20 8.5q10 0 17 -8.5t7 -18.5v-950q0 -27 -24 -27q-27 0 -27 27v249q-59 -123 -171 -199.5t-251 -76.5q-98 0 -184 40t-150.5 108.5t-101.5 160t-37 193.5zM180 502 q0 -94 34 -176t91 -143.5t134 -96.5t163 -35t163 35t134 96.5t91 143.5t34 176q0 92 -34 174t-91 143.5t-134 96t-163 34.5t-163 -34.5t-134 -96t-91 -143.5t-34 -174zM492 1399q4 8 6 19.5t30 11.5q33 0 58 -37l127 -191q8 -12 8 -22q0 -14 -14 -6l-25 9q-8 3 -25 21 l-145 158q-10 10 -17 19.5t-3 17.5z" />
<glyph unicode="&#xe1;" horiz-adv-x="1175" d="M129 502q0 102 37 193t101.5 160t150.5 109t184 40q139 0 251 -77t171 -200v250q0 10 7 18.5t20 8.5q10 0 17 -8.5t7 -18.5v-950q0 -27 -24 -27q-27 0 -27 27v249q-59 -123 -171 -199.5t-251 -76.5q-98 0 -184 40t-150.5 108.5t-101.5 160t-37 193.5zM180 502 q0 -94 34 -176t91 -143.5t134 -96.5t163 -35t163 35t134 96.5t91 143.5t34 176q0 92 -34 174t-91 143.5t-134 96t-163 34.5t-163 -34.5t-134 -96t-91 -143.5t-34 -174zM487 1180q0 10 9 22l127 191q25 37 57 37q29 0 31 -11.5t6 -19.5t-3 -17.5t-18 -19.5l-145 -158 q-16 -18 -25 -21l-24 -9q-15 -8 -15 6z" />
<glyph unicode="&#xe2;" horiz-adv-x="1175" d="M129 502q0 102 37 193t101.5 160t150.5 109t184 40q139 0 251 -77t171 -200v250q0 10 7 18.5t20 8.5q10 0 17 -8.5t7 -18.5v-950q0 -27 -24 -27q-27 0 -27 27v249q-59 -123 -171 -199.5t-251 -76.5q-98 0 -184 40t-150.5 108.5t-101.5 160t-37 193.5zM180 502 q0 -94 34 -176t91 -143.5t134 -96.5t163 -35t163 35t134 96.5t91 143.5t34 176q0 92 -34 174t-91 143.5t-134 96t-163 34.5t-163 -34.5t-134 -96t-91 -143.5t-34 -174zM436 1178q0 12 10 24l148 180q14 16 26.5 26.5t30.5 10.5h17q18 0 30.5 -10t26.5 -27l147 -180 q10 -12 11 -24q0 -8 -6.5 -6t-20.5 2q-16 0 -31 14l-24 24l-144 154l-141 -156q-8 -8 -21.5 -22t-29.5 -14q-12 0 -20.5 -2t-8.5 6z" />
<glyph unicode="&#xe3;" horiz-adv-x="1175" d="M129 502q0 102 37 193t101.5 160t150.5 109t184 40q139 0 251 -77t171 -200v250q0 10 7 18.5t20 8.5q10 0 17 -8.5t7 -18.5v-950q0 -27 -24 -27q-27 0 -27 27v249q-59 -123 -171 -199.5t-251 -76.5q-98 0 -184 40t-150.5 108.5t-101.5 160t-37 193.5zM180 502 q0 -94 34 -176t91 -143.5t134 -96.5t163 -35t163 35t134 96.5t91 143.5t34 176q0 92 -34 174t-91 143.5t-134 96t-163 34.5t-163 -34.5t-134 -96t-91 -143.5t-34 -174zM309 1194q0 4 3 14.5t5 14.5q8 25 25.5 46t39 38.5t46.5 28t45 10.5q29 0 63.5 -12.5t70.5 -27t69 -26.5 t59 -12q63 0 103 88q4 10 8 22.5t18 12.5q16 0 26.5 -9.5t10.5 -25.5q0 -12 -4 -25q-20 -61 -61 -100t-101 -39q-29 0 -62.5 12.5t-68.5 27.5t-69.5 27.5t-61.5 12.5q-63 0 -98 -80q-4 -10 -10.5 -17.5t-22.5 -7.5q-33 0 -33 27z" />
<glyph unicode="&#xe4;" horiz-adv-x="1175" d="M129 502q0 102 37 193t101.5 160t150.5 109t184 40q139 0 251 -77t171 -200v250q0 10 7 18.5t20 8.5q10 0 17 -8.5t7 -18.5v-950q0 -27 -24 -27q-27 0 -27 27v249q-59 -123 -171 -199.5t-251 -76.5q-98 0 -184 40t-150.5 108.5t-101.5 160t-37 193.5zM180 502 q0 -94 34 -176t91 -143.5t134 -96.5t163 -35t163 35t134 96.5t91 143.5t34 176q0 92 -34 174t-91 143.5t-134 96t-163 34.5t-163 -34.5t-134 -96t-91 -143.5t-34 -174zM346 1255q0 29 20.5 49.5t49.5 20.5t48 -20.5t19 -49.5t-19.5 -49t-47.5 -20q-29 0 -49.5 20t-20.5 49z M719 1255q0 29 20.5 49.5t48.5 20.5q29 0 49.5 -20.5t20.5 -49.5t-20.5 -49t-49.5 -20t-49 20t-20 49z" />
<glyph unicode="&#xe5;" horiz-adv-x="1175" d="M104 502q0 102 37 193t101.5 160t150.5 109t185 40q139 0 250.5 -77t170.5 -200v250q0 10 7.5 18.5t19.5 8.5q10 0 17.5 -8.5t7.5 -18.5v-950q0 -27 -25 -27q-27 0 -27 27v249q-59 -123 -170.5 -199.5t-250.5 -76.5q-98 0 -184.5 40t-151 108.5t-101.5 160t-37 193.5z M156 502q0 -94 33.5 -176t91 -143.5t134.5 -96.5t163 -35t162.5 35t134 96.5t91 143.5t33.5 176q0 92 -33.5 174t-91 143.5t-134 96t-162.5 34.5t-163 -34.5t-134.5 -96t-91 -143.5t-33.5 -174zM414 1331v2q0 74 50 117t116 43q33 0 62.5 -12.5t53 -34t36.5 -50t13 -63.5v-2 q0 -66 -47 -115t-118 -49q-70 0 -118 48t-48 116zM463 1329q0 -45 32.5 -81t84.5 -36q51 0 83.5 36t32.5 81v2q0 45 -32.5 81t-83.5 36t-84 -36t-33 -81v-2z" />
<glyph unicode="&#xe6;" horiz-adv-x="1953" d="M104 502q0 104 37 195t101.5 160t150.5 109t185 40q141 0 252.5 -77t170.5 -200v250q0 10 7.5 18.5t19.5 8.5q10 0 17.5 -8.5t7.5 -18.5v-287q27 68 71.5 125t103 98t127 63.5t144.5 22.5q96 0 183 -35.5t154 -98t105.5 -146.5t38.5 -182v-2v-5v-2q-2 -10 -8 -17t-16 -7 h-891v-6q0 -92 34 -173t93 -142.5t138 -97.5t169 -36q115 0 209 56.5t152 148.5q12 16 36 6q8 -4 10.5 -14t-3.5 -21q-66 -100 -171.5 -163.5t-232.5 -63.5q-152 2 -271.5 88t-174.5 221v-282q0 -27 -25 -27q-27 0 -27 27v249q-59 -123 -170.5 -199.5t-252.5 -76.5 q-98 0 -184.5 40t-151 108.5t-101.5 160t-37 193.5zM156 502q0 -94 33.5 -176t91 -143.5t134.5 -96.5t163 -35q88 0 164.5 35t134 96.5t91 143.5t33.5 176t-33.5 176t-91 143.5t-134 96t-164.5 34.5q-86 0 -163 -34.5t-134.5 -96t-91 -143.5t-33.5 -176zM1067 555h862 q-10 84 -48 155.5t-95 125t-131 83t-156 29.5q-84 0 -157.5 -29.5t-131 -83t-95.5 -125t-48 -155.5z" />
<glyph unicode="&#xe7;" horiz-adv-x="1169" d="M119 502q0 104 41 195t110.5 159t163.5 108t201 40q90 0 172 -28t147 -81q16 -16 2 -39q-12 -16 -34 -2q-59 47 -133 72.5t-154 25.5q-98 0 -182 -35.5t-147.5 -97t-99.5 -143.5t-36 -174t36 -174t99.5 -143.5t147.5 -97.5t182 -36q80 0 153.5 26.5t133.5 74.5q8 4 18 3 t16 -10q14 -20 -2 -36q-66 -51 -147.5 -80t-171.5 -29q-106 0 -200.5 40t-164 108.5t-110.5 160t-41 193.5zM432 -242q0 6 1 13.5t9 17.5l158 231h88l-133 -270q-10 -18 -20.5 -29.5t-32.5 -11.5q-25 0 -47.5 16.5t-22.5 32.5z" />
<glyph unicode="&#xe8;" horiz-adv-x="1247" d="M119 502q0 -102 39 -193.5t104.5 -160t154.5 -108.5t189 -40q127 -2 232.5 62.5t171.5 164.5q6 10 4 20.5t-10 14.5q-25 10 -37 -6q-57 -92 -151.5 -148.5t-209.5 -56.5q-90 0 -170 36t-139 97.5t-93 143.5t-34 174v6h893q10 0 16 7t8 17v3v4v2q0 98 -38.5 182 t-105 146.5t-154 98.5t-183.5 36q-100 0 -189 -39t-154.5 -108t-104.5 -160t-39 -195zM172 557q10 84 48 155.5t95.5 125t132 83t158.5 29.5q82 0 156 -29.5t131 -83t95 -125t48 -155.5h-864zM492 1399q4 8 6 19.5t30 11.5q33 0 58 -37l127 -191q8 -12 8 -22q0 -14 -14 -6 l-25 9q-8 3 -25 21l-145 158q-10 10 -17 19.5t-3 17.5z" />
<glyph unicode="&#xe9;" horiz-adv-x="1247" d="M119 502q0 104 39 195t104.5 160t154.5 108t189 39q96 0 183.5 -36t154 -98.5t105 -146.5t38.5 -182v-2v-4v-3q-2 -10 -8 -17t-16 -7h-893v-6q0 -92 34 -174t93 -143.5t139 -97.5t170 -36q115 0 209 56.5t152 148.5q12 16 37 6q8 -4 10 -14t-4 -21 q-66 -100 -171.5 -164.5t-232.5 -62.5q-100 0 -189 40t-154.5 108.5t-104.5 160t-39 193.5zM172 557h864q-10 84 -48 155.5t-95 125t-131 83t-156 29.5q-84 0 -158.5 -29.5t-132 -83t-95.5 -125t-48 -155.5zM485 1180q0 10 9 22l127 191q25 37 57 37q29 0 31 -11.5t6 -19.5 t-3 -17.5t-18 -19.5l-145 -158q-16 -18 -25 -21l-24 -9q-15 -8 -15 6z" />
<glyph unicode="&#xea;" horiz-adv-x="1247" d="M119 502q0 -102 39 -193.5t104.5 -160t154.5 -108.5t189 -40q127 -2 232.5 62.5t171.5 164.5q6 10 4 20.5t-10 14.5q-25 10 -37 -6q-57 -92 -151.5 -148.5t-209.5 -56.5q-90 0 -170 36t-139 97.5t-93 143.5t-34 174v6h893q10 0 16 7t8 17v3v4v2q0 98 -38.5 182 t-105 146.5t-154 98.5t-183.5 36q-100 0 -189 -39t-154.5 -108t-104.5 -160t-39 -195zM172 557q10 84 48 155.5t95.5 125t132 83t158.5 29.5q82 0 156 -29.5t131 -83t95 -125t48 -155.5h-864zM381 1178q0 12 10 24l148 180q14 16 26.5 26.5t30.5 10.5h16q18 0 30.5 -10 t27.5 -27l147 -180q10 -12 10 -24q0 -8 -6 -6t-20 2q-16 0 -31 14l-25 24l-143 154l-141 -156q-8 -8 -21.5 -22t-29.5 -14q-12 0 -20.5 -2t-8.5 6z" />
<glyph unicode="&#xeb;" horiz-adv-x="1196" d="M125 502q0 -102 39 -193.5t104.5 -160t154.5 -108.5t189 -40q127 -2 232.5 62.5t171.5 164.5q6 10 4 20.5t-10 14.5q-25 10 -37 -6q-57 -92 -151.5 -148.5t-209.5 -56.5q-90 0 -170 36t-139 97.5t-93 143.5t-34 174v6h893q10 0 16.5 7t8.5 17v3v4v2q0 98 -39 182 t-105.5 146.5t-153.5 98.5t-184 36q-100 0 -189 -39t-154.5 -108t-104.5 -160t-39 -195zM178 557q10 84 48 155.5t95.5 125t132 83t158.5 29.5q82 0 156 -29.5t131 -83t95 -125t48 -155.5h-864zM352 1237q0 29 20.5 49.5t49.5 20.5t48 -20.5t19 -49.5t-19 -49.5t-48 -20.5 t-49.5 20.5t-20.5 49.5zM725 1237q0 29 20.5 49.5t49.5 20.5t49 -20.5t20 -49.5t-20.5 -49.5t-48.5 -20.5q-29 0 -49.5 20.5t-20.5 49.5z" />
<glyph unicode="&#xec;" horiz-adv-x="575" d="M109 1399q4 8 6 19.5t30 11.5q33 0 58 -37l127 -191q8 -12 8 -22q0 -14 -14 -6l-25 9q-8 3 -25 21l-145 158q-10 10 -17 19.5t-3 17.5zM195 27q0 -27 26 -27q10 0 17.5 8t7.5 19v952q0 12 -7.5 18.5t-17.5 6.5q-27 0 -26 -25v-952z" />
<glyph unicode="&#xed;" horiz-adv-x="575" d="M102 1180q0 10 9 22l127 191q25 37 57 37q29 0 31 -11.5t6 -19.5t-3 -17.5t-18 -19.5l-145 -158q-16 -18 -25 -21l-24 -9q-15 -8 -15 6zM195 27v952q0 25 26 25q10 0 17.5 -6.5t7.5 -18.5v-952q0 -10 -7.5 -18.5t-17.5 -8.5q-26 0 -26 27z" />
<glyph unicode="&#xee;" horiz-adv-x="575" d="M18 1178q0 12 11 24l147 180q14 16 26.5 26.5t30.5 10.5h17q18 0 30.5 -10t26.5 -27l148 -180q10 -12 10 -24q0 -8 -6 -6t-21 2q-16 0 -30 14l-25 24l-143 154l-142 -156q-8 -8 -21.5 -22t-29.5 -14q-12 0 -20.5 -2t-8.5 6zM217 27q0 -27 27 -27q10 0 17 8t7 19v952 q0 12 -7 18.5t-17 6.5q-27 0 -27 -25v-952z" />
<glyph unicode="&#xef;" horiz-adv-x="575" d="M-12 1237q0 29 20.5 49.5t48.5 20.5q29 0 48.5 -20.5t19.5 -49.5t-19.5 -49.5t-48.5 -20.5t-49 20.5t-20 49.5zM219 27q0 -27 27 -27q10 0 17 8t7 19v952q0 12 -7 18.5t-17 6.5q-27 0 -27 -25v-952zM360 1237q0 29 20.5 49.5t49.5 20.5t49.5 -20.5t20.5 -49.5 t-20.5 -49.5t-49.5 -20.5t-49.5 20.5t-20.5 49.5z" />
<glyph unicode="&#xf1;" d="M193 23q0 -6 4 -11q0 -2 2 -4q4 -4 6 -4q2 -2 3 -2t3 -2h4h4q12 0 19 10q6 6 6 17v571q0 74 28.5 139.5t76.5 112.5t112.5 74.5t136.5 27.5t136.5 -27.5t112.5 -74.5t75.5 -112.5t27.5 -139.5v-571q0 -27 25 -27q27 0 26 27v571q0 84 -31.5 157.5t-87 129t-129 87.5 t-155.5 32q-115 0 -208 -57.5t-146 -151.5v184q0 25 -25 25q-27 0 -26 -25v-365v-16v-571v-4zM301 1194q0 4 3 14.5t5 14.5q8 25 25.5 46t39 38.5t46 28t45.5 10.5q29 0 63.5 -12.5t70.5 -27t68.5 -26.5t59.5 -12q63 0 102 88q4 10 8.5 22.5t18.5 12.5q16 0 26.5 -9.5 t10.5 -25.5q0 -12 -4 -25q-20 -61 -61.5 -100t-100.5 -39q-29 0 -62.5 12.5t-68.5 27.5t-69.5 27.5t-61.5 12.5q-63 0 -98 -80q-4 -10 -10.5 -17.5t-22.5 -7.5q-33 0 -33 27z" />
<glyph unicode="&#xf2;" horiz-adv-x="1310" d="M119 502q0 -102 37 -193.5t101.5 -160t150.5 -108.5t184 -40t184 40t150.5 108.5t102.5 159.5t38 194q0 104 -38 195t-102.5 159t-150.5 108t-184 40t-184 -40t-150.5 -108t-101.5 -159t-37 -195zM170 502q0 94 34 176t91 143.5t134 96t163 34.5t164 -34.5t135 -96 t91 -143.5t34 -176q0 -92 -34 -174t-91 -143.5t-135 -97.5t-164 -36t-163 36t-134 97.5t-91 143.5t-34 174zM481 1399q4 8 6 19.5t31 11.5q33 0 57 -37l127 -191q8 -12 9 -22q0 -14 -15 -6l-24 9q-8 3 -25 21l-145 158q-10 10 -17.5 19.5t-3.5 17.5z" />
<glyph unicode="&#xf3;" horiz-adv-x="1310" d="M119 502q0 104 37 195t101.5 159t150.5 108t184 40t184 -40t150.5 -108t102.5 -159t38 -195q0 -102 -38 -193.5t-102.5 -160t-150.5 -108.5t-184 -40t-184 40t-150.5 108.5t-101.5 160t-37 193.5zM170 502q0 -92 34 -174t91 -143.5t134 -97.5t163 -36t164 36t135 97.5 t91 143.5t34 174q0 94 -34 176t-91 143.5t-135 96t-164 34.5t-163 -34.5t-134 -96t-91 -143.5t-34 -176zM473 1180q0 10 8 22l127 191q25 37 58 37q29 0 30.5 -11.5t5.5 -19.5t-3 -17.5t-17 -19.5l-145 -158q-16 -18 -25 -21l-25 -9q-14 -8 -14 6z" />
<glyph unicode="&#xf4;" horiz-adv-x="1310" d="M119 502q0 -102 37 -193.5t101.5 -160t150.5 -108.5t184 -40t184 40t150.5 108.5t102.5 159.5t38 194q0 104 -38 195t-102.5 159t-150.5 108t-184 40t-184 -40t-150.5 -108t-101.5 -159t-37 -195zM170 502q0 94 34 176t91 143.5t134 96t163 34.5t164 -34.5t135 -96 t91 -143.5t34 -176q0 -92 -34 -174t-91 -143.5t-135 -97.5t-164 -36t-163 36t-134 97.5t-91 143.5t-34 174zM367 1178q0 12 10 24l147 180q14 16 26.5 26.5t31.5 10.5h16q18 0 30.5 -10t26.5 -27l148 -180q10 -12 10 -24q0 -8 -6 -6t-21 2q-16 0 -30 14l-25 24l-143 154 l-142 -156q-8 -8 -21 -22t-30 -14q-12 0 -20 -2t-8 6z" />
<glyph unicode="&#xf5;" horiz-adv-x="1310" d="M119 502q0 -102 37 -193.5t101.5 -160t150.5 -108.5t184 -40t184 40t150.5 108.5t102.5 159.5t38 194q0 104 -38 195t-102.5 159t-150.5 108t-184 40t-184 -40t-150.5 -108t-101.5 -159t-37 -195zM170 502q0 94 34 176t91 143.5t134 96t163 34.5t164 -34.5t135 -96 t91 -143.5t34 -176q0 -92 -34 -174t-91 -143.5t-135 -97.5t-164 -36t-163 36t-134 97.5t-91 143.5t-34 174zM297 1194q0 4 3 14.5t5 14.5q8 25 25.5 46t39 38.5t46 28t45.5 10.5q29 0 63.5 -12.5t70.5 -27t68.5 -26.5t59.5 -12q63 0 102 88q4 10 8.5 22.5t18.5 12.5 q16 0 26.5 -9.5t10.5 -25.5q0 -12 -4 -25q-20 -61 -61.5 -100t-100.5 -39q-29 0 -62.5 12.5t-68.5 27.5t-70 27.5t-61 12.5q-63 0 -99 -80q-4 -10 -10 -17.5t-22 -7.5q-33 0 -33 27z" />
<glyph unicode="&#xf6;" horiz-adv-x="1310" d="M119 502q0 -102 37 -193.5t101.5 -160t150.5 -108.5t184 -40t184 40t150.5 108.5t102.5 159.5t38 194q0 104 -38 195t-102.5 159t-150.5 108t-184 40t-184 -40t-150.5 -108t-101.5 -159t-37 -195zM170 502q0 94 34 176t91 143.5t134 96t163 34.5t164 -34.5t135 -96 t91 -143.5t34 -176q0 -92 -34 -174t-91 -143.5t-135 -97.5t-164 -36t-163 36t-134 97.5t-91 143.5t-34 174zM336 1237q0 29 20.5 49.5t49.5 20.5t48 -20.5t19 -49.5t-19.5 -49.5t-47.5 -20.5q-29 0 -49.5 20.5t-20.5 49.5zM709 1237q0 29 20.5 49.5t48.5 20.5 q29 0 49.5 -20.5t20.5 -49.5t-20.5 -49.5t-49.5 -20.5t-49 20.5t-20 49.5z" />
<glyph unicode="&#xf7;" horiz-adv-x="1269" d="M131 721q0 -20 14.5 -34.5t34.5 -14.5h910q20 0 34.5 14t14.5 35q0 20 -14.5 34.5t-34.5 14.5h-910q-20 0 -34.5 -14.5t-14.5 -34.5zM561 324q0 39 27.5 66.5t66.5 27.5t67 -28t28 -66q0 -39 -28 -67t-67 -28t-66.5 28t-27.5 67zM561 1120q0 39 27.5 66.5t66.5 27.5 t67 -27.5t28 -66.5t-28 -66.5t-67 -27.5t-66.5 27.5t-27.5 66.5z" />
<glyph unicode="&#xf8;" horiz-adv-x="1310" d="M119 502q0 104 37 195t101.5 159t150.5 108t184 40t184 -40t150.5 -108t102.5 -159t38 -195q0 -102 -38 -193.5t-102.5 -160t-150.5 -108.5t-184 -40t-184 40t-150.5 108.5t-101.5 160t-37 193.5zM164 -23q-18 18 2 39l858 945q4 6 15.5 8t19.5 -8q8 -6 9 -16.5t-5 -18.5 l-864 -946q-6 -14 -27 -7q-2 0 -4 2t-4 2zM170 502q0 -92 34 -174t91 -143.5t134 -97.5t163 -36t164 36t135 97.5t91 143.5t34 174q0 94 -34 176t-91 143.5t-135 96t-164 34.5t-163 -34.5t-134 -96t-91 -143.5t-34 -176z" />
<glyph unicode="&#xf9;" d="M170 406q0 -84 31.5 -158t86 -129.5t127 -87t156.5 -31.5t158 31.5t129 87t87 129.5t32 158v571q0 27 -27 27q-10 0 -18 -8.5t-8 -18.5v-571q0 -74 -28 -138.5t-76 -113t-111.5 -76t-137.5 -27.5q-72 0 -136 27.5t-111.5 76t-75 113t-27.5 138.5v571q0 10 -7 18.5 t-17 8.5q-27 0 -27 -27v-571zM395 1399q4 8 6 19.5t31 11.5q33 0 57 -37l127 -191q8 -12 9 -22q0 -14 -15 -6l-24 9q-8 3 -25 21l-145 158q-10 10 -17.5 19.5t-3.5 17.5z" />
<glyph unicode="&#xfa;" d="M170 406v571q0 27 27 27q10 0 17 -8.5t7 -18.5v-571q0 -74 27.5 -138.5t75 -113t112 -76t135.5 -27.5q74 0 137.5 27.5t111.5 76t76 113t28 138.5v571q0 10 8 18.5t18 8.5q27 0 27 -27v-571q0 -84 -32 -158t-87 -129.5t-129 -87t-158 -31.5t-156.5 31.5t-127 87 t-86 129.5t-31.5 158zM467 1180q0 10 8 22l127 191q25 37 57 37q29 0 31 -11.5t6 -19.5t-3 -17.5t-17 -19.5l-146 -158q-16 -18 -24 -21l-25 -9q-14 -8 -14 6z" />
<glyph unicode="&#xfb;" d="M170 406q0 -84 31.5 -158t86 -129.5t127 -87t156.5 -31.5t158 31.5t129 87t87 129.5t32 158v571q0 27 -27 27q-10 0 -18 -8.5t-8 -18.5v-571q0 -74 -28 -138.5t-76 -113t-111.5 -76t-137.5 -27.5q-72 0 -136 27.5t-111.5 76t-75 113t-27.5 138.5v571q0 10 -7 18.5 t-17 8.5q-27 0 -27 -27v-571zM326 1178q0 12 10 24l147 180q14 16 26.5 26.5t31.5 10.5h16q18 0 30.5 -10t26.5 -27l148 -180q10 -12 10 -24q0 -8 -6 -6t-21 2q-16 0 -30 14l-25 24l-143 154l-141 -156q-8 -8 -21.5 -22t-30.5 -14q-12 0 -20 -2t-8 6z" />
<glyph unicode="&#xfc;" d="M170 406q0 -84 31.5 -158t86 -129.5t127 -87t156.5 -31.5t158 31.5t129 87t87 129.5t32 158v571q0 27 -27 27q-10 0 -18 -8.5t-8 -18.5v-571q0 -74 -28 -138.5t-76 -113t-111.5 -76t-137.5 -27.5q-72 0 -136 27.5t-111.5 76t-75 113t-27.5 138.5v571q0 10 -7 18.5 t-17 8.5q-27 0 -27 -27v-571zM319 1237q0 29 20.5 49.5t49.5 20.5t48.5 -20.5t19.5 -49.5t-19.5 -49.5t-48.5 -20.5t-49.5 20.5t-20.5 49.5zM692 1237q0 29 20.5 49.5t49.5 20.5t49 -20.5t20 -49.5t-20 -49.5t-49 -20.5t-49.5 20.5t-20.5 49.5z" />
<glyph unicode="&#xfd;" horiz-adv-x="1204" d="M106 406v571q0 27 27 27q10 0 17.5 -8.5t7.5 -18.5v-571q0 -72 27.5 -136.5t75.5 -111.5t111.5 -75t137.5 -28q70 0 132.5 27t110.5 72t75.5 106.5t27.5 130.5v586v4q0 2 4 10l2 2l6 6q8 4 15 5h4q2 0 3 -1.5t3 -1.5l6 -6q2 0 2 -2q6 -6 6 -16v-920q0 -96 -36.5 -182 t-100 -150.5t-149.5 -101.5t-185 -37q-55 0 -106 13.5t-99 35.5q-25 10 -10 35q4 10 13.5 13.5t17.5 -0.5q43 -23 88 -34t96 -11q88 0 164 32.5t133.5 90t90 134t32.5 162.5v152q-49 -92 -141 -148.5t-205 -56.5q-84 0 -157.5 32t-128 86t-86.5 127t-32 157zM469 1180 q0 10 8 22l127 191q25 37 58 37q29 0 30.5 -11.5t5.5 -19.5t-3 -17.5t-17 -19.5l-146 -158q-16 -18 -24 -21l-25 -9q-14 -8 -14 6z" />
<glyph unicode="&#xff;" horiz-adv-x="1204" d="M106 406q0 -84 32 -157t86.5 -127t128 -86t157.5 -32q113 0 205 56.5t141 148.5v-152q0 -86 -32.5 -162.5t-90 -134t-133.5 -90t-164 -32.5q-51 0 -96 11t-88 34q-8 4 -17.5 1t-13.5 -14q-14 -25 10 -35q47 -23 98.5 -36t106.5 -13q98 0 184.5 37t150 101.5t100 150.5 t36.5 182v920q0 10 -6 16l-2 2l-6 6q-2 0 -3 1.5t-3 1.5h-4q-6 0 -15 -5l-6 -6q-2 0 -2 -2q-4 -8 -4 -10v-4v-586q0 -70 -27.5 -131t-75.5 -106t-110.5 -72t-132.5 -27q-74 0 -137.5 28t-111.5 75t-75.5 111.5t-27.5 136.5v571q0 10 -7.5 18.5t-17.5 8.5q-27 0 -27 -27v-571 zM248 1237q0 29 20.5 49.5t48.5 20.5q29 0 48.5 -20.5t19.5 -49.5t-19.5 -49.5t-48.5 -20.5t-49 20.5t-20 49.5zM621 1237q0 29 20.5 49.5t48.5 20.5q29 0 49.5 -20.5t20.5 -49.5t-20.5 -49.5t-49.5 -20.5t-49 20.5t-20 49.5z" />
<glyph unicode="&#x152;" horiz-adv-x="2955" d="M150 715q0 154 54 289t149.5 234t222 157.5t272.5 58.5q115 0 218 -37t189 -102.5t150.5 -155.5t101.5 -198v446q0 23 25 27h764q25 0 24 -27q0 -25 -24 -25h-737v-639h649q10 0 17 -7t7 -17q0 -27 -24 -27h-649v-641h737q25 0 24 -24q0 -27 -24 -27h-764q-25 0 -25 27 v440q-37 -109 -101.5 -199t-150.5 -155.5t-189 -102.5t-218 -37q-145 0 -272 58.5t-222.5 159t-149.5 235.5t-54 289zM205 715q0 -141 51 -266t138 -218.5t204 -147.5t250 -54q131 0 247.5 54t205 147.5t139.5 218t51 266.5q0 143 -51 268t-139.5 218t-205 146.5 t-247.5 53.5q-133 0 -250 -53.5t-204 -146.5t-138 -218t-51 -268z" />
<glyph unicode="&#x153;" horiz-adv-x="2160" d="M119 502q0 104 37 195t101.5 159t150.5 108t184 40q80 0 152.5 -27t132 -75t103.5 -113.5t67 -141.5q23 76 67.5 141.5t105 112.5t134 73.5t155.5 26.5q96 0 183.5 -35.5t154 -98t105.5 -146.5t39 -182v-9q-2 -10 -8.5 -17t-16.5 -7h-891v-6q0 -92 34 -173t93.5 -142.5 t138 -97.5t168.5 -36q115 0 209 56.5t152 148.5q12 16 37 6q8 -4 10 -14t-4 -21q-66 -100 -171.5 -163.5t-232.5 -63.5q-82 0 -155.5 27.5t-134 75t-105.5 113t-67 140.5q-23 -78 -67 -142t-103.5 -112.5t-132 -75t-152.5 -26.5q-98 0 -184 40t-150.5 108.5t-101.5 160 t-37 193.5zM170 502q0 -92 34 -174t91 -143.5t134 -97.5t163 -36t164 36t135 97.5t91 143.5t34 174q0 94 -34 176t-91 143.5t-135 96t-164 34.5t-163 -34.5t-134 -96t-91 -143.5t-34 -176zM1077 555h862q-10 84 -48 155.5t-95 125t-131 83t-156 29.5q-84 0 -157.5 -29.5 t-131 -83t-95.5 -125t-48 -155.5z" />
<glyph unicode="&#x178;" horiz-adv-x="1466" d="M115 1409q-2 -10 6 -18l502 -691v-673q0 -27 26 -27q25 0 25 27v673l506 691q14 18 -9 34q-18 14 -36 -4l-486 -669l-487 669q-6 8 -16.5 9.5t-18.5 -5.5q-10 -6 -12 -16zM401 1591q0 29 20.5 49.5t49.5 20.5t49.5 -20.5t20.5 -49.5t-20.5 -49t-49.5 -20t-49.5 20 t-20.5 49zM772 1591q0 29 20.5 49.5t49.5 20.5t49 -20.5t20 -49.5t-20.5 -49t-48.5 -20q-29 0 -49.5 20t-20.5 49z" />
<glyph unicode="&#x2c6;" horiz-adv-x="1024" d="M289 1233q0 12 10 24l147 181q14 16 26.5 26.5t31.5 10.5h16q18 0 30.5 -10.5t27.5 -26.5l147 -181q10 -12 10 -24q0 -8 -6 -6t-20 2q-16 0 -31 14l-25 25l-143 153l-141 -155q-8 -8 -21.5 -22.5t-30.5 -14.5q-12 0 -20 -2t-8 6z" />
<glyph unicode="&#x2dc;" horiz-adv-x="1024" d="M215 1235q0 4 3 14.5t5 14.5q8 25 25.5 46t39 38.5t46 27.5t45.5 10q29 0 63.5 -12t70.5 -26.5t68.5 -26.5t59.5 -12q63 0 102 88q4 10 8.5 22.5t18.5 12.5q16 0 26.5 -9.5t10.5 -25.5q0 -12 -4 -25q-20 -61 -61.5 -100t-100.5 -39q-29 0 -62.5 12t-68.5 27.5t-69.5 28 t-61.5 12.5q-63 0 -98 -80q-4 -10 -10.5 -17.5t-22.5 -7.5q-33 0 -33 27z" />
<glyph unicode="&#x2013;" horiz-adv-x="1081" d="M135 608q0 23 15.5 32t37.5 9h705q23 0 38 -9t15 -32t-15.5 -29t-37.5 -6h-705q-31 -4 -42 10.5t-11 24.5z" />
<glyph unicode="&#x2014;" horiz-adv-x="1839" d="M135 608q0 23 15.5 32t37.5 9h879q23 0 38 -9t15 -32t-15 -29t-38 -6h-879q-31 -4 -42 10.5t-11 24.5z" />
<glyph unicode="&#x2018;" horiz-adv-x="471" d="M158 1110v51q0 86 13 135.5t42 77.5q29 29 60.5 47.5t45.5 18.5q10 0 20.5 -7.5t10.5 -23.5t-16 -27q-55 -31 -78 -67.5t-18 -89.5q23 -6 39 -23.5t16 -48.5v-43q0 -29 -19.5 -48.5t-48.5 -19.5t-48 19.5t-19 48.5z" />
<glyph unicode="&#x2019;" horiz-adv-x="471" d="M121 1075q0 16 16 27q55 31 78 67.5t18 90.5q-23 6 -39 23t-16 48v43q0 29 19.5 48.5t48.5 19.5t48 -19.5t19 -48.5v-51q0 -86 -13 -135t-42 -78t-60.5 -47.5t-45.5 -18.5q-10 0 -20.5 7.5t-10.5 23.5z" />
<glyph unicode="&#x201a;" horiz-adv-x="471" />
<glyph unicode="&#x201c;" horiz-adv-x="829" d="M150 1110v51q0 86 13 135.5t42 77.5q29 29 60.5 47.5t45.5 18.5q10 0 20.5 -7.5t10.5 -23.5t-16 -27q-55 -31 -78 -67.5t-19 -89.5q23 -6 39.5 -23.5t16.5 -48.5v-43q0 -29 -19.5 -48.5t-48.5 -19.5t-48 19.5t-19 48.5zM518 1110v51q0 86 13.5 135.5t41.5 77.5 q29 29 61 47.5t46 18.5q10 0 20.5 -7.5t10.5 -23.5t-17 -27q-55 -31 -77.5 -67.5t-18.5 -89.5q23 -6 39 -23.5t16 -48.5v-43q0 -29 -19.5 -48.5t-47.5 -19.5q-29 0 -48.5 19.5t-19.5 48.5z" />
<glyph unicode="&#x201d;" horiz-adv-x="839" d="M121 1075q0 16 16 27q55 31 78 67.5t18 90.5q-23 6 -39 23t-16 48v43q0 29 19.5 48.5t48.5 19.5t48 -19.5t19 -48.5v-51q0 -86 -13 -135t-42 -78t-60.5 -47.5t-45.5 -18.5q-10 0 -20.5 7.5t-10.5 23.5zM489 1075q0 16 17 27q55 31 77.5 67.5t18.5 90.5q-23 6 -39 23 t-16 48v43q0 29 19.5 48.5t47.5 19.5q29 0 48.5 -19.5t19.5 -48.5v-51q0 -86 -13.5 -135t-41.5 -78q-29 -29 -60.5 -47.5t-46.5 -18.5q-10 0 -20.5 7.5t-10.5 23.5z" />
<glyph unicode="&#x201e;" horiz-adv-x="839" d="M111 -184q0 16 16 26q55 31 77.5 68t18.5 90q-23 6 -39 23.5t-16 48.5v43q0 29 19.5 48t48.5 19t48 -19.5t19 -47.5v-52q0 -86 -13.5 -135t-41.5 -78q-29 -29 -60.5 -47t-46.5 -18q-10 0 -20 7.5t-10 23.5zM479 -184q0 16 17 26q55 31 77.5 68t18.5 90q-23 6 -39 23.5 t-16 48.5v43q0 29 19 48t48 19t48.5 -19.5t19.5 -47.5v-52q0 -86 -13.5 -135t-42.5 -78t-60.5 -47t-45.5 -18q-10 0 -20.5 7.5t-10.5 23.5z" />
<glyph unicode="&#x2026;" horiz-adv-x="1392" d="M168 61q0 37 25.5 63t62.5 26t62.5 -26t25.5 -63t-25.5 -62.5t-62.5 -25.5t-62.5 25.5t-25.5 62.5zM600 61q0 37 25.5 63t62.5 26t62.5 -26t25.5 -63t-25.5 -62.5t-62.5 -25.5t-62.5 25.5t-25.5 62.5zM1032 61q0 37 25.5 63t62.5 26t62.5 -26t25.5 -63t-25.5 -62.5 t-62.5 -25.5t-62.5 25.5t-25.5 62.5z" />
<glyph unicode="&#x2039;" horiz-adv-x="636" d="M113 522q0 18 20 45l281 367q8 10 32.5 8t26.5 -20q2 -10 1 -16.5t-9 -16.5l-289 -369l289 -364q14 -16 16 -39t-24 -23q-12 0 -23.5 4t-19.5 15l-281 364q-20 27 -20 45z" />
<glyph unicode="&#x203a;" horiz-adv-x="636" d="M147.5 116.5q2.5 22.5 16.5 39.5l289 364l-289 369q-8 10 -9 16t1 17q2 18 26.5 20t32.5 -8l281 -367q20 -27 20 -45t-20 -45l-281 -364q-8 -10 -19.5 -14.5t-23.5 -4.5q-27 0 -24.5 22.5z" />
<glyph unicode="&#x2122;" horiz-adv-x="1413" d="M45 1423q0 10 10 11h430q12 0 13 -11q0 -10 -13 -10h-202v-586q0 -10 -11 -10q-10 0 -10 10v586h-207q-10 0 -10 10zM610 827v594q0 12 11 13q2 0 4 -2q2 0 3 -1t3 -1l239 -330l236 330q2 0 3 1t3 1q2 2 4 2q10 0 10 -13v-594q0 -10 -10 -10t-10 10v562l-225 -314 q-8 -4 -11 -4h-4q-4 0 -8 4l-227 314v-562q0 -10 -10 -10q-11 0 -11 10z" />
<glyph unicode="&#xe000;" horiz-adv-x="1000" d="M0 1000h1000v-1000h-1000v1000z" />
<glyph unicode="&#xfb01;" horiz-adv-x="1316" d="M934 27v952q0 25 26 25q10 0 17.5 -6.5t7.5 -18.5v-952q0 -10 -7.5 -18.5t-17.5 -8.5q-26 0 -26 27zM934 1251v49q0 27 26 27q10 0 17.5 -7t7.5 -20v-49q0 -10 -7.5 -17t-17.5 -7q-12 0 -19 7t-7 17zM133 985q0 27 27 27h164v135q0 154 61 223q35 37 82 51.5t106 14.5 q27 0 27 -25q0 -27 -27 -27q-106 0 -149 -49q-23 -25 -35 -70.5t-12 -117.5v-135h172q25 0 24 -27q0 -27 -24 -27h-172v-929q0 -27 -27 -27t-26 27v929h-164q-27 0 -27 27z" />
<glyph unicode="&#xfb02;" horiz-adv-x="1251" d="M946 27v1380q0 27 26 27q25 0 25 -27v-1380q0 -27 -25 -27q-26 0 -26 27zM133 985q0 27 27 27h164v135q0 154 61 223q35 37 82 51.5t106 14.5q27 0 27 -25q0 -27 -27 -27q-106 0 -149 -49q-23 -25 -35 -70.5t-12 -117.5v-135h172q25 0 24 -27q0 -27 -24 -27h-172v-929 q0 -27 -27 -27t-26 27v929h-164q-27 0 -27 27z" />
<glyph unicode="&#xfb03;" horiz-adv-x="2058" d="M1676 27v952q0 25 26 25q10 0 17.5 -6.5t7.5 -18.5v-952q0 -10 -7.5 -18.5t-17.5 -8.5q-26 0 -26 27zM1676 1251v49q0 27 26 27q10 0 17.5 -7t7.5 -20v-49q0 -10 -7.5 -17t-17.5 -7q-12 0 -19 7t-7 17zM874 985q0 27 27 27h164v135q0 154 61 223q35 37 82 51.5t106 14.5 q27 0 27 -25q0 -27 -27 -27q-106 0 -149 -49q-23 -25 -35 -70.5t-12 -117.5v-135h172q25 0 24 -27q0 -27 -24 -27h-172v-929q0 -27 -27 -27t-26 27v929h-164q-27 0 -27 27zM133 985q0 27 27 27h164v135q0 154 61 223q35 37 82 51.5t106 14.5q27 0 27 -25q0 -27 -27 -27 q-106 0 -149 -49q-23 -25 -35 -70.5t-12 -117.5v-135h172q25 0 24 -27q0 -27 -24 -27h-172v-929q0 -27 -27 -27t-26 27v929h-164q-27 0 -27 27z" />
<glyph unicode="&#xfb04;" horiz-adv-x="1992" d="M1688 27v1380q0 27 26 27q25 0 25 -27v-1380q0 -27 -25 -27q-26 0 -26 27zM874 985q0 27 27 27h164v135q0 154 61 223q35 37 82 51.5t106 14.5q27 0 27 -25q0 -27 -27 -27q-106 0 -149 -49q-23 -25 -35 -70.5t-12 -117.5v-135h172q25 0 24 -27q0 -27 -24 -27h-172v-929 q0 -27 -27 -27t-26 27v929h-164q-27 0 -27 27zM133 985q0 27 27 27h164v135q0 154 61 223q35 37 82 51.5t106 14.5q27 0 27 -25q0 -27 -27 -27q-106 0 -149 -49q-23 -25 -35 -70.5t-12 -117.5v-135h172q25 0 24 -27q0 -27 -24 -27h-172v-929q0 -27 -27 -27t-26 27v929h-164 q-27 0 -27 27z" />
</font>
</defs>
</svg>
