<?xml version="1.0" standalone="no"?>
<!DOCTYPE svg PUBLIC "-//W3C//DTD SVG 1.1//EN" "http://www.w3.org/Graphics/SVG/1.1/DTD/svg11.dtd" >
<svg xmlns="http://www.w3.org/2000/svg">
<metadata>
This is a custom SVG webfont generated by Font Squirrel.
</metadata>
<defs>
<font id="TrafficRegular" horiz-adv-x="636" >
<font-face units-per-em="2048" ascent="1638" descent="-410" />
<missing-glyph horiz-adv-x="390" />
<glyph unicode=" "  horiz-adv-x="390" />
<glyph unicode="&#x09;" horiz-adv-x="390" />
<glyph unicode="&#xa0;" horiz-adv-x="390" />
<glyph unicode="!" horiz-adv-x="249" />
<glyph unicode="&#x22;" horiz-adv-x="237" />
<glyph unicode="#" />
<glyph unicode="$" />
<glyph unicode="%" />
<glyph unicode="&#x26;" horiz-adv-x="486" />
<glyph unicode="'" horiz-adv-x="169" />
<glyph unicode="(" horiz-adv-x="336" />
<glyph unicode=")" horiz-adv-x="384" />
<glyph unicode="*" horiz-adv-x="492" />
<glyph unicode="+" />
<glyph unicode="," horiz-adv-x="237" />
<glyph unicode="-" horiz-adv-x="532" d="M65 811q-17 94 8 213l-8 34l8 26l171 -9h26l68 9l25 -9l18 -170v-69v-25l-43 -9h-111h-26h-25h-26l-60 9h-25z" />
<glyph unicode="." horiz-adv-x="521" d="M48 146q41 114 171 145h17h-17h17q192 -128 68 -273q-194 -110 -256 128z" />
<glyph unicode="/" horiz-adv-x="1001" d="M-16 1802h505l-504 -1550zM404 -2l584 1804h35v-1455l-114 -349h-505z" />
<glyph unicode="0" horiz-adv-x="1179" d="M62 854v240l17 69q-2 41 0 155l9 25v43l17 86l34 137q106 141 300 206h35v-172v-68v-69q-42 -20 -77 -77q-5 -29 -7 -63t-2 -74v-69v-26v-25v-26v-86v-34v-34v-35v-25v-43v-26v-43v-51v-43v-35q-47 -234 86 -420v-43v-171v-69q-113 9 -191 67.5t-127.5 166.5t-71.5 266 t-22 366zM602 254q24 59 86 103l26 51q6 28 0 60l8 69v412l-25 17l25 43l-8 60q8 27 8 68q4 30 4.5 66.5t-4.5 79.5v112v34q-22 14 -45 33t-49 44v266l34 34q188 -35 309 -214q-2 -34 17 -77q0 -58 17 -146q0 -58 17 -146q-6 -38 9 -86v-34v-26v-34v-34v-35v-34v-34v-35 v-171v-69l-9 -17v-68q-5 -19 -7 -40t-1 -46l-9 -35v-25v-35l-8 -25v-35q-38 -60 -69 -163q-121 -118 -300 -145q-14 49 -18 106.5t1 124.5q1 11 -9 26z" />
<glyph unicode="1" horiz-adv-x="656" d="M37 1685q84 40 156 130h104h26h147q2 -9 17 -17v-104v-26v-147v-35v-113v-43v-95v-269v-26l-9 -34v-35v-26q3 -11 0 -34q8 -31 8.5 -69.5t0.5 -86.5v-26v-70v-25q6 -57 -9 -139l9 -17v-35v-61v-26l-9 -26l9 -26q-7 -26 -10.5 -56t1.5 -65l9 -60q-17 6 -43 0 q-70 -44 -156 -35q-29 0 -69 9h-26q6 31 0 78q7 29 8 65.5t1 81.5v589l8 43q-7 29 -8.5 65.5t0.5 81.5l8 43q-10 52 0 122q-7 29 -7.5 65.5t-0.5 81.5v130q-9 39 -148 -9q-30 108 -17 251z" />
<glyph unicode="2" horiz-adv-x="1185" d="M73 1420q42 321 388 405l51 -34v-110v-25q-5 -36 9 -68v-25v-25l-9 -26q-106 -42 -118 -160q-29 -26 -42 -59l-110 42l-26 9l-16 8l-26 8l-25 9l-17 17h-25l-26 8zM81 9q-57 148 9 329q43 -10 95.5 -11.5t115.5 3.5l25 -9l9 17q35 -10 76.5 -11.5t92.5 3.5q44 -11 101 0 l34 -9h34q11 0 28 2t39 7q57 -14 144 -9l33 17q60 -10 76 -67l-8 -169v-26v-33v-26q-12 0 -17 -17q-70 9 -186 -8l-25 8h-34h-93h-33h-85h-42h-59q-87 13 -220 0l-25 9l-26 -9zM107 440q-1 40 0 101q72 60 118 161q22 16 42 42l59 50v26q56 16 102 76q49 16 97 47.5t97 79.5 l34 50q19 36 42 102l17 16q23 93 8 212q-148 162 -84 397h25q513 -218 296 -786q-48 -39 -85 -110l-25 -17l-17 -17l-25 -16l-17 -17l-17 -26q-14 -8 -31 -20.5t-37 -29.5l-25 -26l-17 -17l-25 -25l-26 -25l-25 -17l-135 -135l-42 -102q-25 -1 -54.5 3t-64.5 14 q-12 -4 -25 0h-34h-50l-17 -8h-26z" />
<glyph unicode="3" horiz-adv-x="1168" d="M39 462l51 34q52 4 120 43h26l17 17l52 -8q29 -151 163 -266v-17q-20 -89 0 -189q-5 -23 -14 -46t-21 -48l-137 43q-272 134 -257 437zM39 1422q46 292 352 403q50 4 102 -34q-22 -75 0 -172q-17 -48 -17 -111q-126 -54 -163 -214q-38 0 -76.5 13.5t-77.5 37.5 q-21 14 -44.5 30t-49.5 39zM468 891l17 197q129 5 197 128q-1 27 -0.5 59t0.5 70v51q-19 69 -94 103q-1 33 -17 77q23 91 8 206l34 43q496 -190 343 -771q-57 -41 -120 -120q25 -53 86 -103q1 -29 34 -60q169 -708 -394 -763q-1 20 -0.5 45.5t0.5 57.5v171q15 22 36.5 41 t49.5 36q126 398 -163 429q-7 20 -11 45.5t-6 57.5z" />
<glyph unicode="4" horiz-adv-x="1235" d="M53 501.5q2 46.5 2 103.5v68q55 75 120 213q31 27 51 77l25 34q10 26 26.5 56t41.5 63l17 43l26 42l17 43l34 34l17 43l26 25l8 51l26 35l42 -26l-8 -170v-26v-34v-26v-42l-9 -26v-51l17 -26q-8 -10 -12.5 -22.5t-4.5 -28.5v-34q-44 -55 -93 -145l-17 -8l-17 -26l-9 -17 l-26 -25q52 -18 120 -9l42 -25l9 -188l-9 -25v-34l-34 -18q-73 13 -187 0h-60h-25h-26h-26h-85q-1 9 -17 18q-4 37 -2 83.5zM618 1542q11 36 0 77l8 26v42l9 34q55 16 68 85q8 -2 17 9l170 -9h26q2 -8 17 -17v-102v-25v-145v-34v-111v-153v-26v-34v-34v-171v-25v-34v-26v-42 v-26v-34v-26v-59q124 23 119 -120q-21 -66 -17 -144q-44 -2 -102 -18v-102v-25v-145v-34v-34v-34l-17 -26h-154h-34h-25h-34l-17 9q-11 38 -14 85t-3 102v554l8 34q-1 29 -0.5 67t0.5 86v205q2 25 0.5 54.5t-8.5 64.5l8 26l-8 25v60q5 39 1 81.5t-18 88.5z" />
<glyph unicode="5" horiz-adv-x="1201" d="M48 434l216 95l35 18h8h-8h17h-9h17h-8h8l26 -44q-6 -136 121 -224q22 -188 -12 -256t-126 -21q-128 65 -199 171t-86 261zM65 1022l9 138v26l17 121v60l9 35l17 190l17 34q-6 56 9 104l-9 17v61q35 -2 80 -0.5t102 8.5l26 -8l26 8h26h120h268h43q20 0 44 9l86 -17 q28 -132 -9 -303q-42 5 -91 3.5t-107 -11.5l-26 8l-26 -8l-35 8l-34 -8l-35 8h-43l-35 -8h-51l-26 -18q4 -65 -26 -146v-26l-17 -61v-26v-69q20 1 43 18l26 8l26 -60q-31 -87 -9 -190l-9 -61q-63 -17 -121 -78h-26q-74 89 -216 173l-17 18l-17 8zM575 875l9 173v69l25 60 q217 -61 313.5 -220t84.5 -419q-13 -279 -115.5 -410t-307.5 -117q0 31 4 69.5t4 86.5v60l-8 17q28 61 95 95q0 50 17 121v138q1 9 -9 18q9 57 -8 138v26z" />
<glyph unicode="6" horiz-adv-x="1179" d="M85 831q-29 138 9 329v112l26 130v26l17 69v26l52 104l9 18l8 17l18 9l8 17l9 26q69 66 182 104q8 2 17 17l43 -9l9 -138v-69l-9 -18v-26q-65 -71 -104 -190q7 -80 -8 -216v-26v-26q36 -50 104 0q39 -90 26 -208l-9 -78l-9 -17q-85 -39 -114.5 -125.5t-6.5 -221.5 q10 -57 41.5 -99.5t88.5 -73.5q5 -42 2.5 -96t-2.5 -120v-26v-26l-9 -26q-435 56 -398 831zM604 35v242q152 78 139 268q22 179 -121 303q6 50 -18 95l18 96v60l34 9q396 -141 347 -597q10 -374 -364 -511q-11 17 -35 35zM622 1593q-20 115 34 233q405 -129 321 -415 q-80 -15 -173 -69q-39 153 -182 251z" />
<glyph unicode="7" horiz-adv-x="1149" d="M48 1756l9 17v35l8 17q118 -38 258 0q67 -16 155 0h26h26h26q58 -9 129 0l17 -9h112l43 9h43h43q11 -60 14 -132.5t3 -160.5v-25q-32 -47 -60 -112q-32 1 -78 -9h-51q-26 10 -69 0q-10 0 -20.5 -2t-22.5 -7l-52 18q-14 52 9 120l-52 9q-58 -7 -137 0l-69 -9l-26 9h-26 q-39 -8 -103 -9l-43 9q-30 0 -60 -9l-35 9q-15 85 -8 198zM237 9q-2 36 9 86q8 43 8 103q25 60 26 138l18 69q1 40 9.5 80.5t24.5 82.5q2 25 8.5 55.5t17.5 65.5v34q7 23 15 46.5t19 48.5l9 34l26 121l8 34l9 43q41 77 51 190q19 7 35 34q73 -15 163 9q39 0 104 -9l17 -43 q-26 -41 -35 -103q-40 -60 -51 -155q-11 -25 -17.5 -53t-8.5 -59l-17 -26l-9 -34v-26q-36 -94 -60 -232q-7 -19 -10.5 -40.5t-6.5 -46.5l-9 -68l-9 -35v-26l-25 -155v-103v-26l-43 -43q-34 -4 -74.5 -2t-89.5 2h-26l-17 9l-43 -9z" />
<glyph unicode="8" horiz-adv-x="1224" d="M234 783l111 136l26 17q-296 338 -43 769l179 94h26l17 26q17 -5 36 -16t41 -27q-9 -45 0 -94q-6 -42 0 -102l-17 -94l-60 -51q-8 -47 0 -112l-8 -42l8 -52v-102q29 -40 77 -60l26 -60q-19 -66 0 -145v-51q-8 -14 -9 -34q-52 -25 -111 -86q0 -25 -4.5 -56.5t-12.5 -71.5 q0 -40 4.5 -88.5t12.5 -108.5q149 -152 68 -367q-553 81 -367 778zM712 14q30 113 9 265q94 69 120 196q36 179 -94 308q1 29 -3 62.5t-14 73.5l8 26l-8 26l8 51l9 60q134 113 85 350q-17 51 -77 68q-7 28 -25 52q14 72 0 170v52q22 21 42 51q487 -172 334 -760 q-29 -23 -43 -69q-56 -32 -77 -94q395 -415 -26 -854q-34 -4 -68 -34q-45 -3 -86 -26q-37 -4 -68 34z" />
<glyph unicode="9" horiz-adv-x="1119" d="M67 307v68q80 30 163 103h42q51 -118 162 -214l35 -17q42 -285 -120 -205q-182 65 -282 265zM67 1161q-12 126 7 253t79 259q18 11 39 28t46 40q8 14 9 34q42 9 76 43q29 1 60 17l69 -17v-111v-26q-5 -38 8 -68l-8 -17v-34q-65 -55 -120 -145v-103v-25v-145 q32 -101 128 -163q24 -111 -8 -264q-180 28 -273.5 138.5t-111.5 305.5zM545 68q25 61 26 154l-17 25q179 165 128 504q-23 -2 -47 -8.5t-47 -17.5q-1 18 -17 34l-9 52q15 43 0 102q0 46 9 111q132 60 120 222q31 177 -120 273q2 32 -26 51q24 67 0 154q29 38 9 77l26 25 q164 -42 290 -204q6 -41 34 -86q2 -18 6 -35t11 -33l8 -103l18 -17v-102l8 -26v-25l9 -51v-103v-26v-25v-26v-68q0 -51 -0.5 -116.5t-8.5 -148.5v-42v-26l-8 -34v-34v-43q-18 -50 -18 -111q-37 -57 -68 -154q-110 -126 -290 -179z" />
<glyph unicode=":" horiz-adv-x="231" />
<glyph unicode=";" horiz-adv-x="237" />
<glyph unicode="&#x3c;" horiz-adv-x="994" d="M95 898l300 900h505l-320 -900l320 -900h-505z" />
<glyph unicode="=" />
<glyph unicode="&#x3e;" horiz-adv-x="994" d="M95 -2l320 900l-320 900h505l300 -900l-300 -900h-505z" />
<glyph unicode="?" horiz-adv-x="567" />
<glyph unicode="@" horiz-adv-x="579" />
<glyph unicode="A" horiz-adv-x="1230" d="M19 28q-1 60 26 129q2 39 13 86t30 103l17 120l9 51l17 60l25 120v43l18 34v8q0 26 6 58q6 36 19 80l35 180l17 69v34l26 43l60 -17v-13q0 -25 3 -52q4 -34 14 -72q-1 -10 -1 -20q0 -44 18 -92v-34l8 -17v-35l9 -34l17 -171q-1 -13 9 -26v-26l8 -34q1 -9 1 -18 q0 -54 -26 -111v-68l-9 -26v-26l-9 -77l-8 -17v-34q-10 -32 -14 -70q-3 -31 -3 -67v-18l-9 -17l-8 -34h-9q-60 0 -129 -26l-111 9h-26h-26zM362 1769l9 52h7q32 0 53 34q58 -39 133 -39q43 0 90 13q7 -12 18 -22.5t25 -20.5q-1 -69 26 -180v-43l8 -34q-1 -13 9 -26l8 -68 l9 -35v-42q9 -3 17 -18q-1 -12 9 -25q-1 -10 -1 -20q0 -45 18 -100v-12q0 -69 43 -151v-10q0 -68 25 -145l9 -60q9 -62 34 -145q4 -56 26 -138v-25q-2 -9 9 -18l17 -68v-35l26 -34l8 -137l9 -17l34 -137v-60l-154 8h-26q-18 0 -35 -1.5t-34 -6.5l-26 8h-42q-45 105 -60 275 q-41 10 -90 10q-23 0 -48 -2q-2 9 -17 17l-8 60q42 79 42 183v23l69 26q-19 54 -34 137l-9 17q2 10 -8 17q2 23 0.5 51.5t-9.5 60.5q-4 18 -6.5 39.5t-2.5 46.5q-17 33 -25 94l-9 34l-8 43q-18 49 -18 129l-8 17l-17 43l-9 60l-9 43q-10 24 -17 68q5 28 -17 52l-8 60l-18 51 v52z" />
<glyph unicode="B" horiz-adv-x="1141" d="M18 41v590l9 174l-9 86q9 40 9 105v156q-1 32 -1 70v27q0 28 1 59q2 9 -9 17l9 18v234q0 37 -1 84.5t-8 106.5v26q56 35 139 44q44 -4 95 -26h70q4 -16 17 -26q-4 -41 -4.5 -91.5t4.5 -108.5l-9 -35v-26l-8 -26l8 -35v-52v-34l9 -35v-165l-9 -26q0 -24 9 -52 q-4 -20 -4.5 -46.5t4.5 -57.5l-9 -18v-52q0 -25 2 -53t7 -60l-9 -78l-8 -52q8 -27 8 -69l9 -52q-13 -63 -13 -143q0 -44 4 -92l9 -17l-9 -35v-69l9 -52l9 -70l-18 -61q-75 -35 -154 -35q-69 0 -141 27zM487 266q153 58 153 207q0 30 -6 63q9 37 9 69q0 129 -139 191 q3 25 3 54q-1 14 -1 30q-2 48 -2 107v61q144 37 144 186q0 27 -5 57q10 38 10 71q0 125 -132 198q2 11 2 23q0 25 -10 55q8 40 8 81q0 59 -17 119q6 -1 11 -1q25 0 50 18q388 -80 388 -504q0 -138 -41 -312q-39 -9 -43 -52q-58 -14 -122 -69l122 -79l17 -8q66 -135 66 -282 q0 -87 -23 -178q-41 -350 -416 -391q-5 29 -7 64t-2 75v95l-9 26z" />
<glyph unicode="C" horiz-adv-x="1159" d="M18 662l9 17q-2 25 -1 55t1 65v196q-4 21 -4.5 45t4.5 49l-9 35l9 42v214l8 52l9 59q15 22 29 52t31 68l8 17l43 43l8 26q47 15 103 51l26 9h26l42 34l26 8q9 2 17 17l60 -8v-9q0 -44 -9 -102q9 -53 9 -120v-26v-34q-73 -19 -103 -94q-2 -22 -2 -48q0 -60 11 -140l-9 -26 v-34l9 -26q-7 -19 -7 -40t7 -45q-7 -23 -8 -51t-1 -60v-172v-68l-8 -26l8 -34l-8 -25q4 -28 4 -62t-4 -75l17 -146q73 -60 85 -171q-8 -34 -8 -72.5t8 -81.5l-8 -17l-77 -17q-177 65 -308 239q-19 48 -26.5 103.5t-7.5 119.5v94q-9 51 -9 120zM566 12v20q0 20 1 44 q2 36 7 81v34q-7 28 -8 69l17 25l-9 17q79 25 120 112q1 18 1 39t-1 44q-2 47 -8 105l34 60l154 -52l60 -25l25 -17q8 -40 8 -80q0 -20 -2 -41q-6 -61 -23 -127q-43 -168 -135 -245q-78 -65 -197 -65q-21 0 -44 2zM583 1491v308q13 7 17 26q134 -30 218 -117.5t124 -233.5 q12 -48 16 -96q1 -12 1 -23q0 -37 -8 -77q-40 -3 -77 -35q-30 -5 -62 -18.5t-67 -32.5l-17 -9l-34 9q-8 33 -8 71v83v51q-34 57 -103 94z" />
<glyph unicode="D" horiz-adv-x="1123" d="M18 44q7 48 6.5 106t-6.5 126v26q11 39 11 83q0 18 -2 37v35q-2 19 -2 40q0 46 10 106q-2 23 -1 51.5t1 60.5v120v52v189v629q-2 14 -6 28.5t-11 31.5l26 60l17 -17q46 11 93 11q102 0 208 -54q-12 -54 -20 -121q-3 -28 -3 -59q0 -42 6 -87l8 -60q-5 -14 -5 -31.5 t5 -37.5q-11 -50 -11 -107.5t11 -124.5l-8 -35v-43v-34q-5 -30 -5 -64q0 -54 13 -117q-5 -15 -5 -32t5 -37l-17 -34l9 -43l8 -52v-43q-8 -45 -7.5 -101t7.5 -123v-26v-94v-35q-4 -29 -3.5 -63.5t3.5 -73.5v-26l-8 -26q-93 -36 -198 -36q-54 0 -112 10zM474 250l26 69 q77 5 120 77l-17 52q13 47 15 102.5t2 121.5v34l-8 35l8 34v9q0 44 -17 86l17 34l-8 60q6 29 7 63.5t1 74.5v293l-8 60q-42 41 -112 43q1 8 1 18q0 26 -10 59q5 32 5 69q0 59 -13 129l34 52q431 -87 431 -727q0 -99 -10 -211q6 -90 6 -171q0 -691 -444 -724q-13 51 -13 119 q0 37 4 79l-8 34z" />
<glyph unicode="E" horiz-adv-x="1143" d="M20 148v1170q0 56 9 155v121q2 22 2 48q0 60 -11 141q22 15 52 52h112h25h69l26 -9h26q22 2 47.5 0t55.5 -8l18 8l60 -8h26q26 4 55.5 4t64.5 -4h35l43 8q29 -7 65 -7.5t81 -0.5h52q1 -21 17 -43q-13 -25 -13 -53t13 -59l-9 -60l9 -35l-26 -43q-43 -8 -99 -8.5t-125 8.5 q-19 -2 -44.5 -2.5t-58.5 2.5q-47 -9 -109 -9h-12q-19 8 -40.5 13t-45.5 5h-34q-7 -35 -8 -78.5t-1 -94.5v-25v-26q0 -20 -2 -45.5t-6 -57.5v-35l-18 -26v-34l43 -17q46 13 97.5 15t109.5 2h26h26h60l26 -26v-172v-69l-9 -17l-34 -35q-15 3 -32 3q-32 0 -72 -11l-25 8 q-18 -2 -39.5 -2t-46.5 2h-26h-26h-26l-26 17v-154v-155l-8 -61v-26l-18 -68l173 8h25l26 -8h35h94h26h112l43 8q40 -6 78 -34l-9 -26v-172v-26l-8 -26v-43l-9 -26q-9 -2 -17 -17q-29 7 -63.5 8t-74.5 1h-26h-26h-60l-26 8h-284h-86l-95 17h-34l-35 -17l-51 9q-5 29 -7 63.5 t-2 74.5z" />
<glyph unicode="F" horiz-adv-x="1125" d="M29 13q-3 25 -3 55q0 57 12 133l-9 43l9 26v265v43v1214l34 43h171l26 -9h94q14 0 31 -2t37 -6h26h120l60 8q18 -3 43.5 -3t58.5 3l17 -8h26h43l51 8l51 -17q9 -44 9 -88q0 -99 -43 -202q-28 -2 -61.5 -0.5t-75.5 8.5l-17 -8l-17 8l-26 -8h-34h-25h-43q-20 0 -44 1.5 t-50 6.5l-43 -8l-34 8q-32 -6 -69 -34l-8 -154v-26l8 -68l-8 -43l8 -26l-8 -42q77 -23 175 -23q51 0 107 6l43 -18q5 -35 5 -73.5t-5 -80.5l8 -17v-25v-35l-34 -59h-154h-60h-34h-34l-26 8v-103v-25v-146v-34v-34v-34v-34v-95v-153v-35v-111l-43 -17q-52 18 -114 18 q-43 0 -91 -9l-26 -9z" />
<glyph unicode="G" horiz-adv-x="1189" d="M97 1355q17 27 17 58q0 21 -8 44l17 43v43q97 171 290 282l112 -9l8 -59v-69q-2 -8 9 -17v-25v-26q-10 -70 -86 -103q-5 -18 -14 -37.5t-20 -39.5q6 -23 7.5 -50.5t1.5 -60.5v-154v-34q0 -22 4.5 -49.5t12.5 -61.5q-7 -28 -8 -64t-1 -81v-171v-26v-34l9 -43v-42v-52v-42 l8 -52v-51q22 -13 45.5 -32t48.5 -45q-4 -33 -4 -67q0 -75 21 -155v-26q-10 -13 -18.5 -28t-15.5 -32q-425 82 -425 584q0 94 15 203q-8 42 -8.5 91t8.5 105q-2 9 -17 17l17 17q-7 29 -7 63.5t7 73.5q-9 24 -9 57v12q-9 21 0 51v43q-3 23 -17 51zM661 30v222l18 60 q95 42 95 167q0 41 -10 90h-85l-18 51v256l77 9q24 -4 49 -4q46 0 97 12q29 -5 68 -7q25 -1 55 -1h31q10 -32 14 -71q3 -30 3 -65v-18l8 -17v-26l-8 -17l8 -25l-8 -18l8 -25q-2 -19 -2 -39q0 -48 11 -107q-6 -25 -7.5 -54.5t-1.5 -64.5v-26v-34v-34v-111v-34v-112 q-22 -7 -42 -7q-69 0 -112 84q-110 -64 -177 -64q-45 0 -71 30zM679 1551q-6 35 -5.5 80t5.5 100v68l8 17q13 -1 26 9q261 -65 308 -350q18 -63 18 -141q0 -15 -1 -30q-75 -8 -137 -52l-68 -17l-60 9q-12 64 -12 148q0 39 3 83q-30 40 -85 76z" />
<glyph unicode="H" horiz-adv-x="1207" d="M48 456l9 26q-9 31 -9 69.5t9 84.5q-8 42 -8.5 90.5t-0.5 106.5v94v26v839q75 40 180 43h10q26 0 58 -4q38 -5 86 -13l8 -171v-26v-34v-26v-26q-3 -21 -2 -45q0 -45 11 -100q-8 -25 -7.5 -53t7.5 -59l-9 -25q1 -13 0 -35q7 -26 10.5 -55.5t-1.5 -63.5l-9 -60 q25 -11 52 -9q4 -13 10 -25.5t16 -25.5v-112v-25v-69q-12 -51 -69 -51h-9v-171v-26v-34v-26v-43v-26q-2 -16 -1 -34q0 -38 10 -85q-5 -42 -5 -95.5t5 -118.5l-9 -26v-26l-25 -17q-42 12 -91 12q-26 0 -54 -3q-24 4 -52 0q-13 0 -26 -9l-77 17q-20 79 -20 178q0 77 12 165z M613 765q4 23 4.5 51t-4.5 60v120q18 34 77 43q3 22 3 45q0 59 -20 126q5 14 5 31t-5 37l9 137v26l-9 17v86q8 43 8 89.5t-8 98.5q5 19 13.5 40t21.5 46h325q-10 -65 -10.5 -148.5t10.5 -185.5l-9 -43l9 -68l-9 -26q-2 -21 -2 -44q0 -58 11 -127l-9 -60l9 -35l-9 -137l9 -17 l-9 -34l9 -17v-26l-9 -51v-51l9 -52l-9 -51v-11q0 -54 9 -126v-26v-103v-25v-146v-34v-111v-26v-26h-103h-25h-146h-34h-26q-7 35 -7.5 75t-1.5 88l-8 402q3 33 3.5 74t-3.5 89h-5q-37 0 -64 26z" />
<glyph unicode="I" horiz-adv-x="549" d="M31 1619l9 26l-9 51v85l34 25q14 -3 28 -3q27 0 57 12l17 -9q34 9 71 9q51 0 108 -17l17 -136q-9 -26 -9 -68l9 -17v-26v-25v-43v-144v-26v-85v-43v-119v-153v-34v-59v-26v-25v-26v-110v-26v-26v-102v-25v-145v-34v-170v-25v-68q-68 0 -170 -26q-48 18 -105 18 q-15 0 -31 -1l-9 51v485l-8 25l8 43l-8 51l8 43l-8 51q-4 23 -1.5 50.5t9.5 59.5l-8 17v255v34v145q-6 51 -6 117t6 147z" />
<glyph unicode="J" horiz-adv-x="1128" d="M181 646q95 9 203 68h77v-85v-93l8 -25l-8 -34l8 -26l-8 -34v-25l8 -34l8 -34l60 -34v-101q7 -30 7 -61q0 -58 -24 -117l8 -17q-382 87 -382 425q0 102 35 227zM647 257q22 62 76 110l-17 25q21 69 21 153q0 37 -4 76q2 25 2 55t-2 63q7 31 7 63t-7 64q6 28 0 60l9 42 l-9 51l9 42l-9 43q5 11 8 28t1 39l-9 110q3 26 3 56t-3 63l9 59l-9 51v119l9 67q-7 24 -9 68q25 31 76 51q51 -16 109 -16q41 0 86 8l26 -9q9 -58 9 -131v-15q-1 -82 -1 -184v-26q2 -14 1 -37.5t-1 -55.5v-34v-25v-42q7 -29 8 -63t1 -73v-25v-26v-59v-26v-33v-26v-25v-26 v-33v-111v-25l8 -17l-8 -59v-26v-34v-84v-93v-26v-25v-26l-17 -67q-106 -209 -348 -229q-9 47 -9 109q0 21 1 43q0 12 -9 26l9 42z" />
<glyph unicode="K" horiz-adv-x="1157" d="M35 639l9 25l-9 51q6 22 6.5 46t-6.5 48l9 170v25q2 9 -9 17l9 17v60q-8 41 -8.5 89.5t-0.5 105.5v485l60 17h170h25h34h26q-3 -7 -3 -14q0 -23 28 -46q-20 -55 -20 -123q0 -27 3 -55q-8 -24 -8 -68v-26v-25v-26l-9 -25q13 -44 13 -91q0 -26 -4 -54q2 -20 2 -46t-2 -56 l8 -25q-8 -33 -8 -69.5t8 -75.5v-34q-2 -22 -1 -49.5t1 -60.5v-170v-26v-34v-85l9 -25q-10 -38 -10 -84q0 -17 1 -35l-8 -34l8 -77v-85v-25v-26v-34v-25l-8 -60q-41 0 -94 -17h-25q-32 8 -68.5 8t-76.5 -8q-23 20 -32.5 48t-9.5 63v136v374zM494 783v221q0 20 2 41t7 44v34 l-9 26v59v34q74 113 77 272q37 60 42 153l17 68l9 26l17 34q29 -4 67.5 -4.5t85.5 4.5h59h34h26l34 -9l-51 -246l-9 -26l-8 -34v-25l-17 -17l-9 -26q-3 -19 -10 -41.5t-15 -51.5l-9 -34q-34 -76 -42 -187l-17 -17v-15q0 -90 34 -181v-25v-34l8 -26l9 -25q0 -12 8 -26v-25 q0 -28 7.5 -62t18.5 -74l8 -43q0 -40 17 -93q0 -42 26 -102v-26q0 -18 8 -42l26 -136l8 -43l17 -42l-17 -60q-19 -6 -42 -5.5t-51 5.5l-60 -17l-59 17l-26 -17h-51q-1 31 -9.5 65t-24.5 71v39.5v45.5l-17 26v42q0 19 -17 34l9 26q0 58 -34 119v59l-17 43v59l-26 34l9 34 q-21 34 -26 85z" />
<glyph unicode="L" horiz-adv-x="1113" d="M29 32v424q1 28 1 64v24q0 26 -1 56q4 30 3.5 66t-3.5 78l8 59l-8 941l17 42l59 8h68q9 -2 17 9q21 3 45 3q51 0 116 -12q24 -90 24 -207q0 -62 -7 -131l8 -34q-4 -18 -4 -39t4 -46l-8 -25q-1 -13 -1 -27q0 -41 9 -92v-25v-26l-8 -51v-59l17 -59q-7 -28 -8 -63.5 t-1 -80.5v-26v-25v-68v-34v-25l9 -51l-9 -59v-51v-59v-51v-60q51 -26 112 -26q36 0 75 9q32 -13 70 -13q23 0 49 5q45 -13 98.5 -13t113.5 13l33 -17q8 -46 8.5 -105t0.5 -132v-26q-15 -7 -34 -13.5t-42 -11.5q-42 8 -90 8h-105h-26h-101h-26h-42h-43h-25h-34h-42h-26h-110 h-34l-34 9h-34l-34 8z" />
<glyph unicode="M" horiz-adv-x="1356" d="M1 164q5 27 5 56q0 18 -2 38l2 94l9 26l2 68l-7 77l-7 43l3 120q-2 17 -2 35q0 56 14 127l2 60l-8 43l18 42h9h-9h9l59 -36q16 -61 56 -147v-25q31 -59 39 -138l17 -18v-11q0 -46 23 -92l7 -43l16 -34l8 -43q21 -37 40 -104l-4 -171l15 -60v-26l-10 -34l-9 -25 q-18 1 -39 -1t-46 -6l-95 3l-25 -8l-26 9l-17 -8l-26 9q-3 22 -16 43q5 29 4 63t-9 74zM28 1592l5 196l35 25q9 1 18 1q35 0 76 -12q13 4 30 6t38 1l26 -1l60 -1q6 -40 19.5 -85t35.5 -96v-34l16 -18l31 -146l16 -34q1 -20 16 -44l7 -51q5 -32 16.5 -66.5t31.5 -71.5 q-1 -45 23 -95l8 -51l42 -18l46 127l19 68l10 51l17 16l10 34q33 -1 68 -18q1 -12 1 -25q0 -50 -13 -103l8 -18l-9 -25l8 -26l-1 -34l-1 -26l-3 -120q-2 -15 -2 -31q0 -30 8 -63l-9 -25l8 -35q-8 -38 -11 -84q-2 -35 -2 -75v-28l7 -60l-38 -153l-18 -9v-25l-1 -26l-18 -34 l-1 -34l-18 -42l-9 -34q-6 -24 -2 -51l-18 -60q-34 -10 -86 -15q-20 54 -23 121l-15 60l-17 26l1 34l-17 18q2 13 -8 25l-7 52l-7 43l-17 26l-7 34l-17 35l-30 138l-25 26q-4 45 -17.5 90t-38.5 91q-6 41 -32 103l1 26l-25 35q-2 30 -13 64t-26 74l-16 43q-3 20 -16 43 q-9 71 -56 164l1 25l-17 18l-7 60l-24 60zM858 1246l10 410q1 23 1 50.5t2 60.5l1 26l35 33q59 -19 138 -19q39 0 84 5l17 -9q6 -35 6 -77v-18q0 -35 -2 -76l-1 -25v-26l-3 -103v-25l8 -18q-2 -21 7 -42q-7 -25 -7 -51q0 -22 5 -44q-6 -13 -1 -34q-5 -22 -1 -42l-10 -34 l8 -52l-1 -34l-2 -68l-1 -43q-1 -19 1 -40t6 -46l-3 -94l8 -17l-9 -34q4 -17 4 -38q0 -25 -6 -56q6 -23 7 -59q0 -5 -1 -10l8 -51l-19 -51l17 -35q-2 -39 -12 -102l7 -69v-25q-6 -12 -1 -26l-1 -26v-25q-6 -12 -1 -26l-1 -34l-2 -94q-69 -19 -152 -19q-54 0 -114 8 q-27 88 -27 237v21l9 17q-8 36 -8 76q0 49 12 103q-10 35 -10 73q0 27 5 55q-4 22 -5 47.5t-1 55.5l2 419q2 17 2 36q0 39 -8 84z" />
<glyph unicode="N" horiz-adv-x="1162" d="M8 1073q2 40 10 87v26l34 -9q11 -33 42 -68q21 -118 101 -230l8 -34l34 -59l42 -102l9 -17l25 -26v-34l34 -42l8 -43l17 -34q1 -20 17 -42q-22 -75 -22 -161q0 -84 21 -179l-9 -17l-9 -68l-170 -25q-20 -3 -39 -3q-74 0 -139 46v102l1 26v144v34v25q2 22 0.5 45t-8.5 49 q7 23 7 50.5t-7 59.5q5 26 5.5 55.5t-4.5 63.5q1 11 1 23q0 35 -9 79q6 25 0 51l9 34q-10 38 -10 84q0 17 1 35q-1 19 -1 41q0 16 1 33zM11 1627q3 22 3 45t-3 49v59q32 10 70.5 10t82.5 -10l60 16h34l25 -8q21 -67 84 -170q-2 -9 9 -17q0 -12 8 -26q5 -18 14 -39t20 -46 l17 -26q0 -11 8 -25l17 -43q8 -21 20 -44.5t31 -48.5v-26l17 -25q4 -12 10.5 -24.5t14.5 -26.5l17 -51l16 -43l26 -51l25 -51l17 -34l25 -51l17 -51l25 -51q14 -30 32 -66.5t44 -78.5q10 -53 51 -102q1 -14 6.5 -31t18.5 -37l34 -51q2 -14 6 -28.5t11 -30.5l-1 -213l8 -17 l-8 -25l-1 -102q-8 -2 -17 -17q-14 -2 -27 -2l-125 45q-20 88 -85 196l-8 34l-17 17q-15 60 -59 127l-8 26l-17 25q-14 59 -59 119v26l-17 34l-25 26q-10 58 -59 110q-4 24 -17 51q2 9 -9 17q-20 68 -67 128v25l-25 43l-26 42l-25 43q-14 65 -68 128v25q-13 18 -25 39 t-25 46l-17 17l-9 17q-11 59 -59 119zM596 1489l1 68q-2 18 -2 39q0 47 11 106q-2 18 -2 39t2 46l51 8q24 -2 53 -2q61 0 142 10h26q2 -9 17 -17q16 -60 16 -135q0 -56 -9 -120l9 -26l-1 -144q2 -18 2 -39t-2 -46q-1 -8 -1 -16q0 -28 9 -52v-26v-76v-34l8 -110l8 -111 l-9 -42l-68 26l1 76l-34 76l-34 86l-17 17l-8 25l-17 17q-5 18 -14 39t-20 46l-17 26q-5 15 -17 25l-8 34l-8 43l-26 25l-8 34l-25 26q0 30 -9 59z" />
<glyph unicode="O" horiz-adv-x="1151" d="M6 802l8 26q-7 52 -7 115.5t7 138.5v204l9 26l9 26v59q7 28 13.5 64t11.5 81l9 25l25 59q98 117 272 179q56 -10 56 -165q0 -47 -5 -107q-15 -48 -68 -77l-8 -34l-18 -25v-170q0 -13 9 -25l-9 -34v-26q4 -23 4 -53t-4 -66l9 -111v-144v-42l9 -43l-9 -59q10 -36 10 -82 q0 -14 -1 -29q-2 -28 0 -61.5t8 -74.5q23 -45 85 -68l17 -51q-2 -18 -2 -39.5t2 -45.5q-5 -30 -5.5 -66t5.5 -79l-8 -25q-21 -2 -40 -2q-164 0 -266 155l-18 -8q-5 32 -17.5 74.5t-32.5 95.5l-9 50v8q0 36 -17 78l-8 118v26q-18 57 -18 136q1 11 1 20q0 26 -9 48zM542 1558 q9 38 8.5 83t-8.5 96l25 51q156 -30 289 -170q7 -40 42 -76l18 -136l8 -18l8 -25q-1 -9 -1 -19q0 -24 4 -48q5 -36 15 -78l8 -34v-34q-4 -25 -2 -54.5t10 -63.5v-34v-34l9 -34l-9 -34q4 -37 4 -82v-27q-2 -61 -12 -138v-25v-34v-26v-51v-25q-26 -66 -26 -154l-16 -50 l-18 -86q-98 -152 -288 -212q-48 93 -48 215q0 40 5 83v34q49 31 85 93q2 29 2 65q0 24 -1 50q-2 66 -9 148l8 43l-17 25l17 43v578q-25 79 -102 136q0 29 -8 59z" />
<glyph unicode="P" horiz-adv-x="1097" d="M15 748l9 95q-5 35 -7 78t-2 94v569q-5 30 -5 64q0 75 23 168h155h34h26h34l26 -17q15 -58 15 -122.5t-15 -135.5q18 -80 18 -198l-9 -18l9 -25v-147v-43v-34v-155v-35v-26l8 -17v-60v-52l9 -60v-155v-35v-172v-26v-69v-68v-69l-9 -61q-60 -14 -134 -18q-33 -2 -70 -2 q-46 0 -97 3q-7 62 -8 143t-1 184v336v35zM498 990v86q99 34 120 138q1 14 1 29q1 19 -1 41q-2 38 -8 85v94q-38 65 -112 69q-1 12 -1 25q0 39 9 87l-8 121q4 13 0 26l34 34q390 -64 390 -500q0 -29 -2 -60q2 -27 2 -53q0 -404 -416 -412q-6 38 -7 85t-1 105z" />
<glyph unicode="Q" horiz-adv-x="1239" d="M81 817v486l9 36l44 177l9 35q106 159 301 256l80 -9q-17 -56 -17 -120t17 -136l-9 -26q-11 -29 -28 -58t-43 -57v-106v-27v-150v-36v-35v-35v-36v-26v-36l-9 -44q5 -26 5 -59t-5 -73v-115v-36l9 -35l-9 -35q10 -53 10 -123q0 -22 -1 -45q27 -45 80 -80q0 -13 8 -27 q-13 -37 -13 -77q0 -52 22 -108l-17 -89l-115 9q-341 211 -341 655q0 88 13 185zM639 1471v257q0 20 1.5 44t6.5 53q23 -4 50 -12.5t56 -22.5l27 -9h27l17 -9l62 -35l9 -18h35q17 -26 43 -57.5t63 -66.5q4 -17 11 -39.5t16 -48.5q10 -29 16 -66.5t10 -84.5q4 -20 6.5 -46 t2.5 -60l9 -26l-9 -62q9 -27 9 -71v-71q9 -61 9 -145v-31q-7 -27 -9 -71l9 -27q-10 -5 -18 -17q10 -3 18 -18q-17 -50 -17 -109q0 -40 8 -85q-9 -53 -9 -134v-17l-17 -44v-27v-26q-19 -44 -71 -106l-9 -27q19 -60 71 -132v-53q-42 -27 -71 -80q-62 -29 -106 -106h-35 q-62 67 -80 177q-38 26 -97 35q-8 28 -27 53q7 39 8 87.5t1 107.5v62q71 70 71 198v14q-9 63 -9 247v71l-9 27l9 26v27l-9 35v44l9 36l-9 44v62l9 44q5 25 5 55q0 15 -1 31q-4 49 -13 108v45z" />
<glyph unicode="R" horiz-adv-x="1163" d="M0 1765v25q40 3 78 26q22 -3 46 -3q51 0 109 12q33 -6 86 -26q-2 -17 -2 -35q0 -46 11 -103l-9 -17v-35v-26v-34v-35v-26l9 -26l-9 -43v-60l9 -35v-34v-61q4 -29 4 -64t-4 -74v-69l9 -26q-8 -51 -8.5 -117.5t-0.5 -150.5v-60q2 -23 2 -50q0 -61 -11 -140l9 -61l9 -190 v-173l-26 -60h-156h-34h-26h-35h-34v406l-9 26v43q4 26 3.5 56.5t-3.5 64.5l9 43q-4 27 -4 62t4 76l-9 26l9 26v43q-5 43 -7 96.5t-2 119.5v61q2 22 2 49q0 58 -10 141v95l8 34l-8 113q1 17 1 37q0 64 -10 153zM475 1713q-1 93 103 103q368 -29 372 -397q21 -80 21 -151 q0 -207 -177 -341v-35q51 -16 104 -69l17 -9l26 -60q2 -19 6 -36t11 -33v-173v-69v-26v-43v-35v-51v-173v-26v-35v-25l-8 -26q-31 -6 -70 -5.5t-86 5.5l-34 -9h-26l-18 9l-25 -9h-44q-8 42 -8 96v120v337q2 15 2 30q0 39 -11 82v26q-40 52 -112 52l-17 52q2 20 2 43 q0 57 -11 129v26q25 63 112 87q40 124 40 218q0 185 -152 257q10 31 10 62q0 52 -27 102z" />
<glyph unicode="S" horiz-adv-x="1247" d="M41 442q-1 7 -1 14q0 57 51 86q57 32 178 32h70q22 -202 166 -289q12 -62 12 -140.5t-12 -174.5l-61 17h-27q-287 115 -376 455zM76 1510q14 15 26.5 34.5t26.5 44.5q26 37 52 96q24 15 44 44q67 23 122 87q13 -2 27 9q50 -2 105 -26q-2 -29 -0.5 -63.5t8.5 -76.5 q-9 -35 -9 -75q0 -11 1 -22l-9 -17l9 -26q-12 -30 -18 -70q-13 -14 -26 -31.5t-26 -38.5q-9 -35 -10 -86q0 -9 1 -19q112 -124 288 -193q46 -51 123 -87l35 -35q50 -32 105 -97l17 -8l79 -158l18 -35q1 -39 26 -79q3 -33 3 -64q0 -273 -239 -469q-85 -55 -202 -62 q-12 57 -12 131q0 41 4 88l-9 131q120 59 131 211q-32 81 -114 157l-61 17q-32 33 -87 70l-26 9l-9 18l-26 8l-9 18q-364 155 -364 568q0 47 5 97zM583 1790l9 26q319 -26 438 -350q13 -34 13 -70.5t-13 -77.5q-59 -2 -149 -18h-26q-14 1 -27 -9h-35l-35 -9h-26l-26 18 q-9 36 -9 80v16q-22 42 -70 70l-35 53v201q1 9 1 17q0 28 -10 53z" />
<glyph unicode="T" horiz-adv-x="1179" d="M27 1773l8 17q35 6 77 7t93 1h26h93h153h25q19 -2 41 -2q54 0 120 11h26h59h26h42h68l34 8l42 -8q30 -85 30 -183q0 -64 -13 -132h-169h-26h-25l-17 9l-34 -9l-26 9v-102v-25v-145v-34v-110v-42v-94v-34l9 -34l-9 -51l9 -34v-51l-9 -33q5 -29 7 -63t2 -73v-51v-51v-60 v-76q0 -28 1 -61.5t7 -74.5v-34v-25v-60v-59q-55 -26 -124 -26q-41 0 -88 9q-39 -17 -93 -17l-34 102q12 36 12 77q0 24 -4 50v144q3 9 -8 17q5 34 5 74q0 66 -14 147q7 23 7 51t-7 60v33q4 29 4.5 63t-4.5 73v425l9 59l-9 110l-17 17q-40 0 -93 -17q-23 7 -50.5 8t-59.5 1 h-26h-25l-26 8q-11 30 -14 66t-3 79v93z" />
<glyph unicode="U" horiz-adv-x="1143" d="M30 1727q1 28 1 62v26h104h26h147h35q9 -45 11 -97q0 -12 1 -25q0 -41 -4 -86q-2 -8 9 -17q-9 -26 -9 -69v-26q2 -23 2 -51t-2 -62l9 -52q-9 -47 -9 -109v-12l9 -61v-52v-52v-112v-26v-26v-113v-26q-2 -10 -2 -20q0 -25 11 -49l-9 -35q10 -36 10 -77.5t-10 -86.5l9 -26 v-61v-26l8 -34q70 -52 70 -165q-4 -30 -4.5 -69t4.5 -87q-17 -5 -26 -17q-226 39 -347 277q0 38 -26 87q1 16 1 33q1 21 -1 45q-2 44 -8 95v26q4 13 0 26v251l8 26v26q-11 46 -11 102q0 30 3 62q-5 43 -7 97t-2 120v415q-1 15 -1 33v18zM576 196v78q58 54 78 147l18 9l-9 43 q-1 69 -26 190l-9 572l-8 52v95q4 28 6 62.5t2 76.5q2 18 0.5 39.5t-8.5 46.5v113q0 22 9 45.5t25 49.5h156h35h26h34l18 -9q21 -74 21 -169q0 -39 -4 -82q-2 -25 -0.5 -53t9.5 -59l-9 -26l9 -18v-26l-9 -26l9 -60v-35v-156v-34v-26v-35v-156v-26v-26l8 -147v-35v-26v-51 v-44l9 -60q-7 -25 -11 -55.5t-6 -66.5q-19 -23 -26 -60q-102 -176 -312 -260q-6 15 -26 26q-1 29 -0.5 63.5t0.5 75.5v25q1 9 -9 18z" />
<glyph unicode="V" horiz-adv-x="1151" d="M27 1712v60q49 19 114 19q19 0 40 -2q9 -2 17 9l137 -17q5 -40 19 -88.5t33 -108.5l8 -26v-26v-25l17 -26q-1 -7 -1 -14q0 -38 18 -80l9 -60q0 -12 8 -26l9 -26q1 -22 17 -42v-26l17 -34q0 -59 26 -129v-25q4 -32 15 -64.5t28 -64.5v-34l25 -120l9 -26l17 -68 q1 -40 26 -103q2 -18 6 -35t11 -34l17 -60l17 -59q0 -72 -34 -137q-1 -42 -9.5 -90.5t-24.5 -106.5l-9 -18q-40 -8 -85.5 -7.5t-94.5 7.5q-7 28 -25 52q1 12 1 25q0 118 -61 240q1 9 1 17q0 45 -18 86q0 24 -9 51l-17 95l-17 34q0 19 -9 43l-8 77l-35 103q0 11 -8 25v52 l-17 25v52q-12 32 -23.5 72.5t-19.5 89.5q-5 26 -12.5 56t-21.5 64q0 36 -9 86l-17 17l-17 69q0 29 -8 62.5t-18 74.5zM575 1301l17 77l8 17l9 60l9 35l8 60l9 51l8 26q2 25 9.5 54.5t16.5 64.5l9 35l17 34h154h34h26h34q2 -9 17 -17q0 -107 -43 -257q0 -51 -25 -111v-35 l-9 -34l-17 -86l-9 -25v-34l-8 -69l-17 -34l-9 -52l-9 -42q-1 -26 -7.5 -56t-17.5 -64l-17 -146l-35 -34q-34 62 -34 145v18l-17 17l-34 145l-9 26q-5 70 -34 154q-1 20 -17 43z" />
<glyph unicode="W" horiz-adv-x="1547" d="M27 1757l9 51h265h25h26q49 -105 60 -257l17 -25v-26q0 -13 9 -26v-25l17 -35q0 -45 17 -111v-26l8 -34q4 -37 26 -85l9 -60v-26q0 -12 8 -26l9 -25v-34l42 -137q2 -23 6.5 -46.5t11.5 -48.5q4 -20 9 -43.5t16 -50.5v-68q-19 -58 -25 -154l-9 -17q-9 -24 -9 -69l-8 -34 l-9 -34l-17 -111l-8 -43l-9 -43l-8 -43v-42q-10 1 -21 1q-35 0 -74 -10q-25 31 -42 86q1 8 1 15q0 30 -18 62q1 42 -18 85v26q-6 61 -34 145l-8 34q-1 44 -17 95v42l-18 35q0 53 -25 119v43l-17 34q0 20 -9 43q-5 81 -25 120l-9 86l-17 59v26l-17 77l-9 34l-17 52l-8 60 l-35 162v26zM592 1406q7 79 51 171v43l17 25l17 69l9 34l17 26v34q8 2 17 17q39 -1 85 -26l26 -111v-26l26 -85q16 -37 17 -86q8 -18 14.5 -41.5t10.5 -52.5l9 -34q6 -25 26 -51v-26q-2 -10 8 -17q1 -48 26 -120q1 -20 17 -43q1 -39 26 -102l17 -69q6 -26 25 -51l17 -69 q3 -21 18 -42l8 -60l51 -146q0 -36 -8 -82.5t-17 -105.5l-9 -60v-26l-8 -25v-26l-9 -34v-26l-8 -25l-9 -35l-9 -34v-51l-17 -34h-102l-52 196l-17 77l-8 17l-34 137q-3 61 -35 146l-8 43l-17 34q0 19 -9 43l-8 51l-18 43l-8 51l-17 60q-1 25 -17 51q0 84 -43 180 q-1 33 -9.5 69t-24.5 76q-4 26 -17 60zM1019 1449v10q0 68 26 126q0 46 17 112q4 23 4 46.5t-4 47.5l17 34h265h26q3 -27 3 -56q0 -106 -37 -243v-26l-17 -69q0 -64 -26 -162v-15q0 -57 -26 -122l9 -17q-4 -23 -10 -46t-16 -48v-43v-34l-51 -17l-34 51q1 14 1 29 q0 89 -53 176q-1 17 -5.5 36.5t-11.5 40.5l-8 26l-9 43l-17 34v34l-26 26q-5 17 -17 26z" />
<glyph unicode="X" horiz-adv-x="1249" d="M27 38l2 68q25 37 48.5 87t45.5 114l10 16l18 33l11 51l18 25l10 25l10 42l18 25q9 57 40 126q2 27 19 50l18 34l34 -10q7 -35 20 -78.5t32 -94.5l13 -86q52 -71 52 -149q0 -75 -48 -158q-9 -71 -49 -142q-23 -4 -47 -4q-38 0 -80 9l-146 -11zM75 1749l3 51q44 18 98 18 q38 0 81 -9h9q35 0 77 13q45 -12 91 -63q6 -96 68 -191q3 -74 52 -164q0 -13 17 -18v-10q0 -65 36 -136l6 -52q14 -51 46 -121q2 -18 8.5 -39t13.5 -47l7 -26l8 -17q-1 -11 7 -26l15 -43l16 -44q4 -55 45 -121l-1 -26l24 -43q8 -62 54 -122l-1 -34q8 -19 17.5 -44.5 t20.5 -59.5l24 -43q3 -61 46 -113q3 -77 52 -164l8 -26l-10 -34q-23 4 -46 5t-48 -1l-59 3l-34 1l-60 3l-25 1l-43 2q-40 67 -69 173l-16 27l1 25q-1 8 -16 18q-4 78 -53 155l-7 43l-37 113l-24 52l-15 35l-7 34l-15 43l-15 44l-60 190l-16 17l-8 35l-14 60q-5 23 -15 46.5 t-23 48.5l-14 69l-24 52l-14 61l-23 60q-16 57 -54 139l-7 26q-5 16 -12 33t-19 36q-6 53 -47 105zM611 1529l1 26q54 66 75 167q11 19 23 43.5t24 56.5l264 -11l26 16q39 -29 39 -87q-28 -48 -56 -112t-57 -148l-10 -16l-9 -25l-10 -34l-58 -142l-18 -34l-10 -33l-10 -34 l-10 -34l-27 -41l-26 10q-11 83 -69 173q-3 30 -22 69q1 36 -22 78l-22 86z" />
<glyph unicode="Y" horiz-adv-x="1206" d="M24 1772l25 43q32 -5 70 -5t83 5l17 -9h68q9 -2 17 9q14 -8 34 -9q4 -33 14.5 -73t28.5 -88v-25l25 -68l9 -26q-1 -12 8 -26q2 -20 8.5 -43t17.5 -50l8 -51l17 -26q2 -23 11 -53t23 -65q2 -20 8.5 -41.5t17.5 -44.5v-25q-2 -10 8 -17l17 -68q5 -40 34 -85q1 -30 17 -59 q1 -35 26 -86l17 -59l8 -51q4 -10 10 -20.5t16 -21.5q-8 -42 -9 -95q-1 -23 -1 -48q0 -33 1 -70q1 -14 -1.5 -31t-6.5 -37l8 -34l-8 -145l8 -34q4 -18 4 -36q0 -47 -29 -91l8 -17h-263l-51 34q-1 13 -1 27q0 27 3 60q4 49 15 109l-9 16q5 29 7 63t2 73v43v136v93 q-34 72 -51 179l-9 17l-17 17l-17 68l-8 34q-2 44 -34 93v26l-17 42l-9 43l-8 34q-9 12 -9 34q-14 66 -51 145v42l-17 34q-5 29 -17 62t-25 74l-43 136v26zM568 1373q52 80 76 213l34 59l9 34l17 34l17 68l25 25q40 -8 89.5 -8t106.5 8h25h26l25 -8q1 -13 1 -26 q0 -36 -9 -76q-35 -57 -51 -153q-9 -3 -17 -17l-9 -26l-8 -34l-34 -93l-9 -34l-8 -25l-51 -136l8 -34q-14 -7 -25 -26l-43 -110l-8 -52q-23 -26 -60 -42q-11 28 -17.5 59.5t-7.5 68.5l-9 16q1 12 -8 26l-17 68l-26 60v25l-17 17l-8 26l-9 34z" />
<glyph unicode="Z" horiz-adv-x="1131" d="M26 43v37v60l9 17l-9 34v86l17 51q62 68 86 179q39 57 59 137l18 26l8 25q19 37 34 94q10 20 25 44t35 50v35q23 36 34 85l18 9l8 25l17 52q33 53 43 128q26 44 51.5 103.5t51.5 135.5q-29 7 -63 8t-74 1h-69h-25h-26l-120 8l-111 9v282l26 51h102h26h145h35l265 -9l51 9 h51h146l51 -17v-197v-34l-9 -17v-34q-26 -31 -45 -72.5t-40 -90.5q-10 -19 -21 -44t-22 -58l-34 -68l-9 -26q-27 -46 -51 -128l-17 -9v-25l-17 -18v-34l-26 -25q-10 -42 -29 -91t-48 -106l-51 -128l-9 -17l-8 -34l-26 -43l-17 -51l-26 -43v-43q44 -10 95.5 -10t110.5 10 q43 -17 94 -17l25 9h35h25h34h35l25 8l17 -26q-3 -20 -3 -42q0 -47 12 -103l-9 -51q0 -13 9 -26l-9 -25l9 -26v-43l-34 -17q-42 -10 -91 -10t-106 10h-94q-26 -2 -56 -2.5t-64 2.5l-17 -8h-6l-62 -9q-2 9 -17 17l-52 -8q-29 6 -62.5 7t-73.5 1h-26h-26h-60h-25l-43 9 q-1 9 -1 20q1 5 1 11z" />
<glyph unicode="[" horiz-adv-x="282" />
<glyph unicode="\" horiz-adv-x="1001" d="M-16 347v1455h35l585 -1804h-505zM518 1802h505v-1550z" />
<glyph unicode="]" horiz-adv-x="312" />
<glyph unicode="^" horiz-adv-x="330" />
<glyph unicode="_" horiz-adv-x="490" />
<glyph unicode="`" horiz-adv-x="357" />
<glyph unicode="a" horiz-adv-x="1230" d="M19 28q-1 60 26 129q2 39 13 86t30 103l17 120l9 51l17 60l25 120v43l18 34v8q0 26 6 58q6 36 19 80l35 180l17 69v34l26 43l60 -17v-13q0 -25 3 -52q4 -34 14 -72q-1 -10 -1 -20q0 -44 18 -92v-34l8 -17v-35l9 -34l17 -171q-1 -13 9 -26v-26l8 -34q1 -9 1 -18 q0 -54 -26 -111v-68l-9 -26v-26l-9 -77l-8 -17v-34q-10 -32 -14 -70q-3 -31 -3 -67v-18l-9 -17l-8 -34h-9q-60 0 -129 -26l-111 9h-26h-26zM362 1769l9 52h7q32 0 53 34q58 -39 133 -39q43 0 90 13q7 -12 18 -22.5t25 -20.5q-1 -69 26 -180v-43l8 -34q-1 -13 9 -26l8 -68 l9 -35v-42q9 -3 17 -18q-1 -12 9 -25q-1 -10 -1 -20q0 -45 18 -100v-12q0 -69 43 -151v-10q0 -68 25 -145l9 -60q9 -62 34 -145q4 -56 26 -138v-25q-2 -9 9 -18l17 -68v-35l26 -34l8 -137l9 -17l34 -137v-60l-154 8h-26q-18 0 -35 -1.5t-34 -6.5l-26 8h-42q-45 105 -60 275 q-41 10 -90 10q-23 0 -48 -2q-2 9 -17 17l-8 60q42 79 42 183v23l69 26q-19 54 -34 137l-9 17q2 10 -8 17q2 23 0.5 51.5t-9.5 60.5q-4 18 -6.5 39.5t-2.5 46.5q-17 33 -25 94l-9 34l-8 43q-18 49 -18 129l-8 17l-17 43l-9 60l-9 43q-10 24 -17 68q5 28 -17 52l-8 60l-18 51 v52z" />
<glyph unicode="b" horiz-adv-x="1141" d="M18 41v590l9 174l-9 86q9 40 9 105v156q-1 32 -1 70v27q0 28 1 59q2 9 -9 17l9 18v234q0 37 -1 84.5t-8 106.5v26q56 35 139 44q44 -4 95 -26h70q4 -16 17 -26q-4 -41 -4.5 -91.5t4.5 -108.5l-9 -35v-26l-8 -26l8 -35v-52v-34l9 -35v-165l-9 -26q0 -24 9 -52 q-4 -20 -4.5 -46.5t4.5 -57.5l-9 -18v-52q0 -25 2 -53t7 -60l-9 -78l-8 -52q8 -27 8 -69l9 -52q-13 -63 -13 -143q0 -44 4 -92l9 -17l-9 -35v-69l9 -52l9 -70l-18 -61q-75 -35 -154 -35q-69 0 -141 27zM487 266q153 58 153 207q0 30 -6 63q9 37 9 69q0 129 -139 191 q3 25 3 54q-1 14 -1 30q-2 48 -2 107v61q144 37 144 186q0 27 -5 57q10 38 10 71q0 125 -132 198q2 11 2 23q0 25 -10 55q8 40 8 81q0 59 -17 119q6 -1 11 -1q25 0 50 18q388 -80 388 -504q0 -138 -41 -312q-39 -9 -43 -52q-58 -14 -122 -69l122 -79l17 -8q66 -135 66 -282 q0 -87 -23 -178q-41 -350 -416 -391q-5 29 -7 64t-2 75v95l-9 26z" />
<glyph unicode="c" horiz-adv-x="1159" d="M18 662l9 17q-2 25 -1 55t1 65v196q-4 21 -4.5 45t4.5 49l-9 35l9 42v214l8 52l9 59q15 22 29 52t31 68l8 17l43 43l8 26q47 15 103 51l26 9h26l42 34l26 8q9 2 17 17l60 -8v-9q0 -44 -9 -102q9 -53 9 -120v-26v-34q-73 -19 -103 -94q-2 -22 -2 -48q0 -60 11 -140l-9 -26 v-34l9 -26q-7 -19 -7 -40t7 -45q-7 -23 -8 -51t-1 -60v-172v-68l-8 -26l8 -34l-8 -25q4 -28 4 -62t-4 -75l17 -146q73 -60 85 -171q-8 -34 -8 -72.5t8 -81.5l-8 -17l-77 -17q-177 65 -308 239q-19 48 -26.5 103.5t-7.5 119.5v94q-9 51 -9 120zM566 12v20q0 20 1 44 q2 36 7 81v34q-7 28 -8 69l17 25l-9 17q79 25 120 112q1 18 1 39t-1 44q-2 47 -8 105l34 60l154 -52l60 -25l25 -17q8 -40 8 -80q0 -20 -2 -41q-6 -61 -23 -127q-43 -168 -135 -245q-78 -65 -197 -65q-21 0 -44 2zM583 1491v308q13 7 17 26q134 -30 218 -117.5t124 -233.5 q12 -48 16 -96q1 -12 1 -23q0 -37 -8 -77q-40 -3 -77 -35q-30 -5 -62 -18.5t-67 -32.5l-17 -9l-34 9q-8 33 -8 71v83v51q-34 57 -103 94z" />
<glyph unicode="d" horiz-adv-x="1123" d="M18 44q7 48 6.5 106t-6.5 126v26q11 39 11 83q0 18 -2 37v35q-2 19 -2 40q0 46 10 106q-2 23 -1 51.5t1 60.5v120v52v189v629q-2 14 -6 28.5t-11 31.5l26 60l17 -17q46 11 93 11q102 0 208 -54q-12 -54 -20 -121q-3 -28 -3 -59q0 -42 6 -87l8 -60q-5 -14 -5 -31.5 t5 -37.5q-11 -50 -11 -107.5t11 -124.5l-8 -35v-43v-34q-5 -30 -5 -64q0 -54 13 -117q-5 -15 -5 -32t5 -37l-17 -34l9 -43l8 -52v-43q-8 -45 -7.5 -101t7.5 -123v-26v-94v-35q-4 -29 -3.5 -63.5t3.5 -73.5v-26l-8 -26q-93 -36 -198 -36q-54 0 -112 10zM474 250l26 69 q77 5 120 77l-17 52q13 47 15 102.5t2 121.5v34l-8 35l8 34v9q0 44 -17 86l17 34l-8 60q6 29 7 63.5t1 74.5v293l-8 60q-42 41 -112 43q1 8 1 18q0 26 -10 59q5 32 5 69q0 59 -13 129l34 52q431 -87 431 -727q0 -99 -10 -211q6 -90 6 -171q0 -691 -444 -724q-13 51 -13 119 q0 37 4 79l-8 34z" />
<glyph unicode="e" horiz-adv-x="1143" d="M20 148v1170q0 56 9 155v121q2 22 2 48q0 60 -11 141q22 15 52 52h112h25h69l26 -9h26q22 2 47.5 0t55.5 -8l18 8l60 -8h26q26 4 55.5 4t64.5 -4h35l43 8q29 -7 65 -7.5t81 -0.5h52q1 -21 17 -43q-13 -25 -13 -53t13 -59l-9 -60l9 -35l-26 -43q-43 -8 -99 -8.5t-125 8.5 q-19 -2 -44.5 -2.5t-58.5 2.5q-47 -9 -109 -9h-12q-19 8 -40.5 13t-45.5 5h-34q-7 -35 -8 -78.5t-1 -94.5v-25v-26q0 -20 -2 -45.5t-6 -57.5v-35l-18 -26v-34l43 -17q46 13 97.5 15t109.5 2h26h26h60l26 -26v-172v-69l-9 -17l-34 -35q-15 3 -32 3q-32 0 -72 -11l-25 8 q-18 -2 -39.5 -2t-46.5 2h-26h-26h-26l-26 17v-154v-155l-8 -61v-26l-18 -68l173 8h25l26 -8h35h94h26h112l43 8q40 -6 78 -34l-9 -26v-172v-26l-8 -26v-43l-9 -26q-9 -2 -17 -17q-29 7 -63.5 8t-74.5 1h-26h-26h-60l-26 8h-284h-86l-95 17h-34l-35 -17l-51 9q-5 29 -7 63.5 t-2 74.5z" />
<glyph unicode="f" horiz-adv-x="1125" d="M29 13q-3 25 -3 55q0 58 12 133l-9 43l9 26v265v43v1214l34 43h171l26 -9h94q14 0 31 -2t37 -6h26h120l60 8q18 -3 43.5 -3t58.5 3l17 -8h26h43l51 8l51 -17q9 -44 9 -88q0 -99 -43 -202q-28 -2 -61.5 -0.5t-75.5 8.5l-17 -8l-17 8l-26 -8h-34h-25h-43q-20 0 -44 1.5 t-50 6.5l-43 -8l-34 8q-32 -6 -69 -34l-8 -154v-26l8 -68l-8 -43l8 -26l-8 -42q77 -23 175 -23q51 0 107 6l43 -18q5 -35 5 -73.5t-5 -80.5l8 -17v-25v-35l-34 -59h-154h-60h-34h-34l-26 8v-103v-25v-146v-34v-34v-34v-34v-95v-153v-35v-111l-43 -17q-52 18 -114 18 q-43 0 -91 -9l-26 -9z" />
<glyph unicode="g" horiz-adv-x="1189" d="M97 1355q17 27 17 58q0 21 -8 44l17 43v43q97 171 290 282l112 -9l8 -59v-69q-2 -8 9 -17v-25v-26q-10 -70 -86 -103q-5 -18 -14 -37.5t-20 -39.5q6 -23 7.5 -50.5t1.5 -60.5v-154v-34q0 -22 4.5 -49.5t12.5 -61.5q-7 -28 -8 -64t-1 -81v-171v-26v-34l9 -43v-42v-52v-42 l8 -52v-51q22 -13 45.5 -32t48.5 -45q-4 -33 -4 -67q0 -75 21 -155v-26q-10 -13 -18.5 -28t-15.5 -32q-425 82 -425 584q0 94 15 203q-8 42 -8.5 91t8.5 105q-2 9 -17 17l17 17q-7 29 -7 63.5t7 73.5q-9 24 -9 57v12q-9 21 0 51v43q-3 23 -17 51zM661 30v222l18 60 q95 42 95 167q0 41 -10 90h-85l-18 51v256l77 9q24 -4 49 -4q46 0 97 12q29 -5 68 -7q25 -1 55 -1h31q10 -32 14 -71q3 -30 3 -65v-18l8 -17v-26l-8 -17l8 -25l-8 -18l8 -25q-2 -19 -2 -39q0 -48 11 -107q-6 -25 -7.5 -54.5t-1.5 -64.5v-26v-34v-34v-111v-34v-112 q-22 -7 -42 -7q-69 0 -112 84q-110 -64 -177 -64q-45 0 -71 30zM679 1551q-6 35 -5.5 80t5.5 100v68l8 17q13 -1 26 9q261 -65 308 -350q18 -63 18 -141q0 -15 -1 -30q-75 -8 -137 -52l-68 -17l-60 9q-12 64 -12 148q0 39 3 83q-30 40 -85 76z" />
<glyph unicode="h" horiz-adv-x="1207" d="M48 456l9 26q-9 31 -9 69.5t9 84.5q-8 42 -8.5 90.5t-0.5 106.5v94v26v839q75 40 180 43h10q26 0 58 -4q38 -5 86 -13l8 -171v-26v-34v-26v-26q-3 -21 -2 -45q0 -45 11 -100q-8 -25 -7.5 -53t7.5 -59l-9 -25q1 -13 0 -35q7 -26 10.5 -55.5t-1.5 -63.5l-9 -60 q25 -11 52 -9q4 -13 10 -25.5t16 -25.5v-112v-25v-69q-12 -51 -69 -51h-9v-171v-26v-34v-26v-43v-26q-2 -16 -1 -34q0 -38 10 -85q-5 -42 -5 -95.5t5 -118.5l-9 -26v-26l-25 -17q-42 12 -91 12q-26 0 -54 -3q-24 4 -52 0q-13 0 -26 -9l-77 17q-20 79 -20 178q0 77 12 165z M613 765q4 23 4.5 51t-4.5 60v120q18 34 77 43q3 22 3 45q0 59 -20 126q5 14 5 31t-5 37l9 137v26l-9 17v86q8 43 8 89.5t-8 98.5q5 19 13.5 40t21.5 46h325q-10 -65 -10.5 -148.5t10.5 -185.5l-9 -43l9 -68l-9 -26q-2 -21 -2 -44q0 -58 11 -127l-9 -60l9 -35l-9 -137l9 -17 l-9 -34l9 -17v-26l-9 -51v-51l9 -52l-9 -51v-11q0 -54 9 -126v-26v-103v-25v-146v-34v-111v-26v-26h-103h-25h-146h-34h-26q-7 35 -7.5 75t-1.5 88l-8 402q3 33 3.5 74t-3.5 89h-5q-37 0 -64 26z" />
<glyph unicode="i" horiz-adv-x="549" d="M31 1619l9 26l-9 51v85l34 25q14 -3 28 -3q27 0 57 12l17 -9q34 9 71 9q51 0 108 -17l17 -136q-9 -26 -9 -68l9 -17v-26v-25v-43v-144v-26v-85v-43v-119v-153v-34v-59v-26v-25v-26v-110v-26v-26v-102v-25v-145v-34v-170v-25v-68q-68 0 -170 -26q-48 18 -105 18 q-15 0 -31 -1l-9 51v485l-8 25l8 43l-8 51l8 43l-8 51q-4 23 -1.5 50.5t9.5 59.5l-8 17v255v34v145q-6 51 -6 117t6 147z" />
<glyph unicode="j" horiz-adv-x="1128" d="M181 646q95 9 203 68h77v-85v-93l8 -25l-8 -34l8 -26l-8 -34v-25l8 -34l8 -34l60 -34v-101q7 -30 7 -61q0 -58 -24 -117l8 -17q-382 87 -382 425q0 102 35 227zM647 257q22 62 76 110l-17 25q21 69 21 153q0 37 -4 76q2 25 2 55t-2 63q7 31 7 63t-7 64q6 28 0 60l9 42 l-9 51l9 42l-9 43q5 11 8 28t1 39l-9 110q3 26 3 56t-3 63l9 59l-9 51v119l9 67q-7 24 -9 68q25 31 76 51q51 -16 109 -16q41 0 86 8l26 -9q9 -58 9 -131v-15q-1 -82 -1 -184v-26q2 -14 1 -37.5t-1 -55.5v-34v-25v-42q7 -29 8 -63t1 -73v-25v-26v-59v-26v-33v-26v-25v-26 v-33v-111v-25l8 -17l-8 -59v-26v-34v-84v-93v-26v-25v-26l-17 -67q-106 -209 -348 -229q-9 47 -9 109q0 21 1 43q0 12 -9 26l9 42z" />
<glyph unicode="k" horiz-adv-x="1157" d="M35 639l9 25l-9 51q6 22 6.5 46t-6.5 48l9 170v25q2 9 -9 17l9 17v60q-8 41 -8.5 89.5t-0.5 105.5v485l60 17h170h25h34h26q-3 -7 -3 -14q0 -23 28 -46q-20 -55 -20 -123q0 -27 3 -55q-8 -24 -8 -68v-26v-25v-26l-9 -25q13 -44 13 -91q0 -26 -4 -54q2 -20 2 -46t-2 -56 l8 -25q-8 -33 -8 -69.5t8 -75.5v-34q-2 -22 -1 -49.5t1 -60.5v-170v-26v-34v-85l9 -25q-10 -38 -10 -84q0 -17 1 -35l-8 -34l8 -77v-85v-25v-26v-34v-25l-8 -60q-41 0 -94 -17h-25q-32 8 -68.5 8t-76.5 -8q-23 20 -32.5 48t-9.5 63v136v374zM494 783v221q0 20 2 41t7 44v34 l-9 26v59v34q74 113 77 272q37 60 42 153l17 68l9 26l17 34q29 -4 67.5 -4.5t85.5 4.5h59h34h26l34 -9l-51 -246l-9 -26l-8 -34v-25l-17 -17l-9 -26q-3 -19 -10 -41.5t-15 -51.5l-9 -34q-34 -76 -42 -187l-17 -17v-15q0 -90 34 -181v-25v-34l8 -26l9 -25q0 -12 8 -26v-25 q0 -28 7.5 -62t18.5 -74l8 -43q0 -40 17 -93q0 -42 26 -102v-26q0 -18 8 -42l26 -136l8 -43l17 -42l-17 -60q-19 -6 -42 -5.5t-51 5.5l-60 -17l-59 17l-26 -17h-51q-1 31 -9.5 65t-24.5 71v39.5v45.5l-17 26v42q0 19 -17 34l9 26q0 58 -34 119v59l-17 43v59l-26 34l9 34 q-21 34 -26 85z" />
<glyph unicode="l" horiz-adv-x="1113" d="M29 32v424q1 28 1 64v24q0 26 -1 56q4 30 3.5 66t-3.5 78l8 59l-8 941l17 42l59 8h68q9 -2 17 9q21 3 45 3q51 0 116 -12q24 -90 24 -207q0 -62 -7 -131l8 -34q-4 -18 -4 -39t4 -46l-8 -25q-1 -13 -1 -27q0 -41 9 -92v-25v-26l-8 -51v-59l17 -59q-7 -28 -8 -63.5 t-1 -80.5v-26v-25v-68v-34v-25l9 -51l-9 -59v-51v-59v-51v-60q51 -26 112 -26q36 0 75 9q32 -13 70 -13q23 0 49 5q45 -13 98.5 -13t113.5 13l33 -17q8 -46 8.5 -105t0.5 -132v-26q-15 -7 -34 -13.5t-42 -11.5q-42 8 -90 8h-105h-26h-101h-26h-42h-43h-25h-34h-42h-26h-110 h-34l-34 9h-34l-34 8z" />
<glyph unicode="m" horiz-adv-x="1356" d="M1 164q5 27 5 56q0 18 -2 38l2 94l9 26l2 68l-7 77l-7 43l3 120q-2 17 -2 35q0 56 14 127l2 60l-8 43l18 42h9h-9h9l59 -36q16 -61 56 -147v-25q31 -59 39 -138l17 -18v-11q0 -46 23 -92l7 -43l16 -34l8 -43q21 -37 40 -104l-4 -171l15 -60v-26l-10 -34l-9 -25 q-18 1 -39 -1t-46 -6l-95 3l-25 -8l-26 9l-17 -8l-26 9q-3 22 -16 43q5 29 4 63t-9 74zM28 1592l5 196l35 25q9 1 18 1q35 0 76 -12q13 4 30 6t38 1l26 -1l60 -1q6 -40 19.5 -85t35.5 -96v-34l16 -18l31 -146l16 -34q1 -20 16 -44l7 -51q5 -32 16.5 -66.5t31.5 -71.5 q-1 -45 23 -95l8 -51l42 -18l46 127l19 68l10 51l17 16l10 34q33 -1 68 -18q1 -12 1 -25q0 -50 -13 -103l8 -18l-9 -25l8 -26l-1 -34l-1 -26l-3 -120q-2 -15 -2 -31q0 -30 8 -63l-9 -25l8 -35q-8 -38 -11 -84q-2 -35 -2 -75v-28l7 -60l-38 -153l-18 -9v-25l-1 -26l-18 -34 l-1 -34l-18 -42l-9 -34q-6 -24 -2 -51l-18 -60q-34 -10 -86 -15q-20 54 -23 121l-15 60l-17 26l1 34l-17 18q2 13 -8 25l-7 52l-7 43l-17 26l-7 34l-17 35l-30 138l-25 26q-4 45 -17.5 90t-38.5 91q-6 41 -32 103l1 26l-25 35q-2 30 -13 64t-26 74l-16 43q-3 20 -16 43 q-9 71 -56 164l1 25l-17 18l-7 60l-24 60zM858 1246l10 410q1 23 1 50.5t2 60.5l1 26l35 33q59 -19 138 -19q39 0 84 5l17 -9q6 -35 6 -77v-18q0 -35 -2 -76l-1 -25v-26l-3 -103v-25l8 -18q-2 -21 7 -42q-7 -25 -7 -51q0 -22 5 -44q-6 -13 -1 -34q-5 -22 -1 -42l-10 -34 l8 -52l-1 -34l-2 -68l-1 -43q-1 -19 1 -40t6 -46l-3 -94l8 -17l-9 -34q4 -17 4 -38q0 -25 -6 -56q6 -23 7 -59q0 -5 -1 -10l8 -51l-19 -51l17 -35q-2 -39 -12 -102l7 -69v-25q-6 -12 -1 -26l-1 -26v-25q-6 -12 -1 -26l-1 -34l-2 -94q-69 -19 -152 -19q-54 0 -114 8 q-27 88 -27 237v21l9 17q-8 36 -8 76q0 49 12 103q-10 35 -10 73q0 27 5 55q-4 22 -5 47.5t-1 55.5l2 419q2 17 2 36q0 39 -8 84z" />
<glyph unicode="n" horiz-adv-x="1162" d="M8 1073q2 40 10 87v26l34 -9q11 -33 42 -68q21 -118 101 -230l8 -34l34 -59l42 -102l9 -17l25 -26v-34l34 -42l8 -43l17 -34q1 -20 17 -42q-22 -75 -22 -161q0 -84 21 -179l-9 -17l-9 -68l-170 -25q-20 -3 -39 -3q-74 0 -139 46v102l1 26v144v34v25q2 22 0.5 45t-8.5 49 q7 23 7 50.5t-7 59.5q5 26 5.5 55.5t-4.5 63.5q1 11 1 23q0 35 -9 79q6 25 0 51l9 34q-10 38 -10 84q0 17 1 35q-1 19 -1 41q0 16 1 33zM11 1627q3 22 3 45t-3 49v59q32 10 70.5 10t82.5 -10l60 16h34l25 -8q21 -67 84 -170q-2 -9 9 -17q0 -12 8 -26q5 -18 14 -39t20 -46 l17 -26q0 -11 8 -25l17 -43q8 -21 20 -44.5t31 -48.5v-26l17 -25q4 -12 10.5 -24.5t14.5 -26.5l17 -51l16 -43l26 -51l25 -51l17 -34l25 -51l17 -51l25 -51q14 -30 32 -66.5t44 -78.5q10 -53 51 -102q1 -14 6.5 -31t18.5 -37l34 -51q2 -14 6 -28.5t11 -30.5l-1 -213l8 -17 l-8 -25l-1 -102q-8 -2 -17 -17q-14 -2 -27 -2l-125 45q-20 88 -85 196l-8 34l-17 17q-15 60 -59 127l-8 26l-17 25q-14 59 -59 119v26l-17 34l-25 26q-10 58 -59 110q-4 24 -17 51q2 9 -9 17q-20 68 -67 128v25l-25 43l-26 42l-25 43q-14 65 -68 128v25q-13 18 -25 39 t-25 46l-17 17l-9 17q-11 59 -59 119zM596 1489l1 68q-2 18 -2 39q0 47 11 106q-2 18 -2 39t2 46l51 8q24 -2 53 -2q61 0 142 10h26q2 -9 17 -17q16 -60 16 -135q0 -56 -9 -120l9 -26l-1 -144q2 -18 2 -39t-2 -46q-1 -8 -1 -16q0 -28 9 -52v-26v-76v-34l8 -110l8 -111 l-9 -42l-68 26l1 76l-34 76l-34 86l-17 17l-8 25l-17 17q-5 18 -14 39t-20 46l-17 26q-5 15 -17 25l-8 34l-8 43l-26 25l-8 34l-25 26q0 30 -9 59z" />
<glyph unicode="o" horiz-adv-x="1151" d="M6 802l8 26q-7 52 -7 115.5t7 138.5v204l9 26l9 26v59q7 28 13.5 64t11.5 81l9 25l25 59q98 117 272 179q56 -10 56 -165q0 -47 -5 -107q-15 -48 -68 -77l-8 -34l-18 -25v-170q0 -13 9 -25l-9 -34v-26q4 -23 4 -53t-4 -66l9 -111v-144v-42l9 -43l-9 -59q10 -36 10 -82 q0 -14 -1 -29q-2 -28 0 -61.5t8 -74.5q23 -45 85 -68l17 -51q-2 -18 -2 -39.5t2 -45.5q-5 -30 -5.5 -66t5.5 -79l-8 -25q-21 -2 -40 -2q-164 0 -266 155l-18 -8q-5 32 -17.5 74.5t-32.5 95.5l-9 50v8q0 36 -17 78l-8 118v26q-18 57 -18 136q1 11 1 20q0 26 -9 48zM542 1558 q9 38 8.5 83t-8.5 96l25 51q156 -30 289 -170q7 -40 42 -76l18 -136l8 -18l8 -25q-1 -9 -1 -19q0 -24 4 -48q5 -36 15 -78l8 -34v-34q-4 -25 -2 -54.5t10 -63.5v-34v-34l9 -34l-9 -34q4 -37 4 -82v-27q-2 -61 -12 -138v-25v-34v-26v-51v-25q-26 -66 -26 -154l-16 -50 l-18 -86q-98 -152 -288 -212q-48 93 -48 215q0 40 5 83v34q49 31 85 93q2 29 2 65q0 24 -1 50q-2 66 -9 148l8 43l-17 25l17 43v578q-25 79 -102 136q0 29 -8 59z" />
<glyph unicode="p" horiz-adv-x="1097" d="M15 748l9 95q-5 35 -7 78t-2 94v569q-5 30 -5 64q0 75 23 168h155h34h26h34l26 -17q15 -58 15 -122.5t-15 -135.5q18 -80 18 -198l-9 -18l9 -25v-147v-43v-34v-155v-35v-26l8 -17v-60v-52l9 -60v-155v-35v-172v-26v-69v-68v-69l-9 -61q-60 -14 -134 -18q-34 -2 -70 -2 q-46 0 -97 3q-7 62 -8 143t-1 184v336v35zM498 990v86q99 34 120 138q1 14 1 29q0 19 -1 41q-3 38 -8 85v94q-38 65 -112 69q-1 12 -1 25q0 39 9 87l-8 121q4 13 0 26l34 34q390 -64 390 -500q0 -29 -2 -60q2 -27 2 -53q0 -404 -416 -412q-6 38 -7 85t-1 105z" />
<glyph unicode="q" horiz-adv-x="1239" d="M81 817v486l9 36l44 177l9 35q106 159 301 256l80 -9q-17 -56 -17 -120t17 -136l-9 -26q-11 -29 -28 -58t-43 -57v-106v-27v-150v-36v-35v-35v-36v-26v-36l-9 -44q5 -26 5 -59t-5 -73v-115v-36l9 -35l-9 -35q10 -53 10 -123q0 -22 -1 -45q27 -45 80 -80q0 -13 8 -27 q-13 -37 -13 -77q0 -52 22 -108l-17 -89l-115 9q-341 211 -341 655q0 88 13 185zM639 1471v257q0 20 1.5 44t6.5 53q23 -4 50 -12.5t56 -22.5l27 -9h27l17 -9l62 -35l9 -18h35q17 -26 43 -57.5t63 -66.5q4 -17 11 -39.5t16 -48.5q10 -29 16 -66.5t10 -84.5q4 -20 6.5 -46 t2.5 -60l9 -26l-9 -62q9 -27 9 -71v-71q9 -61 9 -145v-31q-7 -27 -9 -71l9 -27q-10 -5 -18 -17q10 -3 18 -18q-17 -50 -17 -109q0 -40 8 -85q-9 -53 -9 -134v-17l-17 -44v-27v-26q-19 -44 -71 -106l-9 -27q19 -60 71 -132v-53q-42 -27 -71 -80q-62 -29 -106 -106h-35 q-62 67 -80 177q-38 26 -97 35q-8 28 -27 53q7 39 8 87.5t1 107.5v62q71 70 71 198v14q-9 63 -9 247v71l-9 27l9 26v27l-9 35v44l9 36l-9 44v62l9 44q5 25 5 55q0 15 -1 31q-4 49 -13 108v45z" />
<glyph unicode="r" horiz-adv-x="1163" d="M0 1765v25q40 3 78 26q22 -3 46 -3q51 0 109 12q33 -6 86 -26q-2 -17 -2 -35q0 -46 11 -103l-9 -17v-35v-26v-34v-35v-26l9 -26l-9 -43v-60l9 -35v-34v-61q4 -29 4 -64t-4 -74v-69l9 -26q-8 -51 -8.5 -117.5t-0.5 -150.5v-60q2 -23 2 -50q0 -61 -11 -140l9 -61l9 -190 v-173l-26 -60h-156h-34h-26h-35h-34v406l-9 26v43q4 26 3.5 56.5t-3.5 64.5l9 43q-4 27 -4 62t4 76l-9 26l9 26v43q-5 43 -7 96.5t-2 119.5v61q2 22 2 49q0 58 -10 141v95l8 34l-8 113q1 17 1 37q0 64 -10 153zM475 1713q-1 93 103 103q368 -29 372 -397q21 -80 21 -151 q0 -207 -177 -341v-35q51 -16 104 -69l17 -9l26 -60q2 -19 6 -36t11 -33v-173v-69v-26v-43v-35v-51v-173v-26v-35v-25l-8 -26q-31 -6 -70 -5.5t-86 5.5l-34 -9h-26l-18 9l-25 -9h-44q-8 42 -8 96v120v337q2 15 2 30q0 39 -11 82v26q-40 52 -112 52l-17 52q2 20 2 43 q0 57 -11 129v26q25 63 112 87q40 124 40 218q0 185 -152 257q10 31 10 62q0 52 -27 102z" />
<glyph unicode="s" horiz-adv-x="1247" d="M41 442q-1 7 -1 14q0 57 51 86q57 32 178 32h70q22 -202 166 -289q12 -62 12 -140.5t-12 -174.5l-61 17h-27q-287 115 -376 455zM76 1510q14 15 26.5 34.5t26.5 44.5q26 37 52 96q24 15 44 44q67 23 122 87q13 -2 27 9q50 -2 105 -26q-2 -29 -0.5 -63.5t8.5 -76.5 q-9 -35 -9 -75q0 -11 1 -22l-9 -17l9 -26q-12 -30 -18 -70q-13 -14 -26 -31.5t-26 -38.5q-9 -35 -10 -86q0 -9 1 -19q112 -124 288 -193q46 -51 123 -87l35 -35q50 -32 105 -97l17 -8l79 -158l18 -35q1 -39 26 -79q3 -33 3 -64q0 -273 -239 -469q-85 -55 -202 -62 q-12 57 -12 131q0 41 4 88l-9 131q120 59 131 211q-32 81 -114 157l-61 17q-32 33 -87 70l-26 9l-9 18l-26 8l-9 18q-364 155 -364 568q0 47 5 97zM583 1790l9 26q319 -26 438 -350q13 -34 13 -70.5t-13 -77.5q-59 -2 -149 -18h-26q-14 1 -27 -9h-35l-35 -9h-26l-26 18 q-9 36 -9 80v16q-22 42 -70 70l-35 53v201q1 9 1 17q0 28 -10 53z" />
<glyph unicode="t" horiz-adv-x="1179" d="M27 1773l8 17q35 6 77 7t93 1h26h93h153h25q19 -2 41 -2q54 0 120 11h26h59h26h42h68l34 8l42 -8q30 -85 30 -183q0 -64 -13 -132h-169h-26h-25l-17 9l-34 -9l-26 9v-102v-25v-145v-34v-110v-42v-94v-34l9 -34l-9 -51l9 -34v-51l-9 -33q5 -29 7 -63t2 -73v-51v-51v-60 v-76q0 -28 1 -61.5t7 -74.5v-34v-25v-60v-59q-55 -26 -124 -26q-41 0 -88 9q-39 -17 -93 -17l-34 102q12 36 12 77q0 24 -4 50v144q3 9 -8 17q5 34 5 74q0 66 -14 147q7 23 7 51t-7 60v33q4 29 4.5 63t-4.5 73v425l9 59l-9 110l-17 17q-40 0 -93 -17q-23 7 -50.5 8t-59.5 1 h-26h-25l-26 8q-11 30 -14 66t-3 79v93z" />
<glyph unicode="u" horiz-adv-x="1143" d="M30 1727q1 28 1 62v26h104h26h147h35q9 -45 11 -97q0 -12 1 -25q0 -41 -4 -86q-2 -8 9 -17q-9 -26 -9 -69v-26q2 -23 2 -51t-2 -62l9 -52q-9 -47 -9 -109v-12l9 -61v-52v-52v-112v-26v-26v-113v-26q-2 -10 -2 -20q0 -25 11 -49l-9 -35q10 -36 10 -77.5t-10 -86.5l9 -26 v-61v-26l8 -34q70 -52 70 -165q-4 -30 -4.5 -69t4.5 -87q-17 -5 -26 -17q-226 39 -347 277q0 38 -26 87q1 16 1 33q1 21 -1 45q-2 44 -8 95v26q4 13 0 26v251l8 26v26q-11 46 -11 102q0 30 3 62q-5 43 -7 97t-2 120v415q-1 15 -1 33v18zM576 196v78q58 54 78 147l18 9l-9 43 q-1 69 -26 190l-9 572l-8 52v95q4 28 6 62.5t2 76.5q2 18 0.5 39.5t-8.5 46.5v113q0 22 9 45.5t25 49.5h156h35h26h34l18 -9q21 -74 21 -169q0 -39 -4 -82q-2 -25 -0.5 -53t9.5 -59l-9 -26l9 -18v-26l-9 -26l9 -60v-35v-156v-34v-26v-35v-156v-26v-26l8 -147v-35v-26v-51 v-44l9 -60q-7 -25 -11 -55.5t-6 -66.5q-19 -23 -26 -60q-102 -176 -312 -260q-6 15 -26 26q-1 29 -0.5 63.5t0.5 75.5v25q1 9 -9 18z" />
<glyph unicode="v" horiz-adv-x="1151" d="M27 1712v60q49 19 114 19q19 0 40 -2q9 -2 17 9l137 -17q5 -40 19 -88.5t33 -108.5l8 -26v-26v-25l17 -26q-1 -7 -1 -14q0 -38 18 -80l9 -60q0 -12 8 -26l9 -26q1 -22 17 -42v-26l17 -34q0 -59 26 -129v-25q4 -32 15 -64.5t28 -64.5v-34l25 -120l9 -26l17 -68 q1 -40 26 -103q2 -18 6 -35t11 -34l17 -60l17 -59q0 -72 -34 -137q-1 -42 -9.5 -90.5t-24.5 -106.5l-9 -18q-40 -8 -85.5 -7.5t-94.5 7.5q-7 28 -25 52q1 12 1 25q0 118 -61 240q1 9 1 17q0 45 -18 86q0 24 -9 51l-17 95l-17 34q0 19 -9 43l-8 77l-35 103q0 11 -8 25v52 l-17 25v52q-12 32 -23.5 72.5t-19.5 89.5q-5 26 -12.5 56t-21.5 64q0 36 -9 86l-17 17l-17 69q0 29 -8 62.5t-18 74.5zM575 1301l17 77l8 17l9 60l9 35l8 60l9 51l8 26q2 25 9.5 54.5t16.5 64.5l9 35l17 34h154h34h26h34q2 -9 17 -17q0 -107 -43 -257q0 -51 -25 -111v-35 l-9 -34l-17 -86l-9 -25v-34l-8 -69l-17 -34l-9 -52l-9 -42q-1 -26 -7.5 -56t-17.5 -64l-17 -146l-35 -34q-34 62 -34 145v18l-17 17l-34 145l-9 26q-5 70 -34 154q-1 20 -17 43z" />
<glyph unicode="w" horiz-adv-x="1547" d="M27 1757l9 51h265h25h26q49 -105 60 -257l17 -25v-26q0 -13 9 -26v-25l17 -35q0 -45 17 -111v-26l8 -34q4 -37 26 -85l9 -60v-26q0 -12 8 -26l9 -25v-34l42 -137q2 -23 6.5 -46.5t11.5 -48.5q4 -20 9 -43.5t16 -50.5v-68q-19 -58 -25 -154l-9 -17q-9 -24 -9 -69l-8 -34 l-9 -34l-17 -111l-8 -43l-9 -43l-8 -43v-42q-10 1 -21 1q-35 0 -74 -10q-25 31 -42 86q1 8 1 15q0 30 -18 62q1 42 -18 85v26q-6 61 -34 145l-8 34q-1 44 -17 95v42l-18 35q0 53 -25 119v43l-17 34q0 20 -9 43q-5 81 -25 120l-9 86l-17 59v26l-17 77l-9 34l-17 52l-8 60 l-35 162v26zM592 1406q7 79 51 171v43l17 25l17 69l9 34l17 26v34q8 2 17 17q39 -1 85 -26l26 -111v-26l26 -85q16 -37 17 -86q8 -18 14.5 -41.5t10.5 -52.5l9 -34q6 -25 26 -51v-26q-2 -10 8 -17q1 -48 26 -120q1 -20 17 -43q1 -39 26 -102l17 -69q6 -26 25 -51l17 -69 q3 -21 18 -42l8 -60l51 -146q0 -36 -8 -82.5t-17 -105.5l-9 -60v-26l-8 -25v-26l-9 -34v-26l-8 -25l-9 -35l-9 -34v-51l-17 -34h-102l-52 196l-17 77l-8 17l-34 137q-3 61 -35 146l-8 43l-17 34q0 19 -9 43l-8 51l-18 43l-8 51l-17 60q-1 25 -17 51q0 84 -43 180 q-1 33 -9.5 69t-24.5 76q-4 26 -17 60zM1019 1449v10q0 68 26 126q0 46 17 112q4 23 4 46.5t-4 47.5l17 34h265h26q3 -27 3 -56q0 -106 -37 -243v-26l-17 -69q0 -64 -26 -162v-15q0 -57 -26 -122l9 -17q-4 -23 -10 -46t-16 -48v-43v-34l-51 -17l-34 51q1 14 1 29 q0 89 -53 176q-1 17 -5.5 36.5t-11.5 40.5l-8 26l-9 43l-17 34v34l-26 26q-5 17 -17 26z" />
<glyph unicode="x" horiz-adv-x="1249" d="M27 38l2 68q25 37 48.5 87t45.5 114l10 16l18 33l11 51l18 25l10 25l10 42l18 25q9 57 40 126q2 27 19 50l18 34l34 -10q7 -35 20 -78.5t32 -94.5l13 -86q52 -71 52 -149q0 -75 -48 -158q-9 -71 -49 -142q-23 -4 -47 -4q-38 0 -80 9l-146 -11zM75 1749l3 51q44 18 98 18 q38 0 81 -9h9q35 0 77 13q45 -12 91 -63q6 -96 68 -191q3 -74 52 -164q0 -13 17 -18v-10q0 -65 36 -136l6 -52q14 -51 46 -121q2 -18 8.5 -39t13.5 -47l7 -26l8 -17q-1 -11 7 -26l15 -43l16 -44q4 -55 45 -121l-1 -26l24 -43q8 -62 54 -122l-1 -34q8 -19 17.5 -44.5 t20.5 -59.5l24 -43q3 -61 46 -113q3 -77 52 -164l8 -26l-10 -34q-23 4 -46 5t-48 -1l-59 3l-34 1l-60 3l-25 1l-43 2q-40 67 -69 173l-16 27l1 25q-1 8 -16 18q-4 78 -53 155l-7 43l-37 113l-24 52l-15 35l-7 34l-15 43l-15 44l-60 190l-16 17l-8 35l-14 60q-5 23 -15 46.5 t-23 48.5l-14 69l-24 52l-14 61l-23 60q-16 57 -54 139l-7 26q-5 16 -12 33t-19 36q-6 53 -47 105zM611 1529l1 26q54 66 75 167q11 19 23 43.5t24 56.5l264 -11l26 16q39 -29 39 -87q-28 -48 -56 -112t-57 -148l-10 -16l-9 -25l-10 -34l-58 -142l-18 -34l-10 -33l-10 -34 l-10 -34l-27 -41l-26 10q-11 83 -69 173q-3 30 -22 69q1 36 -22 78l-22 86z" />
<glyph unicode="y" horiz-adv-x="1206" d="M24 1772l25 43q32 -5 70 -5t83 5l17 -9h68q9 -2 17 9q14 -8 34 -9q4 -33 14.5 -73t28.5 -88v-25l25 -68l9 -26q-1 -12 8 -26q2 -20 8.5 -43t17.5 -50l8 -51l17 -26q2 -23 11 -53t23 -65q2 -20 8.5 -41.5t17.5 -44.5v-25q-2 -10 8 -17l17 -68q5 -40 34 -85q1 -30 17 -59 q1 -35 26 -86l17 -59l8 -51q4 -10 10 -20.5t16 -21.5q-8 -42 -9 -95q-1 -23 -1 -48q0 -33 1 -70q1 -14 -1.5 -31t-6.5 -37l8 -34l-8 -145l8 -34q4 -18 4 -36q0 -47 -29 -91l8 -17h-263l-51 34q-1 13 -1 27q0 27 3 60q4 49 15 109l-9 16q5 29 7 63t2 73v43v136v93 q-34 72 -51 179l-9 17l-17 17l-17 68l-8 34q-2 44 -34 93v26l-17 42l-9 43l-8 34q-9 12 -9 34q-14 66 -51 145v42l-17 34q-5 29 -17 62t-25 74l-43 136v26zM568 1373q52 80 76 213l34 59l9 34l17 34l17 68l25 25q40 -8 89.5 -8t106.5 8h25h26l25 -8q1 -13 1 -26 q0 -36 -9 -76q-35 -57 -51 -153q-9 -3 -17 -17l-9 -26l-8 -34l-34 -93l-9 -34l-8 -25l-51 -136l8 -34q-14 -7 -25 -26l-43 -110l-8 -52q-23 -26 -60 -42q-11 28 -17.5 59.5t-7.5 68.5l-9 16q1 12 -8 26l-17 68l-26 60v25l-17 17l-8 26l-9 34z" />
<glyph unicode="z" horiz-adv-x="1131" d="M26 43v37v60l9 17l-9 34v86l17 51q62 68 86 179q39 57 59 137l18 26l8 25q19 37 34 94q10 20 25 44t35 50v35q23 36 34 85l18 9l8 25l17 52q33 53 43 128q26 44 51.5 103.5t51.5 135.5q-29 7 -63 8t-74 1h-69h-25h-26l-120 8l-111 9v282l26 51h102h26h145h35l265 -9l51 9 h51h146l51 -17v-197v-34l-9 -17v-34q-26 -31 -45 -72.5t-40 -90.5q-10 -19 -21 -44t-22 -58l-34 -68l-9 -26q-27 -46 -51 -128l-17 -9v-25l-17 -18v-34l-26 -25q-10 -42 -29 -91t-48 -106l-51 -128l-9 -17l-8 -34l-26 -43l-17 -51l-26 -43v-43q44 -10 95.5 -10t110.5 10 q43 -17 94 -17l25 9h35h25h34h35l25 8l17 -26q-3 -20 -3 -42q0 -47 12 -103l-9 -51q0 -13 9 -26l-9 -25l9 -26v-43l-34 -17q-42 -10 -91 -10t-106 10h-94q-26 -2 -56 -2.5t-64 2.5l-17 -8h-6l-62 -9q-2 9 -17 17l-52 -8q-29 6 -62.5 7t-73.5 1h-26h-26h-60h-25l-43 9 q-1 9 -1 20q1 5 1 11z" />
<glyph unicode="{" horiz-adv-x="420" />
<glyph unicode="|" horiz-adv-x="201" />
<glyph unicode="}" horiz-adv-x="360" />
<glyph unicode="~" />
<glyph unicode="&#xa1;" horiz-adv-x="309" />
<glyph unicode="&#xa2;" />
<glyph unicode="&#xa3;" />
<glyph unicode="&#xa4;" horiz-adv-x="420" />
<glyph unicode="&#xa5;" />
<glyph unicode="&#xa6;" horiz-adv-x="201" />
<glyph unicode="&#xa7;" horiz-adv-x="420" />
<glyph unicode="&#xa8;" horiz-adv-x="371" />
<glyph unicode="&#xa9;" horiz-adv-x="714" />
<glyph unicode="&#xaa;" horiz-adv-x="402" />
<glyph unicode="&#xab;" horiz-adv-x="540" />
<glyph unicode="&#xac;" horiz-adv-x="1395" />
<glyph unicode="&#xad;" />
<glyph unicode="&#xae;" horiz-adv-x="747" />
<glyph unicode="&#xaf;" horiz-adv-x="360" />
<glyph unicode="&#xb0;" horiz-adv-x="285" />
<glyph unicode="&#xb1;" />
<glyph unicode="&#xb2;" horiz-adv-x="300" />
<glyph unicode="&#xb3;" horiz-adv-x="300" />
<glyph unicode="&#xb4;" horiz-adv-x="462" />
<glyph unicode="&#xb5;" horiz-adv-x="420" />
<glyph unicode="&#xb6;" horiz-adv-x="450" />
<glyph unicode="&#xb7;" horiz-adv-x="207" />
<glyph unicode="&#xb8;" horiz-adv-x="321" />
<glyph unicode="&#xb9;" horiz-adv-x="300" />
<glyph unicode="&#xba;" horiz-adv-x="402" />
<glyph unicode="&#xbb;" horiz-adv-x="540" />
<glyph unicode="&#xbc;" horiz-adv-x="786" />
<glyph unicode="&#xbd;" horiz-adv-x="786" />
<glyph unicode="&#xbe;" horiz-adv-x="786" />
<glyph unicode="&#xbf;" horiz-adv-x="567" />
<glyph unicode="&#xc0;" horiz-adv-x="609" />
<glyph unicode="&#xc1;" horiz-adv-x="609" />
<glyph unicode="&#xc2;" horiz-adv-x="609" />
<glyph unicode="&#xc3;" horiz-adv-x="609" />
<glyph unicode="&#xc4;" horiz-adv-x="609" />
<glyph unicode="&#xc5;" horiz-adv-x="609" />
<glyph unicode="&#xc6;" horiz-adv-x="819" />
<glyph unicode="&#xc7;" horiz-adv-x="729" />
<glyph unicode="&#xc8;" horiz-adv-x="648" />
<glyph unicode="&#xc9;" horiz-adv-x="648" />
<glyph unicode="&#xca;" horiz-adv-x="648" />
<glyph unicode="&#xcb;" horiz-adv-x="648" />
<glyph unicode="&#xcc;" horiz-adv-x="234" />
<glyph unicode="&#xcd;" horiz-adv-x="234" />
<glyph unicode="&#xce;" horiz-adv-x="234" />
<glyph unicode="&#xcf;" horiz-adv-x="234" />
<glyph unicode="&#xd0;" horiz-adv-x="663" />
<glyph unicode="&#xd1;" horiz-adv-x="612" />
<glyph unicode="&#xd2;" horiz-adv-x="696" />
<glyph unicode="&#xd3;" horiz-adv-x="696" />
<glyph unicode="&#xd4;" horiz-adv-x="696" />
<glyph unicode="&#xd5;" horiz-adv-x="696" />
<glyph unicode="&#xd6;" horiz-adv-x="696" />
<glyph unicode="&#xd7;" />
<glyph unicode="&#xd8;" horiz-adv-x="696" />
<glyph unicode="&#xd9;" horiz-adv-x="660" />
<glyph unicode="&#xda;" horiz-adv-x="660" />
<glyph unicode="&#xdb;" horiz-adv-x="660" />
<glyph unicode="&#xdc;" horiz-adv-x="660" />
<glyph unicode="&#xdd;" horiz-adv-x="526" />
<glyph unicode="&#xde;" horiz-adv-x="576" />
<glyph unicode="&#xdf;" horiz-adv-x="498" />
<glyph unicode="&#xe0;" horiz-adv-x="369" />
<glyph unicode="&#xe1;" horiz-adv-x="369" />
<glyph unicode="&#xe2;" horiz-adv-x="369" />
<glyph unicode="&#xe3;" horiz-adv-x="369" />
<glyph unicode="&#xe4;" horiz-adv-x="369" />
<glyph unicode="&#xe5;" horiz-adv-x="369" />
<glyph unicode="&#xe6;" horiz-adv-x="747" />
<glyph unicode="&#xe7;" horiz-adv-x="510" />
<glyph unicode="&#xe8;" horiz-adv-x="486" />
<glyph unicode="&#xe9;" horiz-adv-x="486" />
<glyph unicode="&#xea;" horiz-adv-x="486" />
<glyph unicode="&#xeb;" horiz-adv-x="486" />
<glyph unicode="&#xec;" horiz-adv-x="234" />
<glyph unicode="&#xed;" horiz-adv-x="234" />
<glyph unicode="&#xee;" horiz-adv-x="234" />
<glyph unicode="&#xef;" horiz-adv-x="234" />
<glyph unicode="&#xf0;" horiz-adv-x="483" />
<glyph unicode="&#xf1;" horiz-adv-x="384" />
<glyph unicode="&#xf2;" horiz-adv-x="366" />
<glyph unicode="&#xf3;" horiz-adv-x="366" />
<glyph unicode="&#xf4;" horiz-adv-x="366" />
<glyph unicode="&#xf5;" horiz-adv-x="366" />
<glyph unicode="&#xf6;" horiz-adv-x="366" />
<glyph unicode="&#xf7;" />
<glyph unicode="&#xf8;" horiz-adv-x="366" />
<glyph unicode="&#xf9;" horiz-adv-x="342" />
<glyph unicode="&#xfa;" horiz-adv-x="342" />
<glyph unicode="&#xfb;" horiz-adv-x="342" />
<glyph unicode="&#xfc;" horiz-adv-x="342" />
<glyph unicode="&#xfd;" horiz-adv-x="393" />
<glyph unicode="&#xfe;" horiz-adv-x="348" />
<glyph unicode="&#xff;" horiz-adv-x="393" />
<glyph unicode="&#x152;" horiz-adv-x="954" />
<glyph unicode="&#x153;" horiz-adv-x="756" />
<glyph unicode="&#x178;" horiz-adv-x="526" />
<glyph unicode="&#x2c6;" horiz-adv-x="360" />
<glyph unicode="&#x2dc;" horiz-adv-x="483" />
<glyph unicode="&#x2013;" horiz-adv-x="684" />
<glyph unicode="&#x2014;" horiz-adv-x="894" />
<glyph unicode="&#x2018;" horiz-adv-x="237" />
<glyph unicode="&#x2019;" horiz-adv-x="240" />
<glyph unicode="&#x201a;" horiz-adv-x="234" />
<glyph unicode="&#x201c;" horiz-adv-x="342" />
<glyph unicode="&#x201d;" horiz-adv-x="300" />
<glyph unicode="&#x201e;" horiz-adv-x="402" />
<glyph unicode="&#x2022;" horiz-adv-x="387" />
<glyph unicode="&#x2026;" horiz-adv-x="792" />
<glyph unicode="&#x2039;" horiz-adv-x="321" />
<glyph unicode="&#x203a;" horiz-adv-x="321" />
<glyph unicode="&#x2122;" horiz-adv-x="681" />
<glyph unicode="&#x2212;" />
<glyph unicode="&#xe000;" horiz-adv-x="1825" d="M0 1825h1825v-1825h-1825v1825z" />
<glyph unicode="&#xfb01;" horiz-adv-x="1674" d="M1156 1619l9 26l-9 51v85l34 25q14 -3 28 -3q27 0 57 12l17 -9q34 9 71 9q51 0 108 -17l17 -136q-9 -26 -9 -68l9 -17v-26v-25v-43v-144v-26v-85v-43v-119v-153v-34v-59v-26v-25v-26v-110v-26v-26v-102v-25v-145v-34v-170v-25v-68q-68 0 -170 -26q-48 18 -105 18 q-15 0 -31 -1l-9 51v485l-8 25l8 43l-8 51l8 43l-8 51q-4 23 -1.5 50.5t9.5 59.5l-8 17v255v34v145q-6 51 -6 117t6 147zM29 13q-3 25 -3 55q0 58 12 133l-9 43l9 26v265v43v1214l34 43h171l26 -9h94q14 0 31 -2t37 -6h26h120l60 8q18 -3 43.5 -3t58.5 3l17 -8h26h43l51 8 l51 -17q9 -44 9 -88q0 -99 -43 -202q-28 -2 -61.5 -0.5t-75.5 8.5l-17 -8l-17 8l-26 -8h-34h-25h-43q-20 0 -44 1.5t-50 6.5l-43 -8l-34 8q-32 -6 -69 -34l-8 -154v-26l8 -68l-8 -43l8 -26l-8 -42q77 -23 175 -23q51 0 107 6l43 -18q5 -35 5 -73.5t-5 -80.5l8 -17v-25v-35 l-34 -59h-154h-60h-34h-34l-26 8v-103v-25v-146v-34v-34v-34v-34v-95v-153v-35v-111l-43 -17q-52 18 -114 18q-43 0 -91 -9l-26 -9z" />
<glyph unicode="&#xfb02;" horiz-adv-x="2238" d="M1154 32v424q1 28 1 64v24q0 26 -1 56q4 30 3.5 66t-3.5 78l8 59l-8 941l17 42l59 8h68q9 -2 17 9q21 3 45 3q51 0 116 -12q24 -90 24 -207q0 -62 -7 -131l8 -34q-4 -18 -4 -39t4 -46l-8 -25q-1 -13 -1 -27q0 -41 9 -92v-25v-26l-8 -51v-59l17 -59q-7 -28 -8 -63.5 t-1 -80.5v-26v-25v-68v-34v-25l9 -51l-9 -59v-51v-59v-51v-60q51 -26 112 -26q36 0 75 9q32 -13 70 -13q23 0 49 5q45 -13 98.5 -13t113.5 13l33 -17q8 -46 8.5 -105t0.5 -132v-26q-15 -7 -34 -13.5t-42 -11.5q-42 8 -90 8h-105h-26h-101h-26h-42h-43h-25h-34h-42h-26h-110 h-34l-34 9h-34l-34 8zM29 13q-3 25 -3 55q0 58 12 133l-9 43l9 26v265v43v1214l34 43h171l26 -9h94q14 0 31 -2t37 -6h26h120l60 8q18 -3 43.5 -3t58.5 3l17 -8h26h43l51 8l51 -17q9 -44 9 -88q0 -99 -43 -202q-28 -2 -61.5 -0.5t-75.5 8.5l-17 -8l-17 8l-26 -8h-34h-25h-43 q-20 0 -44 1.5t-50 6.5l-43 -8l-34 8q-32 -6 -69 -34l-8 -154v-26l8 -68l-8 -43l8 -26l-8 -42q77 -23 175 -23q51 0 107 6l43 -18q5 -35 5 -73.5t-5 -80.5l8 -17v-25v-35l-34 -59h-154h-60h-34h-34l-26 8v-103v-25v-146v-34v-34v-34v-34v-95v-153v-35v-111l-43 -17 q-52 18 -114 18q-43 0 -91 -9l-26 -9z" />
<glyph unicode="&#xfb03;" horiz-adv-x="2799" d="M2281 1619l9 26l-9 51v85l34 25q14 -3 28 -3q27 0 57 12l17 -9q34 9 71 9q51 0 108 -17l17 -136q-9 -26 -9 -68l9 -17v-26v-25v-43v-144v-26v-85v-43v-119v-153v-34v-59v-26v-25v-26v-110v-26v-26v-102v-25v-145v-34v-170v-25v-68q-68 0 -170 -26q-48 18 -105 18 q-15 0 -31 -1l-9 51v485l-8 25l8 43l-8 51l8 43l-8 51q-4 23 -1.5 50.5t9.5 59.5l-8 17v255v34v145q-6 51 -6 117t6 147zM1154 13q-3 25 -3 55q0 58 12 133l-9 43l9 26v265v43v1214l34 43h171l26 -9h94q14 0 31 -2t37 -6h26h120l60 8q18 -3 43.5 -3t58.5 3l17 -8h26h43l51 8 l51 -17q9 -44 9 -88q0 -99 -43 -202q-28 -2 -61.5 -0.5t-75.5 8.5l-17 -8l-17 8l-26 -8h-34h-25h-43q-20 0 -44 1.5t-50 6.5l-43 -8l-34 8q-32 -6 -69 -34l-8 -154v-26l8 -68l-8 -43l8 -26l-8 -42q77 -23 175 -23q51 0 107 6l43 -18q5 -35 5 -73.5t-5 -80.5l8 -17v-25v-35 l-34 -59h-154h-60h-34h-34l-26 8v-103v-25v-146v-34v-34v-34v-34v-95v-153v-35v-111l-43 -17q-52 18 -114 18q-43 0 -91 -9l-26 -9zM29 13q-3 25 -3 55q0 58 12 133l-9 43l9 26v265v43v1214l34 43h171l26 -9h94q14 0 31 -2t37 -6h26h120l60 8q18 -3 43.5 -3t58.5 3l17 -8h26 h43l51 8l51 -17q9 -44 9 -88q0 -99 -43 -202q-28 -2 -61.5 -0.5t-75.5 8.5l-17 -8l-17 8l-26 -8h-34h-25h-43q-20 0 -44 1.5t-50 6.5l-43 -8l-34 8q-32 -6 -69 -34l-8 -154v-26l8 -68l-8 -43l8 -26l-8 -42q77 -23 175 -23q51 0 107 6l43 -18q5 -35 5 -73.5t-5 -80.5l8 -17 v-25v-35l-34 -59h-154h-60h-34h-34l-26 8v-103v-25v-146v-34v-34v-34v-34v-95v-153v-35v-111l-43 -17q-52 18 -114 18q-43 0 -91 -9l-26 -9z" />
<glyph unicode="&#xfb04;" horiz-adv-x="3363" d="M2279 32v424q1 28 1 64v24q0 26 -1 56q4 30 3.5 66t-3.5 78l8 59l-8 941l17 42l59 8h68q9 -2 17 9q21 3 45 3q51 0 116 -12q24 -90 24 -207q0 -62 -7 -131l8 -34q-4 -18 -4 -39t4 -46l-8 -25q-1 -13 -1 -27q0 -41 9 -92v-25v-26l-8 -51v-59l17 -59q-7 -28 -8 -63.5 t-1 -80.5v-26v-25v-68v-34v-25l9 -51l-9 -59v-51v-59v-51v-60q51 -26 112 -26q36 0 75 9q32 -13 70 -13q23 0 49 5q45 -13 98.5 -13t113.5 13l33 -17q8 -46 8.5 -105t0.5 -132v-26q-15 -7 -34 -13.5t-42 -11.5q-42 8 -90 8h-105h-26h-101h-26h-42h-43h-25h-34h-42h-26h-110 h-34l-34 9h-34l-34 8zM1154 13q-3 25 -3 55q0 58 12 133l-9 43l9 26v265v43v1214l34 43h171l26 -9h94q14 0 31 -2t37 -6h26h120l60 8q18 -3 43.5 -3t58.5 3l17 -8h26h43l51 8l51 -17q9 -44 9 -88q0 -99 -43 -202q-28 -2 -61.5 -0.5t-75.5 8.5l-17 -8l-17 8l-26 -8h-34h-25 h-43q-20 0 -44 1.5t-50 6.5l-43 -8l-34 8q-32 -6 -69 -34l-8 -154v-26l8 -68l-8 -43l8 -26l-8 -42q77 -23 175 -23q51 0 107 6l43 -18q5 -35 5 -73.5t-5 -80.5l8 -17v-25v-35l-34 -59h-154h-60h-34h-34l-26 8v-103v-25v-146v-34v-34v-34v-34v-95v-153v-35v-111l-43 -17 q-52 18 -114 18q-43 0 -91 -9l-26 -9zM29 13q-3 25 -3 55q0 58 12 133l-9 43l9 26v265v43v1214l34 43h171l26 -9h94q14 0 31 -2t37 -6h26h120l60 8q18 -3 43.5 -3t58.5 3l17 -8h26h43l51 8l51 -17q9 -44 9 -88q0 -99 -43 -202q-28 -2 -61.5 -0.5t-75.5 8.5l-17 -8l-17 8 l-26 -8h-34h-25h-43q-20 0 -44 1.5t-50 6.5l-43 -8l-34 8q-32 -6 -69 -34l-8 -154v-26l8 -68l-8 -43l8 -26l-8 -42q77 -23 175 -23q51 0 107 6l43 -18q5 -35 5 -73.5t-5 -80.5l8 -17v-25v-35l-34 -59h-154h-60h-34h-34l-26 8v-103v-25v-146v-34v-34v-34v-34v-95v-153v-35 v-111l-43 -17q-52 18 -114 18q-43 0 -91 -9l-26 -9z" />
</font>
</defs>
</svg>
